<?xml version="1.0" encoding="utf-8" standalone="no"?>
<!DOCTYPE svg PUBLIC "-//W3C//DTD SVG 1.1//EN"
  "http://www.w3.org/Graphics/SVG/1.1/DTD/svg11.dtd">
<svg xmlns:xlink="http://www.w3.org/1999/xlink" width="720pt" height="720pt" viewBox="0 0 720 720" xmlns="http://www.w3.org/2000/svg" version="1.1">
 <metadata>
  <rdf:RDF xmlns:dc="http://purl.org/dc/elements/1.1/" xmlns:cc="http://creativecommons.org/ns#" xmlns:rdf="http://www.w3.org/1999/02/22-rdf-syntax-ns#">
   <cc:Work>
    <dc:type rdf:resource="http://purl.org/dc/dcmitype/StillImage"/>
    <dc:date>2025-05-04T11:05:16.240168</dc:date>
    <dc:format>image/svg+xml</dc:format>
    <dc:creator>
     <cc:Agent>
      <dc:title>Matplotlib v3.5.1, https://matplotlib.org/</dc:title>
     </cc:Agent>
    </dc:creator>
   </cc:Work>
  </rdf:RDF>
 </metadata>
 <defs>
  <style type="text/css">*{stroke-linejoin: round; stroke-linecap: butt}</style>
 </defs>
 <g id="figure_1">
  <g id="patch_1">
   <path d="M 0 720 
L 720 720 
L 720 0 
L 0 0 
z
" style="fill: #ffffff"/>
  </g>
  <g id="axes_1">
   <g id="patch_2">
    <path d="M 71.3 323.23 
L 698.4 323.23 
L 698.4 21.6 
L 71.3 21.6 
z
" style="fill: #ffffff"/>
   </g>
   <g id="matplotlib.axis_1">
    <g id="xtick_1">
     <g id="line2d_1">
      <defs>
       <path id="m0baef6047a" d="M 0 0 
L 0 3.5 
" style="stroke: #000000; stroke-width: 0.8"/>
      </defs>
      <g>
       <use xlink:href="#m0baef6047a" x="98.207702" y="323.23" style="stroke: #000000; stroke-width: 0.8"/>
      </g>
     </g>
    </g>
    <g id="xtick_2">
     <g id="line2d_2">
      <g>
       <use xlink:href="#m0baef6047a" x="169.739288" y="323.23" style="stroke: #000000; stroke-width: 0.8"/>
      </g>
     </g>
    </g>
    <g id="xtick_3">
     <g id="line2d_3">
      <g>
       <use xlink:href="#m0baef6047a" x="241.270873" y="323.23" style="stroke: #000000; stroke-width: 0.8"/>
      </g>
     </g>
    </g>
    <g id="xtick_4">
     <g id="line2d_4">
      <g>
       <use xlink:href="#m0baef6047a" x="312.802459" y="323.23" style="stroke: #000000; stroke-width: 0.8"/>
      </g>
     </g>
    </g>
    <g id="xtick_5">
     <g id="line2d_5">
      <g>
       <use xlink:href="#m0baef6047a" x="384.334045" y="323.23" style="stroke: #000000; stroke-width: 0.8"/>
      </g>
     </g>
    </g>
    <g id="xtick_6">
     <g id="line2d_6">
      <g>
       <use xlink:href="#m0baef6047a" x="455.86563" y="323.23" style="stroke: #000000; stroke-width: 0.8"/>
      </g>
     </g>
    </g>
    <g id="xtick_7">
     <g id="line2d_7">
      <g>
       <use xlink:href="#m0baef6047a" x="527.397216" y="323.23" style="stroke: #000000; stroke-width: 0.8"/>
      </g>
     </g>
    </g>
    <g id="xtick_8">
     <g id="line2d_8">
      <g>
       <use xlink:href="#m0baef6047a" x="598.928801" y="323.23" style="stroke: #000000; stroke-width: 0.8"/>
      </g>
     </g>
    </g>
    <g id="xtick_9">
     <g id="line2d_9">
      <g>
       <use xlink:href="#m0baef6047a" x="670.460387" y="323.23" style="stroke: #000000; stroke-width: 0.8"/>
      </g>
     </g>
    </g>
   </g>
   <g id="matplotlib.axis_2">
    <g id="ytick_1">
     <g id="line2d_10">
      <defs>
       <path id="me6c6fb7aae" d="M 0 0 
L -3.5 0 
" style="stroke: #000000; stroke-width: 0.8"/>
      </defs>
      <g>
       <use xlink:href="#me6c6fb7aae" x="71.3" y="261.91177" style="stroke: #000000; stroke-width: 0.8"/>
      </g>
     </g>
     <g id="text_1">
      <!-- 0 -->
      <g transform="translate(54.3 268.85552)scale(0.2 -0.2)">
       <defs>
        <path id="TimesNewRomanPSMT-30" d="M 231 2094 
Q 231 2819 450 3342 
Q 669 3866 1031 4122 
Q 1313 4325 1613 4325 
Q 2100 4325 2488 3828 
Q 2972 3213 2972 2159 
Q 2972 1422 2759 906 
Q 2547 391 2217 158 
Q 1888 -75 1581 -75 
Q 975 -75 572 641 
Q 231 1244 231 2094 
z
M 844 2016 
Q 844 1141 1059 588 
Q 1238 122 1591 122 
Q 1759 122 1940 273 
Q 2122 425 2216 781 
Q 2359 1319 2359 2297 
Q 2359 3022 2209 3506 
Q 2097 3866 1919 4016 
Q 1791 4119 1609 4119 
Q 1397 4119 1231 3928 
Q 1006 3669 925 3112 
Q 844 2556 844 2016 
z
" transform="scale(0.015625)"/>
       </defs>
       <use xlink:href="#TimesNewRomanPSMT-30"/>
      </g>
     </g>
    </g>
    <g id="ytick_2">
     <g id="line2d_11">
      <g>
       <use xlink:href="#me6c6fb7aae" x="71.3" y="181.635379" style="stroke: #000000; stroke-width: 0.8"/>
      </g>
     </g>
     <g id="text_2">
      <!-- 20 -->
      <g transform="translate(44.3 188.579129)scale(0.2 -0.2)">
       <defs>
        <path id="TimesNewRomanPSMT-32" d="M 2934 816 
L 2638 0 
L 138 0 
L 138 116 
Q 1241 1122 1691 1759 
Q 2141 2397 2141 2925 
Q 2141 3328 1894 3587 
Q 1647 3847 1303 3847 
Q 991 3847 742 3664 
Q 494 3481 375 3128 
L 259 3128 
Q 338 3706 661 4015 
Q 984 4325 1469 4325 
Q 1984 4325 2329 3994 
Q 2675 3663 2675 3213 
Q 2675 2891 2525 2569 
Q 2294 2063 1775 1497 
Q 997 647 803 472 
L 1909 472 
Q 2247 472 2383 497 
Q 2519 522 2628 598 
Q 2738 675 2819 816 
L 2934 816 
z
" transform="scale(0.015625)"/>
       </defs>
       <use xlink:href="#TimesNewRomanPSMT-32"/>
       <use xlink:href="#TimesNewRomanPSMT-30" x="50"/>
      </g>
     </g>
    </g>
    <g id="ytick_3">
     <g id="line2d_12">
      <g>
       <use xlink:href="#me6c6fb7aae" x="71.3" y="101.358987" style="stroke: #000000; stroke-width: 0.8"/>
      </g>
     </g>
     <g id="text_3">
      <!-- 40 -->
      <g transform="translate(44.3 108.302737)scale(0.2 -0.2)">
       <defs>
        <path id="TimesNewRomanPSMT-34" d="M 2978 1563 
L 2978 1119 
L 2409 1119 
L 2409 0 
L 1894 0 
L 1894 1119 
L 100 1119 
L 100 1519 
L 2066 4325 
L 2409 4325 
L 2409 1563 
L 2978 1563 
z
M 1894 1563 
L 1894 3666 
L 406 1563 
L 1894 1563 
z
" transform="scale(0.015625)"/>
       </defs>
       <use xlink:href="#TimesNewRomanPSMT-34"/>
       <use xlink:href="#TimesNewRomanPSMT-30" x="50"/>
      </g>
     </g>
    </g>
    <g id="text_4">
     <!-- Reference [deg] -->
     <g transform="translate(35.984375 236.538437)rotate(-90)scale(0.2 -0.2)">
      <defs>
       <path id="TimesNewRomanPSMT-52" d="M 4325 0 
L 3194 0 
L 1759 1981 
Q 1600 1975 1500 1975 
Q 1459 1975 1412 1976 
Q 1366 1978 1316 1981 
L 1316 750 
Q 1316 350 1403 253 
Q 1522 116 1759 116 
L 1925 116 
L 1925 0 
L 109 0 
L 109 116 
L 269 116 
Q 538 116 653 291 
Q 719 388 719 750 
L 719 3488 
Q 719 3888 631 3984 
Q 509 4122 269 4122 
L 109 4122 
L 109 4238 
L 1653 4238 
Q 2328 4238 2648 4139 
Q 2969 4041 3192 3777 
Q 3416 3513 3416 3147 
Q 3416 2756 3161 2468 
Q 2906 2181 2372 2063 
L 3247 847 
Q 3547 428 3762 290 
Q 3978 153 4325 116 
L 4325 0 
z
M 1316 2178 
Q 1375 2178 1419 2176 
Q 1463 2175 1491 2175 
Q 2097 2175 2405 2437 
Q 2713 2700 2713 3106 
Q 2713 3503 2464 3751 
Q 2216 4000 1806 4000 
Q 1625 4000 1316 3941 
L 1316 2178 
z
" transform="scale(0.015625)"/>
       <path id="TimesNewRomanPSMT-65" d="M 681 1784 
Q 678 1147 991 784 
Q 1303 422 1725 422 
Q 2006 422 2214 576 
Q 2422 731 2563 1106 
L 2659 1044 
Q 2594 616 2278 264 
Q 1963 -88 1488 -88 
Q 972 -88 605 314 
Q 238 716 238 1394 
Q 238 2128 614 2539 
Q 991 2950 1559 2950 
Q 2041 2950 2350 2633 
Q 2659 2316 2659 1784 
L 681 1784 
z
M 681 1966 
L 2006 1966 
Q 1991 2241 1941 2353 
Q 1863 2528 1708 2628 
Q 1553 2728 1384 2728 
Q 1125 2728 920 2526 
Q 716 2325 681 1966 
z
" transform="scale(0.015625)"/>
       <path id="TimesNewRomanPSMT-66" d="M 1319 2638 
L 1319 756 
Q 1319 356 1406 250 
Q 1522 113 1716 113 
L 1975 113 
L 1975 0 
L 266 0 
L 266 113 
L 394 113 
Q 519 113 622 175 
Q 725 238 764 344 
Q 803 450 803 756 
L 803 2638 
L 247 2638 
L 247 2863 
L 803 2863 
L 803 3050 
Q 803 3478 940 3775 
Q 1078 4072 1361 4255 
Q 1644 4438 1997 4438 
Q 2325 4438 2600 4225 
Q 2781 4084 2781 3909 
Q 2781 3816 2700 3733 
Q 2619 3650 2525 3650 
Q 2453 3650 2373 3701 
Q 2294 3753 2178 3923 
Q 2063 4094 1966 4153 
Q 1869 4213 1750 4213 
Q 1606 4213 1506 4136 
Q 1406 4059 1362 3898 
Q 1319 3738 1319 3069 
L 1319 2863 
L 2056 2863 
L 2056 2638 
L 1319 2638 
z
" transform="scale(0.015625)"/>
       <path id="TimesNewRomanPSMT-72" d="M 1038 2947 
L 1038 2303 
Q 1397 2947 1775 2947 
Q 1947 2947 2059 2842 
Q 2172 2738 2172 2600 
Q 2172 2478 2090 2393 
Q 2009 2309 1897 2309 
Q 1788 2309 1652 2417 
Q 1516 2525 1450 2525 
Q 1394 2525 1328 2463 
Q 1188 2334 1038 2041 
L 1038 669 
Q 1038 431 1097 309 
Q 1138 225 1241 169 
Q 1344 113 1538 113 
L 1538 0 
L 72 0 
L 72 113 
Q 291 113 397 181 
Q 475 231 506 341 
Q 522 394 522 644 
L 522 1753 
Q 522 2253 501 2348 
Q 481 2444 426 2487 
Q 372 2531 291 2531 
Q 194 2531 72 2484 
L 41 2597 
L 906 2947 
L 1038 2947 
z
" transform="scale(0.015625)"/>
       <path id="TimesNewRomanPSMT-6e" d="M 1034 2341 
Q 1538 2947 1994 2947 
Q 2228 2947 2397 2830 
Q 2566 2713 2666 2444 
Q 2734 2256 2734 1869 
L 2734 647 
Q 2734 375 2778 278 
Q 2813 200 2889 156 
Q 2966 113 3172 113 
L 3172 0 
L 1756 0 
L 1756 113 
L 1816 113 
Q 2016 113 2095 173 
Q 2175 234 2206 353 
Q 2219 400 2219 647 
L 2219 1819 
Q 2219 2209 2117 2386 
Q 2016 2563 1775 2563 
Q 1403 2563 1034 2156 
L 1034 647 
Q 1034 356 1069 288 
Q 1113 197 1189 155 
Q 1266 113 1500 113 
L 1500 0 
L 84 0 
L 84 113 
L 147 113 
Q 366 113 442 223 
Q 519 334 519 647 
L 519 1709 
Q 519 2225 495 2337 
Q 472 2450 423 2490 
Q 375 2531 294 2531 
Q 206 2531 84 2484 
L 38 2597 
L 900 2947 
L 1034 2947 
L 1034 2341 
z
" transform="scale(0.015625)"/>
       <path id="TimesNewRomanPSMT-63" d="M 2631 1088 
Q 2516 522 2178 217 
Q 1841 -88 1431 -88 
Q 944 -88 581 321 
Q 219 731 219 1428 
Q 219 2103 620 2525 
Q 1022 2947 1584 2947 
Q 2006 2947 2278 2723 
Q 2550 2500 2550 2259 
Q 2550 2141 2473 2067 
Q 2397 1994 2259 1994 
Q 2075 1994 1981 2113 
Q 1928 2178 1911 2362 
Q 1894 2547 1784 2644 
Q 1675 2738 1481 2738 
Q 1169 2738 978 2506 
Q 725 2200 725 1697 
Q 725 1184 976 792 
Q 1228 400 1656 400 
Q 1963 400 2206 609 
Q 2378 753 2541 1131 
L 2631 1088 
z
" transform="scale(0.015625)"/>
       <path id="TimesNewRomanPSMT-20" transform="scale(0.015625)"/>
       <path id="TimesNewRomanPSMT-5b" d="M 1900 -1269 
L 525 -1269 
L 525 4334 
L 1900 4334 
L 1900 4088 
L 994 4088 
L 994 -1025 
L 1900 -1025 
L 1900 -1269 
z
" transform="scale(0.015625)"/>
       <path id="TimesNewRomanPSMT-64" d="M 2222 322 
Q 2013 103 1813 7 
Q 1613 -88 1381 -88 
Q 913 -88 563 304 
Q 213 697 213 1313 
Q 213 1928 600 2439 
Q 988 2950 1597 2950 
Q 1975 2950 2222 2709 
L 2222 3238 
Q 2222 3728 2198 3840 
Q 2175 3953 2125 3993 
Q 2075 4034 2000 4034 
Q 1919 4034 1784 3984 
L 1744 4094 
L 2597 4444 
L 2738 4444 
L 2738 1134 
Q 2738 631 2761 520 
Q 2784 409 2836 365 
Q 2888 322 2956 322 
Q 3041 322 3181 375 
L 3216 266 
L 2366 -88 
L 2222 -88 
L 2222 322 
z
M 2222 541 
L 2222 2016 
Q 2203 2228 2109 2403 
Q 2016 2578 1861 2667 
Q 1706 2756 1559 2756 
Q 1284 2756 1069 2509 
Q 784 2184 784 1559 
Q 784 928 1059 592 
Q 1334 256 1672 256 
Q 1956 256 2222 541 
z
" transform="scale(0.015625)"/>
       <path id="TimesNewRomanPSMT-67" d="M 966 1044 
Q 703 1172 562 1401 
Q 422 1631 422 1909 
Q 422 2334 742 2640 
Q 1063 2947 1563 2947 
Q 1972 2947 2272 2747 
L 2878 2747 
Q 3013 2747 3034 2739 
Q 3056 2731 3066 2713 
Q 3084 2684 3084 2613 
Q 3084 2531 3069 2500 
Q 3059 2484 3036 2475 
Q 3013 2466 2878 2466 
L 2506 2466 
Q 2681 2241 2681 1891 
Q 2681 1491 2375 1206 
Q 2069 922 1553 922 
Q 1341 922 1119 984 
Q 981 866 932 777 
Q 884 688 884 625 
Q 884 572 936 522 
Q 988 472 1138 450 
Q 1225 438 1575 428 
Q 2219 413 2409 384 
Q 2700 344 2873 169 
Q 3047 -6 3047 -263 
Q 3047 -616 2716 -925 
Q 2228 -1381 1444 -1381 
Q 841 -1381 425 -1109 
Q 191 -953 191 -784 
Q 191 -709 225 -634 
Q 278 -519 444 -313 
Q 466 -284 763 25 
Q 600 122 533 198 
Q 466 275 466 372 
Q 466 481 555 628 
Q 644 775 966 1044 
z
M 1509 2797 
Q 1278 2797 1122 2612 
Q 966 2428 966 2047 
Q 966 1553 1178 1281 
Q 1341 1075 1591 1075 
Q 1828 1075 1981 1253 
Q 2134 1431 2134 1813 
Q 2134 2309 1919 2591 
Q 1759 2797 1509 2797 
z
M 934 0 
Q 788 -159 713 -296 
Q 638 -434 638 -550 
Q 638 -700 819 -813 
Q 1131 -1006 1722 -1006 
Q 2284 -1006 2551 -807 
Q 2819 -609 2819 -384 
Q 2819 -222 2659 -153 
Q 2497 -84 2016 -72 
Q 1313 -53 934 0 
z
" transform="scale(0.015625)"/>
       <path id="TimesNewRomanPSMT-5d" d="M 234 4334 
L 1609 4334 
L 1609 -1272 
L 234 -1272 
L 234 -1025 
L 1141 -1025 
L 1141 4088 
L 234 4088 
L 234 4334 
z
" transform="scale(0.015625)"/>
      </defs>
      <use xlink:href="#TimesNewRomanPSMT-52"/>
      <use xlink:href="#TimesNewRomanPSMT-65" x="66.699219"/>
      <use xlink:href="#TimesNewRomanPSMT-66" x="111.083984"/>
      <use xlink:href="#TimesNewRomanPSMT-65" x="144.384766"/>
      <use xlink:href="#TimesNewRomanPSMT-72" x="188.769531"/>
      <use xlink:href="#TimesNewRomanPSMT-65" x="222.070312"/>
      <use xlink:href="#TimesNewRomanPSMT-6e" x="266.455078"/>
      <use xlink:href="#TimesNewRomanPSMT-63" x="316.455078"/>
      <use xlink:href="#TimesNewRomanPSMT-65" x="360.839844"/>
      <use xlink:href="#TimesNewRomanPSMT-20" x="405.224609"/>
      <use xlink:href="#TimesNewRomanPSMT-5b" x="430.224609"/>
      <use xlink:href="#TimesNewRomanPSMT-64" x="463.525391"/>
      <use xlink:href="#TimesNewRomanPSMT-65" x="513.525391"/>
      <use xlink:href="#TimesNewRomanPSMT-67" x="557.910156"/>
      <use xlink:href="#TimesNewRomanPSMT-5d" x="607.910156"/>
     </g>
    </g>
   </g>
   <g id="line2d_13">
    <path d="M 99.804545 272.392465 
L 101.6042 272.240309 
L 103.414292 271.876719 
L 105.225817 271.138132 
L 107.035336 270.708914 
L 108.840851 268.677223 
L 110.647307 267.678897 
L 112.461642 265.928575 
L 114.274026 264.960244 
L 116.061326 263.706101 
L 117.840332 261.478095 
L 121.408138 255.465426 
L 123.18771 249.949616 
L 124.959688 246.507217 
L 126.743687 244.131884 
L 128.526642 233.478738 
L 130.310504 224.089978 
L 132.095001 208.461048 
L 133.882308 198.953976 
L 135.66804 187.300864 
L 137.447482 180.439208 
L 139.245779 175.03816 
L 141.061553 168.054464 
L 142.859987 165.906163 
L 146.45122 165.318688 
L 148.226179 164.297958 
L 150.021236 163.620271 
L 151.815188 163.135329 
L 153.625444 159.707325 
L 155.427643 155.055907 
L 157.235661 150.911441 
L 159.023889 143.541043 
L 160.797881 138.777082 
L 162.574096 135.07005 
L 164.372332 134.095362 
L 166.155839 134.320138 
L 167.935104 133.650631 
L 169.707983 133.211755 
L 171.492357 131.809969 
L 173.295484 128.831352 
L 175.092096 126.958008 
L 178.657999 122.255258 
L 180.444706 119.981632 
L 182.220116 118.774852 
L 184.005595 117.396662 
L 185.799117 115.047592 
L 187.581929 115.990386 
L 189.311128 117.801137 
L 191.117284 118.396165 
L 192.903698 120.658083 
L 194.70222 121.409522 
L 196.510232 123.075277 
L 198.319601 123.4032 
L 200.130116 123.901999 
L 203.75532 124.619415 
L 205.566497 124.467332 
L 207.368546 124.831763 
L 209.176742 126.309847 
L 210.987277 127.992619 
L 212.785984 128.577857 
L 214.578469 129.969348 
L 216.357952 130.298107 
L 218.1412 131.683895 
L 219.933753 131.97215 
L 221.73085 131.397814 
L 223.501887 130.982063 
L 225.304584 130.360137 
L 227.142516 128.154957 
L 228.952533 125.08668 
L 230.757768 116.800039 
L 232.564081 109.435153 
L 234.367856 89.505042 
L 237.973326 69.158294 
L 239.774986 51.462971 
L 241.579566 41.631445 
L 245.133286 35.310455 
L 246.903927 36.88161 
L 248.677782 42.738047 
L 250.452155 44.187293 
L 252.228957 50.703232 
L 254.009975 66.205299 
L 255.821847 79.801168 
L 257.623964 91.629892 
L 259.428995 98.003099 
L 261.236099 100.405972 
L 263.039963 101.156614 
L 264.841261 101.647765 
L 266.650603 101.172739 
L 268.461944 103.306711 
L 270.266503 106.24383 
L 272.067338 111.144953 
L 273.869831 113.046544 
L 275.67568 113.809986 
L 277.482886 114.336906 
L 279.289424 114.331845 
L 281.09779 115.002989 
L 282.90074 111.381219 
L 284.70755 108.536467 
L 286.509259 106.018329 
L 288.310762 103.842726 
L 290.118801 102.717337 
L 291.923408 104.684416 
L 293.731276 106.037164 
L 295.539042 107.158208 
L 297.353289 110.11072 
L 299.158428 110.988535 
L 300.965866 111.642129 
L 306.38915 111.783159 
L 308.200245 112.344435 
L 311.815176 114.321595 
L 313.62209 114.636109 
L 317.231857 116.145842 
L 319.035072 116.795067 
L 320.831992 117.959406 
L 322.632697 118.408284 
L 324.440401 117.929356 
L 326.250514 117.083909 
L 328.053041 115.945885 
L 329.62465 113.526326 
L 331.430731 111.368281 
L 335.037735 106.369719 
L 336.819456 104.209712 
L 338.61426 98.232162 
L 340.413055 99.391548 
L 342.216059 110.148612 
L 343.985685 121.913235 
L 345.770209 117.770075 
L 347.557325 128.924021 
L 349.351631 135.412155 
L 351.15173 140.273786 
L 352.957667 143.369312 
L 356.565436 155.573022 
L 358.366475 164.948077 
L 360.171273 170.971541 
L 361.978262 178.223659 
L 363.785168 184.268674 
L 365.580716 193.726005 
L 367.381871 200.273419 
L 370.995043 210.562134 
L 372.793831 214.040662 
L 374.580613 219.607305 
L 376.365492 223.525519 
L 378.148235 225.429292 
L 379.934151 228.329388 
L 381.736814 230.73779 
L 383.537363 234.562339 
L 387.118956 239.385691 
L 388.92078 241.499096 
L 390.719691 242.162909 
L 392.525083 243.057597 
L 396.139121 243.109312 
L 399.740381 243.480305 
L 403.349432 243.518202 
L 405.150895 243.791807 
L 406.955202 272.392465 
L 408.766952 272.392465 
L 410.567834 272.240309 
L 412.351642 271.876719 
L 414.125619 271.138132 
L 415.899522 270.708914 
L 417.687198 268.677223 
L 419.462055 267.678897 
L 421.23327 265.928575 
L 423.008544 264.960244 
L 424.784595 263.706101 
L 426.55641 261.478095 
L 430.106664 255.465426 
L 431.898794 249.949616 
L 433.701226 246.507217 
L 435.505656 244.131884 
L 437.313633 233.478738 
L 439.120539 224.089978 
L 440.917561 208.461048 
L 442.722932 198.953976 
L 444.527055 187.300864 
L 446.330523 180.439208 
L 448.129148 175.03816 
L 449.934853 168.054464 
L 451.738485 165.906163 
L 455.356507 165.318688 
L 457.159654 164.297958 
L 458.937466 163.620271 
L 460.739651 163.135329 
L 462.54814 159.707325 
L 464.34654 155.055907 
L 466.1435 150.911441 
L 467.945501 143.541043 
L 469.752537 138.777082 
L 471.552519 135.07005 
L 473.352195 134.095362 
L 475.1523 134.320138 
L 476.954158 133.650631 
L 478.758758 133.211755 
L 480.563086 131.809969 
L 482.368935 128.831352 
L 484.171066 126.958008 
L 487.778405 122.255258 
L 489.57046 119.981632 
L 491.375531 118.774852 
L 493.183624 117.396662 
L 494.984991 115.047592 
L 496.779871 115.990386 
L 498.561523 117.801137 
L 500.333017 118.396165 
L 502.116463 120.658083 
L 503.912107 121.409522 
L 505.719368 123.075277 
L 507.518545 123.4032 
L 509.322341 123.901999 
L 512.926685 124.619415 
L 514.72829 124.467332 
L 516.533614 124.831763 
L 518.331263 126.309847 
L 520.135236 127.992619 
L 521.945274 128.577857 
L 523.750481 129.969348 
L 525.560103 130.298107 
L 527.36473 131.683895 
L 529.171323 131.97215 
L 530.975692 131.397814 
L 532.780681 130.982063 
L 534.580704 130.360137 
L 536.385045 128.154957 
L 538.192286 125.08668 
L 539.998394 116.800039 
L 541.797762 109.435153 
L 543.603898 89.505042 
L 545.40551 79.01602 
L 547.211809 69.158294 
L 549.019664 51.462971 
L 550.826611 41.631445 
L 554.446195 35.310455 
L 556.249322 36.88161 
L 558.054816 42.738047 
L 559.86396 44.187293 
L 561.664692 50.703232 
L 563.469668 66.205299 
L 565.275401 79.801168 
L 567.077607 91.629892 
L 568.882071 98.003099 
L 570.689571 100.405972 
L 572.495911 101.156614 
L 574.298697 101.647765 
L 576.103161 101.172739 
L 577.910709 103.306711 
L 579.715343 106.24383 
L 581.524985 111.144953 
L 583.329129 113.046544 
L 585.13332 113.809986 
L 586.935512 114.336906 
L 588.739819 114.331845 
L 590.543472 115.002989 
L 592.349948 111.381219 
L 594.153689 108.536467 
L 595.960445 106.018329 
L 597.760571 103.842726 
L 599.565492 102.717337 
L 601.368148 104.684416 
L 603.16004 106.037164 
L 604.965595 107.158208 
L 606.774043 110.11072 
L 608.580104 110.988535 
L 610.389255 111.642129 
L 615.804918 111.783159 
L 617.595248 112.344435 
L 621.197586 114.321595 
L 623.001634 114.636109 
L 626.599306 116.145842 
L 628.406943 116.795067 
L 630.216482 117.959406 
L 632.02392 118.408284 
L 633.828084 117.929356 
L 635.632999 117.083909 
L 637.441713 115.945885 
L 639.245208 113.526326 
L 641.046766 111.368281 
L 644.64993 106.369719 
L 646.453555 104.209712 
L 648.259063 98.232162 
L 650.065505 99.391548 
L 651.868271 110.148612 
L 653.674283 121.913235 
L 655.484703 117.770075 
L 657.290013 128.924021 
L 659.092915 135.412155 
L 660.894752 140.273786 
L 662.703657 143.369312 
L 666.317299 155.573022 
L 668.121968 164.948077 
L 669.895455 170.971541 
L 669.895455 170.971541 
" clip-path="url(#pc1405a5a86)" style="fill: none; stroke: #1f77b4; stroke-width: 1.5; stroke-linecap: square"/>
   </g>
   <g id="line2d_14">
    <path d="M 99.804545 246.685789 
L 107.035336 246.757788 
L 110.647307 247.610585 
L 112.461642 249.597485 
L 114.274026 253.250722 
L 117.840332 258.889955 
L 121.408138 259.720685 
L 124.959688 258.59314 
L 126.743687 257.481274 
L 130.310504 239.03555 
L 132.095001 233.511712 
L 133.882308 233.160699 
L 135.66804 237.967729 
L 139.245779 246.213787 
L 141.061553 253.44013 
L 142.859987 256.615969 
L 144.64784 263.571357 
L 146.45122 266.779141 
L 148.226179 269.477344 
L 150.021236 268.959232 
L 151.815188 266.791313 
L 153.625444 265.304345 
L 155.427643 258.121626 
L 159.023889 236.374793 
L 160.797881 231.016951 
L 162.574096 229.166868 
L 164.372332 229.646478 
L 166.155839 232.55159 
L 167.935104 240.652301 
L 169.707983 245.012508 
L 171.492357 247.984989 
L 173.295484 249.058104 
L 175.092096 249.48405 
L 176.871572 251.883099 
L 178.657999 255.298229 
L 180.444706 253.15593 
L 184.005595 254.728694 
L 187.581929 258.436208 
L 189.311128 257.954957 
L 191.117284 259.434538 
L 192.903698 259.750613 
L 194.70222 260.759688 
L 196.510232 261.953884 
L 198.319601 262.829548 
L 200.130116 262.888435 
L 201.94692 263.525211 
L 203.75532 263.75962 
L 205.566497 264.459461 
L 207.368546 264.987826 
L 209.176742 265.765496 
L 210.987277 266.761235 
L 214.578469 267.993981 
L 216.357952 269.636558 
L 218.1412 272.554935 
L 221.73085 282.822737 
L 223.501887 286.55414 
L 225.304584 285.888285 
L 227.142516 288.099287 
L 228.952533 286.913889 
L 230.757768 286.278153 
L 232.564081 284.556433 
L 234.367856 272.27486 
L 237.973326 242.147882 
L 239.774986 220.01058 
L 241.579566 211.269615 
L 243.359438 206.780259 
L 245.133286 205.53144 
L 246.903927 206.163 
L 248.677782 211.231516 
L 250.452155 215.109256 
L 252.228957 217.329641 
L 254.009975 226.937971 
L 255.821847 234.548482 
L 257.623964 241.342296 
L 259.428995 248.976465 
L 261.236099 258.242825 
L 263.039963 264.909714 
L 264.841261 276.277959 
L 266.650603 280.933436 
L 268.461944 291.363915 
L 270.266503 296.345023 
L 272.067338 299.557512 
L 273.869831 298.40614 
L 275.67568 294.965333 
L 277.482886 293.657507 
L 279.289424 285.480071 
L 281.09779 275.132066 
L 282.90074 259.254469 
L 284.70755 250.421549 
L 286.509259 237.84727 
L 288.310762 229.042863 
L 290.118801 223.168378 
L 291.923408 221.657441 
L 295.539042 224.631999 
L 297.353289 228.511363 
L 299.158428 230.023612 
L 300.965866 245.053143 
L 302.776879 254.278127 
L 304.578581 261.158116 
L 306.38915 271.857125 
L 308.200245 276.494793 
L 310.01033 278.560614 
L 311.815176 278.74845 
L 313.62209 277.808948 
L 315.427693 275.32566 
L 317.231857 274.872236 
L 319.035072 269.794706 
L 320.831992 266.812517 
L 322.632697 264.956714 
L 324.440401 265.315131 
L 326.250514 266.586215 
L 328.053041 269.448703 
L 331.430731 282.897017 
L 333.23643 290.372607 
L 335.037735 294.350734 
L 336.819456 295.50001 
L 338.61426 295.522885 
L 340.413055 296.006352 
L 342.216059 298.341516 
L 343.985685 301.061036 
L 345.770209 303.135373 
L 347.557325 307.933808 
L 349.351631 309.519545 
L 351.15173 301.723625 
L 352.957667 293.068725 
L 354.763659 283.865216 
L 356.565436 263.761405 
L 358.366475 259.11486 
L 360.171273 255.943211 
L 361.978262 253.927936 
L 363.785168 254.388578 
L 365.580716 260.323784 
L 369.187434 269.10993 
L 370.995043 269.838219 
L 372.793831 272.249117 
L 374.580613 274.227486 
L 376.365492 273.15811 
L 379.934151 270.199021 
L 381.736814 268.459765 
L 383.537363 267.052014 
L 385.326041 267.132888 
L 387.118956 268.809496 
L 388.92078 269.595307 
L 390.719691 270.862261 
L 392.525083 271.316625 
L 394.33332 270.256925 
L 396.139121 269.970654 
L 397.939342 269.873178 
L 403.349432 269.994465 
L 405.150895 269.449955 
L 406.955202 246.685789 
L 415.899522 246.757788 
L 419.462055 247.610585 
L 421.23327 249.597485 
L 423.008544 253.250722 
L 426.55641 258.889955 
L 430.106664 259.720685 
L 433.701226 258.59314 
L 435.505656 257.481274 
L 439.120539 239.03555 
L 440.917561 233.511712 
L 442.722932 233.160699 
L 444.527055 237.967729 
L 446.330523 241.950668 
L 448.129148 246.213787 
L 449.934853 253.44013 
L 451.738485 256.615969 
L 453.548379 263.571357 
L 455.356507 266.779141 
L 457.159654 269.477344 
L 458.937466 268.959232 
L 460.739651 266.791313 
L 462.54814 265.304345 
L 464.34654 258.121626 
L 467.945501 236.374793 
L 469.752537 231.016951 
L 471.552519 229.166868 
L 473.352195 229.646478 
L 475.1523 232.55159 
L 476.954158 240.652301 
L 478.758758 245.012508 
L 480.563086 247.984989 
L 482.368935 249.058104 
L 484.171066 249.48405 
L 485.969288 251.883099 
L 487.778405 255.298229 
L 489.57046 253.15593 
L 493.183624 254.728694 
L 496.779871 258.436208 
L 498.561523 257.954957 
L 500.333017 259.434538 
L 502.116463 259.750613 
L 503.912107 260.759688 
L 505.719368 261.953884 
L 507.518545 262.829548 
L 509.322341 262.888435 
L 511.122719 263.525211 
L 512.926685 263.75962 
L 514.72829 264.459461 
L 516.533614 264.987826 
L 518.331263 265.765496 
L 520.135236 266.761235 
L 523.750481 267.993981 
L 525.560103 269.636558 
L 527.36473 272.554935 
L 530.975692 282.822737 
L 532.780681 286.55414 
L 534.580704 285.888285 
L 536.385045 288.099287 
L 538.192286 286.913889 
L 539.998394 286.278153 
L 541.797762 284.556433 
L 543.603898 272.27486 
L 547.211809 242.147882 
L 549.019664 220.01058 
L 550.826611 211.269615 
L 552.638934 206.780259 
L 554.446195 205.53144 
L 556.249322 206.163 
L 558.054816 211.231516 
L 559.86396 215.109256 
L 561.664692 217.329641 
L 563.469668 226.937971 
L 565.275401 234.548482 
L 567.077607 241.342296 
L 568.882071 248.976465 
L 570.689571 258.242825 
L 572.495911 264.909714 
L 574.298697 276.277959 
L 576.103161 280.933436 
L 577.910709 291.363915 
L 579.715343 296.345023 
L 581.524985 299.557512 
L 583.329129 298.40614 
L 585.13332 294.965333 
L 586.935512 293.657507 
L 588.739819 285.480071 
L 590.543472 275.132066 
L 592.349948 259.254469 
L 594.153689 250.421549 
L 595.960445 237.84727 
L 597.760571 229.042863 
L 599.565492 223.168378 
L 601.368148 221.657441 
L 603.16004 223.215532 
L 604.965595 224.631999 
L 606.774043 228.511363 
L 608.580104 230.023612 
L 610.389255 245.053143 
L 612.196468 254.278127 
L 614.001662 261.158116 
L 615.804918 271.857125 
L 617.595248 276.494793 
L 619.398061 278.560614 
L 621.197586 278.74845 
L 623.001634 277.808948 
L 624.803533 275.32566 
L 626.599306 274.872236 
L 628.406943 269.794706 
L 630.216482 266.812517 
L 632.02392 264.956714 
L 633.828084 265.315131 
L 635.632999 266.586215 
L 637.441713 269.448703 
L 639.245208 275.538272 
L 642.843945 290.372607 
L 644.64993 294.350734 
L 646.453555 295.50001 
L 648.259063 295.522885 
L 650.065505 296.006352 
L 651.868271 298.341516 
L 653.674283 301.061036 
L 655.484703 303.135373 
L 657.290013 307.933808 
L 659.092915 309.519545 
L 660.894752 301.723625 
L 662.703657 293.068725 
L 664.511437 283.865216 
L 666.317299 263.761405 
L 668.121968 259.11486 
L 669.895455 255.943211 
L 669.895455 255.943211 
" clip-path="url(#pc1405a5a86)" style="fill: none; stroke: #ff7f0e; stroke-width: 1.5; stroke-linecap: square"/>
   </g>
   <g id="patch_3">
    <path d="M 71.3 323.23 
L 71.3 21.6 
" style="fill: none; stroke: #000000; stroke-width: 0.8; stroke-linejoin: miter; stroke-linecap: square"/>
   </g>
   <g id="patch_4">
    <path d="M 698.4 323.23 
L 698.4 21.6 
" style="fill: none; stroke: #000000; stroke-width: 0.8; stroke-linejoin: miter; stroke-linecap: square"/>
   </g>
   <g id="patch_5">
    <path d="M 71.3 323.23 
L 698.4 323.23 
" style="fill: none; stroke: #000000; stroke-width: 0.8; stroke-linejoin: miter; stroke-linecap: square"/>
   </g>
   <g id="patch_6">
    <path d="M 71.3 21.6 
L 698.4 21.6 
" style="fill: none; stroke: #000000; stroke-width: 0.8; stroke-linejoin: miter; stroke-linecap: square"/>
   </g>
   <g id="legend_1">
    <g id="patch_7">
     <path d="M 85.3 94.23125 
L 198.178125 94.23125 
Q 202.178125 94.23125 202.178125 90.23125 
L 202.178125 35.6 
Q 202.178125 31.6 198.178125 31.6 
L 85.3 31.6 
Q 81.3 31.6 81.3 35.6 
L 81.3 90.23125 
Q 81.3 94.23125 85.3 94.23125 
z
" style="fill: #ffffff; opacity: 0.8; stroke: #cccccc; stroke-linejoin: miter"/>
    </g>
    <g id="line2d_15">
     <path d="M 89.3 46.6 
L 109.3 46.6 
L 129.3 46.6 
" style="fill: none; stroke: #1f77b4; stroke-width: 1.5; stroke-linecap: square"/>
    </g>
    <g id="text_5">
     <!-- Ref_1 -->
     <g transform="translate(145.3 53.6)scale(0.2 -0.2)">
      <defs>
       <path id="TimesNewRomanPSMT-5f" d="M 3256 -1381 
L -53 -1381 
L -53 -1119 
L 3256 -1119 
L 3256 -1381 
z
" transform="scale(0.015625)"/>
       <path id="TimesNewRomanPSMT-31" d="M 750 3822 
L 1781 4325 
L 1884 4325 
L 1884 747 
Q 1884 391 1914 303 
Q 1944 216 2037 169 
Q 2131 122 2419 116 
L 2419 0 
L 825 0 
L 825 116 
Q 1125 122 1212 167 
Q 1300 213 1334 289 
Q 1369 366 1369 747 
L 1369 3034 
Q 1369 3497 1338 3628 
Q 1316 3728 1258 3775 
Q 1200 3822 1119 3822 
Q 1003 3822 797 3725 
L 750 3822 
z
" transform="scale(0.015625)"/>
      </defs>
      <use xlink:href="#TimesNewRomanPSMT-52"/>
      <use xlink:href="#TimesNewRomanPSMT-65" x="66.699219"/>
      <use xlink:href="#TimesNewRomanPSMT-66" x="111.083984"/>
      <use xlink:href="#TimesNewRomanPSMT-5f" x="144.384766"/>
      <use xlink:href="#TimesNewRomanPSMT-31" x="194.384766"/>
     </g>
    </g>
    <g id="line2d_16">
     <path d="M 89.3 74.915625 
L 109.3 74.915625 
L 129.3 74.915625 
" style="fill: none; stroke: #ff7f0e; stroke-width: 1.5; stroke-linecap: square"/>
    </g>
    <g id="text_6">
     <!-- Ref_2 -->
     <g transform="translate(145.3 81.915625)scale(0.2 -0.2)">
      <use xlink:href="#TimesNewRomanPSMT-52"/>
      <use xlink:href="#TimesNewRomanPSMT-65" x="66.699219"/>
      <use xlink:href="#TimesNewRomanPSMT-66" x="111.083984"/>
      <use xlink:href="#TimesNewRomanPSMT-5f" x="144.384766"/>
      <use xlink:href="#TimesNewRomanPSMT-32" x="194.384766"/>
     </g>
    </g>
   </g>
  </g>
  <g id="axes_2">
   <g id="patch_8">
    <path d="M 71.3 649.96 
L 698.4 649.96 
L 698.4 348.33 
L 71.3 348.33 
z
" style="fill: #ffffff"/>
   </g>
   <g id="matplotlib.axis_3">
    <g id="xtick_10">
     <g id="line2d_17">
      <g>
       <use xlink:href="#m0baef6047a" x="98.207702" y="649.96" style="stroke: #000000; stroke-width: 0.8"/>
      </g>
     </g>
     <g id="text_7">
      <!-- 0.0 -->
      <g transform="translate(85.707702 670.8475)scale(0.2 -0.2)">
       <defs>
        <path id="TimesNewRomanPSMT-2e" d="M 800 606 
Q 947 606 1047 504 
Q 1147 403 1147 259 
Q 1147 116 1045 14 
Q 944 -88 800 -88 
Q 656 -88 554 14 
Q 453 116 453 259 
Q 453 406 554 506 
Q 656 606 800 606 
z
" transform="scale(0.015625)"/>
       </defs>
       <use xlink:href="#TimesNewRomanPSMT-30"/>
       <use xlink:href="#TimesNewRomanPSMT-2e" x="50"/>
       <use xlink:href="#TimesNewRomanPSMT-30" x="75"/>
      </g>
     </g>
    </g>
    <g id="xtick_11">
     <g id="line2d_18">
      <g>
       <use xlink:href="#m0baef6047a" x="169.739288" y="649.96" style="stroke: #000000; stroke-width: 0.8"/>
      </g>
     </g>
     <g id="text_8">
      <!-- 2.5 -->
      <g transform="translate(157.239288 670.8475)scale(0.2 -0.2)">
       <defs>
        <path id="TimesNewRomanPSMT-35" d="M 2778 4238 
L 2534 3706 
L 1259 3706 
L 981 3138 
Q 1809 3016 2294 2522 
Q 2709 2097 2709 1522 
Q 2709 1188 2573 903 
Q 2438 619 2231 419 
Q 2025 219 1772 97 
Q 1413 -75 1034 -75 
Q 653 -75 479 54 
Q 306 184 306 341 
Q 306 428 378 495 
Q 450 563 559 563 
Q 641 563 702 538 
Q 763 513 909 409 
Q 1144 247 1384 247 
Q 1750 247 2026 523 
Q 2303 800 2303 1197 
Q 2303 1581 2056 1914 
Q 1809 2247 1375 2428 
Q 1034 2569 447 2591 
L 1259 4238 
L 2778 4238 
z
" transform="scale(0.015625)"/>
       </defs>
       <use xlink:href="#TimesNewRomanPSMT-32"/>
       <use xlink:href="#TimesNewRomanPSMT-2e" x="50"/>
       <use xlink:href="#TimesNewRomanPSMT-35" x="75"/>
      </g>
     </g>
    </g>
    <g id="xtick_12">
     <g id="line2d_19">
      <g>
       <use xlink:href="#m0baef6047a" x="241.270873" y="649.96" style="stroke: #000000; stroke-width: 0.8"/>
      </g>
     </g>
     <g id="text_9">
      <!-- 5.0 -->
      <g transform="translate(228.770873 670.8475)scale(0.2 -0.2)">
       <use xlink:href="#TimesNewRomanPSMT-35"/>
       <use xlink:href="#TimesNewRomanPSMT-2e" x="50"/>
       <use xlink:href="#TimesNewRomanPSMT-30" x="75"/>
      </g>
     </g>
    </g>
    <g id="xtick_13">
     <g id="line2d_20">
      <g>
       <use xlink:href="#m0baef6047a" x="312.802459" y="649.96" style="stroke: #000000; stroke-width: 0.8"/>
      </g>
     </g>
     <g id="text_10">
      <!-- 7.5 -->
      <g transform="translate(300.302459 670.8475)scale(0.2 -0.2)">
       <defs>
        <path id="TimesNewRomanPSMT-37" d="M 644 4238 
L 2916 4238 
L 2916 4119 
L 1503 -88 
L 1153 -88 
L 2419 3728 
L 1253 3728 
Q 900 3728 750 3644 
Q 488 3500 328 3200 
L 238 3234 
L 644 4238 
z
" transform="scale(0.015625)"/>
       </defs>
       <use xlink:href="#TimesNewRomanPSMT-37"/>
       <use xlink:href="#TimesNewRomanPSMT-2e" x="50"/>
       <use xlink:href="#TimesNewRomanPSMT-35" x="75"/>
      </g>
     </g>
    </g>
    <g id="xtick_14">
     <g id="line2d_21">
      <g>
       <use xlink:href="#m0baef6047a" x="384.334045" y="649.96" style="stroke: #000000; stroke-width: 0.8"/>
      </g>
     </g>
     <g id="text_11">
      <!-- 10.0 -->
      <g transform="translate(366.834045 670.8475)scale(0.2 -0.2)">
       <use xlink:href="#TimesNewRomanPSMT-31"/>
       <use xlink:href="#TimesNewRomanPSMT-30" x="50"/>
       <use xlink:href="#TimesNewRomanPSMT-2e" x="100"/>
       <use xlink:href="#TimesNewRomanPSMT-30" x="125"/>
      </g>
     </g>
    </g>
    <g id="xtick_15">
     <g id="line2d_22">
      <g>
       <use xlink:href="#m0baef6047a" x="455.86563" y="649.96" style="stroke: #000000; stroke-width: 0.8"/>
      </g>
     </g>
     <g id="text_12">
      <!-- 12.5 -->
      <g transform="translate(438.36563 670.8475)scale(0.2 -0.2)">
       <use xlink:href="#TimesNewRomanPSMT-31"/>
       <use xlink:href="#TimesNewRomanPSMT-32" x="50"/>
       <use xlink:href="#TimesNewRomanPSMT-2e" x="100"/>
       <use xlink:href="#TimesNewRomanPSMT-35" x="125"/>
      </g>
     </g>
    </g>
    <g id="xtick_16">
     <g id="line2d_23">
      <g>
       <use xlink:href="#m0baef6047a" x="527.397216" y="649.96" style="stroke: #000000; stroke-width: 0.8"/>
      </g>
     </g>
     <g id="text_13">
      <!-- 15.0 -->
      <g transform="translate(509.897216 670.8475)scale(0.2 -0.2)">
       <use xlink:href="#TimesNewRomanPSMT-31"/>
       <use xlink:href="#TimesNewRomanPSMT-35" x="50"/>
       <use xlink:href="#TimesNewRomanPSMT-2e" x="100"/>
       <use xlink:href="#TimesNewRomanPSMT-30" x="125"/>
      </g>
     </g>
    </g>
    <g id="xtick_17">
     <g id="line2d_24">
      <g>
       <use xlink:href="#m0baef6047a" x="598.928801" y="649.96" style="stroke: #000000; stroke-width: 0.8"/>
      </g>
     </g>
     <g id="text_14">
      <!-- 17.5 -->
      <g transform="translate(581.428801 670.8475)scale(0.2 -0.2)">
       <use xlink:href="#TimesNewRomanPSMT-31"/>
       <use xlink:href="#TimesNewRomanPSMT-37" x="50"/>
       <use xlink:href="#TimesNewRomanPSMT-2e" x="100"/>
       <use xlink:href="#TimesNewRomanPSMT-35" x="125"/>
      </g>
     </g>
    </g>
    <g id="xtick_18">
     <g id="line2d_25">
      <g>
       <use xlink:href="#m0baef6047a" x="670.460387" y="649.96" style="stroke: #000000; stroke-width: 0.8"/>
      </g>
     </g>
     <g id="text_15">
      <!-- 20.0 -->
      <g transform="translate(652.960387 670.8475)scale(0.2 -0.2)">
       <use xlink:href="#TimesNewRomanPSMT-32"/>
       <use xlink:href="#TimesNewRomanPSMT-30" x="50"/>
       <use xlink:href="#TimesNewRomanPSMT-2e" x="100"/>
       <use xlink:href="#TimesNewRomanPSMT-30" x="125"/>
      </g>
     </g>
    </g>
    <g id="text_16">
     <!-- Time [s] -->
     <g transform="translate(351.045312 693.013125)scale(0.2 -0.2)">
      <defs>
       <path id="TimesNewRomanPSMT-54" d="M 3703 4238 
L 3750 3244 
L 3631 3244 
Q 3597 3506 3538 3619 
Q 3441 3800 3280 3886 
Q 3119 3972 2856 3972 
L 2259 3972 
L 2259 734 
Q 2259 344 2344 247 
Q 2463 116 2709 116 
L 2856 116 
L 2856 0 
L 1059 0 
L 1059 116 
L 1209 116 
Q 1478 116 1591 278 
Q 1659 378 1659 734 
L 1659 3972 
L 1150 3972 
Q 853 3972 728 3928 
Q 566 3869 450 3700 
Q 334 3531 313 3244 
L 194 3244 
L 244 4238 
L 3703 4238 
z
" transform="scale(0.015625)"/>
       <path id="TimesNewRomanPSMT-69" d="M 928 4444 
Q 1059 4444 1151 4351 
Q 1244 4259 1244 4128 
Q 1244 3997 1151 3903 
Q 1059 3809 928 3809 
Q 797 3809 703 3903 
Q 609 3997 609 4128 
Q 609 4259 701 4351 
Q 794 4444 928 4444 
z
M 1188 2947 
L 1188 647 
Q 1188 378 1227 289 
Q 1266 200 1342 156 
Q 1419 113 1622 113 
L 1622 0 
L 231 0 
L 231 113 
Q 441 113 512 153 
Q 584 194 626 287 
Q 669 381 669 647 
L 669 1750 
Q 669 2216 641 2353 
Q 619 2453 572 2492 
Q 525 2531 444 2531 
Q 356 2531 231 2484 
L 188 2597 
L 1050 2947 
L 1188 2947 
z
" transform="scale(0.015625)"/>
       <path id="TimesNewRomanPSMT-6d" d="M 1050 2338 
Q 1363 2650 1419 2697 
Q 1559 2816 1721 2881 
Q 1884 2947 2044 2947 
Q 2313 2947 2506 2790 
Q 2700 2634 2766 2338 
Q 3088 2713 3309 2830 
Q 3531 2947 3766 2947 
Q 3994 2947 4170 2830 
Q 4347 2713 4450 2447 
Q 4519 2266 4519 1878 
L 4519 647 
Q 4519 378 4559 278 
Q 4591 209 4675 161 
Q 4759 113 4950 113 
L 4950 0 
L 3538 0 
L 3538 113 
L 3597 113 
Q 3781 113 3884 184 
Q 3956 234 3988 344 
Q 4000 397 4000 647 
L 4000 1878 
Q 4000 2228 3916 2372 
Q 3794 2572 3525 2572 
Q 3359 2572 3192 2489 
Q 3025 2406 2788 2181 
L 2781 2147 
L 2788 2013 
L 2788 647 
Q 2788 353 2820 281 
Q 2853 209 2943 161 
Q 3034 113 3253 113 
L 3253 0 
L 1806 0 
L 1806 113 
Q 2044 113 2133 169 
Q 2222 225 2256 338 
Q 2272 391 2272 647 
L 2272 1878 
Q 2272 2228 2169 2381 
Q 2031 2581 1784 2581 
Q 1616 2581 1450 2491 
Q 1191 2353 1050 2181 
L 1050 647 
Q 1050 366 1089 281 
Q 1128 197 1204 155 
Q 1281 113 1516 113 
L 1516 0 
L 100 0 
L 100 113 
Q 297 113 375 155 
Q 453 197 493 289 
Q 534 381 534 647 
L 534 1741 
Q 534 2213 506 2350 
Q 484 2453 437 2492 
Q 391 2531 309 2531 
Q 222 2531 100 2484 
L 53 2597 
L 916 2947 
L 1050 2947 
L 1050 2338 
z
" transform="scale(0.015625)"/>
       <path id="TimesNewRomanPSMT-73" d="M 2050 2947 
L 2050 1972 
L 1947 1972 
Q 1828 2431 1642 2597 
Q 1456 2763 1169 2763 
Q 950 2763 815 2647 
Q 681 2531 681 2391 
Q 681 2216 781 2091 
Q 878 1963 1175 1819 
L 1631 1597 
Q 2266 1288 2266 781 
Q 2266 391 1970 151 
Q 1675 -88 1309 -88 
Q 1047 -88 709 6 
Q 606 38 541 38 
Q 469 38 428 -44 
L 325 -44 
L 325 978 
L 428 978 
Q 516 541 762 319 
Q 1009 97 1316 97 
Q 1531 97 1667 223 
Q 1803 350 1803 528 
Q 1803 744 1651 891 
Q 1500 1038 1047 1263 
Q 594 1488 453 1669 
Q 313 1847 313 2119 
Q 313 2472 555 2709 
Q 797 2947 1181 2947 
Q 1350 2947 1591 2875 
Q 1750 2828 1803 2828 
Q 1853 2828 1881 2850 
Q 1909 2872 1947 2947 
L 2050 2947 
z
" transform="scale(0.015625)"/>
      </defs>
      <use xlink:href="#TimesNewRomanPSMT-54"/>
      <use xlink:href="#TimesNewRomanPSMT-69" x="57.583984"/>
      <use xlink:href="#TimesNewRomanPSMT-6d" x="85.367188"/>
      <use xlink:href="#TimesNewRomanPSMT-65" x="163.150391"/>
      <use xlink:href="#TimesNewRomanPSMT-20" x="207.535156"/>
      <use xlink:href="#TimesNewRomanPSMT-5b" x="232.535156"/>
      <use xlink:href="#TimesNewRomanPSMT-73" x="265.835938"/>
      <use xlink:href="#TimesNewRomanPSMT-5d" x="304.751953"/>
     </g>
    </g>
   </g>
   <g id="matplotlib.axis_4">
    <g id="ytick_4">
     <g id="line2d_26">
      <g>
       <use xlink:href="#me6c6fb7aae" x="71.3" y="606.858249" style="stroke: #000000; stroke-width: 0.8"/>
      </g>
     </g>
     <g id="text_17">
      <!-- 24 -->
      <g transform="translate(44.3 613.801999)scale(0.2 -0.2)">
       <use xlink:href="#TimesNewRomanPSMT-32"/>
       <use xlink:href="#TimesNewRomanPSMT-34" x="50"/>
      </g>
     </g>
    </g>
    <g id="ytick_5">
     <g id="line2d_27">
      <g>
       <use xlink:href="#me6c6fb7aae" x="71.3" y="552.454295" style="stroke: #000000; stroke-width: 0.8"/>
      </g>
     </g>
     <g id="text_18">
      <!-- 26 -->
      <g transform="translate(44.3 559.398045)scale(0.2 -0.2)">
       <defs>
        <path id="TimesNewRomanPSMT-36" d="M 2869 4325 
L 2869 4209 
Q 2456 4169 2195 4045 
Q 1934 3922 1679 3669 
Q 1425 3416 1258 3105 
Q 1091 2794 978 2366 
Q 1428 2675 1881 2675 
Q 2316 2675 2634 2325 
Q 2953 1975 2953 1425 
Q 2953 894 2631 456 
Q 2244 -75 1606 -75 
Q 1172 -75 869 213 
Q 275 772 275 1663 
Q 275 2231 503 2743 
Q 731 3256 1154 3653 
Q 1578 4050 1965 4187 
Q 2353 4325 2688 4325 
L 2869 4325 
z
M 925 2138 
Q 869 1716 869 1456 
Q 869 1156 980 804 
Q 1091 453 1309 247 
Q 1469 100 1697 100 
Q 1969 100 2183 356 
Q 2397 613 2397 1088 
Q 2397 1622 2184 2012 
Q 1972 2403 1581 2403 
Q 1463 2403 1327 2353 
Q 1191 2303 925 2138 
z
" transform="scale(0.015625)"/>
       </defs>
       <use xlink:href="#TimesNewRomanPSMT-32"/>
       <use xlink:href="#TimesNewRomanPSMT-36" x="50"/>
      </g>
     </g>
    </g>
    <g id="ytick_6">
     <g id="line2d_28">
      <g>
       <use xlink:href="#me6c6fb7aae" x="71.3" y="498.05034" style="stroke: #000000; stroke-width: 0.8"/>
      </g>
     </g>
     <g id="text_19">
      <!-- 28 -->
      <g transform="translate(44.3 504.99409)scale(0.2 -0.2)">
       <defs>
        <path id="TimesNewRomanPSMT-38" d="M 1228 2134 
Q 725 2547 579 2797 
Q 434 3047 434 3316 
Q 434 3728 753 4026 
Q 1072 4325 1600 4325 
Q 2113 4325 2425 4047 
Q 2738 3769 2738 3413 
Q 2738 3175 2569 2928 
Q 2400 2681 1866 2347 
Q 2416 1922 2594 1678 
Q 2831 1359 2831 1006 
Q 2831 559 2490 242 
Q 2150 -75 1597 -75 
Q 994 -75 656 303 
Q 388 606 388 966 
Q 388 1247 577 1523 
Q 766 1800 1228 2134 
z
M 1719 2469 
Q 2094 2806 2194 3001 
Q 2294 3197 2294 3444 
Q 2294 3772 2109 3958 
Q 1925 4144 1606 4144 
Q 1288 4144 1088 3959 
Q 888 3775 888 3528 
Q 888 3366 970 3203 
Q 1053 3041 1206 2894 
L 1719 2469 
z
M 1375 2016 
Q 1116 1797 991 1539 
Q 866 1281 866 981 
Q 866 578 1086 336 
Q 1306 94 1647 94 
Q 1984 94 2187 284 
Q 2391 475 2391 747 
Q 2391 972 2272 1150 
Q 2050 1481 1375 2016 
z
" transform="scale(0.015625)"/>
       </defs>
       <use xlink:href="#TimesNewRomanPSMT-32"/>
       <use xlink:href="#TimesNewRomanPSMT-38" x="50"/>
      </g>
     </g>
    </g>
    <g id="ytick_7">
     <g id="line2d_29">
      <g>
       <use xlink:href="#me6c6fb7aae" x="71.3" y="443.646386" style="stroke: #000000; stroke-width: 0.8"/>
      </g>
     </g>
     <g id="text_20">
      <!-- 30 -->
      <g transform="translate(44.3 450.590136)scale(0.2 -0.2)">
       <defs>
        <path id="TimesNewRomanPSMT-33" d="M 325 3431 
Q 506 3859 782 4092 
Q 1059 4325 1472 4325 
Q 1981 4325 2253 3994 
Q 2459 3747 2459 3466 
Q 2459 3003 1878 2509 
Q 2269 2356 2469 2072 
Q 2669 1788 2669 1403 
Q 2669 853 2319 450 
Q 1863 -75 997 -75 
Q 569 -75 414 31 
Q 259 138 259 259 
Q 259 350 332 419 
Q 406 488 509 488 
Q 588 488 669 463 
Q 722 447 909 348 
Q 1097 250 1169 231 
Q 1284 197 1416 197 
Q 1734 197 1970 444 
Q 2206 691 2206 1028 
Q 2206 1275 2097 1509 
Q 2016 1684 1919 1775 
Q 1784 1900 1550 2001 
Q 1316 2103 1072 2103 
L 972 2103 
L 972 2197 
Q 1219 2228 1467 2375 
Q 1716 2522 1828 2728 
Q 1941 2934 1941 3181 
Q 1941 3503 1739 3701 
Q 1538 3900 1238 3900 
Q 753 3900 428 3381 
L 325 3431 
z
" transform="scale(0.015625)"/>
       </defs>
       <use xlink:href="#TimesNewRomanPSMT-33"/>
       <use xlink:href="#TimesNewRomanPSMT-30" x="50"/>
      </g>
     </g>
    </g>
    <g id="ytick_8">
     <g id="line2d_30">
      <g>
       <use xlink:href="#me6c6fb7aae" x="71.3" y="389.242432" style="stroke: #000000; stroke-width: 0.8"/>
      </g>
     </g>
     <g id="text_21">
      <!-- 32 -->
      <g transform="translate(44.3 396.186182)scale(0.2 -0.2)">
       <use xlink:href="#TimesNewRomanPSMT-33"/>
       <use xlink:href="#TimesNewRomanPSMT-32" x="50"/>
      </g>
     </g>
    </g>
    <g id="text_22">
     <!-- Reduction Ratio -->
     <g transform="translate(36.021875 564.415313)rotate(-90)scale(0.2 -0.2)">
      <defs>
       <path id="TimesNewRomanPSMT-75" d="M 2709 2863 
L 2709 1128 
Q 2709 631 2732 520 
Q 2756 409 2807 365 
Q 2859 322 2928 322 
Q 3025 322 3147 375 
L 3191 266 
L 2334 -88 
L 2194 -88 
L 2194 519 
Q 1825 119 1631 15 
Q 1438 -88 1222 -88 
Q 981 -88 804 51 
Q 628 191 559 409 
Q 491 628 491 1028 
L 491 2306 
Q 491 2509 447 2587 
Q 403 2666 317 2708 
Q 231 2750 6 2747 
L 6 2863 
L 1009 2863 
L 1009 947 
Q 1009 547 1148 422 
Q 1288 297 1484 297 
Q 1619 297 1789 381 
Q 1959 466 2194 703 
L 2194 2325 
Q 2194 2569 2105 2655 
Q 2016 2741 1734 2747 
L 1734 2863 
L 2709 2863 
z
" transform="scale(0.015625)"/>
       <path id="TimesNewRomanPSMT-74" d="M 1031 3803 
L 1031 2863 
L 1700 2863 
L 1700 2644 
L 1031 2644 
L 1031 788 
Q 1031 509 1111 412 
Q 1191 316 1316 316 
Q 1419 316 1516 380 
Q 1613 444 1666 569 
L 1788 569 
Q 1678 263 1478 108 
Q 1278 -47 1066 -47 
Q 922 -47 784 33 
Q 647 113 581 261 
Q 516 409 516 719 
L 516 2644 
L 63 2644 
L 63 2747 
Q 234 2816 414 2980 
Q 594 3144 734 3369 
Q 806 3488 934 3803 
L 1031 3803 
z
" transform="scale(0.015625)"/>
       <path id="TimesNewRomanPSMT-6f" d="M 1600 2947 
Q 2250 2947 2644 2453 
Q 2978 2031 2978 1484 
Q 2978 1100 2793 706 
Q 2609 313 2286 112 
Q 1963 -88 1566 -88 
Q 919 -88 538 428 
Q 216 863 216 1403 
Q 216 1797 411 2186 
Q 606 2575 925 2761 
Q 1244 2947 1600 2947 
z
M 1503 2744 
Q 1338 2744 1170 2645 
Q 1003 2547 900 2300 
Q 797 2053 797 1666 
Q 797 1041 1045 587 
Q 1294 134 1700 134 
Q 2003 134 2200 384 
Q 2397 634 2397 1244 
Q 2397 2006 2069 2444 
Q 1847 2744 1503 2744 
z
" transform="scale(0.015625)"/>
       <path id="TimesNewRomanPSMT-61" d="M 1822 413 
Q 1381 72 1269 19 
Q 1100 -59 909 -59 
Q 613 -59 420 144 
Q 228 347 228 678 
Q 228 888 322 1041 
Q 450 1253 767 1440 
Q 1084 1628 1822 1897 
L 1822 2009 
Q 1822 2438 1686 2597 
Q 1550 2756 1291 2756 
Q 1094 2756 978 2650 
Q 859 2544 859 2406 
L 866 2225 
Q 866 2081 792 2003 
Q 719 1925 600 1925 
Q 484 1925 411 2006 
Q 338 2088 338 2228 
Q 338 2497 613 2722 
Q 888 2947 1384 2947 
Q 1766 2947 2009 2819 
Q 2194 2722 2281 2516 
Q 2338 2381 2338 1966 
L 2338 994 
Q 2338 584 2353 492 
Q 2369 400 2405 369 
Q 2441 338 2488 338 
Q 2538 338 2575 359 
Q 2641 400 2828 588 
L 2828 413 
Q 2478 -56 2159 -56 
Q 2006 -56 1915 50 
Q 1825 156 1822 413 
z
M 1822 616 
L 1822 1706 
Q 1350 1519 1213 1441 
Q 966 1303 859 1153 
Q 753 1003 753 825 
Q 753 600 887 451 
Q 1022 303 1197 303 
Q 1434 303 1822 616 
z
" transform="scale(0.015625)"/>
      </defs>
      <use xlink:href="#TimesNewRomanPSMT-52"/>
      <use xlink:href="#TimesNewRomanPSMT-65" x="66.699219"/>
      <use xlink:href="#TimesNewRomanPSMT-64" x="111.083984"/>
      <use xlink:href="#TimesNewRomanPSMT-75" x="161.083984"/>
      <use xlink:href="#TimesNewRomanPSMT-63" x="211.083984"/>
      <use xlink:href="#TimesNewRomanPSMT-74" x="255.46875"/>
      <use xlink:href="#TimesNewRomanPSMT-69" x="283.251953"/>
      <use xlink:href="#TimesNewRomanPSMT-6f" x="311.035156"/>
      <use xlink:href="#TimesNewRomanPSMT-6e" x="361.035156"/>
      <use xlink:href="#TimesNewRomanPSMT-20" x="411.035156"/>
      <use xlink:href="#TimesNewRomanPSMT-52" x="436.035156"/>
      <use xlink:href="#TimesNewRomanPSMT-61" x="502.734375"/>
      <use xlink:href="#TimesNewRomanPSMT-74" x="547.119141"/>
      <use xlink:href="#TimesNewRomanPSMT-69" x="574.902344"/>
      <use xlink:href="#TimesNewRomanPSMT-6f" x="602.685547"/>
     </g>
    </g>
   </g>
   <g id="line2d_31">
    <path d="M 99.804545 362.040455 
L 130.310504 362.040455 
L 132.095001 551.318049 
L 133.882308 556.437504 
L 135.66804 362.040455 
L 234.367856 362.040455 
L 236.172689 581.295523 
L 237.973326 587.305475 
L 239.774986 562.985968 
L 241.579566 536.443394 
L 243.359438 362.040455 
L 254.009975 362.040455 
L 255.821847 534.483421 
L 257.623964 624.778267 
L 259.428995 589.751827 
L 261.236099 362.040455 
L 342.216059 362.040455 
L 343.985685 543.441065 
L 345.770209 533.115295 
L 347.557325 362.040455 
L 406.955202 362.040455 
L 408.766952 624.418609 
L 410.567834 362.040455 
L 439.120539 362.040455 
L 440.917561 552.00781 
L 442.722932 551.646557 
L 444.527055 362.040455 
L 543.603898 362.040455 
L 545.40551 572.669651 
L 547.211809 575.124633 
L 549.019664 555.330146 
L 550.826611 362.040455 
L 563.469668 362.040455 
L 565.275401 542.877062 
L 567.077607 636.249545 
L 568.882071 594.496577 
L 570.689571 362.040455 
L 651.868271 362.040455 
L 653.674283 543.19696 
L 655.484703 362.040455 
L 669.895455 362.040455 
L 669.895455 362.040455 
" clip-path="url(#p324cc217d2)" style="fill: none; stroke: #1f77b4; stroke-width: 1.5; stroke-linecap: square"/>
   </g>
   <g id="line2d_32">
    <path d="M 99.804545 362.040455 
L 157.235661 362.040455 
L 159.023889 540.341151 
L 160.797881 362.040455 
L 234.367856 362.040455 
L 236.172689 551.346623 
L 237.973326 578.900381 
L 239.774986 617.520124 
L 241.579566 616.268502 
L 243.359438 362.040455 
L 264.841261 362.040455 
L 266.650603 546.298074 
L 268.461944 362.040455 
L 281.09779 362.040455 
L 282.90074 563.967164 
L 284.70755 565.269704 
L 286.509259 550.992136 
L 288.310762 532.448874 
L 290.118801 362.040455 
L 354.763659 362.040455 
L 356.565436 569.01487 
L 358.366475 362.040455 
L 406.955202 362.040455 
L 408.766952 549.930483 
L 410.567834 362.040455 
L 466.1435 362.040455 
L 467.945501 533.086989 
L 469.752537 362.040455 
L 543.603898 362.040455 
L 545.40551 551.513911 
L 547.211809 577.952283 
L 549.019664 621.529467 
L 550.826611 617.724073 
L 552.638934 362.040455 
L 574.298697 362.040455 
L 576.103161 545.868665 
L 577.910709 362.040455 
L 590.543472 362.040455 
L 592.349948 567.791535 
L 594.153689 571.860256 
L 595.960445 550.618017 
L 597.760571 362.040455 
L 664.511437 362.040455 
L 666.317299 564.951378 
L 668.121968 362.040455 
L 669.895455 362.040455 
L 669.895455 362.040455 
" clip-path="url(#p324cc217d2)" style="fill: none; stroke: #ff7f0e; stroke-width: 1.5; stroke-linecap: square"/>
   </g>
   <g id="patch_9">
    <path d="M 71.3 649.96 
L 71.3 348.33 
" style="fill: none; stroke: #000000; stroke-width: 0.8; stroke-linejoin: miter; stroke-linecap: square"/>
   </g>
   <g id="patch_10">
    <path d="M 698.4 649.96 
L 698.4 348.33 
" style="fill: none; stroke: #000000; stroke-width: 0.8; stroke-linejoin: miter; stroke-linecap: square"/>
   </g>
   <g id="patch_11">
    <path d="M 71.3 649.96 
L 698.4 649.96 
" style="fill: none; stroke: #000000; stroke-width: 0.8; stroke-linejoin: miter; stroke-linecap: square"/>
   </g>
   <g id="patch_12">
    <path d="M 71.3 348.33 
L 698.4 348.33 
" style="fill: none; stroke: #000000; stroke-width: 0.8; stroke-linejoin: miter; stroke-linecap: square"/>
   </g>
   <g id="legend_2">
    <g id="patch_13">
     <path d="M 85.3 639.96 
L 294.840625 639.96 
Q 298.840625 639.96 298.840625 635.96 
L 298.840625 581.40375 
Q 298.840625 577.40375 294.840625 577.40375 
L 85.3 577.40375 
Q 81.3 577.40375 81.3 581.40375 
L 81.3 635.96 
Q 81.3 639.96 85.3 639.96 
z
" style="fill: #ffffff; opacity: 0.8; stroke: #cccccc; stroke-linejoin: miter"/>
    </g>
    <g id="line2d_33">
     <path d="M 89.3 592.40375 
L 109.3 592.40375 
L 129.3 592.40375 
" style="fill: none; stroke: #1f77b4; stroke-width: 1.5; stroke-linecap: square"/>
    </g>
    <g id="text_23">
     <!-- Reduction Ratio 0 -->
     <g transform="translate(145.3 599.40375)scale(0.2 -0.2)">
      <use xlink:href="#TimesNewRomanPSMT-52"/>
      <use xlink:href="#TimesNewRomanPSMT-65" x="66.699219"/>
      <use xlink:href="#TimesNewRomanPSMT-64" x="111.083984"/>
      <use xlink:href="#TimesNewRomanPSMT-75" x="161.083984"/>
      <use xlink:href="#TimesNewRomanPSMT-63" x="211.083984"/>
      <use xlink:href="#TimesNewRomanPSMT-74" x="255.46875"/>
      <use xlink:href="#TimesNewRomanPSMT-69" x="283.251953"/>
      <use xlink:href="#TimesNewRomanPSMT-6f" x="311.035156"/>
      <use xlink:href="#TimesNewRomanPSMT-6e" x="361.035156"/>
      <use xlink:href="#TimesNewRomanPSMT-20" x="411.035156"/>
      <use xlink:href="#TimesNewRomanPSMT-52" x="436.035156"/>
      <use xlink:href="#TimesNewRomanPSMT-61" x="502.734375"/>
      <use xlink:href="#TimesNewRomanPSMT-74" x="547.119141"/>
      <use xlink:href="#TimesNewRomanPSMT-69" x="574.902344"/>
      <use xlink:href="#TimesNewRomanPSMT-6f" x="602.685547"/>
      <use xlink:href="#TimesNewRomanPSMT-20" x="652.685547"/>
      <use xlink:href="#TimesNewRomanPSMT-30" x="677.685547"/>
     </g>
    </g>
    <g id="line2d_34">
     <path d="M 89.3 620.681875 
L 109.3 620.681875 
L 129.3 620.681875 
" style="fill: none; stroke: #ff7f0e; stroke-width: 1.5; stroke-linecap: square"/>
    </g>
    <g id="text_24">
     <!-- Reduction Ratio 1 -->
     <g transform="translate(145.3 627.681875)scale(0.2 -0.2)">
      <use xlink:href="#TimesNewRomanPSMT-52"/>
      <use xlink:href="#TimesNewRomanPSMT-65" x="66.699219"/>
      <use xlink:href="#TimesNewRomanPSMT-64" x="111.083984"/>
      <use xlink:href="#TimesNewRomanPSMT-75" x="161.083984"/>
      <use xlink:href="#TimesNewRomanPSMT-63" x="211.083984"/>
      <use xlink:href="#TimesNewRomanPSMT-74" x="255.46875"/>
      <use xlink:href="#TimesNewRomanPSMT-69" x="283.251953"/>
      <use xlink:href="#TimesNewRomanPSMT-6f" x="311.035156"/>
      <use xlink:href="#TimesNewRomanPSMT-6e" x="361.035156"/>
      <use xlink:href="#TimesNewRomanPSMT-20" x="411.035156"/>
      <use xlink:href="#TimesNewRomanPSMT-52" x="436.035156"/>
      <use xlink:href="#TimesNewRomanPSMT-61" x="502.734375"/>
      <use xlink:href="#TimesNewRomanPSMT-74" x="547.119141"/>
      <use xlink:href="#TimesNewRomanPSMT-69" x="574.902344"/>
      <use xlink:href="#TimesNewRomanPSMT-6f" x="602.685547"/>
      <use xlink:href="#TimesNewRomanPSMT-20" x="652.685547"/>
      <use xlink:href="#TimesNewRomanPSMT-31" x="677.685547"/>
     </g>
    </g>
   </g>
  </g>
 </g>
 <defs>
  <clipPath id="pc1405a5a86">
   <rect x="71.3" y="21.6" width="627.1" height="301.63"/>
  </clipPath>
  <clipPath id="p324cc217d2">
   <rect x="71.3" y="348.33" width="627.1" height="301.63"/>
  </clipPath>
 </defs>
</svg>
