<?xml version="1.0" encoding="utf-8" standalone="no"?>
<!DOCTYPE svg PUBLIC "-//W3C//DTD SVG 1.1//EN"
  "http://www.w3.org/Graphics/SVG/1.1/DTD/svg11.dtd">
<svg xmlns:xlink="http://www.w3.org/1999/xlink" width="864pt" height="576pt" viewBox="0 0 864 576" xmlns="http://www.w3.org/2000/svg" version="1.1">
 <metadata>
  <rdf:RDF xmlns:dc="http://purl.org/dc/elements/1.1/" xmlns:cc="http://creativecommons.org/ns#" xmlns:rdf="http://www.w3.org/1999/02/22-rdf-syntax-ns#">
   <cc:Work>
    <dc:type rdf:resource="http://purl.org/dc/dcmitype/StillImage"/>
    <dc:date>2025-04-10T13:24:13.482920</dc:date>
    <dc:format>image/svg+xml</dc:format>
    <dc:creator>
     <cc:Agent>
      <dc:title>Matplotlib v3.5.1, https://matplotlib.org/</dc:title>
     </cc:Agent>
    </dc:creator>
   </cc:Work>
  </rdf:RDF>
 </metadata>
 <defs>
  <style type="text/css">*{stroke-linejoin: round; stroke-linecap: butt}</style>
 </defs>
 <g id="figure_1">
  <g id="patch_1">
   <path d="M 0 576 
L 864 576 
L 864 0 
L 0 0 
z
" style="fill: #ffffff"/>
  </g>
  <g id="axes_1">
   <g id="patch_2">
    <path d="M 44.48 534.04 
L 853.2 534.04 
L 853.2 308.04 
L 44.48 308.04 
z
" style="fill: #ffffff"/>
   </g>
   <g id="matplotlib.axis_1">
    <g id="xtick_1">
     <g id="line2d_1">
      <defs>
       <path id="m34feb8a2ad" d="M 0 0 
L 0 3.5 
" style="stroke: #000000; stroke-width: 0.8"/>
      </defs>
      <g>
       <use xlink:href="#m34feb8a2ad" x="81.24" y="534.04" style="stroke: #000000; stroke-width: 0.8"/>
      </g>
     </g>
     <g id="text_1">
      <!-- 0 -->
      <g transform="translate(78.74 547.98375)scale(0.1 -0.1)">
       <defs>
        <path id="TimesNewRomanPSMT-30" d="M 231 2094 
Q 231 2819 450 3342 
Q 669 3866 1031 4122 
Q 1313 4325 1613 4325 
Q 2100 4325 2488 3828 
Q 2972 3213 2972 2159 
Q 2972 1422 2759 906 
Q 2547 391 2217 158 
Q 1888 -75 1581 -75 
Q 975 -75 572 641 
Q 231 1244 231 2094 
z
M 844 2016 
Q 844 1141 1059 588 
Q 1238 122 1591 122 
Q 1759 122 1940 273 
Q 2122 425 2216 781 
Q 2359 1319 2359 2297 
Q 2359 3022 2209 3506 
Q 2097 3866 1919 4016 
Q 1791 4119 1609 4119 
Q 1397 4119 1231 3928 
Q 1006 3669 925 3112 
Q 844 2556 844 2016 
z
" transform="scale(0.015625)"/>
       </defs>
       <use xlink:href="#TimesNewRomanPSMT-30"/>
      </g>
     </g>
    </g>
    <g id="xtick_2">
     <g id="line2d_2">
      <g>
       <use xlink:href="#m34feb8a2ad" x="191.962892" y="534.04" style="stroke: #000000; stroke-width: 0.8"/>
      </g>
     </g>
     <g id="text_2">
      <!-- 50 -->
      <g transform="translate(186.962892 547.98375)scale(0.1 -0.1)">
       <defs>
        <path id="TimesNewRomanPSMT-35" d="M 2778 4238 
L 2534 3706 
L 1259 3706 
L 981 3138 
Q 1809 3016 2294 2522 
Q 2709 2097 2709 1522 
Q 2709 1188 2573 903 
Q 2438 619 2231 419 
Q 2025 219 1772 97 
Q 1413 -75 1034 -75 
Q 653 -75 479 54 
Q 306 184 306 341 
Q 306 428 378 495 
Q 450 563 559 563 
Q 641 563 702 538 
Q 763 513 909 409 
Q 1144 247 1384 247 
Q 1750 247 2026 523 
Q 2303 800 2303 1197 
Q 2303 1581 2056 1914 
Q 1809 2247 1375 2428 
Q 1034 2569 447 2591 
L 1259 4238 
L 2778 4238 
z
" transform="scale(0.015625)"/>
       </defs>
       <use xlink:href="#TimesNewRomanPSMT-35"/>
       <use xlink:href="#TimesNewRomanPSMT-30" x="50"/>
      </g>
     </g>
    </g>
    <g id="xtick_3">
     <g id="line2d_3">
      <g>
       <use xlink:href="#m34feb8a2ad" x="302.685783" y="534.04" style="stroke: #000000; stroke-width: 0.8"/>
      </g>
     </g>
     <g id="text_3">
      <!-- 100 -->
      <g transform="translate(295.185783 547.98375)scale(0.1 -0.1)">
       <defs>
        <path id="TimesNewRomanPSMT-31" d="M 750 3822 
L 1781 4325 
L 1884 4325 
L 1884 747 
Q 1884 391 1914 303 
Q 1944 216 2037 169 
Q 2131 122 2419 116 
L 2419 0 
L 825 0 
L 825 116 
Q 1125 122 1212 167 
Q 1300 213 1334 289 
Q 1369 366 1369 747 
L 1369 3034 
Q 1369 3497 1338 3628 
Q 1316 3728 1258 3775 
Q 1200 3822 1119 3822 
Q 1003 3822 797 3725 
L 750 3822 
z
" transform="scale(0.015625)"/>
       </defs>
       <use xlink:href="#TimesNewRomanPSMT-31"/>
       <use xlink:href="#TimesNewRomanPSMT-30" x="50"/>
       <use xlink:href="#TimesNewRomanPSMT-30" x="100"/>
      </g>
     </g>
    </g>
    <g id="xtick_4">
     <g id="line2d_4">
      <g>
       <use xlink:href="#m34feb8a2ad" x="413.408675" y="534.04" style="stroke: #000000; stroke-width: 0.8"/>
      </g>
     </g>
     <g id="text_4">
      <!-- 150 -->
      <g transform="translate(405.908675 547.98375)scale(0.1 -0.1)">
       <use xlink:href="#TimesNewRomanPSMT-31"/>
       <use xlink:href="#TimesNewRomanPSMT-35" x="50"/>
       <use xlink:href="#TimesNewRomanPSMT-30" x="100"/>
      </g>
     </g>
    </g>
    <g id="xtick_5">
     <g id="line2d_5">
      <g>
       <use xlink:href="#m34feb8a2ad" x="524.131566" y="534.04" style="stroke: #000000; stroke-width: 0.8"/>
      </g>
     </g>
     <g id="text_5">
      <!-- 200 -->
      <g transform="translate(516.631566 547.98375)scale(0.1 -0.1)">
       <defs>
        <path id="TimesNewRomanPSMT-32" d="M 2934 816 
L 2638 0 
L 138 0 
L 138 116 
Q 1241 1122 1691 1759 
Q 2141 2397 2141 2925 
Q 2141 3328 1894 3587 
Q 1647 3847 1303 3847 
Q 991 3847 742 3664 
Q 494 3481 375 3128 
L 259 3128 
Q 338 3706 661 4015 
Q 984 4325 1469 4325 
Q 1984 4325 2329 3994 
Q 2675 3663 2675 3213 
Q 2675 2891 2525 2569 
Q 2294 2063 1775 1497 
Q 997 647 803 472 
L 1909 472 
Q 2247 472 2383 497 
Q 2519 522 2628 598 
Q 2738 675 2819 816 
L 2934 816 
z
" transform="scale(0.015625)"/>
       </defs>
       <use xlink:href="#TimesNewRomanPSMT-32"/>
       <use xlink:href="#TimesNewRomanPSMT-30" x="50"/>
       <use xlink:href="#TimesNewRomanPSMT-30" x="100"/>
      </g>
     </g>
    </g>
    <g id="xtick_6">
     <g id="line2d_6">
      <g>
       <use xlink:href="#m34feb8a2ad" x="634.854458" y="534.04" style="stroke: #000000; stroke-width: 0.8"/>
      </g>
     </g>
     <g id="text_6">
      <!-- 250 -->
      <g transform="translate(627.354458 547.98375)scale(0.1 -0.1)">
       <use xlink:href="#TimesNewRomanPSMT-32"/>
       <use xlink:href="#TimesNewRomanPSMT-35" x="50"/>
       <use xlink:href="#TimesNewRomanPSMT-30" x="100"/>
      </g>
     </g>
    </g>
    <g id="xtick_7">
     <g id="line2d_7">
      <g>
       <use xlink:href="#m34feb8a2ad" x="745.577349" y="534.04" style="stroke: #000000; stroke-width: 0.8"/>
      </g>
     </g>
     <g id="text_7">
      <!-- 300 -->
      <g transform="translate(738.077349 547.98375)scale(0.1 -0.1)">
       <defs>
        <path id="TimesNewRomanPSMT-33" d="M 325 3431 
Q 506 3859 782 4092 
Q 1059 4325 1472 4325 
Q 1981 4325 2253 3994 
Q 2459 3747 2459 3466 
Q 2459 3003 1878 2509 
Q 2269 2356 2469 2072 
Q 2669 1788 2669 1403 
Q 2669 853 2319 450 
Q 1863 -75 997 -75 
Q 569 -75 414 31 
Q 259 138 259 259 
Q 259 350 332 419 
Q 406 488 509 488 
Q 588 488 669 463 
Q 722 447 909 348 
Q 1097 250 1169 231 
Q 1284 197 1416 197 
Q 1734 197 1970 444 
Q 2206 691 2206 1028 
Q 2206 1275 2097 1509 
Q 2016 1684 1919 1775 
Q 1784 1900 1550 2001 
Q 1316 2103 1072 2103 
L 972 2103 
L 972 2197 
Q 1219 2228 1467 2375 
Q 1716 2522 1828 2728 
Q 1941 2934 1941 3181 
Q 1941 3503 1739 3701 
Q 1538 3900 1238 3900 
Q 753 3900 428 3381 
L 325 3431 
z
" transform="scale(0.015625)"/>
       </defs>
       <use xlink:href="#TimesNewRomanPSMT-33"/>
       <use xlink:href="#TimesNewRomanPSMT-30" x="50"/>
       <use xlink:href="#TimesNewRomanPSMT-30" x="100"/>
      </g>
     </g>
    </g>
    <g id="text_8">
     <!-- Time[s] -->
     <g transform="translate(433.187656 561.066563)scale(0.1 -0.1)">
      <defs>
       <path id="TimesNewRomanPSMT-54" d="M 3703 4238 
L 3750 3244 
L 3631 3244 
Q 3597 3506 3538 3619 
Q 3441 3800 3280 3886 
Q 3119 3972 2856 3972 
L 2259 3972 
L 2259 734 
Q 2259 344 2344 247 
Q 2463 116 2709 116 
L 2856 116 
L 2856 0 
L 1059 0 
L 1059 116 
L 1209 116 
Q 1478 116 1591 278 
Q 1659 378 1659 734 
L 1659 3972 
L 1150 3972 
Q 853 3972 728 3928 
Q 566 3869 450 3700 
Q 334 3531 313 3244 
L 194 3244 
L 244 4238 
L 3703 4238 
z
" transform="scale(0.015625)"/>
       <path id="TimesNewRomanPSMT-69" d="M 928 4444 
Q 1059 4444 1151 4351 
Q 1244 4259 1244 4128 
Q 1244 3997 1151 3903 
Q 1059 3809 928 3809 
Q 797 3809 703 3903 
Q 609 3997 609 4128 
Q 609 4259 701 4351 
Q 794 4444 928 4444 
z
M 1188 2947 
L 1188 647 
Q 1188 378 1227 289 
Q 1266 200 1342 156 
Q 1419 113 1622 113 
L 1622 0 
L 231 0 
L 231 113 
Q 441 113 512 153 
Q 584 194 626 287 
Q 669 381 669 647 
L 669 1750 
Q 669 2216 641 2353 
Q 619 2453 572 2492 
Q 525 2531 444 2531 
Q 356 2531 231 2484 
L 188 2597 
L 1050 2947 
L 1188 2947 
z
" transform="scale(0.015625)"/>
       <path id="TimesNewRomanPSMT-6d" d="M 1050 2338 
Q 1363 2650 1419 2697 
Q 1559 2816 1721 2881 
Q 1884 2947 2044 2947 
Q 2313 2947 2506 2790 
Q 2700 2634 2766 2338 
Q 3088 2713 3309 2830 
Q 3531 2947 3766 2947 
Q 3994 2947 4170 2830 
Q 4347 2713 4450 2447 
Q 4519 2266 4519 1878 
L 4519 647 
Q 4519 378 4559 278 
Q 4591 209 4675 161 
Q 4759 113 4950 113 
L 4950 0 
L 3538 0 
L 3538 113 
L 3597 113 
Q 3781 113 3884 184 
Q 3956 234 3988 344 
Q 4000 397 4000 647 
L 4000 1878 
Q 4000 2228 3916 2372 
Q 3794 2572 3525 2572 
Q 3359 2572 3192 2489 
Q 3025 2406 2788 2181 
L 2781 2147 
L 2788 2013 
L 2788 647 
Q 2788 353 2820 281 
Q 2853 209 2943 161 
Q 3034 113 3253 113 
L 3253 0 
L 1806 0 
L 1806 113 
Q 2044 113 2133 169 
Q 2222 225 2256 338 
Q 2272 391 2272 647 
L 2272 1878 
Q 2272 2228 2169 2381 
Q 2031 2581 1784 2581 
Q 1616 2581 1450 2491 
Q 1191 2353 1050 2181 
L 1050 647 
Q 1050 366 1089 281 
Q 1128 197 1204 155 
Q 1281 113 1516 113 
L 1516 0 
L 100 0 
L 100 113 
Q 297 113 375 155 
Q 453 197 493 289 
Q 534 381 534 647 
L 534 1741 
Q 534 2213 506 2350 
Q 484 2453 437 2492 
Q 391 2531 309 2531 
Q 222 2531 100 2484 
L 53 2597 
L 916 2947 
L 1050 2947 
L 1050 2338 
z
" transform="scale(0.015625)"/>
       <path id="TimesNewRomanPSMT-65" d="M 681 1784 
Q 678 1147 991 784 
Q 1303 422 1725 422 
Q 2006 422 2214 576 
Q 2422 731 2563 1106 
L 2659 1044 
Q 2594 616 2278 264 
Q 1963 -88 1488 -88 
Q 972 -88 605 314 
Q 238 716 238 1394 
Q 238 2128 614 2539 
Q 991 2950 1559 2950 
Q 2041 2950 2350 2633 
Q 2659 2316 2659 1784 
L 681 1784 
z
M 681 1966 
L 2006 1966 
Q 1991 2241 1941 2353 
Q 1863 2528 1708 2628 
Q 1553 2728 1384 2728 
Q 1125 2728 920 2526 
Q 716 2325 681 1966 
z
" transform="scale(0.015625)"/>
       <path id="TimesNewRomanPSMT-5b" d="M 1900 -1269 
L 525 -1269 
L 525 4334 
L 1900 4334 
L 1900 4088 
L 994 4088 
L 994 -1025 
L 1900 -1025 
L 1900 -1269 
z
" transform="scale(0.015625)"/>
       <path id="TimesNewRomanPSMT-73" d="M 2050 2947 
L 2050 1972 
L 1947 1972 
Q 1828 2431 1642 2597 
Q 1456 2763 1169 2763 
Q 950 2763 815 2647 
Q 681 2531 681 2391 
Q 681 2216 781 2091 
Q 878 1963 1175 1819 
L 1631 1597 
Q 2266 1288 2266 781 
Q 2266 391 1970 151 
Q 1675 -88 1309 -88 
Q 1047 -88 709 6 
Q 606 38 541 38 
Q 469 38 428 -44 
L 325 -44 
L 325 978 
L 428 978 
Q 516 541 762 319 
Q 1009 97 1316 97 
Q 1531 97 1667 223 
Q 1803 350 1803 528 
Q 1803 744 1651 891 
Q 1500 1038 1047 1263 
Q 594 1488 453 1669 
Q 313 1847 313 2119 
Q 313 2472 555 2709 
Q 797 2947 1181 2947 
Q 1350 2947 1591 2875 
Q 1750 2828 1803 2828 
Q 1853 2828 1881 2850 
Q 1909 2872 1947 2947 
L 2050 2947 
z
" transform="scale(0.015625)"/>
       <path id="TimesNewRomanPSMT-5d" d="M 234 4334 
L 1609 4334 
L 1609 -1272 
L 234 -1272 
L 234 -1025 
L 1141 -1025 
L 1141 4088 
L 234 4088 
L 234 4334 
z
" transform="scale(0.015625)"/>
      </defs>
      <use xlink:href="#TimesNewRomanPSMT-54"/>
      <use xlink:href="#TimesNewRomanPSMT-69" x="57.583984"/>
      <use xlink:href="#TimesNewRomanPSMT-6d" x="85.367188"/>
      <use xlink:href="#TimesNewRomanPSMT-65" x="163.150391"/>
      <use xlink:href="#TimesNewRomanPSMT-5b" x="207.535156"/>
      <use xlink:href="#TimesNewRomanPSMT-73" x="240.835938"/>
      <use xlink:href="#TimesNewRomanPSMT-5d" x="279.751953"/>
     </g>
    </g>
   </g>
   <g id="matplotlib.axis_2">
    <g id="ytick_1">
     <g id="line2d_8">
      <defs>
       <path id="mcb5d1b1621" d="M 0 0 
L -3.5 0 
" style="stroke: #000000; stroke-width: 0.8"/>
      </defs>
      <g>
       <use xlink:href="#mcb5d1b1621" x="44.48" y="509.864922" style="stroke: #000000; stroke-width: 0.8"/>
      </g>
     </g>
     <g id="text_9">
      <!-- 24 -->
      <g transform="translate(27.48 513.336797)scale(0.1 -0.1)">
       <defs>
        <path id="TimesNewRomanPSMT-34" d="M 2978 1563 
L 2978 1119 
L 2409 1119 
L 2409 0 
L 1894 0 
L 1894 1119 
L 100 1119 
L 100 1519 
L 2066 4325 
L 2409 4325 
L 2409 1563 
L 2978 1563 
z
M 1894 1563 
L 1894 3666 
L 406 1563 
L 1894 1563 
z
" transform="scale(0.015625)"/>
       </defs>
       <use xlink:href="#TimesNewRomanPSMT-32"/>
       <use xlink:href="#TimesNewRomanPSMT-34" x="50"/>
      </g>
     </g>
    </g>
    <g id="ytick_2">
     <g id="line2d_9">
      <g>
       <use xlink:href="#mcb5d1b1621" x="44.48" y="474.729281" style="stroke: #000000; stroke-width: 0.8"/>
      </g>
     </g>
     <g id="text_10">
      <!-- 26 -->
      <g transform="translate(27.48 478.201156)scale(0.1 -0.1)">
       <defs>
        <path id="TimesNewRomanPSMT-36" d="M 2869 4325 
L 2869 4209 
Q 2456 4169 2195 4045 
Q 1934 3922 1679 3669 
Q 1425 3416 1258 3105 
Q 1091 2794 978 2366 
Q 1428 2675 1881 2675 
Q 2316 2675 2634 2325 
Q 2953 1975 2953 1425 
Q 2953 894 2631 456 
Q 2244 -75 1606 -75 
Q 1172 -75 869 213 
Q 275 772 275 1663 
Q 275 2231 503 2743 
Q 731 3256 1154 3653 
Q 1578 4050 1965 4187 
Q 2353 4325 2688 4325 
L 2869 4325 
z
M 925 2138 
Q 869 1716 869 1456 
Q 869 1156 980 804 
Q 1091 453 1309 247 
Q 1469 100 1697 100 
Q 1969 100 2183 356 
Q 2397 613 2397 1088 
Q 2397 1622 2184 2012 
Q 1972 2403 1581 2403 
Q 1463 2403 1327 2353 
Q 1191 2303 925 2138 
z
" transform="scale(0.015625)"/>
       </defs>
       <use xlink:href="#TimesNewRomanPSMT-32"/>
       <use xlink:href="#TimesNewRomanPSMT-36" x="50"/>
      </g>
     </g>
    </g>
    <g id="ytick_3">
     <g id="line2d_10">
      <g>
       <use xlink:href="#mcb5d1b1621" x="44.48" y="439.593641" style="stroke: #000000; stroke-width: 0.8"/>
      </g>
     </g>
     <g id="text_11">
      <!-- 28 -->
      <g transform="translate(27.48 443.065516)scale(0.1 -0.1)">
       <defs>
        <path id="TimesNewRomanPSMT-38" d="M 1228 2134 
Q 725 2547 579 2797 
Q 434 3047 434 3316 
Q 434 3728 753 4026 
Q 1072 4325 1600 4325 
Q 2113 4325 2425 4047 
Q 2738 3769 2738 3413 
Q 2738 3175 2569 2928 
Q 2400 2681 1866 2347 
Q 2416 1922 2594 1678 
Q 2831 1359 2831 1006 
Q 2831 559 2490 242 
Q 2150 -75 1597 -75 
Q 994 -75 656 303 
Q 388 606 388 966 
Q 388 1247 577 1523 
Q 766 1800 1228 2134 
z
M 1719 2469 
Q 2094 2806 2194 3001 
Q 2294 3197 2294 3444 
Q 2294 3772 2109 3958 
Q 1925 4144 1606 4144 
Q 1288 4144 1088 3959 
Q 888 3775 888 3528 
Q 888 3366 970 3203 
Q 1053 3041 1206 2894 
L 1719 2469 
z
M 1375 2016 
Q 1116 1797 991 1539 
Q 866 1281 866 981 
Q 866 578 1086 336 
Q 1306 94 1647 94 
Q 1984 94 2187 284 
Q 2391 475 2391 747 
Q 2391 972 2272 1150 
Q 2050 1481 1375 2016 
z
" transform="scale(0.015625)"/>
       </defs>
       <use xlink:href="#TimesNewRomanPSMT-32"/>
       <use xlink:href="#TimesNewRomanPSMT-38" x="50"/>
      </g>
     </g>
    </g>
    <g id="ytick_4">
     <g id="line2d_11">
      <g>
       <use xlink:href="#mcb5d1b1621" x="44.48" y="404.458001" style="stroke: #000000; stroke-width: 0.8"/>
      </g>
     </g>
     <g id="text_12">
      <!-- 30 -->
      <g transform="translate(27.48 407.929876)scale(0.1 -0.1)">
       <use xlink:href="#TimesNewRomanPSMT-33"/>
       <use xlink:href="#TimesNewRomanPSMT-30" x="50"/>
      </g>
     </g>
    </g>
    <g id="ytick_5">
     <g id="line2d_12">
      <g>
       <use xlink:href="#mcb5d1b1621" x="44.48" y="369.32236" style="stroke: #000000; stroke-width: 0.8"/>
      </g>
     </g>
     <g id="text_13">
      <!-- 32 -->
      <g transform="translate(27.48 372.794235)scale(0.1 -0.1)">
       <use xlink:href="#TimesNewRomanPSMT-33"/>
       <use xlink:href="#TimesNewRomanPSMT-32" x="50"/>
      </g>
     </g>
    </g>
    <g id="ytick_6">
     <g id="line2d_13">
      <g>
       <use xlink:href="#mcb5d1b1621" x="44.48" y="334.18672" style="stroke: #000000; stroke-width: 0.8"/>
      </g>
     </g>
     <g id="text_14">
      <!-- 34 -->
      <g transform="translate(27.48 337.658595)scale(0.1 -0.1)">
       <use xlink:href="#TimesNewRomanPSMT-33"/>
       <use xlink:href="#TimesNewRomanPSMT-34" x="50"/>
      </g>
     </g>
    </g>
    <g id="text_15">
     <!-- Reduction Ratio -->
     <g transform="translate(21.340938 453.675156)rotate(-90)scale(0.1 -0.1)">
      <defs>
       <path id="TimesNewRomanPSMT-52" d="M 4325 0 
L 3194 0 
L 1759 1981 
Q 1600 1975 1500 1975 
Q 1459 1975 1412 1976 
Q 1366 1978 1316 1981 
L 1316 750 
Q 1316 350 1403 253 
Q 1522 116 1759 116 
L 1925 116 
L 1925 0 
L 109 0 
L 109 116 
L 269 116 
Q 538 116 653 291 
Q 719 388 719 750 
L 719 3488 
Q 719 3888 631 3984 
Q 509 4122 269 4122 
L 109 4122 
L 109 4238 
L 1653 4238 
Q 2328 4238 2648 4139 
Q 2969 4041 3192 3777 
Q 3416 3513 3416 3147 
Q 3416 2756 3161 2468 
Q 2906 2181 2372 2063 
L 3247 847 
Q 3547 428 3762 290 
Q 3978 153 4325 116 
L 4325 0 
z
M 1316 2178 
Q 1375 2178 1419 2176 
Q 1463 2175 1491 2175 
Q 2097 2175 2405 2437 
Q 2713 2700 2713 3106 
Q 2713 3503 2464 3751 
Q 2216 4000 1806 4000 
Q 1625 4000 1316 3941 
L 1316 2178 
z
" transform="scale(0.015625)"/>
       <path id="TimesNewRomanPSMT-64" d="M 2222 322 
Q 2013 103 1813 7 
Q 1613 -88 1381 -88 
Q 913 -88 563 304 
Q 213 697 213 1313 
Q 213 1928 600 2439 
Q 988 2950 1597 2950 
Q 1975 2950 2222 2709 
L 2222 3238 
Q 2222 3728 2198 3840 
Q 2175 3953 2125 3993 
Q 2075 4034 2000 4034 
Q 1919 4034 1784 3984 
L 1744 4094 
L 2597 4444 
L 2738 4444 
L 2738 1134 
Q 2738 631 2761 520 
Q 2784 409 2836 365 
Q 2888 322 2956 322 
Q 3041 322 3181 375 
L 3216 266 
L 2366 -88 
L 2222 -88 
L 2222 322 
z
M 2222 541 
L 2222 2016 
Q 2203 2228 2109 2403 
Q 2016 2578 1861 2667 
Q 1706 2756 1559 2756 
Q 1284 2756 1069 2509 
Q 784 2184 784 1559 
Q 784 928 1059 592 
Q 1334 256 1672 256 
Q 1956 256 2222 541 
z
" transform="scale(0.015625)"/>
       <path id="TimesNewRomanPSMT-75" d="M 2709 2863 
L 2709 1128 
Q 2709 631 2732 520 
Q 2756 409 2807 365 
Q 2859 322 2928 322 
Q 3025 322 3147 375 
L 3191 266 
L 2334 -88 
L 2194 -88 
L 2194 519 
Q 1825 119 1631 15 
Q 1438 -88 1222 -88 
Q 981 -88 804 51 
Q 628 191 559 409 
Q 491 628 491 1028 
L 491 2306 
Q 491 2509 447 2587 
Q 403 2666 317 2708 
Q 231 2750 6 2747 
L 6 2863 
L 1009 2863 
L 1009 947 
Q 1009 547 1148 422 
Q 1288 297 1484 297 
Q 1619 297 1789 381 
Q 1959 466 2194 703 
L 2194 2325 
Q 2194 2569 2105 2655 
Q 2016 2741 1734 2747 
L 1734 2863 
L 2709 2863 
z
" transform="scale(0.015625)"/>
       <path id="TimesNewRomanPSMT-63" d="M 2631 1088 
Q 2516 522 2178 217 
Q 1841 -88 1431 -88 
Q 944 -88 581 321 
Q 219 731 219 1428 
Q 219 2103 620 2525 
Q 1022 2947 1584 2947 
Q 2006 2947 2278 2723 
Q 2550 2500 2550 2259 
Q 2550 2141 2473 2067 
Q 2397 1994 2259 1994 
Q 2075 1994 1981 2113 
Q 1928 2178 1911 2362 
Q 1894 2547 1784 2644 
Q 1675 2738 1481 2738 
Q 1169 2738 978 2506 
Q 725 2200 725 1697 
Q 725 1184 976 792 
Q 1228 400 1656 400 
Q 1963 400 2206 609 
Q 2378 753 2541 1131 
L 2631 1088 
z
" transform="scale(0.015625)"/>
       <path id="TimesNewRomanPSMT-74" d="M 1031 3803 
L 1031 2863 
L 1700 2863 
L 1700 2644 
L 1031 2644 
L 1031 788 
Q 1031 509 1111 412 
Q 1191 316 1316 316 
Q 1419 316 1516 380 
Q 1613 444 1666 569 
L 1788 569 
Q 1678 263 1478 108 
Q 1278 -47 1066 -47 
Q 922 -47 784 33 
Q 647 113 581 261 
Q 516 409 516 719 
L 516 2644 
L 63 2644 
L 63 2747 
Q 234 2816 414 2980 
Q 594 3144 734 3369 
Q 806 3488 934 3803 
L 1031 3803 
z
" transform="scale(0.015625)"/>
       <path id="TimesNewRomanPSMT-6f" d="M 1600 2947 
Q 2250 2947 2644 2453 
Q 2978 2031 2978 1484 
Q 2978 1100 2793 706 
Q 2609 313 2286 112 
Q 1963 -88 1566 -88 
Q 919 -88 538 428 
Q 216 863 216 1403 
Q 216 1797 411 2186 
Q 606 2575 925 2761 
Q 1244 2947 1600 2947 
z
M 1503 2744 
Q 1338 2744 1170 2645 
Q 1003 2547 900 2300 
Q 797 2053 797 1666 
Q 797 1041 1045 587 
Q 1294 134 1700 134 
Q 2003 134 2200 384 
Q 2397 634 2397 1244 
Q 2397 2006 2069 2444 
Q 1847 2744 1503 2744 
z
" transform="scale(0.015625)"/>
       <path id="TimesNewRomanPSMT-6e" d="M 1034 2341 
Q 1538 2947 1994 2947 
Q 2228 2947 2397 2830 
Q 2566 2713 2666 2444 
Q 2734 2256 2734 1869 
L 2734 647 
Q 2734 375 2778 278 
Q 2813 200 2889 156 
Q 2966 113 3172 113 
L 3172 0 
L 1756 0 
L 1756 113 
L 1816 113 
Q 2016 113 2095 173 
Q 2175 234 2206 353 
Q 2219 400 2219 647 
L 2219 1819 
Q 2219 2209 2117 2386 
Q 2016 2563 1775 2563 
Q 1403 2563 1034 2156 
L 1034 647 
Q 1034 356 1069 288 
Q 1113 197 1189 155 
Q 1266 113 1500 113 
L 1500 0 
L 84 0 
L 84 113 
L 147 113 
Q 366 113 442 223 
Q 519 334 519 647 
L 519 1709 
Q 519 2225 495 2337 
Q 472 2450 423 2490 
Q 375 2531 294 2531 
Q 206 2531 84 2484 
L 38 2597 
L 900 2947 
L 1034 2947 
L 1034 2341 
z
" transform="scale(0.015625)"/>
       <path id="TimesNewRomanPSMT-20" transform="scale(0.015625)"/>
       <path id="TimesNewRomanPSMT-61" d="M 1822 413 
Q 1381 72 1269 19 
Q 1100 -59 909 -59 
Q 613 -59 420 144 
Q 228 347 228 678 
Q 228 888 322 1041 
Q 450 1253 767 1440 
Q 1084 1628 1822 1897 
L 1822 2009 
Q 1822 2438 1686 2597 
Q 1550 2756 1291 2756 
Q 1094 2756 978 2650 
Q 859 2544 859 2406 
L 866 2225 
Q 866 2081 792 2003 
Q 719 1925 600 1925 
Q 484 1925 411 2006 
Q 338 2088 338 2228 
Q 338 2497 613 2722 
Q 888 2947 1384 2947 
Q 1766 2947 2009 2819 
Q 2194 2722 2281 2516 
Q 2338 2381 2338 1966 
L 2338 994 
Q 2338 584 2353 492 
Q 2369 400 2405 369 
Q 2441 338 2488 338 
Q 2538 338 2575 359 
Q 2641 400 2828 588 
L 2828 413 
Q 2478 -56 2159 -56 
Q 2006 -56 1915 50 
Q 1825 156 1822 413 
z
M 1822 616 
L 1822 1706 
Q 1350 1519 1213 1441 
Q 966 1303 859 1153 
Q 753 1003 753 825 
Q 753 600 887 451 
Q 1022 303 1197 303 
Q 1434 303 1822 616 
z
" transform="scale(0.015625)"/>
      </defs>
      <use xlink:href="#TimesNewRomanPSMT-52"/>
      <use xlink:href="#TimesNewRomanPSMT-65" x="66.699219"/>
      <use xlink:href="#TimesNewRomanPSMT-64" x="111.083984"/>
      <use xlink:href="#TimesNewRomanPSMT-75" x="161.083984"/>
      <use xlink:href="#TimesNewRomanPSMT-63" x="211.083984"/>
      <use xlink:href="#TimesNewRomanPSMT-74" x="255.46875"/>
      <use xlink:href="#TimesNewRomanPSMT-69" x="283.251953"/>
      <use xlink:href="#TimesNewRomanPSMT-6f" x="311.035156"/>
      <use xlink:href="#TimesNewRomanPSMT-6e" x="361.035156"/>
      <use xlink:href="#TimesNewRomanPSMT-20" x="411.035156"/>
      <use xlink:href="#TimesNewRomanPSMT-52" x="436.035156"/>
      <use xlink:href="#TimesNewRomanPSMT-61" x="502.734375"/>
      <use xlink:href="#TimesNewRomanPSMT-74" x="547.119141"/>
      <use xlink:href="#TimesNewRomanPSMT-69" x="574.902344"/>
      <use xlink:href="#TimesNewRomanPSMT-6f" x="602.685547"/>
     </g>
    </g>
   </g>
   <g id="line2d_14">
    <path d="M 81.24 352.12353 
L 83.454458 351.591491 
L 92.312289 350.388756 
L 96.741205 350.291717 
L 98.955663 348.646878 
L 101.17012 346.319214 
L 103.384578 432.396534 
L 105.599036 443.853072 
L 107.813494 365.074691 
L 110.027952 355.085499 
L 112.24241 355.515809 
L 114.456867 355.353563 
L 116.671325 354.965005 
L 118.885783 354.300944 
L 121.100241 353.368082 
L 123.314699 352.271233 
L 125.529157 351.314112 
L 127.743614 350.682822 
L 129.958072 350.49196 
L 132.17253 350.773829 
L 134.386988 349.329971 
L 136.601446 335.354204 
L 138.815904 334.279805 
L 141.030361 341.859975 
L 143.244819 345.670299 
L 145.459277 352.208104 
L 147.673735 353.527781 
L 149.888193 353.491593 
L 152.102651 353.065305 
L 156.531566 351.879592 
L 158.746024 351.551884 
L 160.960482 351.492441 
L 169.818313 351.976162 
L 174.247229 351.756953 
L 185.319518 351.085386 
L 189.748434 351.025541 
L 207.464096 351.436215 
L 214.10747 351.492642 
L 216.321928 351.779671 
L 218.536386 352.792416 
L 220.750843 355.441086 
L 222.965301 361.385666 
L 225.179759 361.842312 
L 227.394217 331.237484 
L 229.608675 369.355701 
L 231.823133 476.740596 
L 234.03759 496.815784 
L 236.252048 481.556628 
L 238.466506 472.136771 
L 240.680964 355.059966 
L 242.895422 344.72705 
L 245.10988 352.476168 
L 247.324337 351.058848 
L 249.538795 348.409642 
L 251.753253 347.461769 
L 253.967711 359.366878 
L 256.182169 461.753157 
L 258.396627 523.767273 
L 260.611084 496.685706 
L 262.825542 368.769881 
L 265.04 343.974395 
L 267.254458 343.731797 
L 269.468916 345.578018 
L 271.683373 346.850383 
L 273.897831 347.467934 
L 276.112289 347.613627 
L 278.326747 348.259392 
L 280.541205 352.755356 
L 282.755663 378.596726 
L 284.97012 371.923751 
L 287.184578 351.918729 
L 289.399036 351.777527 
L 291.613494 348.679649 
L 293.827952 352.942464 
L 296.04241 342.548765 
L 298.256867 341.980001 
L 300.471325 347.306627 
L 302.685783 353.808578 
L 304.900241 354.339277 
L 307.114699 354.249878 
L 309.329157 353.920763 
L 313.758072 352.939985 
L 322.615904 350.89104 
L 324.830361 350.380513 
L 327.044819 350.049722 
L 329.259277 350.055754 
L 331.473735 350.73228 
L 333.688193 352.326119 
L 338.117108 357.439835 
L 340.331566 357.697646 
L 342.546024 356.293662 
L 344.760482 354.685615 
L 346.97494 353.508347 
L 349.189398 352.697856 
L 353.618313 351.537811 
L 355.832771 351.327515 
L 358.047229 352.077892 
L 360.261687 355.946252 
L 362.476145 371.506878 
L 364.690602 419.209712 
L 366.90506 440.450171 
L 369.119518 358.683584 
L 371.333976 354.497502 
L 373.548434 351.889242 
L 375.762892 349.958045 
L 377.977349 348.697542 
L 380.191807 347.568927 
L 382.406265 347.718172 
L 384.620723 354.045881 
L 386.835181 360.871653 
L 389.049639 353.465993 
L 391.264096 363.632642 
L 393.478554 353.38812 
L 395.693012 350.691266 
L 397.90747 350.0518 
L 406.765301 348.377005 
L 408.979759 348.205645 
L 411.194217 348.295313 
L 415.623133 348.871047 
L 417.83759 348.975055 
L 420.052048 348.926871 
L 424.480964 348.455414 
L 428.90988 348.091919 
L 433.338795 348.006943 
L 439.982169 348.205914 
L 446.625542 348.607071 
L 457.697831 348.814418 
L 462.126747 348.987922 
L 466.555663 348.852885 
L 475.413494 348.492675 
L 479.84241 348.562371 
L 482.056867 348.826481 
L 490.914699 350.560652 
L 495.343614 350.993508 
L 499.77253 351.128143 
L 501.986988 351.007313 
L 510.844819 349.962736 
L 513.059277 349.966422 
L 515.273735 350.224969 
L 521.917108 351.690339 
L 524.131566 351.937092 
L 528.560482 352.067103 
L 535.203855 351.982126 
L 579.493012 350.490553 
L 588.350843 350.202318 
L 594.994217 349.803305 
L 599.423133 349.476267 
L 601.63759 349.446244 
L 603.852048 349.655803 
L 606.066506 350.336752 
L 608.280964 351.871751 
L 610.495422 354.738893 
L 612.70988 358.503512 
L 614.924337 360.846321 
L 617.138795 359.928337 
L 619.353253 357.327986 
L 621.567711 355.343377 
L 623.782169 354.28171 
L 625.996627 353.838199 
L 630.425542 353.253619 
L 632.64 352.789802 
L 639.283373 351.011468 
L 641.497831 350.693678 
L 650.355663 350.107959 
L 659.213494 348.51861 
L 661.427952 348.876408 
L 663.64241 351.056436 
L 665.856867 358.900983 
L 668.071325 381.761285 
L 670.285783 410.909388 
L 672.500241 416.996243 
L 674.714699 393.005617 
L 676.929157 365.447366 
L 679.143614 354.881637 
L 681.358072 351.989699 
L 683.57253 351.223707 
L 685.786988 351.076406 
L 694.644819 351.09765 
L 699.073735 350.617816 
L 707.931566 349.124367 
L 710.146024 348.958435 
L 712.360482 349.019889 
L 714.57494 349.339823 
L 719.003855 350.212839 
L 721.218313 350.27704 
L 725.647229 349.816574 
L 734.50506 348.747603 
L 736.719518 348.593266 
L 738.933976 348.652106 
L 741.148434 349.184346 
L 743.362892 350.865708 
L 745.577349 355.644278 
L 747.791807 368.646036 
L 752.220723 420.349987 
L 754.435181 434.794966 
L 756.649639 444.167745 
L 758.864096 451.831886 
L 761.078554 456.818038 
L 763.293012 456.490699 
L 765.50747 445.168092 
L 767.721928 408.414821 
L 769.936386 363.766808 
L 772.150843 351.112997 
L 774.365301 348.386387 
L 776.579759 347.615905 
L 781.008675 347.100218 
L 787.652048 346.531923 
L 792.080964 346.417192 
L 798.724337 346.427311 
L 816.44 345.964365 
L 816.44 345.964365 
" clip-path="url(#pfb2ff18dde)" style="fill: none; stroke: #0000ff; stroke-width: 1.5; stroke-linecap: square"/>
   </g>
   <g id="line2d_15">
    <path d="M 81.24 350.988816 
L 83.454458 350.771149 
L 85.668916 350.94673 
L 87.883373 351.277119 
L 90.097831 351.751324 
L 92.312289 352.454991 
L 94.526747 353.489381 
L 96.741205 355.228377 
L 98.955663 358.822508 
L 101.17012 359.261462 
L 103.384578 348.448377 
L 105.599036 347.918683 
L 107.813494 355.428889 
L 110.027952 354.87192 
L 112.24241 350.843191 
L 114.456867 349.002063 
L 116.671325 348.657869 
L 118.885783 349.131671 
L 121.100241 350.112918 
L 125.529157 352.251731 
L 129.958072 354.019142 
L 132.17253 355.319854 
L 134.386988 358.552032 
L 136.601446 363.637266 
L 138.815904 360.241503 
L 141.030361 358.957545 
L 143.244819 358.871161 
L 145.459277 353.303479 
L 147.673735 350.698436 
L 149.888193 350.251842 
L 152.102651 350.780129 
L 156.531566 352.787256 
L 158.746024 353.37981 
L 160.960482 353.515786 
L 163.17494 353.410571 
L 167.603855 352.927654 
L 169.818313 352.844688 
L 174.247229 353.00117 
L 187.533976 353.648075 
L 198.606265 353.748934 
L 207.464096 354.006543 
L 211.893012 354.294511 
L 214.10747 354.587236 
L 216.321928 355.038387 
L 222.965301 356.906523 
L 225.179759 358.685125 
L 227.394217 358.117634 
L 229.608675 358.005986 
L 231.823133 465.054797 
L 234.03759 509.685688 
L 236.252048 512.696847 
L 238.466506 495.43988 
L 240.680964 355.798482 
L 242.895422 358.927991 
L 245.10988 352.421081 
L 247.324337 352.196778 
L 249.538795 353.974308 
L 251.753253 356.216661 
L 253.967711 354.85664 
L 256.182169 350.73878 
L 258.396627 347.657589 
L 260.611084 353.496351 
L 262.825542 363.481253 
L 265.04 365.861659 
L 269.468916 360.861199 
L 271.683373 358.771174 
L 273.897831 357.401569 
L 276.112289 356.979034 
L 280.541205 357.740067 
L 282.755663 352.983612 
L 284.97012 350.090669 
L 287.184578 364.171718 
L 289.399036 472.634967 
L 291.613494 480.439909 
L 293.827952 477.500322 
L 296.04241 459.938634 
L 298.256867 347.839739 
L 300.471325 357.403982 
L 302.685783 350.528417 
L 304.900241 349.472447 
L 307.114699 349.768055 
L 315.97253 353.038297 
L 318.186988 353.454667 
L 322.615904 353.808377 
L 329.259277 354.120738 
L 333.688193 353.990526 
L 335.902651 353.690764 
L 340.331566 352.795633 
L 344.760482 352.022269 
L 346.97494 351.606703 
L 349.189398 351.37972 
L 351.403855 351.464629 
L 353.618313 351.952974 
L 355.832771 352.796303 
L 358.047229 353.834111 
L 360.261687 354.544815 
L 362.476145 352.188401 
L 364.690602 336.887797 
L 366.90506 333.55161 
L 369.119518 351.794549 
L 371.333976 356.285888 
L 377.977349 371.365173 
L 380.191807 378.022434 
L 382.406265 381.004776 
L 384.620723 368.738786 
L 386.835181 349.687568 
L 389.049639 344.960333 
L 391.264096 353.909906 
L 393.478554 350.532907 
L 395.693012 349.125171 
L 397.90747 348.810196 
L 400.121928 348.942351 
L 404.550843 349.549114 
L 408.979759 350.286959 
L 411.194217 350.555626 
L 413.408675 350.707417 
L 415.623133 350.723299 
L 420.052048 350.417305 
L 424.480964 349.949601 
L 428.90988 349.794191 
L 442.196627 350.106619 
L 444.411084 349.81711 
L 448.84 348.891151 
L 455.483373 347.221584 
L 457.697831 346.879199 
L 459.912289 346.711995 
L 464.341205 346.70335 
L 468.77012 346.8154 
L 475.413494 347.229626 
L 482.056867 347.66476 
L 484.271325 347.61557 
L 495.343614 346.796435 
L 497.558072 346.920146 
L 499.77253 347.170853 
L 508.630361 348.712487 
L 513.059277 349.251898 
L 515.273735 349.413473 
L 517.488193 349.403689 
L 519.702651 349.163437 
L 526.346024 348.202362 
L 528.560482 348.062164 
L 530.77494 348.151698 
L 532.989398 348.442681 
L 537.418313 349.276024 
L 539.632771 349.523044 
L 544.061687 349.610232 
L 552.919518 349.374336 
L 568.420723 349.662706 
L 594.994217 349.690316 
L 599.423133 350.006162 
L 603.852048 350.602537 
L 606.066506 350.955778 
L 608.280964 351.196298 
L 610.495422 351.204273 
L 614.924337 350.416903 
L 619.353253 350.737306 
L 623.782169 350.019766 
L 625.996627 349.981567 
L 628.211084 350.429502 
L 630.425542 351.431658 
L 632.64 352.794761 
L 637.068916 355.918641 
L 639.283373 356.976286 
L 641.497831 357.191139 
L 643.712289 356.524197 
L 645.926747 355.37608 
L 648.141205 354.075771 
L 650.355663 353.051633 
L 652.57012 352.179153 
L 654.784578 351.583114 
L 656.999036 351.351306 
L 659.213494 351.477362 
L 663.64241 352.279543 
L 665.856867 351.540223 
L 668.071325 344.973267 
L 670.285783 333.352975 
L 672.500241 330.433427 
L 674.714699 339.164327 
L 676.929157 348.580264 
L 679.143614 350.121228 
L 683.57253 349.223081 
L 685.786988 349.205322 
L 688.001446 349.438269 
L 690.215904 349.835808 
L 696.859277 350.563399 
L 716.789398 350.575529 
L 721.218313 350.219675 
L 727.861687 349.614253 
L 732.290602 349.481494 
L 734.50506 349.635229 
L 736.719518 349.934388 
L 743.362892 351.170698 
L 745.577349 350.879648 
L 747.791807 347.878407 
L 750.006265 338.360538 
L 752.220723 328.13726 
L 754.435181 323.325652 
L 756.649639 320.924002 
L 758.864096 319.378682 
L 761.078554 318.598751 
L 763.293012 318.312727 
L 765.50747 320.001863 
L 767.721928 330.945361 
L 769.936386 347.391469 
L 772.150843 349.291906 
L 774.365301 348.766703 
L 776.579759 348.440469 
L 781.008675 348.418756 
L 796.50988 348.579996 
L 809.796627 348.222601 
L 816.44 348.27112 
L 816.44 348.27112 
" clip-path="url(#pfb2ff18dde)" style="fill: none; stroke: #ffa500; stroke-width: 1.5; stroke-linecap: square"/>
   </g>
   <g id="patch_3">
    <path d="M 44.48 534.04 
L 44.48 308.04 
" style="fill: none; stroke: #000000; stroke-width: 0.8; stroke-linejoin: miter; stroke-linecap: square"/>
   </g>
   <g id="patch_4">
    <path d="M 853.2 534.04 
L 853.2 308.04 
" style="fill: none; stroke: #000000; stroke-width: 0.8; stroke-linejoin: miter; stroke-linecap: square"/>
   </g>
   <g id="patch_5">
    <path d="M 44.48 534.04 
L 853.2 534.04 
" style="fill: none; stroke: #000000; stroke-width: 0.8; stroke-linejoin: miter; stroke-linecap: square"/>
   </g>
   <g id="patch_6">
    <path d="M 44.48 308.04 
L 853.2 308.04 
" style="fill: none; stroke: #000000; stroke-width: 0.8; stroke-linejoin: miter; stroke-linecap: square"/>
   </g>
   <g id="text_16">
    <!-- Predicted Reduction Ratios -->
    <g transform="translate(383.184063 302.04)scale(0.12 -0.12)">
     <defs>
      <path id="TimesNewRomanPSMT-50" d="M 1313 1984 
L 1313 750 
Q 1313 350 1400 253 
Q 1519 116 1759 116 
L 1922 116 
L 1922 0 
L 106 0 
L 106 116 
L 266 116 
Q 534 116 650 291 
Q 713 388 713 750 
L 713 3488 
Q 713 3888 628 3984 
Q 506 4122 266 4122 
L 106 4122 
L 106 4238 
L 1659 4238 
Q 2228 4238 2556 4120 
Q 2884 4003 3109 3725 
Q 3334 3447 3334 3066 
Q 3334 2547 2992 2222 
Q 2650 1897 2025 1897 
Q 1872 1897 1694 1919 
Q 1516 1941 1313 1984 
z
M 1313 2163 
Q 1478 2131 1606 2115 
Q 1734 2100 1825 2100 
Q 2150 2100 2386 2351 
Q 2622 2603 2622 3003 
Q 2622 3278 2509 3514 
Q 2397 3750 2190 3867 
Q 1984 3984 1722 3984 
Q 1563 3984 1313 3925 
L 1313 2163 
z
" transform="scale(0.015625)"/>
      <path id="TimesNewRomanPSMT-72" d="M 1038 2947 
L 1038 2303 
Q 1397 2947 1775 2947 
Q 1947 2947 2059 2842 
Q 2172 2738 2172 2600 
Q 2172 2478 2090 2393 
Q 2009 2309 1897 2309 
Q 1788 2309 1652 2417 
Q 1516 2525 1450 2525 
Q 1394 2525 1328 2463 
Q 1188 2334 1038 2041 
L 1038 669 
Q 1038 431 1097 309 
Q 1138 225 1241 169 
Q 1344 113 1538 113 
L 1538 0 
L 72 0 
L 72 113 
Q 291 113 397 181 
Q 475 231 506 341 
Q 522 394 522 644 
L 522 1753 
Q 522 2253 501 2348 
Q 481 2444 426 2487 
Q 372 2531 291 2531 
Q 194 2531 72 2484 
L 41 2597 
L 906 2947 
L 1038 2947 
z
" transform="scale(0.015625)"/>
     </defs>
     <use xlink:href="#TimesNewRomanPSMT-50"/>
     <use xlink:href="#TimesNewRomanPSMT-72" x="55.615234"/>
     <use xlink:href="#TimesNewRomanPSMT-65" x="88.916016"/>
     <use xlink:href="#TimesNewRomanPSMT-64" x="133.300781"/>
     <use xlink:href="#TimesNewRomanPSMT-69" x="183.300781"/>
     <use xlink:href="#TimesNewRomanPSMT-63" x="211.083984"/>
     <use xlink:href="#TimesNewRomanPSMT-74" x="255.46875"/>
     <use xlink:href="#TimesNewRomanPSMT-65" x="283.251953"/>
     <use xlink:href="#TimesNewRomanPSMT-64" x="327.636719"/>
     <use xlink:href="#TimesNewRomanPSMT-20" x="377.636719"/>
     <use xlink:href="#TimesNewRomanPSMT-52" x="402.636719"/>
     <use xlink:href="#TimesNewRomanPSMT-65" x="469.335938"/>
     <use xlink:href="#TimesNewRomanPSMT-64" x="513.720703"/>
     <use xlink:href="#TimesNewRomanPSMT-75" x="563.720703"/>
     <use xlink:href="#TimesNewRomanPSMT-63" x="613.720703"/>
     <use xlink:href="#TimesNewRomanPSMT-74" x="658.105469"/>
     <use xlink:href="#TimesNewRomanPSMT-69" x="685.888672"/>
     <use xlink:href="#TimesNewRomanPSMT-6f" x="713.671875"/>
     <use xlink:href="#TimesNewRomanPSMT-6e" x="763.671875"/>
     <use xlink:href="#TimesNewRomanPSMT-20" x="813.671875"/>
     <use xlink:href="#TimesNewRomanPSMT-52" x="838.671875"/>
     <use xlink:href="#TimesNewRomanPSMT-61" x="905.371094"/>
     <use xlink:href="#TimesNewRomanPSMT-74" x="949.755859"/>
     <use xlink:href="#TimesNewRomanPSMT-69" x="977.539062"/>
     <use xlink:href="#TimesNewRomanPSMT-6f" x="1005.322266"/>
     <use xlink:href="#TimesNewRomanPSMT-73" x="1055.322266"/>
    </g>
   </g>
   <g id="legend_1">
    <g id="patch_7">
     <path d="M 51.48 529.04 
L 161.250313 529.04 
Q 163.250313 529.04 163.250313 527.04 
L 163.250313 499.724375 
Q 163.250313 497.724375 161.250313 497.724375 
L 51.48 497.724375 
Q 49.48 497.724375 49.48 499.724375 
L 49.48 527.04 
Q 49.48 529.04 51.48 529.04 
z
" style="fill: #ffffff; opacity: 0.8; stroke: #cccccc; stroke-linejoin: miter"/>
    </g>
    <g id="line2d_16">
     <path d="M 53.48 505.224375 
L 63.48 505.224375 
L 73.48 505.224375 
" style="fill: none; stroke: #0000ff; stroke-width: 1.5; stroke-linecap: square"/>
    </g>
    <g id="text_17">
     <!-- Reduction_Ratio_0 -->
     <g transform="translate(81.48 508.724375)scale(0.1 -0.1)">
      <defs>
       <path id="TimesNewRomanPSMT-5f" d="M 3256 -1381 
L -53 -1381 
L -53 -1119 
L 3256 -1119 
L 3256 -1381 
z
" transform="scale(0.015625)"/>
      </defs>
      <use xlink:href="#TimesNewRomanPSMT-52"/>
      <use xlink:href="#TimesNewRomanPSMT-65" x="66.699219"/>
      <use xlink:href="#TimesNewRomanPSMT-64" x="111.083984"/>
      <use xlink:href="#TimesNewRomanPSMT-75" x="161.083984"/>
      <use xlink:href="#TimesNewRomanPSMT-63" x="211.083984"/>
      <use xlink:href="#TimesNewRomanPSMT-74" x="255.46875"/>
      <use xlink:href="#TimesNewRomanPSMT-69" x="283.251953"/>
      <use xlink:href="#TimesNewRomanPSMT-6f" x="311.035156"/>
      <use xlink:href="#TimesNewRomanPSMT-6e" x="361.035156"/>
      <use xlink:href="#TimesNewRomanPSMT-5f" x="411.035156"/>
      <use xlink:href="#TimesNewRomanPSMT-52" x="461.035156"/>
      <use xlink:href="#TimesNewRomanPSMT-61" x="527.734375"/>
      <use xlink:href="#TimesNewRomanPSMT-74" x="572.119141"/>
      <use xlink:href="#TimesNewRomanPSMT-69" x="599.902344"/>
      <use xlink:href="#TimesNewRomanPSMT-6f" x="627.685547"/>
      <use xlink:href="#TimesNewRomanPSMT-5f" x="677.685547"/>
      <use xlink:href="#TimesNewRomanPSMT-30" x="727.685547"/>
     </g>
    </g>
    <g id="line2d_17">
     <path d="M 53.48 519.382187 
L 63.48 519.382187 
L 73.48 519.382187 
" style="fill: none; stroke: #ffa500; stroke-width: 1.5; stroke-linecap: square"/>
    </g>
    <g id="text_18">
     <!-- Reduction_Ratio_1 -->
     <g transform="translate(81.48 522.882187)scale(0.1 -0.1)">
      <use xlink:href="#TimesNewRomanPSMT-52"/>
      <use xlink:href="#TimesNewRomanPSMT-65" x="66.699219"/>
      <use xlink:href="#TimesNewRomanPSMT-64" x="111.083984"/>
      <use xlink:href="#TimesNewRomanPSMT-75" x="161.083984"/>
      <use xlink:href="#TimesNewRomanPSMT-63" x="211.083984"/>
      <use xlink:href="#TimesNewRomanPSMT-74" x="255.46875"/>
      <use xlink:href="#TimesNewRomanPSMT-69" x="283.251953"/>
      <use xlink:href="#TimesNewRomanPSMT-6f" x="311.035156"/>
      <use xlink:href="#TimesNewRomanPSMT-6e" x="361.035156"/>
      <use xlink:href="#TimesNewRomanPSMT-5f" x="411.035156"/>
      <use xlink:href="#TimesNewRomanPSMT-52" x="461.035156"/>
      <use xlink:href="#TimesNewRomanPSMT-61" x="527.734375"/>
      <use xlink:href="#TimesNewRomanPSMT-74" x="572.119141"/>
      <use xlink:href="#TimesNewRomanPSMT-69" x="599.902344"/>
      <use xlink:href="#TimesNewRomanPSMT-6f" x="627.685547"/>
      <use xlink:href="#TimesNewRomanPSMT-5f" x="677.685547"/>
      <use xlink:href="#TimesNewRomanPSMT-31" x="727.685547"/>
     </g>
    </g>
   </g>
  </g>
  <g id="axes_2">
   <g id="patch_8">
    <path d="M 44.48 251.44 
L 853.2 251.44 
L 853.2 25.44 
L 44.48 25.44 
z
" style="fill: #ffffff"/>
   </g>
   <g id="matplotlib.axis_3">
    <g id="xtick_8">
     <g id="line2d_18">
      <g>
       <use xlink:href="#m34feb8a2ad" x="81.24" y="251.44" style="stroke: #000000; stroke-width: 0.8"/>
      </g>
     </g>
     <g id="text_19">
      <!-- 0 -->
      <g transform="translate(78.74 265.38375)scale(0.1 -0.1)">
       <use xlink:href="#TimesNewRomanPSMT-30"/>
      </g>
     </g>
    </g>
    <g id="xtick_9">
     <g id="line2d_19">
      <g>
       <use xlink:href="#m34feb8a2ad" x="191.962892" y="251.44" style="stroke: #000000; stroke-width: 0.8"/>
      </g>
     </g>
     <g id="text_20">
      <!-- 50 -->
      <g transform="translate(186.962892 265.38375)scale(0.1 -0.1)">
       <use xlink:href="#TimesNewRomanPSMT-35"/>
       <use xlink:href="#TimesNewRomanPSMT-30" x="50"/>
      </g>
     </g>
    </g>
    <g id="xtick_10">
     <g id="line2d_20">
      <g>
       <use xlink:href="#m34feb8a2ad" x="302.685783" y="251.44" style="stroke: #000000; stroke-width: 0.8"/>
      </g>
     </g>
     <g id="text_21">
      <!-- 100 -->
      <g transform="translate(295.185783 265.38375)scale(0.1 -0.1)">
       <use xlink:href="#TimesNewRomanPSMT-31"/>
       <use xlink:href="#TimesNewRomanPSMT-30" x="50"/>
       <use xlink:href="#TimesNewRomanPSMT-30" x="100"/>
      </g>
     </g>
    </g>
    <g id="xtick_11">
     <g id="line2d_21">
      <g>
       <use xlink:href="#m34feb8a2ad" x="413.408675" y="251.44" style="stroke: #000000; stroke-width: 0.8"/>
      </g>
     </g>
     <g id="text_22">
      <!-- 150 -->
      <g transform="translate(405.908675 265.38375)scale(0.1 -0.1)">
       <use xlink:href="#TimesNewRomanPSMT-31"/>
       <use xlink:href="#TimesNewRomanPSMT-35" x="50"/>
       <use xlink:href="#TimesNewRomanPSMT-30" x="100"/>
      </g>
     </g>
    </g>
    <g id="xtick_12">
     <g id="line2d_22">
      <g>
       <use xlink:href="#m34feb8a2ad" x="524.131566" y="251.44" style="stroke: #000000; stroke-width: 0.8"/>
      </g>
     </g>
     <g id="text_23">
      <!-- 200 -->
      <g transform="translate(516.631566 265.38375)scale(0.1 -0.1)">
       <use xlink:href="#TimesNewRomanPSMT-32"/>
       <use xlink:href="#TimesNewRomanPSMT-30" x="50"/>
       <use xlink:href="#TimesNewRomanPSMT-30" x="100"/>
      </g>
     </g>
    </g>
    <g id="xtick_13">
     <g id="line2d_23">
      <g>
       <use xlink:href="#m34feb8a2ad" x="634.854458" y="251.44" style="stroke: #000000; stroke-width: 0.8"/>
      </g>
     </g>
     <g id="text_24">
      <!-- 250 -->
      <g transform="translate(627.354458 265.38375)scale(0.1 -0.1)">
       <use xlink:href="#TimesNewRomanPSMT-32"/>
       <use xlink:href="#TimesNewRomanPSMT-35" x="50"/>
       <use xlink:href="#TimesNewRomanPSMT-30" x="100"/>
      </g>
     </g>
    </g>
    <g id="xtick_14">
     <g id="line2d_24">
      <g>
       <use xlink:href="#m34feb8a2ad" x="745.577349" y="251.44" style="stroke: #000000; stroke-width: 0.8"/>
      </g>
     </g>
     <g id="text_25">
      <!-- 300 -->
      <g transform="translate(738.077349 265.38375)scale(0.1 -0.1)">
       <use xlink:href="#TimesNewRomanPSMT-33"/>
       <use xlink:href="#TimesNewRomanPSMT-30" x="50"/>
       <use xlink:href="#TimesNewRomanPSMT-30" x="100"/>
      </g>
     </g>
    </g>
    <g id="text_26">
     <!-- Time[s] -->
     <g transform="translate(433.187656 278.466563)scale(0.1 -0.1)">
      <use xlink:href="#TimesNewRomanPSMT-54"/>
      <use xlink:href="#TimesNewRomanPSMT-69" x="57.583984"/>
      <use xlink:href="#TimesNewRomanPSMT-6d" x="85.367188"/>
      <use xlink:href="#TimesNewRomanPSMT-65" x="163.150391"/>
      <use xlink:href="#TimesNewRomanPSMT-5b" x="207.535156"/>
      <use xlink:href="#TimesNewRomanPSMT-73" x="240.835938"/>
      <use xlink:href="#TimesNewRomanPSMT-5d" x="279.751953"/>
     </g>
    </g>
   </g>
   <g id="matplotlib.axis_4">
    <g id="ytick_7">
     <g id="line2d_25">
      <g>
       <use xlink:href="#mcb5d1b1621" x="44.48" y="240.252484" style="stroke: #000000; stroke-width: 0.8"/>
      </g>
     </g>
     <g id="text_27">
      <!-- 0.0 -->
      <g transform="translate(24.98 243.724359)scale(0.1 -0.1)">
       <defs>
        <path id="TimesNewRomanPSMT-2e" d="M 800 606 
Q 947 606 1047 504 
Q 1147 403 1147 259 
Q 1147 116 1045 14 
Q 944 -88 800 -88 
Q 656 -88 554 14 
Q 453 116 453 259 
Q 453 406 554 506 
Q 656 606 800 606 
z
" transform="scale(0.015625)"/>
       </defs>
       <use xlink:href="#TimesNewRomanPSMT-30"/>
       <use xlink:href="#TimesNewRomanPSMT-2e" x="50"/>
       <use xlink:href="#TimesNewRomanPSMT-30" x="75"/>
      </g>
     </g>
    </g>
    <g id="ytick_8">
     <g id="line2d_26">
      <g>
       <use xlink:href="#mcb5d1b1621" x="44.48" y="199.459602" style="stroke: #000000; stroke-width: 0.8"/>
      </g>
     </g>
     <g id="text_28">
      <!-- 0.2 -->
      <g transform="translate(24.98 202.931477)scale(0.1 -0.1)">
       <use xlink:href="#TimesNewRomanPSMT-30"/>
       <use xlink:href="#TimesNewRomanPSMT-2e" x="50"/>
       <use xlink:href="#TimesNewRomanPSMT-32" x="75"/>
      </g>
     </g>
    </g>
    <g id="ytick_9">
     <g id="line2d_27">
      <g>
       <use xlink:href="#mcb5d1b1621" x="44.48" y="158.666719" style="stroke: #000000; stroke-width: 0.8"/>
      </g>
     </g>
     <g id="text_29">
      <!-- 0.4 -->
      <g transform="translate(24.98 162.138594)scale(0.1 -0.1)">
       <use xlink:href="#TimesNewRomanPSMT-30"/>
       <use xlink:href="#TimesNewRomanPSMT-2e" x="50"/>
       <use xlink:href="#TimesNewRomanPSMT-34" x="75"/>
      </g>
     </g>
    </g>
    <g id="ytick_10">
     <g id="line2d_28">
      <g>
       <use xlink:href="#mcb5d1b1621" x="44.48" y="117.873836" style="stroke: #000000; stroke-width: 0.8"/>
      </g>
     </g>
     <g id="text_30">
      <!-- 0.6 -->
      <g transform="translate(24.98 121.345711)scale(0.1 -0.1)">
       <use xlink:href="#TimesNewRomanPSMT-30"/>
       <use xlink:href="#TimesNewRomanPSMT-2e" x="50"/>
       <use xlink:href="#TimesNewRomanPSMT-36" x="75"/>
      </g>
     </g>
    </g>
    <g id="ytick_11">
     <g id="line2d_29">
      <g>
       <use xlink:href="#mcb5d1b1621" x="44.48" y="77.080954" style="stroke: #000000; stroke-width: 0.8"/>
      </g>
     </g>
     <g id="text_31">
      <!-- 0.8 -->
      <g transform="translate(24.98 80.552829)scale(0.1 -0.1)">
       <use xlink:href="#TimesNewRomanPSMT-30"/>
       <use xlink:href="#TimesNewRomanPSMT-2e" x="50"/>
       <use xlink:href="#TimesNewRomanPSMT-38" x="75"/>
      </g>
     </g>
    </g>
    <g id="ytick_12">
     <g id="line2d_30">
      <g>
       <use xlink:href="#mcb5d1b1621" x="44.48" y="36.288071" style="stroke: #000000; stroke-width: 0.8"/>
      </g>
     </g>
     <g id="text_32">
      <!-- 1.0 -->
      <g transform="translate(24.98 39.759946)scale(0.1 -0.1)">
       <use xlink:href="#TimesNewRomanPSMT-31"/>
       <use xlink:href="#TimesNewRomanPSMT-2e" x="50"/>
       <use xlink:href="#TimesNewRomanPSMT-30" x="75"/>
      </g>
     </g>
    </g>
    <g id="text_33">
     <!-- Position -->
     <g transform="translate(18.840938 154.83375)rotate(-90)scale(0.1 -0.1)">
      <use xlink:href="#TimesNewRomanPSMT-50"/>
      <use xlink:href="#TimesNewRomanPSMT-6f" x="55.615234"/>
      <use xlink:href="#TimesNewRomanPSMT-73" x="105.615234"/>
      <use xlink:href="#TimesNewRomanPSMT-69" x="144.53125"/>
      <use xlink:href="#TimesNewRomanPSMT-74" x="172.314453"/>
      <use xlink:href="#TimesNewRomanPSMT-69" x="200.097656"/>
      <use xlink:href="#TimesNewRomanPSMT-6f" x="227.880859"/>
      <use xlink:href="#TimesNewRomanPSMT-6e" x="277.880859"/>
     </g>
    </g>
   </g>
   <g id="line2d_31">
    <path d="M 81.24 43.796732 
L 85.668916 45.767887 
L 90.097831 49.724685 
L 92.312289 52.058183 
L 94.526747 57.07256 
L 96.741205 61.608933 
L 98.955663 63.967764 
L 101.17012 70.316089 
L 103.384578 79.809443 
L 105.599036 92.507359 
L 107.813494 102.605937 
L 110.027952 110.968721 
L 112.24241 116.51161 
L 114.456867 121.647032 
L 116.671325 128.135322 
L 118.885783 131.623616 
L 121.100241 131.200473 
L 123.314699 129.489141 
L 125.529157 129.965483 
L 127.743614 131.446363 
L 129.958072 132.495155 
L 132.17253 133.759911 
L 134.386988 137.711326 
L 136.601446 142.735836 
L 138.815904 148.300813 
L 141.030361 151.806918 
L 143.244819 153.056633 
L 147.673735 153.261436 
L 149.888193 153.947568 
L 152.102651 155.262358 
L 154.317108 157.698138 
L 156.531566 161.543866 
L 158.746024 164.895519 
L 160.960482 166.040814 
L 163.17494 166.05633 
L 165.389398 166.82717 
L 167.603855 169.042553 
L 169.818313 170.243106 
L 172.032771 170.79521 
L 174.247229 170.81983 
L 176.461687 170.345784 
L 178.676145 169.722272 
L 183.10506 167.324333 
L 185.319518 166.537422 
L 191.962892 165.493697 
L 194.177349 164.945077 
L 196.391807 164.523122 
L 198.606265 164.34864 
L 200.820723 163.904756 
L 203.035181 162.819231 
L 205.249639 161.939934 
L 207.464096 161.507846 
L 209.678554 160.921146 
L 211.893012 159.717268 
L 214.10747 158.25048 
L 216.321928 157.88212 
L 218.536386 158.538565 
L 220.750843 160.303255 
L 225.179759 165.732937 
L 227.394217 170.917917 
L 229.608675 178.270859 
L 231.823133 189.775268 
L 234.03759 204.206287 
L 238.466506 227.986261 
L 240.680964 236.953161 
L 242.895422 240.252484 
L 245.10988 239.669506 
L 247.324337 236.551551 
L 249.538795 231.307197 
L 251.753253 227.033339 
L 253.967711 224.593046 
L 256.182169 218.161201 
L 258.396627 204.182378 
L 260.611084 187.054489 
L 262.825542 177.19808 
L 265.04 177.324429 
L 267.254458 179.23233 
L 269.468916 177.911603 
L 271.683373 177.689938 
L 273.897831 181.240298 
L 276.112289 181.962134 
L 278.326747 178.481045 
L 280.541205 173.967709 
L 282.755663 173.68857 
L 284.97012 174.413493 
L 287.184578 173.981722 
L 289.399036 172.303164 
L 291.613494 172.444317 
L 293.827952 174.523772 
L 296.04241 176.377128 
L 300.471325 178.447478 
L 302.685783 178.981611 
L 307.114699 178.582219 
L 309.329157 178.798025 
L 311.543614 178.629164 
L 313.758072 176.595626 
L 315.97253 172.716807 
L 318.186988 171.112349 
L 320.401446 172.106674 
L 322.615904 173.980851 
L 324.830361 176.088726 
L 327.044819 176.588818 
L 329.259277 175.700575 
L 331.473735 174.651071 
L 335.902651 172.127495 
L 338.117108 171.300289 
L 342.546024 168.758901 
L 344.760482 168.125889 
L 346.97494 168.289288 
L 349.189398 169.590382 
L 351.403855 172.94813 
L 355.832771 183.498113 
L 358.047229 187.670163 
L 360.261687 191.183473 
L 362.476145 192.335893 
L 364.690602 184.675075 
L 366.90506 171.129449 
L 369.119518 164.633638 
L 371.333976 162.195324 
L 373.548434 154.775882 
L 375.762892 148.911579 
L 377.977349 149.246768 
L 380.191807 147.371641 
L 382.406265 141.288364 
L 384.620723 132.96073 
L 386.835181 125.283287 
L 389.049639 120.035053 
L 391.264096 116.075722 
L 393.478554 108.420841 
L 395.693012 101.423592 
L 397.90747 98.04059 
L 400.121928 95.263999 
L 402.336386 90.740056 
L 404.550843 85.814108 
L 406.765301 82.692195 
L 411.194217 80.661586 
L 413.408675 79.10439 
L 415.623133 76.597281 
L 417.83759 73.559521 
L 420.052048 70.796152 
L 422.266506 68.955304 
L 424.480964 68.883896 
L 426.695422 69.113715 
L 428.90988 68.619006 
L 431.124337 67.747626 
L 433.338795 67.484082 
L 439.982169 67.709626 
L 442.196627 67.464845 
L 444.411084 47.708247 
L 446.625542 36.308812 
L 448.84 37.280892 
L 451.054458 42.493659 
L 453.268916 46.391003 
L 455.483373 45.447502 
L 457.697831 44.020693 
L 459.912289 43.111233 
L 462.126747 45.48091 
L 464.341205 48.538303 
L 466.555663 49.163715 
L 468.77012 50.684969 
L 473.199036 54.655463 
L 477.627952 63.911873 
L 479.84241 66.538444 
L 482.056867 73.749203 
L 484.271325 83.351886 
L 486.485783 96.221909 
L 488.700241 105.813428 
L 490.914699 113.25092 
L 495.343614 123.788949 
L 497.558072 130.353634 
L 499.77253 134.48721 
L 501.986988 134.394823 
L 504.201446 132.342522 
L 506.415904 132.433405 
L 508.630361 133.599363 
L 510.844819 134.471772 
L 513.059277 136.190546 
L 515.273735 140.04047 
L 517.488193 145.358053 
L 519.702651 151.411088 
L 521.917108 154.6717 
L 524.131566 155.369944 
L 526.346024 155.302891 
L 528.560482 155.780262 
L 530.77494 156.81417 
L 532.989398 158.020027 
L 535.203855 159.484441 
L 537.418313 162.956188 
L 539.632771 167.034585 
L 541.847229 168.414133 
L 544.061687 168.043477 
L 546.276145 168.643714 
L 548.490602 171.165232 
L 550.70506 172.599008 
L 552.919518 172.99278 
L 555.133976 172.708969 
L 559.562892 171.84503 
L 561.777349 170.714064 
L 563.991807 169.206664 
L 566.206265 168.157555 
L 568.420723 167.927578 
L 570.635181 167.919899 
L 577.278554 167.173601 
L 579.493012 167.102905 
L 581.70747 166.540906 
L 586.136386 163.794161 
L 588.350843 162.991338 
L 590.565301 162.409863 
L 592.779759 161.374688 
L 594.994217 160.041611 
L 597.208675 159.398704 
L 599.423133 159.895313 
L 601.63759 161.86148 
L 606.066506 167.617485 
L 608.280964 172.816081 
L 610.495422 180.255472 
L 612.70988 191.691482 
L 614.924337 205.199345 
L 619.353253 228.128918 
L 621.567711 237.105397 
L 623.782169 240.552761 
L 625.996627 239.963133 
L 628.211084 236.99211 
L 630.425542 231.892709 
L 632.64 228.171984 
L 634.854458 226.300974 
L 637.068916 219.631077 
L 639.283373 204.905481 
L 641.497831 187.172051 
L 643.712289 177.365041 
L 645.926747 177.528281 
L 648.141205 179.046844 
L 650.355663 177.651859 
L 652.57012 177.424574 
L 654.784578 181.078007 
L 656.999036 182.036471 
L 659.213494 178.646977 
L 661.427952 174.272024 
L 663.64241 174.277328 
L 665.856867 174.939868 
L 668.071325 174.159845 
L 670.285783 172.212044 
L 672.500241 172.414551 
L 674.714699 174.348419 
L 676.929157 175.860965 
L 679.143614 176.996206 
L 681.358072 178.302683 
L 683.57253 179.346884 
L 688.001446 178.976861 
L 690.215904 179.092444 
L 692.430361 178.760817 
L 694.644819 176.431198 
L 696.859277 172.465296 
L 699.073735 170.877542 
L 701.288193 171.964254 
L 703.502651 173.980059 
L 705.717108 176.16813 
L 707.931566 176.697513 
L 712.360482 174.883423 
L 716.789398 172.198744 
L 719.003855 171.326018 
L 723.432771 168.724859 
L 725.647229 168.084564 
L 727.861687 168.324437 
L 730.076145 169.721085 
L 732.290602 173.210724 
L 736.719518 183.639662 
L 738.933976 187.629155 
L 741.148434 191.176665 
L 743.362892 192.377851 
L 745.577349 184.513893 
L 747.791807 170.864163 
L 750.006265 164.427648 
L 752.220723 162.303069 
L 754.435181 154.684208 
L 756.649639 148.993516 
L 758.864096 149.530341 
L 761.078554 147.622597 
L 763.293012 141.278943 
L 765.50747 133.049238 
L 767.721928 125.412802 
L 769.936386 120.129578 
L 772.150843 116.029727 
L 774.365301 108.523282 
L 776.579759 101.420109 
L 778.794217 97.94567 
L 781.008675 95.24785 
L 783.223133 90.774573 
L 785.43759 85.816958 
L 787.652048 82.712778 
L 789.866506 81.569462 
L 792.080964 80.594532 
L 794.295422 79.164873 
L 796.50988 76.695922 
L 798.724337 73.630771 
L 800.938795 70.881255 
L 803.153253 69.025841 
L 805.367711 68.800534 
L 807.582169 69.127015 
L 809.796627 68.871229 
L 812.011084 68.003174 
L 814.225542 67.48717 
L 816.44 67.586285 
L 816.44 67.586285 
" clip-path="url(#p5f4abf6cd2)" style="fill: none; stroke: #008000; stroke-width: 1.5; stroke-linecap: square"/>
   </g>
   <g id="line2d_32">
    <path d="M 81.24 148.054367 
L 83.454458 140.151847 
L 87.883373 130.115435 
L 90.097831 130.113152 
L 92.312289 128.297891 
L 94.526747 129.234811 
L 96.741205 130.482896 
L 98.955663 131.018806 
L 101.17012 149.17572 
L 103.384578 168.547961 
L 105.599036 180.99746 
L 107.813494 181.610305 
L 110.027952 172.329367 
L 112.24241 162.044937 
L 116.671325 138.072056 
L 118.885783 132.260041 
L 121.100241 119.094239 
L 123.314699 110.805112 
L 125.529157 108.528944 
L 127.743614 109.683934 
L 132.17253 115.177582 
L 134.386988 129.569689 
L 136.601446 151.677599 
L 138.815904 175.798905 
L 141.030361 186.636283 
L 143.244819 191.130391 
L 145.459277 188.928523 
L 147.673735 182.992499 
L 149.888193 167.500205 
L 154.317108 148.542676 
L 156.531566 145.18327 
L 158.746024 145.548975 
L 160.960482 143.016532 
L 163.17494 136.918822 
L 165.389398 139.037256 
L 167.603855 139.072562 
L 169.818313 138.617978 
L 172.032771 136.017822 
L 174.247229 132.87394 
L 176.461687 131.60425 
L 178.676145 129.532539 
L 180.890602 128.409868 
L 183.10506 126.748653 
L 187.533976 123.252328 
L 189.748434 122.914639 
L 191.962892 122.204133 
L 194.177349 122.044993 
L 196.391807 121.386567 
L 198.606265 120.226922 
L 200.820723 117.055023 
L 203.035181 114.083015 
L 205.249639 112.759752 
L 207.464096 112.400546 
L 209.678554 110.200347 
L 211.893012 103.857077 
L 214.10747 95.734818 
L 218.536386 78.843203 
L 220.750843 76.756299 
L 222.965301 73.337172 
L 225.179759 74.638918 
L 227.394217 76.515218 
L 229.608675 81.579664 
L 231.823133 102.436415 
L 236.252048 159.316907 
L 238.466506 198.36017 
L 240.680964 225.822261 
L 242.895422 236.515694 
L 245.10988 240.252484 
L 247.324337 236.500676 
L 249.538795 225.76377 
L 251.753253 211.00227 
L 253.967711 201.626744 
L 256.182169 188.726174 
L 260.611084 155.643878 
L 262.825542 147.20009 
L 265.04 137.018152 
L 267.254458 131.613911 
L 269.468916 103.662544 
L 271.683373 83.045819 
L 273.897831 66.046004 
L 276.112289 53.850583 
L 278.326747 46.778188 
L 280.541205 46.344067 
L 282.755663 55.931779 
L 284.97012 58.931628 
L 287.184578 75.48292 
L 289.399036 97.522765 
L 291.613494 128.575858 
L 293.827952 150.944873 
L 296.04241 178.148671 
L 298.256867 195.696516 
L 300.471325 204.069253 
L 302.685783 204.746737 
L 304.900241 200.431529 
L 307.114699 191.436287 
L 309.329157 181.896352 
L 311.543614 179.591465 
L 313.758072 159.705183 
L 315.97253 140.991105 
L 318.186988 126.387515 
L 320.401446 108.394922 
L 322.615904 95.640845 
L 324.830361 88.944957 
L 329.259277 89.163817 
L 331.473735 94.283242 
L 333.688193 97.661529 
L 335.902651 106.91814 
L 338.117108 113.55905 
L 340.331566 119.08449 
L 342.546024 120.038449 
L 344.760482 119.930336 
L 346.97494 116.325371 
L 349.189398 103.35094 
L 351.403855 86.519749 
L 353.618313 68.726783 
L 355.832771 57.391172 
L 358.047229 54.190203 
L 360.261687 52.709645 
L 362.476145 54.019383 
L 364.690602 49.059889 
L 366.90506 42.004531 
L 369.119518 41.271805 
L 371.333976 41.765998 
L 373.548434 36.288071 
L 375.762892 43.790283 
L 377.977349 64.771395 
L 380.191807 84.666899 
L 382.406265 119.061305 
L 384.620723 128.300789 
L 386.835181 135.414989 
L 389.049639 138.684198 
L 391.264096 139.145281 
L 393.478554 126.281422 
L 395.693012 115.451509 
L 397.90747 108.298666 
L 400.121928 108.6151 
L 402.336386 103.261182 
L 404.550843 99.241067 
L 408.979759 104.055211 
L 411.194217 106.209126 
L 413.408675 109.247091 
L 415.623133 111.657456 
L 417.83759 111.885978 
L 422.266506 108.563371 
L 424.480964 105.006095 
L 426.695422 105.001353 
L 428.90988 106.678904 
L 433.338795 107.463974 
L 435.553253 107.303517 
L 437.767711 107.393275 
L 439.982169 107.325737 
L 442.196627 108.49882 
L 444.411084 151.611116 
L 446.625542 158.141717 
L 448.84 155.938092 
L 451.054458 153.453076 
L 453.268916 151.91947 
L 455.483373 153.187492 
L 457.697831 153.276108 
L 459.912289 154.518748 
L 462.126747 148.400486 
L 466.555663 135.47594 
L 468.77012 129.810155 
L 470.984578 130.653804 
L 473.199036 128.511131 
L 475.413494 129.550894 
L 479.84241 131.41806 
L 482.056867 148.173107 
L 484.271325 167.697724 
L 486.485783 180.340527 
L 488.700241 181.508164 
L 493.129157 163.376368 
L 495.343614 151.495625 
L 497.558072 138.289336 
L 499.77253 131.507379 
L 501.986988 118.967771 
L 504.201446 110.517221 
L 506.415904 108.715748 
L 508.630361 109.824542 
L 510.844819 113.172355 
L 513.059277 116.025096 
L 515.273735 129.615709 
L 517.488193 151.014167 
L 519.702651 174.569878 
L 521.917108 187.24421 
L 524.131566 191.05934 
L 526.346024 189.671437 
L 528.560482 183.264845 
L 530.77494 167.728463 
L 535.203855 148.554093 
L 537.418313 144.746691 
L 539.632771 146.080054 
L 541.847229 143.889164 
L 544.061687 136.769519 
L 546.276145 137.683517 
L 548.490602 139.100754 
L 550.70506 138.822699 
L 552.919518 136.143061 
L 555.133976 132.688717 
L 557.348434 131.87765 
L 559.562892 130.094445 
L 561.777349 128.996805 
L 563.991807 126.651606 
L 566.206265 124.592981 
L 568.420723 123.492969 
L 570.635181 123.246531 
L 572.849639 122.462076 
L 575.064096 122.100411 
L 577.278554 121.479838 
L 579.493012 120.440864 
L 581.70747 117.121771 
L 583.921928 114.158282 
L 586.136386 112.55872 
L 588.350843 112.389568 
L 590.565301 110.148793 
L 592.779759 104.556342 
L 594.994217 96.2666 
L 597.208675 87.013327 
L 599.423133 78.596151 
L 601.63759 76.985083 
L 603.852048 73.764266 
L 606.066506 74.734648 
L 608.280964 76.510915 
L 610.495422 81.057367 
L 612.70988 102.461357 
L 617.138795 159.280021 
L 619.353253 199.14322 
L 621.567711 226.623052 
L 623.782169 238.322084 
L 625.996627 241.167273 
L 628.211084 236.752822 
L 630.425542 224.933557 
L 632.64 209.824445 
L 634.854458 201.312241 
L 637.068916 189.245485 
L 641.497831 155.499317 
L 643.712289 147.179188 
L 645.926747 137.248957 
L 648.141205 131.995775 
L 650.355663 104.065311 
L 652.57012 83.661738 
L 654.784578 66.342414 
L 656.999036 54.136191 
L 659.213494 46.837206 
L 661.427952 45.85488 
L 663.64241 55.375494 
L 665.856867 58.766428 
L 668.071325 75.752104 
L 670.285783 96.544479 
L 672.500241 129.818937 
L 674.714699 151.684977 
L 676.929157 179.322983 
L 679.143614 196.189128 
L 681.358072 204.179649 
L 683.57253 204.849668 
L 685.786988 199.463167 
L 688.001446 190.284107 
L 690.215904 182.390457 
L 692.430361 180.524784 
L 694.644819 159.857121 
L 696.859277 141.658929 
L 699.073735 126.836127 
L 701.288193 108.59332 
L 703.502651 95.766611 
L 705.717108 89.023121 
L 707.931566 88.966474 
L 710.146024 89.302054 
L 712.360482 94.197348 
L 714.57494 97.703686 
L 716.789398 106.906986 
L 719.003855 113.363375 
L 721.218313 119.159844 
L 723.432771 120.255729 
L 725.647229 120.097643 
L 727.861687 116.041783 
L 730.076145 103.156758 
L 732.290602 86.476451 
L 734.50506 68.60374 
L 736.719518 57.422438 
L 738.933976 54.022808 
L 741.148434 52.91498 
L 743.362892 54.185285 
L 745.577349 49.690211 
L 747.791807 42.286451 
L 750.006265 41.375966 
L 752.220723 42.653473 
L 754.435181 35.712727 
L 756.649639 43.56545 
L 758.864096 65.00826 
L 761.078554 84.579337 
L 763.293012 118.342718 
L 765.50747 128.276637 
L 767.721928 135.444411 
L 769.936386 138.636773 
L 772.150843 138.904288 
L 774.365301 126.534886 
L 776.579759 115.64613 
L 778.794217 108.086656 
L 781.008675 108.711269 
L 783.223133 103.294029 
L 785.43759 99.213666 
L 787.652048 101.826995 
L 792.080964 106.314956 
L 794.295422 109.402718 
L 796.50988 111.690479 
L 798.724337 111.911447 
L 803.153253 108.635827 
L 805.367711 105.083909 
L 807.582169 104.884106 
L 809.796627 106.699279 
L 812.011084 107.062613 
L 814.225542 107.59299 
L 816.44 107.38862 
L 816.44 107.38862 
" clip-path="url(#p5f4abf6cd2)" style="fill: none; stroke: #ff0000; stroke-width: 1.5; stroke-linecap: square"/>
   </g>
   <g id="patch_9">
    <path d="M 44.48 251.44 
L 44.48 25.44 
" style="fill: none; stroke: #000000; stroke-width: 0.8; stroke-linejoin: miter; stroke-linecap: square"/>
   </g>
   <g id="patch_10">
    <path d="M 853.2 251.44 
L 853.2 25.44 
" style="fill: none; stroke: #000000; stroke-width: 0.8; stroke-linejoin: miter; stroke-linecap: square"/>
   </g>
   <g id="patch_11">
    <path d="M 44.48 251.44 
L 853.2 251.44 
" style="fill: none; stroke: #000000; stroke-width: 0.8; stroke-linejoin: miter; stroke-linecap: square"/>
   </g>
   <g id="patch_12">
    <path d="M 44.48 25.44 
L 853.2 25.44 
" style="fill: none; stroke: #000000; stroke-width: 0.8; stroke-linejoin: miter; stroke-linecap: square"/>
   </g>
   <g id="text_34">
    <!-- Position Data -->
    <g transform="translate(416.340625 19.44)scale(0.12 -0.12)">
     <defs>
      <path id="TimesNewRomanPSMT-44" d="M 109 0 
L 109 116 
L 269 116 
Q 538 116 650 288 
Q 719 391 719 750 
L 719 3488 
Q 719 3884 631 3984 
Q 509 4122 269 4122 
L 109 4122 
L 109 4238 
L 1834 4238 
Q 2784 4238 3279 4022 
Q 3775 3806 4076 3303 
Q 4378 2800 4378 2141 
Q 4378 1256 3841 663 
Q 3238 0 2003 0 
L 109 0 
z
M 1319 306 
Q 1716 219 1984 219 
Q 2709 219 3187 728 
Q 3666 1238 3666 2109 
Q 3666 2988 3187 3494 
Q 2709 4000 1959 4000 
Q 1678 4000 1319 3909 
L 1319 306 
z
" transform="scale(0.015625)"/>
     </defs>
     <use xlink:href="#TimesNewRomanPSMT-50"/>
     <use xlink:href="#TimesNewRomanPSMT-6f" x="55.615234"/>
     <use xlink:href="#TimesNewRomanPSMT-73" x="105.615234"/>
     <use xlink:href="#TimesNewRomanPSMT-69" x="144.53125"/>
     <use xlink:href="#TimesNewRomanPSMT-74" x="172.314453"/>
     <use xlink:href="#TimesNewRomanPSMT-69" x="200.097656"/>
     <use xlink:href="#TimesNewRomanPSMT-6f" x="227.880859"/>
     <use xlink:href="#TimesNewRomanPSMT-6e" x="277.880859"/>
     <use xlink:href="#TimesNewRomanPSMT-20" x="327.880859"/>
     <use xlink:href="#TimesNewRomanPSMT-44" x="352.880859"/>
     <use xlink:href="#TimesNewRomanPSMT-61" x="425.097656"/>
     <use xlink:href="#TimesNewRomanPSMT-74" x="469.482422"/>
     <use xlink:href="#TimesNewRomanPSMT-61" x="497.265625"/>
    </g>
   </g>
   <g id="legend_2">
    <g id="patch_13">
     <path d="M 771.4125 61.755625 
L 846.2 61.755625 
Q 848.2 61.755625 848.2 59.755625 
L 848.2 32.44 
Q 848.2 30.44 846.2 30.44 
L 771.4125 30.44 
Q 769.4125 30.44 769.4125 32.44 
L 769.4125 59.755625 
Q 769.4125 61.755625 771.4125 61.755625 
z
" style="fill: #ffffff; opacity: 0.8; stroke: #cccccc; stroke-linejoin: miter"/>
    </g>
    <g id="line2d_33">
     <path d="M 773.4125 37.94 
L 783.4125 37.94 
L 793.4125 37.94 
" style="fill: none; stroke: #008000; stroke-width: 1.5; stroke-linecap: square"/>
    </g>
    <g id="text_35">
     <!-- Position_0 -->
     <g transform="translate(801.4125 41.44)scale(0.1 -0.1)">
      <use xlink:href="#TimesNewRomanPSMT-50"/>
      <use xlink:href="#TimesNewRomanPSMT-6f" x="55.615234"/>
      <use xlink:href="#TimesNewRomanPSMT-73" x="105.615234"/>
      <use xlink:href="#TimesNewRomanPSMT-69" x="144.53125"/>
      <use xlink:href="#TimesNewRomanPSMT-74" x="172.314453"/>
      <use xlink:href="#TimesNewRomanPSMT-69" x="200.097656"/>
      <use xlink:href="#TimesNewRomanPSMT-6f" x="227.880859"/>
      <use xlink:href="#TimesNewRomanPSMT-6e" x="277.880859"/>
      <use xlink:href="#TimesNewRomanPSMT-5f" x="327.880859"/>
      <use xlink:href="#TimesNewRomanPSMT-30" x="377.880859"/>
     </g>
    </g>
    <g id="line2d_34">
     <path d="M 773.4125 52.097813 
L 783.4125 52.097813 
L 793.4125 52.097813 
" style="fill: none; stroke: #ff0000; stroke-width: 1.5; stroke-linecap: square"/>
    </g>
    <g id="text_36">
     <!-- Position_1 -->
     <g transform="translate(801.4125 55.597813)scale(0.1 -0.1)">
      <use xlink:href="#TimesNewRomanPSMT-50"/>
      <use xlink:href="#TimesNewRomanPSMT-6f" x="55.615234"/>
      <use xlink:href="#TimesNewRomanPSMT-73" x="105.615234"/>
      <use xlink:href="#TimesNewRomanPSMT-69" x="144.53125"/>
      <use xlink:href="#TimesNewRomanPSMT-74" x="172.314453"/>
      <use xlink:href="#TimesNewRomanPSMT-69" x="200.097656"/>
      <use xlink:href="#TimesNewRomanPSMT-6f" x="227.880859"/>
      <use xlink:href="#TimesNewRomanPSMT-6e" x="277.880859"/>
      <use xlink:href="#TimesNewRomanPSMT-5f" x="327.880859"/>
      <use xlink:href="#TimesNewRomanPSMT-31" x="377.880859"/>
     </g>
    </g>
   </g>
  </g>
 </g>
 <defs>
  <clipPath id="pfb2ff18dde">
   <rect x="44.48" y="308.04" width="808.72" height="226"/>
  </clipPath>
  <clipPath id="p5f4abf6cd2">
   <rect x="44.48" y="25.44" width="808.72" height="226"/>
  </clipPath>
 </defs>
</svg>
