<?xml version="1.0" encoding="utf-8" standalone="no"?>
<!DOCTYPE svg PUBLIC "-//W3C//DTD SVG 1.1//EN"
  "http://www.w3.org/Graphics/SVG/1.1/DTD/svg11.dtd">
<svg xmlns:xlink="http://www.w3.org/1999/xlink" width="864pt" height="576pt" viewBox="0 0 864 576" xmlns="http://www.w3.org/2000/svg" version="1.1">
 <metadata>
  <rdf:RDF xmlns:dc="http://purl.org/dc/elements/1.1/" xmlns:cc="http://creativecommons.org/ns#" xmlns:rdf="http://www.w3.org/1999/02/22-rdf-syntax-ns#">
   <cc:Work>
    <dc:type rdf:resource="http://purl.org/dc/dcmitype/StillImage"/>
    <dc:date>2025-05-16T02:14:07.258899</dc:date>
    <dc:format>image/svg+xml</dc:format>
    <dc:creator>
     <cc:Agent>
      <dc:title>Matplotlib v3.5.1, https://matplotlib.org/</dc:title>
     </cc:Agent>
    </dc:creator>
   </cc:Work>
  </rdf:RDF>
 </metadata>
 <defs>
  <style type="text/css">*{stroke-linejoin: round; stroke-linecap: butt}</style>
 </defs>
 <g id="figure_1">
  <g id="patch_1">
   <path d="M 0 576 
L 864 576 
L 864 0 
L 0 0 
z
" style="fill: #ffffff"/>
  </g>
  <g id="axes_1">
   <g id="patch_2">
    <path d="M 49.52 534.04 
L 853.2 534.04 
L 853.2 308.04 
L 49.52 308.04 
z
" style="fill: #ffffff"/>
   </g>
   <g id="matplotlib.axis_1">
    <g id="xtick_1">
     <g id="line2d_1">
      <defs>
       <path id="m94ae4abdca" d="M 0 0 
L 0 3.5 
" style="stroke: #000000; stroke-width: 0.8"/>
      </defs>
      <g>
       <use xlink:href="#m94ae4abdca" x="86.050909" y="534.04" style="stroke: #000000; stroke-width: 0.8"/>
      </g>
     </g>
     <g id="text_1">
      <!-- 0 -->
      <g transform="translate(83.550909 547.98375)scale(0.1 -0.1)">
       <defs>
        <path id="TimesNewRomanPSMT-30" d="M 231 2094 
Q 231 2819 450 3342 
Q 669 3866 1031 4122 
Q 1313 4325 1613 4325 
Q 2100 4325 2488 3828 
Q 2972 3213 2972 2159 
Q 2972 1422 2759 906 
Q 2547 391 2217 158 
Q 1888 -75 1581 -75 
Q 975 -75 572 641 
Q 231 1244 231 2094 
z
M 844 2016 
Q 844 1141 1059 588 
Q 1238 122 1591 122 
Q 1759 122 1940 273 
Q 2122 425 2216 781 
Q 2359 1319 2359 2297 
Q 2359 3022 2209 3506 
Q 2097 3866 1919 4016 
Q 1791 4119 1609 4119 
Q 1397 4119 1231 3928 
Q 1006 3669 925 3112 
Q 844 2556 844 2016 
z
" transform="scale(0.015625)"/>
       </defs>
       <use xlink:href="#TimesNewRomanPSMT-30"/>
      </g>
     </g>
    </g>
    <g id="xtick_2">
     <g id="line2d_2">
      <g>
       <use xlink:href="#m94ae4abdca" x="196.083768" y="534.04" style="stroke: #000000; stroke-width: 0.8"/>
      </g>
     </g>
     <g id="text_2">
      <!-- 50 -->
      <g transform="translate(191.083768 547.98375)scale(0.1 -0.1)">
       <defs>
        <path id="TimesNewRomanPSMT-35" d="M 2778 4238 
L 2534 3706 
L 1259 3706 
L 981 3138 
Q 1809 3016 2294 2522 
Q 2709 2097 2709 1522 
Q 2709 1188 2573 903 
Q 2438 619 2231 419 
Q 2025 219 1772 97 
Q 1413 -75 1034 -75 
Q 653 -75 479 54 
Q 306 184 306 341 
Q 306 428 378 495 
Q 450 563 559 563 
Q 641 563 702 538 
Q 763 513 909 409 
Q 1144 247 1384 247 
Q 1750 247 2026 523 
Q 2303 800 2303 1197 
Q 2303 1581 2056 1914 
Q 1809 2247 1375 2428 
Q 1034 2569 447 2591 
L 1259 4238 
L 2778 4238 
z
" transform="scale(0.015625)"/>
       </defs>
       <use xlink:href="#TimesNewRomanPSMT-35"/>
       <use xlink:href="#TimesNewRomanPSMT-30" x="50"/>
      </g>
     </g>
    </g>
    <g id="xtick_3">
     <g id="line2d_3">
      <g>
       <use xlink:href="#m94ae4abdca" x="306.116627" y="534.04" style="stroke: #000000; stroke-width: 0.8"/>
      </g>
     </g>
     <g id="text_3">
      <!-- 100 -->
      <g transform="translate(298.616627 547.98375)scale(0.1 -0.1)">
       <defs>
        <path id="TimesNewRomanPSMT-31" d="M 750 3822 
L 1781 4325 
L 1884 4325 
L 1884 747 
Q 1884 391 1914 303 
Q 1944 216 2037 169 
Q 2131 122 2419 116 
L 2419 0 
L 825 0 
L 825 116 
Q 1125 122 1212 167 
Q 1300 213 1334 289 
Q 1369 366 1369 747 
L 1369 3034 
Q 1369 3497 1338 3628 
Q 1316 3728 1258 3775 
Q 1200 3822 1119 3822 
Q 1003 3822 797 3725 
L 750 3822 
z
" transform="scale(0.015625)"/>
       </defs>
       <use xlink:href="#TimesNewRomanPSMT-31"/>
       <use xlink:href="#TimesNewRomanPSMT-30" x="50"/>
       <use xlink:href="#TimesNewRomanPSMT-30" x="100"/>
      </g>
     </g>
    </g>
    <g id="xtick_4">
     <g id="line2d_4">
      <g>
       <use xlink:href="#m94ae4abdca" x="416.149485" y="534.04" style="stroke: #000000; stroke-width: 0.8"/>
      </g>
     </g>
     <g id="text_4">
      <!-- 150 -->
      <g transform="translate(408.649485 547.98375)scale(0.1 -0.1)">
       <use xlink:href="#TimesNewRomanPSMT-31"/>
       <use xlink:href="#TimesNewRomanPSMT-35" x="50"/>
       <use xlink:href="#TimesNewRomanPSMT-30" x="100"/>
      </g>
     </g>
    </g>
    <g id="xtick_5">
     <g id="line2d_5">
      <g>
       <use xlink:href="#m94ae4abdca" x="526.182344" y="534.04" style="stroke: #000000; stroke-width: 0.8"/>
      </g>
     </g>
     <g id="text_5">
      <!-- 200 -->
      <g transform="translate(518.682344 547.98375)scale(0.1 -0.1)">
       <defs>
        <path id="TimesNewRomanPSMT-32" d="M 2934 816 
L 2638 0 
L 138 0 
L 138 116 
Q 1241 1122 1691 1759 
Q 2141 2397 2141 2925 
Q 2141 3328 1894 3587 
Q 1647 3847 1303 3847 
Q 991 3847 742 3664 
Q 494 3481 375 3128 
L 259 3128 
Q 338 3706 661 4015 
Q 984 4325 1469 4325 
Q 1984 4325 2329 3994 
Q 2675 3663 2675 3213 
Q 2675 2891 2525 2569 
Q 2294 2063 1775 1497 
Q 997 647 803 472 
L 1909 472 
Q 2247 472 2383 497 
Q 2519 522 2628 598 
Q 2738 675 2819 816 
L 2934 816 
z
" transform="scale(0.015625)"/>
       </defs>
       <use xlink:href="#TimesNewRomanPSMT-32"/>
       <use xlink:href="#TimesNewRomanPSMT-30" x="50"/>
       <use xlink:href="#TimesNewRomanPSMT-30" x="100"/>
      </g>
     </g>
    </g>
    <g id="xtick_6">
     <g id="line2d_6">
      <g>
       <use xlink:href="#m94ae4abdca" x="636.215203" y="534.04" style="stroke: #000000; stroke-width: 0.8"/>
      </g>
     </g>
     <g id="text_6">
      <!-- 250 -->
      <g transform="translate(628.715203 547.98375)scale(0.1 -0.1)">
       <use xlink:href="#TimesNewRomanPSMT-32"/>
       <use xlink:href="#TimesNewRomanPSMT-35" x="50"/>
       <use xlink:href="#TimesNewRomanPSMT-30" x="100"/>
      </g>
     </g>
    </g>
    <g id="xtick_7">
     <g id="line2d_7">
      <g>
       <use xlink:href="#m94ae4abdca" x="746.248061" y="534.04" style="stroke: #000000; stroke-width: 0.8"/>
      </g>
     </g>
     <g id="text_7">
      <!-- 300 -->
      <g transform="translate(738.748061 547.98375)scale(0.1 -0.1)">
       <defs>
        <path id="TimesNewRomanPSMT-33" d="M 325 3431 
Q 506 3859 782 4092 
Q 1059 4325 1472 4325 
Q 1981 4325 2253 3994 
Q 2459 3747 2459 3466 
Q 2459 3003 1878 2509 
Q 2269 2356 2469 2072 
Q 2669 1788 2669 1403 
Q 2669 853 2319 450 
Q 1863 -75 997 -75 
Q 569 -75 414 31 
Q 259 138 259 259 
Q 259 350 332 419 
Q 406 488 509 488 
Q 588 488 669 463 
Q 722 447 909 348 
Q 1097 250 1169 231 
Q 1284 197 1416 197 
Q 1734 197 1970 444 
Q 2206 691 2206 1028 
Q 2206 1275 2097 1509 
Q 2016 1684 1919 1775 
Q 1784 1900 1550 2001 
Q 1316 2103 1072 2103 
L 972 2103 
L 972 2197 
Q 1219 2228 1467 2375 
Q 1716 2522 1828 2728 
Q 1941 2934 1941 3181 
Q 1941 3503 1739 3701 
Q 1538 3900 1238 3900 
Q 753 3900 428 3381 
L 325 3431 
z
" transform="scale(0.015625)"/>
       </defs>
       <use xlink:href="#TimesNewRomanPSMT-33"/>
       <use xlink:href="#TimesNewRomanPSMT-30" x="50"/>
       <use xlink:href="#TimesNewRomanPSMT-30" x="100"/>
      </g>
     </g>
    </g>
    <g id="text_8">
     <!-- Time[s] -->
     <g transform="translate(435.707656 561.066563)scale(0.1 -0.1)">
      <defs>
       <path id="TimesNewRomanPSMT-54" d="M 3703 4238 
L 3750 3244 
L 3631 3244 
Q 3597 3506 3538 3619 
Q 3441 3800 3280 3886 
Q 3119 3972 2856 3972 
L 2259 3972 
L 2259 734 
Q 2259 344 2344 247 
Q 2463 116 2709 116 
L 2856 116 
L 2856 0 
L 1059 0 
L 1059 116 
L 1209 116 
Q 1478 116 1591 278 
Q 1659 378 1659 734 
L 1659 3972 
L 1150 3972 
Q 853 3972 728 3928 
Q 566 3869 450 3700 
Q 334 3531 313 3244 
L 194 3244 
L 244 4238 
L 3703 4238 
z
" transform="scale(0.015625)"/>
       <path id="TimesNewRomanPSMT-69" d="M 928 4444 
Q 1059 4444 1151 4351 
Q 1244 4259 1244 4128 
Q 1244 3997 1151 3903 
Q 1059 3809 928 3809 
Q 797 3809 703 3903 
Q 609 3997 609 4128 
Q 609 4259 701 4351 
Q 794 4444 928 4444 
z
M 1188 2947 
L 1188 647 
Q 1188 378 1227 289 
Q 1266 200 1342 156 
Q 1419 113 1622 113 
L 1622 0 
L 231 0 
L 231 113 
Q 441 113 512 153 
Q 584 194 626 287 
Q 669 381 669 647 
L 669 1750 
Q 669 2216 641 2353 
Q 619 2453 572 2492 
Q 525 2531 444 2531 
Q 356 2531 231 2484 
L 188 2597 
L 1050 2947 
L 1188 2947 
z
" transform="scale(0.015625)"/>
       <path id="TimesNewRomanPSMT-6d" d="M 1050 2338 
Q 1363 2650 1419 2697 
Q 1559 2816 1721 2881 
Q 1884 2947 2044 2947 
Q 2313 2947 2506 2790 
Q 2700 2634 2766 2338 
Q 3088 2713 3309 2830 
Q 3531 2947 3766 2947 
Q 3994 2947 4170 2830 
Q 4347 2713 4450 2447 
Q 4519 2266 4519 1878 
L 4519 647 
Q 4519 378 4559 278 
Q 4591 209 4675 161 
Q 4759 113 4950 113 
L 4950 0 
L 3538 0 
L 3538 113 
L 3597 113 
Q 3781 113 3884 184 
Q 3956 234 3988 344 
Q 4000 397 4000 647 
L 4000 1878 
Q 4000 2228 3916 2372 
Q 3794 2572 3525 2572 
Q 3359 2572 3192 2489 
Q 3025 2406 2788 2181 
L 2781 2147 
L 2788 2013 
L 2788 647 
Q 2788 353 2820 281 
Q 2853 209 2943 161 
Q 3034 113 3253 113 
L 3253 0 
L 1806 0 
L 1806 113 
Q 2044 113 2133 169 
Q 2222 225 2256 338 
Q 2272 391 2272 647 
L 2272 1878 
Q 2272 2228 2169 2381 
Q 2031 2581 1784 2581 
Q 1616 2581 1450 2491 
Q 1191 2353 1050 2181 
L 1050 647 
Q 1050 366 1089 281 
Q 1128 197 1204 155 
Q 1281 113 1516 113 
L 1516 0 
L 100 0 
L 100 113 
Q 297 113 375 155 
Q 453 197 493 289 
Q 534 381 534 647 
L 534 1741 
Q 534 2213 506 2350 
Q 484 2453 437 2492 
Q 391 2531 309 2531 
Q 222 2531 100 2484 
L 53 2597 
L 916 2947 
L 1050 2947 
L 1050 2338 
z
" transform="scale(0.015625)"/>
       <path id="TimesNewRomanPSMT-65" d="M 681 1784 
Q 678 1147 991 784 
Q 1303 422 1725 422 
Q 2006 422 2214 576 
Q 2422 731 2563 1106 
L 2659 1044 
Q 2594 616 2278 264 
Q 1963 -88 1488 -88 
Q 972 -88 605 314 
Q 238 716 238 1394 
Q 238 2128 614 2539 
Q 991 2950 1559 2950 
Q 2041 2950 2350 2633 
Q 2659 2316 2659 1784 
L 681 1784 
z
M 681 1966 
L 2006 1966 
Q 1991 2241 1941 2353 
Q 1863 2528 1708 2628 
Q 1553 2728 1384 2728 
Q 1125 2728 920 2526 
Q 716 2325 681 1966 
z
" transform="scale(0.015625)"/>
       <path id="TimesNewRomanPSMT-5b" d="M 1900 -1269 
L 525 -1269 
L 525 4334 
L 1900 4334 
L 1900 4088 
L 994 4088 
L 994 -1025 
L 1900 -1025 
L 1900 -1269 
z
" transform="scale(0.015625)"/>
       <path id="TimesNewRomanPSMT-73" d="M 2050 2947 
L 2050 1972 
L 1947 1972 
Q 1828 2431 1642 2597 
Q 1456 2763 1169 2763 
Q 950 2763 815 2647 
Q 681 2531 681 2391 
Q 681 2216 781 2091 
Q 878 1963 1175 1819 
L 1631 1597 
Q 2266 1288 2266 781 
Q 2266 391 1970 151 
Q 1675 -88 1309 -88 
Q 1047 -88 709 6 
Q 606 38 541 38 
Q 469 38 428 -44 
L 325 -44 
L 325 978 
L 428 978 
Q 516 541 762 319 
Q 1009 97 1316 97 
Q 1531 97 1667 223 
Q 1803 350 1803 528 
Q 1803 744 1651 891 
Q 1500 1038 1047 1263 
Q 594 1488 453 1669 
Q 313 1847 313 2119 
Q 313 2472 555 2709 
Q 797 2947 1181 2947 
Q 1350 2947 1591 2875 
Q 1750 2828 1803 2828 
Q 1853 2828 1881 2850 
Q 1909 2872 1947 2947 
L 2050 2947 
z
" transform="scale(0.015625)"/>
       <path id="TimesNewRomanPSMT-5d" d="M 234 4334 
L 1609 4334 
L 1609 -1272 
L 234 -1272 
L 234 -1025 
L 1141 -1025 
L 1141 4088 
L 234 4088 
L 234 4334 
z
" transform="scale(0.015625)"/>
      </defs>
      <use xlink:href="#TimesNewRomanPSMT-54"/>
      <use xlink:href="#TimesNewRomanPSMT-69" x="57.583984"/>
      <use xlink:href="#TimesNewRomanPSMT-6d" x="85.367188"/>
      <use xlink:href="#TimesNewRomanPSMT-65" x="163.150391"/>
      <use xlink:href="#TimesNewRomanPSMT-5b" x="207.535156"/>
      <use xlink:href="#TimesNewRomanPSMT-73" x="240.835938"/>
      <use xlink:href="#TimesNewRomanPSMT-5d" x="279.751953"/>
     </g>
    </g>
   </g>
   <g id="matplotlib.axis_2">
    <g id="ytick_1">
     <g id="line2d_8">
      <defs>
       <path id="m7c32c24de7" d="M 0 0 
L -3.5 0 
" style="stroke: #000000; stroke-width: 0.8"/>
      </defs>
      <g>
       <use xlink:href="#m7c32c24de7" x="49.52" y="532.997459" style="stroke: #000000; stroke-width: 0.8"/>
      </g>
     </g>
     <g id="text_9">
      <!-- 15.0 -->
      <g transform="translate(25.02 536.469334)scale(0.1 -0.1)">
       <defs>
        <path id="TimesNewRomanPSMT-2e" d="M 800 606 
Q 947 606 1047 504 
Q 1147 403 1147 259 
Q 1147 116 1045 14 
Q 944 -88 800 -88 
Q 656 -88 554 14 
Q 453 116 453 259 
Q 453 406 554 506 
Q 656 606 800 606 
z
" transform="scale(0.015625)"/>
       </defs>
       <use xlink:href="#TimesNewRomanPSMT-31"/>
       <use xlink:href="#TimesNewRomanPSMT-35" x="50"/>
       <use xlink:href="#TimesNewRomanPSMT-2e" x="100"/>
       <use xlink:href="#TimesNewRomanPSMT-30" x="125"/>
      </g>
     </g>
    </g>
    <g id="ytick_2">
     <g id="line2d_9">
      <g>
       <use xlink:href="#m7c32c24de7" x="49.52" y="504.299998" style="stroke: #000000; stroke-width: 0.8"/>
      </g>
     </g>
     <g id="text_10">
      <!-- 17.5 -->
      <g transform="translate(25.02 507.771873)scale(0.1 -0.1)">
       <defs>
        <path id="TimesNewRomanPSMT-37" d="M 644 4238 
L 2916 4238 
L 2916 4119 
L 1503 -88 
L 1153 -88 
L 2419 3728 
L 1253 3728 
Q 900 3728 750 3644 
Q 488 3500 328 3200 
L 238 3234 
L 644 4238 
z
" transform="scale(0.015625)"/>
       </defs>
       <use xlink:href="#TimesNewRomanPSMT-31"/>
       <use xlink:href="#TimesNewRomanPSMT-37" x="50"/>
       <use xlink:href="#TimesNewRomanPSMT-2e" x="100"/>
       <use xlink:href="#TimesNewRomanPSMT-35" x="125"/>
      </g>
     </g>
    </g>
    <g id="ytick_3">
     <g id="line2d_10">
      <g>
       <use xlink:href="#m7c32c24de7" x="49.52" y="475.602538" style="stroke: #000000; stroke-width: 0.8"/>
      </g>
     </g>
     <g id="text_11">
      <!-- 20.0 -->
      <g transform="translate(25.02 479.074413)scale(0.1 -0.1)">
       <use xlink:href="#TimesNewRomanPSMT-32"/>
       <use xlink:href="#TimesNewRomanPSMT-30" x="50"/>
       <use xlink:href="#TimesNewRomanPSMT-2e" x="100"/>
       <use xlink:href="#TimesNewRomanPSMT-30" x="125"/>
      </g>
     </g>
    </g>
    <g id="ytick_4">
     <g id="line2d_11">
      <g>
       <use xlink:href="#m7c32c24de7" x="49.52" y="446.905077" style="stroke: #000000; stroke-width: 0.8"/>
      </g>
     </g>
     <g id="text_12">
      <!-- 22.5 -->
      <g transform="translate(25.02 450.376952)scale(0.1 -0.1)">
       <use xlink:href="#TimesNewRomanPSMT-32"/>
       <use xlink:href="#TimesNewRomanPSMT-32" x="50"/>
       <use xlink:href="#TimesNewRomanPSMT-2e" x="100"/>
       <use xlink:href="#TimesNewRomanPSMT-35" x="125"/>
      </g>
     </g>
    </g>
    <g id="ytick_5">
     <g id="line2d_12">
      <g>
       <use xlink:href="#m7c32c24de7" x="49.52" y="418.207617" style="stroke: #000000; stroke-width: 0.8"/>
      </g>
     </g>
     <g id="text_13">
      <!-- 25.0 -->
      <g transform="translate(25.02 421.679492)scale(0.1 -0.1)">
       <use xlink:href="#TimesNewRomanPSMT-32"/>
       <use xlink:href="#TimesNewRomanPSMT-35" x="50"/>
       <use xlink:href="#TimesNewRomanPSMT-2e" x="100"/>
       <use xlink:href="#TimesNewRomanPSMT-30" x="125"/>
      </g>
     </g>
    </g>
    <g id="ytick_6">
     <g id="line2d_13">
      <g>
       <use xlink:href="#m7c32c24de7" x="49.52" y="389.510156" style="stroke: #000000; stroke-width: 0.8"/>
      </g>
     </g>
     <g id="text_14">
      <!-- 27.5 -->
      <g transform="translate(25.02 392.982031)scale(0.1 -0.1)">
       <use xlink:href="#TimesNewRomanPSMT-32"/>
       <use xlink:href="#TimesNewRomanPSMT-37" x="50"/>
       <use xlink:href="#TimesNewRomanPSMT-2e" x="100"/>
       <use xlink:href="#TimesNewRomanPSMT-35" x="125"/>
      </g>
     </g>
    </g>
    <g id="ytick_7">
     <g id="line2d_14">
      <g>
       <use xlink:href="#m7c32c24de7" x="49.52" y="360.812696" style="stroke: #000000; stroke-width: 0.8"/>
      </g>
     </g>
     <g id="text_15">
      <!-- 30.0 -->
      <g transform="translate(25.02 364.284571)scale(0.1 -0.1)">
       <use xlink:href="#TimesNewRomanPSMT-33"/>
       <use xlink:href="#TimesNewRomanPSMT-30" x="50"/>
       <use xlink:href="#TimesNewRomanPSMT-2e" x="100"/>
       <use xlink:href="#TimesNewRomanPSMT-30" x="125"/>
      </g>
     </g>
    </g>
    <g id="ytick_8">
     <g id="line2d_15">
      <g>
       <use xlink:href="#m7c32c24de7" x="49.52" y="332.115235" style="stroke: #000000; stroke-width: 0.8"/>
      </g>
     </g>
     <g id="text_16">
      <!-- 32.5 -->
      <g transform="translate(25.02 335.58711)scale(0.1 -0.1)">
       <use xlink:href="#TimesNewRomanPSMT-33"/>
       <use xlink:href="#TimesNewRomanPSMT-32" x="50"/>
       <use xlink:href="#TimesNewRomanPSMT-2e" x="100"/>
       <use xlink:href="#TimesNewRomanPSMT-35" x="125"/>
      </g>
     </g>
    </g>
    <g id="text_17">
     <!-- Reduction Ratio -->
     <g transform="translate(18.880938 453.675156)rotate(-90)scale(0.1 -0.1)">
      <defs>
       <path id="TimesNewRomanPSMT-52" d="M 4325 0 
L 3194 0 
L 1759 1981 
Q 1600 1975 1500 1975 
Q 1459 1975 1412 1976 
Q 1366 1978 1316 1981 
L 1316 750 
Q 1316 350 1403 253 
Q 1522 116 1759 116 
L 1925 116 
L 1925 0 
L 109 0 
L 109 116 
L 269 116 
Q 538 116 653 291 
Q 719 388 719 750 
L 719 3488 
Q 719 3888 631 3984 
Q 509 4122 269 4122 
L 109 4122 
L 109 4238 
L 1653 4238 
Q 2328 4238 2648 4139 
Q 2969 4041 3192 3777 
Q 3416 3513 3416 3147 
Q 3416 2756 3161 2468 
Q 2906 2181 2372 2063 
L 3247 847 
Q 3547 428 3762 290 
Q 3978 153 4325 116 
L 4325 0 
z
M 1316 2178 
Q 1375 2178 1419 2176 
Q 1463 2175 1491 2175 
Q 2097 2175 2405 2437 
Q 2713 2700 2713 3106 
Q 2713 3503 2464 3751 
Q 2216 4000 1806 4000 
Q 1625 4000 1316 3941 
L 1316 2178 
z
" transform="scale(0.015625)"/>
       <path id="TimesNewRomanPSMT-64" d="M 2222 322 
Q 2013 103 1813 7 
Q 1613 -88 1381 -88 
Q 913 -88 563 304 
Q 213 697 213 1313 
Q 213 1928 600 2439 
Q 988 2950 1597 2950 
Q 1975 2950 2222 2709 
L 2222 3238 
Q 2222 3728 2198 3840 
Q 2175 3953 2125 3993 
Q 2075 4034 2000 4034 
Q 1919 4034 1784 3984 
L 1744 4094 
L 2597 4444 
L 2738 4444 
L 2738 1134 
Q 2738 631 2761 520 
Q 2784 409 2836 365 
Q 2888 322 2956 322 
Q 3041 322 3181 375 
L 3216 266 
L 2366 -88 
L 2222 -88 
L 2222 322 
z
M 2222 541 
L 2222 2016 
Q 2203 2228 2109 2403 
Q 2016 2578 1861 2667 
Q 1706 2756 1559 2756 
Q 1284 2756 1069 2509 
Q 784 2184 784 1559 
Q 784 928 1059 592 
Q 1334 256 1672 256 
Q 1956 256 2222 541 
z
" transform="scale(0.015625)"/>
       <path id="TimesNewRomanPSMT-75" d="M 2709 2863 
L 2709 1128 
Q 2709 631 2732 520 
Q 2756 409 2807 365 
Q 2859 322 2928 322 
Q 3025 322 3147 375 
L 3191 266 
L 2334 -88 
L 2194 -88 
L 2194 519 
Q 1825 119 1631 15 
Q 1438 -88 1222 -88 
Q 981 -88 804 51 
Q 628 191 559 409 
Q 491 628 491 1028 
L 491 2306 
Q 491 2509 447 2587 
Q 403 2666 317 2708 
Q 231 2750 6 2747 
L 6 2863 
L 1009 2863 
L 1009 947 
Q 1009 547 1148 422 
Q 1288 297 1484 297 
Q 1619 297 1789 381 
Q 1959 466 2194 703 
L 2194 2325 
Q 2194 2569 2105 2655 
Q 2016 2741 1734 2747 
L 1734 2863 
L 2709 2863 
z
" transform="scale(0.015625)"/>
       <path id="TimesNewRomanPSMT-63" d="M 2631 1088 
Q 2516 522 2178 217 
Q 1841 -88 1431 -88 
Q 944 -88 581 321 
Q 219 731 219 1428 
Q 219 2103 620 2525 
Q 1022 2947 1584 2947 
Q 2006 2947 2278 2723 
Q 2550 2500 2550 2259 
Q 2550 2141 2473 2067 
Q 2397 1994 2259 1994 
Q 2075 1994 1981 2113 
Q 1928 2178 1911 2362 
Q 1894 2547 1784 2644 
Q 1675 2738 1481 2738 
Q 1169 2738 978 2506 
Q 725 2200 725 1697 
Q 725 1184 976 792 
Q 1228 400 1656 400 
Q 1963 400 2206 609 
Q 2378 753 2541 1131 
L 2631 1088 
z
" transform="scale(0.015625)"/>
       <path id="TimesNewRomanPSMT-74" d="M 1031 3803 
L 1031 2863 
L 1700 2863 
L 1700 2644 
L 1031 2644 
L 1031 788 
Q 1031 509 1111 412 
Q 1191 316 1316 316 
Q 1419 316 1516 380 
Q 1613 444 1666 569 
L 1788 569 
Q 1678 263 1478 108 
Q 1278 -47 1066 -47 
Q 922 -47 784 33 
Q 647 113 581 261 
Q 516 409 516 719 
L 516 2644 
L 63 2644 
L 63 2747 
Q 234 2816 414 2980 
Q 594 3144 734 3369 
Q 806 3488 934 3803 
L 1031 3803 
z
" transform="scale(0.015625)"/>
       <path id="TimesNewRomanPSMT-6f" d="M 1600 2947 
Q 2250 2947 2644 2453 
Q 2978 2031 2978 1484 
Q 2978 1100 2793 706 
Q 2609 313 2286 112 
Q 1963 -88 1566 -88 
Q 919 -88 538 428 
Q 216 863 216 1403 
Q 216 1797 411 2186 
Q 606 2575 925 2761 
Q 1244 2947 1600 2947 
z
M 1503 2744 
Q 1338 2744 1170 2645 
Q 1003 2547 900 2300 
Q 797 2053 797 1666 
Q 797 1041 1045 587 
Q 1294 134 1700 134 
Q 2003 134 2200 384 
Q 2397 634 2397 1244 
Q 2397 2006 2069 2444 
Q 1847 2744 1503 2744 
z
" transform="scale(0.015625)"/>
       <path id="TimesNewRomanPSMT-6e" d="M 1034 2341 
Q 1538 2947 1994 2947 
Q 2228 2947 2397 2830 
Q 2566 2713 2666 2444 
Q 2734 2256 2734 1869 
L 2734 647 
Q 2734 375 2778 278 
Q 2813 200 2889 156 
Q 2966 113 3172 113 
L 3172 0 
L 1756 0 
L 1756 113 
L 1816 113 
Q 2016 113 2095 173 
Q 2175 234 2206 353 
Q 2219 400 2219 647 
L 2219 1819 
Q 2219 2209 2117 2386 
Q 2016 2563 1775 2563 
Q 1403 2563 1034 2156 
L 1034 647 
Q 1034 356 1069 288 
Q 1113 197 1189 155 
Q 1266 113 1500 113 
L 1500 0 
L 84 0 
L 84 113 
L 147 113 
Q 366 113 442 223 
Q 519 334 519 647 
L 519 1709 
Q 519 2225 495 2337 
Q 472 2450 423 2490 
Q 375 2531 294 2531 
Q 206 2531 84 2484 
L 38 2597 
L 900 2947 
L 1034 2947 
L 1034 2341 
z
" transform="scale(0.015625)"/>
       <path id="TimesNewRomanPSMT-20" transform="scale(0.015625)"/>
       <path id="TimesNewRomanPSMT-61" d="M 1822 413 
Q 1381 72 1269 19 
Q 1100 -59 909 -59 
Q 613 -59 420 144 
Q 228 347 228 678 
Q 228 888 322 1041 
Q 450 1253 767 1440 
Q 1084 1628 1822 1897 
L 1822 2009 
Q 1822 2438 1686 2597 
Q 1550 2756 1291 2756 
Q 1094 2756 978 2650 
Q 859 2544 859 2406 
L 866 2225 
Q 866 2081 792 2003 
Q 719 1925 600 1925 
Q 484 1925 411 2006 
Q 338 2088 338 2228 
Q 338 2497 613 2722 
Q 888 2947 1384 2947 
Q 1766 2947 2009 2819 
Q 2194 2722 2281 2516 
Q 2338 2381 2338 1966 
L 2338 994 
Q 2338 584 2353 492 
Q 2369 400 2405 369 
Q 2441 338 2488 338 
Q 2538 338 2575 359 
Q 2641 400 2828 588 
L 2828 413 
Q 2478 -56 2159 -56 
Q 2006 -56 1915 50 
Q 1825 156 1822 413 
z
M 1822 616 
L 1822 1706 
Q 1350 1519 1213 1441 
Q 966 1303 859 1153 
Q 753 1003 753 825 
Q 753 600 887 451 
Q 1022 303 1197 303 
Q 1434 303 1822 616 
z
" transform="scale(0.015625)"/>
      </defs>
      <use xlink:href="#TimesNewRomanPSMT-52"/>
      <use xlink:href="#TimesNewRomanPSMT-65" x="66.699219"/>
      <use xlink:href="#TimesNewRomanPSMT-64" x="111.083984"/>
      <use xlink:href="#TimesNewRomanPSMT-75" x="161.083984"/>
      <use xlink:href="#TimesNewRomanPSMT-63" x="211.083984"/>
      <use xlink:href="#TimesNewRomanPSMT-74" x="255.46875"/>
      <use xlink:href="#TimesNewRomanPSMT-69" x="283.251953"/>
      <use xlink:href="#TimesNewRomanPSMT-6f" x="311.035156"/>
      <use xlink:href="#TimesNewRomanPSMT-6e" x="361.035156"/>
      <use xlink:href="#TimesNewRomanPSMT-20" x="411.035156"/>
      <use xlink:href="#TimesNewRomanPSMT-52" x="436.035156"/>
      <use xlink:href="#TimesNewRomanPSMT-61" x="502.734375"/>
      <use xlink:href="#TimesNewRomanPSMT-74" x="547.119141"/>
      <use xlink:href="#TimesNewRomanPSMT-69" x="574.902344"/>
      <use xlink:href="#TimesNewRomanPSMT-6f" x="602.685547"/>
     </g>
    </g>
   </g>
   <g id="line2d_16">
    <path d="M 86.050909 322.218518 
L 88.251566 323.010526 
L 97.054195 324.196679 
L 99.254852 324.252729 
L 101.455509 324.019465 
L 103.656166 324.136163 
L 105.856824 337.016653 
L 108.057481 393.592394 
L 110.258138 400.908503 
L 112.458795 343.074293 
L 114.659452 320.736265 
L 116.86011 322.754099 
L 119.060767 324.412295 
L 121.261424 325.584873 
L 123.462081 326.420058 
L 125.662738 326.988656 
L 130.064053 327.763105 
L 132.26471 328.007929 
L 134.465367 328.096601 
L 136.666024 327.960199 
L 138.866681 327.468144 
L 141.067338 326.680339 
L 143.267996 326.618377 
L 145.468653 326.977139 
L 147.66931 321.996727 
L 149.869967 323.40537 
L 152.070624 324.03374 
L 156.471939 324.572606 
L 163.07391 325.031732 
L 167.475225 325.798431 
L 171.876539 326.450316 
L 176.277853 326.727324 
L 204.886396 327.888692 
L 215.889682 328.520302 
L 220.290997 329.073618 
L 231.294283 330.961881 
L 233.49494 333.723074 
L 235.695597 409.856864 
L 237.896254 430.926241 
L 240.096911 412.387509 
L 242.297568 392.531872 
L 244.498226 332.400958 
L 246.698883 326.269293 
L 253.300854 323.756864 
L 255.501512 323.554253 
L 257.702169 332.528602 
L 259.902826 395.650864 
L 262.103483 436.102478 
L 264.30414 416.401502 
L 266.504797 350.357977 
L 268.705455 325.588595 
L 270.906112 321.689023 
L 273.106769 322.280435 
L 275.307426 324.03917 
L 279.70874 328.32658 
L 281.909398 330.105809 
L 284.110055 331.357163 
L 286.310712 332.075869 
L 290.712026 332.717726 
L 292.912683 330.188745 
L 295.113341 325.711072 
L 297.313998 328.766877 
L 299.514655 330.309164 
L 301.715312 327.857427 
L 306.116627 325.798738 
L 314.919255 324.138046 
L 317.119912 323.807834 
L 319.32057 323.689691 
L 321.521227 323.877108 
L 323.721884 324.463747 
L 325.922541 325.392684 
L 332.524513 328.827612 
L 334.72517 329.734392 
L 336.925827 330.317046 
L 339.126484 330.519657 
L 341.327141 330.401909 
L 347.929113 329.450246 
L 350.12977 329.284593 
L 352.330427 329.344146 
L 354.531084 329.68132 
L 356.731742 330.288759 
L 363.333713 332.630324 
L 365.53437 333.223881 
L 367.735027 333.578308 
L 369.935685 333.673199 
L 372.136342 333.508684 
L 374.336999 333.068781 
L 376.537656 332.216694 
L 378.738313 330.662102 
L 380.93897 327.946581 
L 383.139628 320.629552 
L 385.340285 318.376396 
L 387.540942 320.987963 
L 389.741599 326.708539 
L 391.942256 328.636386 
L 394.142913 327.881773 
L 398.544228 327.519552 
L 400.744885 327.501248 
L 402.945542 327.607655 
L 407.346857 328.275741 
L 411.748171 329.003556 
L 413.948828 329.272244 
L 416.149485 329.412544 
L 420.5508 329.318661 
L 424.952114 329.14333 
L 431.554085 329.210765 
L 442.557371 329.487335 
L 444.758028 329.39748 
L 446.958686 328.725759 
L 451.36 327.022461 
L 453.560657 326.401929 
L 455.761314 325.974681 
L 457.961972 325.706518 
L 462.363286 325.568934 
L 466.7646 325.780828 
L 473.366572 326.461088 
L 479.968543 327.273196 
L 482.1692 327.453693 
L 484.369858 327.481456 
L 488.771172 327.052412 
L 493.172486 326.579143 
L 495.373143 326.499885 
L 497.573801 326.532507 
L 504.175772 327.12138 
L 508.577087 327.758245 
L 512.978401 328.459917 
L 515.179058 328.691298 
L 517.379715 328.75339 
L 519.580372 328.559975 
L 521.78103 328.145338 
L 526.182344 327.097734 
L 530.583658 326.36195 
L 534.984973 326.024338 
L 539.386287 325.842264 
L 543.787601 326.001611 
L 552.59023 326.892758 
L 559.192202 327.11271 
L 574.596802 327.567982 
L 594.402716 328.475156 
L 596.603373 328.706668 
L 598.804031 329.057066 
L 603.205345 330.043585 
L 609.807317 331.579523 
L 612.007974 331.977607 
L 614.208631 332.103544 
L 616.409288 331.776967 
L 618.609945 330.931535 
L 623.01126 328.561683 
L 625.211917 327.736745 
L 627.412574 327.239829 
L 631.813888 326.605372 
L 634.014545 330.448019 
L 636.215203 436.884437 
L 638.41586 515.43489 
L 640.616517 523.767273 
L 642.817174 520.293109 
L 645.017831 505.439712 
L 647.218488 459.228967 
L 649.419146 342.515766 
L 651.619803 326.030643 
L 653.82046 324.994599 
L 656.021117 325.963077 
L 662.623089 330.344721 
L 664.823746 331.400689 
L 667.024403 332.14707 
L 669.22506 332.538849 
L 671.425717 332.454161 
L 673.626375 331.803108 
L 675.827032 330.719553 
L 678.027689 329.481905 
L 680.228346 328.389067 
L 682.429003 327.617858 
L 684.62966 327.138457 
L 689.030975 326.632565 
L 700.034261 325.667502 
L 702.234918 325.683704 
L 704.435575 325.937023 
L 706.636232 326.416598 
L 715.438861 328.858921 
L 717.639518 329.103088 
L 719.840175 329.126953 
L 724.24149 328.73097 
L 728.642804 328.354518 
L 730.843461 328.340374 
L 733.044118 328.517018 
L 735.244775 328.913964 
L 739.64609 330.233366 
L 744.047404 331.683915 
L 746.248061 332.25409 
L 750.649376 333.046449 
L 752.850033 333.265963 
L 755.05069 333.368341 
L 757.251347 333.34776 
L 759.452004 333.181012 
L 761.652662 332.80815 
L 763.853319 332.057303 
L 770.45529 328.962175 
L 772.655947 328.182209 
L 774.856605 327.652144 
L 777.057262 327.321451 
L 779.257919 327.166745 
L 781.458576 327.12808 
L 785.85989 327.388273 
L 792.461862 327.943034 
L 796.863176 328.042478 
L 805.665805 327.849282 
L 816.669091 327.960549 
L 816.669091 327.960549 
" clip-path="url(#p41b3479c75)" style="fill: none; stroke: #0000ff; stroke-width: 1.5; stroke-linecap: square"/>
   </g>
   <g id="line2d_17">
    <path d="M 86.050909 328.728255 
L 88.251566 328.307007 
L 94.853538 327.937473 
L 97.054195 327.919957 
L 99.254852 328.069978 
L 101.455509 328.570703 
L 103.656166 329.952373 
L 105.856824 332.368641 
L 110.258138 323.370646 
L 112.458795 321.830899 
L 114.659452 328.936647 
L 116.86011 328.604858 
L 119.060767 327.605685 
L 121.261424 326.943991 
L 123.462081 326.590046 
L 125.662738 326.49463 
L 132.26471 326.685812 
L 134.465367 326.872046 
L 136.666024 327.279414 
L 138.866681 328.171042 
L 141.067338 329.803666 
L 143.267996 331.922346 
L 145.468653 329.027027 
L 147.66931 329.481424 
L 149.869967 329.023086 
L 152.070624 328.217634 
L 154.271281 327.828307 
L 156.471939 327.743882 
L 163.07391 328.2221 
L 167.475225 328.000704 
L 171.876539 327.71485 
L 176.277853 327.641942 
L 193.883111 327.68538 
L 224.692311 326.904494 
L 226.892968 326.955989 
L 229.093625 327.240354 
L 231.294283 328.211547 
L 233.49494 332.90847 
L 235.695597 402.208397 
L 237.896254 430.118162 
L 240.096911 432.79966 
L 242.297568 418.683339 
L 244.498226 341.795855 
L 246.698883 325.459724 
L 248.89954 326.418218 
L 251.100197 326.339223 
L 253.300854 326.673201 
L 255.501512 327.221437 
L 257.702169 326.537193 
L 259.902826 324.185294 
L 262.103483 326.244026 
L 264.30414 325.690229 
L 266.504797 330.951547 
L 268.705455 334.391818 
L 270.906112 334.097031 
L 273.106769 332.621434 
L 277.508083 329.308458 
L 279.70874 327.949777 
L 281.909398 326.955289 
L 284.110055 326.400002 
L 286.310712 326.278094 
L 288.511369 326.658094 
L 290.712026 328.908578 
L 292.912683 415.432498 
L 295.113341 410.507063 
L 297.313998 408.626814 
L 299.514655 400.010175 
L 301.715312 318.312727 
L 303.915969 325.472949 
L 306.116627 326.758502 
L 310.517941 326.95923 
L 312.718598 327.296229 
L 314.919255 327.823359 
L 319.32057 329.051417 
L 321.521227 329.362887 
L 323.721884 329.313056 
L 325.922541 328.953286 
L 330.323855 327.741955 
L 334.72517 326.59911 
L 336.925827 326.255324 
L 339.126484 326.119316 
L 352.330427 326.227474 
L 356.731742 325.903481 
L 363.333713 325.267316 
L 365.53437 325.150575 
L 367.735027 325.164018 
L 369.935685 325.39172 
L 372.136342 325.946744 
L 374.336999 327.094275 
L 376.537656 329.80314 
L 378.738313 334.948418 
L 380.93897 345.168297 
L 383.139628 372.402969 
L 385.340285 343.258797 
L 387.540942 331.721793 
L 389.741599 319.14038 
L 391.942256 322.748406 
L 394.142913 325.877295 
L 396.343571 326.19021 
L 402.945542 326.343383 
L 407.346857 326.083365 
L 416.149485 325.410024 
L 422.751457 325.352967 
L 435.9554 325.224053 
L 442.557371 325.132753 
L 444.758028 325.214901 
L 453.560657 326.454082 
L 457.961972 326.648329 
L 466.7646 326.614962 
L 486.570515 326.052319 
L 493.172486 326.086693 
L 499.774458 326.012865 
L 508.577087 326.324335 
L 519.580372 326.076403 
L 526.182344 326.169454 
L 530.583658 326.171731 
L 532.784315 326.277569 
L 534.984973 326.52121 
L 541.586944 327.501248 
L 543.787601 327.559619 
L 548.188916 327.324473 
L 552.59023 327.05793 
L 559.192202 327.018038 
L 572.396145 326.99645 
L 598.804031 326.25909 
L 607.606659 325.447157 
L 612.007974 325.070004 
L 614.208631 325.009356 
L 616.409288 325.096233 
L 620.810602 325.587413 
L 623.01126 325.627479 
L 625.211917 325.386203 
L 627.412574 325.005897 
L 629.613231 324.750827 
L 631.813888 324.80241 
L 634.014545 323.727569 
L 636.215203 320.069317 
L 638.41586 344.645546 
L 640.616517 353.546637 
L 642.817174 351.778159 
L 645.017831 341.53726 
L 647.218488 324.288986 
L 649.419146 329.871013 
L 651.619803 331.985927 
L 653.82046 330.930265 
L 658.221774 328.410874 
L 660.422432 327.357446 
L 662.623089 326.523312 
L 664.823746 325.934133 
L 667.024403 325.512402 
L 669.22506 325.234343 
L 671.425717 325.132884 
L 673.626375 325.235876 
L 680.228346 325.914384 
L 684.62966 325.809904 
L 686.830318 325.759722 
L 689.030975 325.864903 
L 691.231632 326.160346 
L 693.432289 326.679901 
L 697.833604 328.086311 
L 700.034261 328.631482 
L 702.234918 328.887078 
L 704.435575 328.854499 
L 706.636232 328.593824 
L 711.037547 327.714325 
L 715.438861 326.798525 
L 717.639518 326.530362 
L 719.840175 326.377363 
L 724.24149 326.36068 
L 733.044118 326.527603 
L 737.445433 326.31711 
L 741.846747 325.830747 
L 748.448719 325.038563 
L 752.850033 324.717065 
L 757.251347 324.71076 
L 761.652662 324.911313 
L 768.254633 325.591135 
L 774.856605 326.182678 
L 781.458576 326.733192 
L 785.85989 326.747292 
L 792.461862 326.435646 
L 796.863176 326.273803 
L 816.669091 326.223577 
L 816.669091 326.223577 
" clip-path="url(#p41b3479c75)" style="fill: none; stroke: #ffa500; stroke-width: 1.5; stroke-linecap: square"/>
   </g>
   <g id="patch_3">
    <path d="M 49.52 534.04 
L 49.52 308.04 
" style="fill: none; stroke: #000000; stroke-width: 0.8; stroke-linejoin: miter; stroke-linecap: square"/>
   </g>
   <g id="patch_4">
    <path d="M 853.2 534.04 
L 853.2 308.04 
" style="fill: none; stroke: #000000; stroke-width: 0.8; stroke-linejoin: miter; stroke-linecap: square"/>
   </g>
   <g id="patch_5">
    <path d="M 49.52 534.04 
L 853.2 534.04 
" style="fill: none; stroke: #000000; stroke-width: 0.8; stroke-linejoin: miter; stroke-linecap: square"/>
   </g>
   <g id="patch_6">
    <path d="M 49.52 308.04 
L 853.2 308.04 
" style="fill: none; stroke: #000000; stroke-width: 0.8; stroke-linejoin: miter; stroke-linecap: square"/>
   </g>
   <g id="text_18">
    <!-- Predicted Reduction Ratios -->
    <g transform="translate(385.704063 302.04)scale(0.12 -0.12)">
     <defs>
      <path id="TimesNewRomanPSMT-50" d="M 1313 1984 
L 1313 750 
Q 1313 350 1400 253 
Q 1519 116 1759 116 
L 1922 116 
L 1922 0 
L 106 0 
L 106 116 
L 266 116 
Q 534 116 650 291 
Q 713 388 713 750 
L 713 3488 
Q 713 3888 628 3984 
Q 506 4122 266 4122 
L 106 4122 
L 106 4238 
L 1659 4238 
Q 2228 4238 2556 4120 
Q 2884 4003 3109 3725 
Q 3334 3447 3334 3066 
Q 3334 2547 2992 2222 
Q 2650 1897 2025 1897 
Q 1872 1897 1694 1919 
Q 1516 1941 1313 1984 
z
M 1313 2163 
Q 1478 2131 1606 2115 
Q 1734 2100 1825 2100 
Q 2150 2100 2386 2351 
Q 2622 2603 2622 3003 
Q 2622 3278 2509 3514 
Q 2397 3750 2190 3867 
Q 1984 3984 1722 3984 
Q 1563 3984 1313 3925 
L 1313 2163 
z
" transform="scale(0.015625)"/>
      <path id="TimesNewRomanPSMT-72" d="M 1038 2947 
L 1038 2303 
Q 1397 2947 1775 2947 
Q 1947 2947 2059 2842 
Q 2172 2738 2172 2600 
Q 2172 2478 2090 2393 
Q 2009 2309 1897 2309 
Q 1788 2309 1652 2417 
Q 1516 2525 1450 2525 
Q 1394 2525 1328 2463 
Q 1188 2334 1038 2041 
L 1038 669 
Q 1038 431 1097 309 
Q 1138 225 1241 169 
Q 1344 113 1538 113 
L 1538 0 
L 72 0 
L 72 113 
Q 291 113 397 181 
Q 475 231 506 341 
Q 522 394 522 644 
L 522 1753 
Q 522 2253 501 2348 
Q 481 2444 426 2487 
Q 372 2531 291 2531 
Q 194 2531 72 2484 
L 41 2597 
L 906 2947 
L 1038 2947 
z
" transform="scale(0.015625)"/>
     </defs>
     <use xlink:href="#TimesNewRomanPSMT-50"/>
     <use xlink:href="#TimesNewRomanPSMT-72" x="55.615234"/>
     <use xlink:href="#TimesNewRomanPSMT-65" x="88.916016"/>
     <use xlink:href="#TimesNewRomanPSMT-64" x="133.300781"/>
     <use xlink:href="#TimesNewRomanPSMT-69" x="183.300781"/>
     <use xlink:href="#TimesNewRomanPSMT-63" x="211.083984"/>
     <use xlink:href="#TimesNewRomanPSMT-74" x="255.46875"/>
     <use xlink:href="#TimesNewRomanPSMT-65" x="283.251953"/>
     <use xlink:href="#TimesNewRomanPSMT-64" x="327.636719"/>
     <use xlink:href="#TimesNewRomanPSMT-20" x="377.636719"/>
     <use xlink:href="#TimesNewRomanPSMT-52" x="402.636719"/>
     <use xlink:href="#TimesNewRomanPSMT-65" x="469.335938"/>
     <use xlink:href="#TimesNewRomanPSMT-64" x="513.720703"/>
     <use xlink:href="#TimesNewRomanPSMT-75" x="563.720703"/>
     <use xlink:href="#TimesNewRomanPSMT-63" x="613.720703"/>
     <use xlink:href="#TimesNewRomanPSMT-74" x="658.105469"/>
     <use xlink:href="#TimesNewRomanPSMT-69" x="685.888672"/>
     <use xlink:href="#TimesNewRomanPSMT-6f" x="713.671875"/>
     <use xlink:href="#TimesNewRomanPSMT-6e" x="763.671875"/>
     <use xlink:href="#TimesNewRomanPSMT-20" x="813.671875"/>
     <use xlink:href="#TimesNewRomanPSMT-52" x="838.671875"/>
     <use xlink:href="#TimesNewRomanPSMT-61" x="905.371094"/>
     <use xlink:href="#TimesNewRomanPSMT-74" x="949.755859"/>
     <use xlink:href="#TimesNewRomanPSMT-69" x="977.539062"/>
     <use xlink:href="#TimesNewRomanPSMT-6f" x="1005.322266"/>
     <use xlink:href="#TimesNewRomanPSMT-73" x="1055.322266"/>
    </g>
   </g>
   <g id="legend_1">
    <g id="patch_7">
     <path d="M 56.52 529.04 
L 166.290313 529.04 
Q 168.290313 529.04 168.290313 527.04 
L 168.290313 499.724375 
Q 168.290313 497.724375 166.290313 497.724375 
L 56.52 497.724375 
Q 54.52 497.724375 54.52 499.724375 
L 54.52 527.04 
Q 54.52 529.04 56.52 529.04 
z
" style="fill: #ffffff; opacity: 0.8; stroke: #cccccc; stroke-linejoin: miter"/>
    </g>
    <g id="line2d_18">
     <path d="M 58.52 505.224375 
L 68.52 505.224375 
L 78.52 505.224375 
" style="fill: none; stroke: #0000ff; stroke-width: 1.5; stroke-linecap: square"/>
    </g>
    <g id="text_19">
     <!-- Reduction_Ratio_0 -->
     <g transform="translate(86.52 508.724375)scale(0.1 -0.1)">
      <defs>
       <path id="TimesNewRomanPSMT-5f" d="M 3256 -1381 
L -53 -1381 
L -53 -1119 
L 3256 -1119 
L 3256 -1381 
z
" transform="scale(0.015625)"/>
      </defs>
      <use xlink:href="#TimesNewRomanPSMT-52"/>
      <use xlink:href="#TimesNewRomanPSMT-65" x="66.699219"/>
      <use xlink:href="#TimesNewRomanPSMT-64" x="111.083984"/>
      <use xlink:href="#TimesNewRomanPSMT-75" x="161.083984"/>
      <use xlink:href="#TimesNewRomanPSMT-63" x="211.083984"/>
      <use xlink:href="#TimesNewRomanPSMT-74" x="255.46875"/>
      <use xlink:href="#TimesNewRomanPSMT-69" x="283.251953"/>
      <use xlink:href="#TimesNewRomanPSMT-6f" x="311.035156"/>
      <use xlink:href="#TimesNewRomanPSMT-6e" x="361.035156"/>
      <use xlink:href="#TimesNewRomanPSMT-5f" x="411.035156"/>
      <use xlink:href="#TimesNewRomanPSMT-52" x="461.035156"/>
      <use xlink:href="#TimesNewRomanPSMT-61" x="527.734375"/>
      <use xlink:href="#TimesNewRomanPSMT-74" x="572.119141"/>
      <use xlink:href="#TimesNewRomanPSMT-69" x="599.902344"/>
      <use xlink:href="#TimesNewRomanPSMT-6f" x="627.685547"/>
      <use xlink:href="#TimesNewRomanPSMT-5f" x="677.685547"/>
      <use xlink:href="#TimesNewRomanPSMT-30" x="727.685547"/>
     </g>
    </g>
    <g id="line2d_19">
     <path d="M 58.52 519.382187 
L 68.52 519.382187 
L 78.52 519.382187 
" style="fill: none; stroke: #ffa500; stroke-width: 1.5; stroke-linecap: square"/>
    </g>
    <g id="text_20">
     <!-- Reduction_Ratio_1 -->
     <g transform="translate(86.52 522.882187)scale(0.1 -0.1)">
      <use xlink:href="#TimesNewRomanPSMT-52"/>
      <use xlink:href="#TimesNewRomanPSMT-65" x="66.699219"/>
      <use xlink:href="#TimesNewRomanPSMT-64" x="111.083984"/>
      <use xlink:href="#TimesNewRomanPSMT-75" x="161.083984"/>
      <use xlink:href="#TimesNewRomanPSMT-63" x="211.083984"/>
      <use xlink:href="#TimesNewRomanPSMT-74" x="255.46875"/>
      <use xlink:href="#TimesNewRomanPSMT-69" x="283.251953"/>
      <use xlink:href="#TimesNewRomanPSMT-6f" x="311.035156"/>
      <use xlink:href="#TimesNewRomanPSMT-6e" x="361.035156"/>
      <use xlink:href="#TimesNewRomanPSMT-5f" x="411.035156"/>
      <use xlink:href="#TimesNewRomanPSMT-52" x="461.035156"/>
      <use xlink:href="#TimesNewRomanPSMT-61" x="527.734375"/>
      <use xlink:href="#TimesNewRomanPSMT-74" x="572.119141"/>
      <use xlink:href="#TimesNewRomanPSMT-69" x="599.902344"/>
      <use xlink:href="#TimesNewRomanPSMT-6f" x="627.685547"/>
      <use xlink:href="#TimesNewRomanPSMT-5f" x="677.685547"/>
      <use xlink:href="#TimesNewRomanPSMT-31" x="727.685547"/>
     </g>
    </g>
   </g>
  </g>
  <g id="axes_2">
   <g id="patch_8">
    <path d="M 49.52 251.44 
L 853.2 251.44 
L 853.2 25.44 
L 49.52 25.44 
z
" style="fill: #ffffff"/>
   </g>
   <g id="matplotlib.axis_3">
    <g id="xtick_8">
     <g id="line2d_20">
      <g>
       <use xlink:href="#m94ae4abdca" x="86.050909" y="251.44" style="stroke: #000000; stroke-width: 0.8"/>
      </g>
     </g>
     <g id="text_21">
      <!-- 0 -->
      <g transform="translate(83.550909 265.38375)scale(0.1 -0.1)">
       <use xlink:href="#TimesNewRomanPSMT-30"/>
      </g>
     </g>
    </g>
    <g id="xtick_9">
     <g id="line2d_21">
      <g>
       <use xlink:href="#m94ae4abdca" x="196.083768" y="251.44" style="stroke: #000000; stroke-width: 0.8"/>
      </g>
     </g>
     <g id="text_22">
      <!-- 50 -->
      <g transform="translate(191.083768 265.38375)scale(0.1 -0.1)">
       <use xlink:href="#TimesNewRomanPSMT-35"/>
       <use xlink:href="#TimesNewRomanPSMT-30" x="50"/>
      </g>
     </g>
    </g>
    <g id="xtick_10">
     <g id="line2d_22">
      <g>
       <use xlink:href="#m94ae4abdca" x="306.116627" y="251.44" style="stroke: #000000; stroke-width: 0.8"/>
      </g>
     </g>
     <g id="text_23">
      <!-- 100 -->
      <g transform="translate(298.616627 265.38375)scale(0.1 -0.1)">
       <use xlink:href="#TimesNewRomanPSMT-31"/>
       <use xlink:href="#TimesNewRomanPSMT-30" x="50"/>
       <use xlink:href="#TimesNewRomanPSMT-30" x="100"/>
      </g>
     </g>
    </g>
    <g id="xtick_11">
     <g id="line2d_23">
      <g>
       <use xlink:href="#m94ae4abdca" x="416.149485" y="251.44" style="stroke: #000000; stroke-width: 0.8"/>
      </g>
     </g>
     <g id="text_24">
      <!-- 150 -->
      <g transform="translate(408.649485 265.38375)scale(0.1 -0.1)">
       <use xlink:href="#TimesNewRomanPSMT-31"/>
       <use xlink:href="#TimesNewRomanPSMT-35" x="50"/>
       <use xlink:href="#TimesNewRomanPSMT-30" x="100"/>
      </g>
     </g>
    </g>
    <g id="xtick_12">
     <g id="line2d_24">
      <g>
       <use xlink:href="#m94ae4abdca" x="526.182344" y="251.44" style="stroke: #000000; stroke-width: 0.8"/>
      </g>
     </g>
     <g id="text_25">
      <!-- 200 -->
      <g transform="translate(518.682344 265.38375)scale(0.1 -0.1)">
       <use xlink:href="#TimesNewRomanPSMT-32"/>
       <use xlink:href="#TimesNewRomanPSMT-30" x="50"/>
       <use xlink:href="#TimesNewRomanPSMT-30" x="100"/>
      </g>
     </g>
    </g>
    <g id="xtick_13">
     <g id="line2d_25">
      <g>
       <use xlink:href="#m94ae4abdca" x="636.215203" y="251.44" style="stroke: #000000; stroke-width: 0.8"/>
      </g>
     </g>
     <g id="text_26">
      <!-- 250 -->
      <g transform="translate(628.715203 265.38375)scale(0.1 -0.1)">
       <use xlink:href="#TimesNewRomanPSMT-32"/>
       <use xlink:href="#TimesNewRomanPSMT-35" x="50"/>
       <use xlink:href="#TimesNewRomanPSMT-30" x="100"/>
      </g>
     </g>
    </g>
    <g id="xtick_14">
     <g id="line2d_26">
      <g>
       <use xlink:href="#m94ae4abdca" x="746.248061" y="251.44" style="stroke: #000000; stroke-width: 0.8"/>
      </g>
     </g>
     <g id="text_27">
      <!-- 300 -->
      <g transform="translate(738.748061 265.38375)scale(0.1 -0.1)">
       <use xlink:href="#TimesNewRomanPSMT-33"/>
       <use xlink:href="#TimesNewRomanPSMT-30" x="50"/>
       <use xlink:href="#TimesNewRomanPSMT-30" x="100"/>
      </g>
     </g>
    </g>
    <g id="text_28">
     <!-- Time[s] -->
     <g transform="translate(435.707656 278.466563)scale(0.1 -0.1)">
      <use xlink:href="#TimesNewRomanPSMT-54"/>
      <use xlink:href="#TimesNewRomanPSMT-69" x="57.583984"/>
      <use xlink:href="#TimesNewRomanPSMT-6d" x="85.367188"/>
      <use xlink:href="#TimesNewRomanPSMT-65" x="163.150391"/>
      <use xlink:href="#TimesNewRomanPSMT-5b" x="207.535156"/>
      <use xlink:href="#TimesNewRomanPSMT-73" x="240.835938"/>
      <use xlink:href="#TimesNewRomanPSMT-5d" x="279.751953"/>
     </g>
    </g>
   </g>
   <g id="matplotlib.axis_4">
    <g id="ytick_9">
     <g id="line2d_27">
      <g>
       <use xlink:href="#m7c32c24de7" x="49.52" y="240.252484" style="stroke: #000000; stroke-width: 0.8"/>
      </g>
     </g>
     <g id="text_29">
      <!-- 0.0 -->
      <g transform="translate(30.02 243.724359)scale(0.1 -0.1)">
       <use xlink:href="#TimesNewRomanPSMT-30"/>
       <use xlink:href="#TimesNewRomanPSMT-2e" x="50"/>
       <use xlink:href="#TimesNewRomanPSMT-30" x="75"/>
      </g>
     </g>
    </g>
    <g id="ytick_10">
     <g id="line2d_28">
      <g>
       <use xlink:href="#m7c32c24de7" x="49.52" y="199.459602" style="stroke: #000000; stroke-width: 0.8"/>
      </g>
     </g>
     <g id="text_30">
      <!-- 0.2 -->
      <g transform="translate(30.02 202.931477)scale(0.1 -0.1)">
       <use xlink:href="#TimesNewRomanPSMT-30"/>
       <use xlink:href="#TimesNewRomanPSMT-2e" x="50"/>
       <use xlink:href="#TimesNewRomanPSMT-32" x="75"/>
      </g>
     </g>
    </g>
    <g id="ytick_11">
     <g id="line2d_29">
      <g>
       <use xlink:href="#m7c32c24de7" x="49.52" y="158.666719" style="stroke: #000000; stroke-width: 0.8"/>
      </g>
     </g>
     <g id="text_31">
      <!-- 0.4 -->
      <g transform="translate(30.02 162.138594)scale(0.1 -0.1)">
       <defs>
        <path id="TimesNewRomanPSMT-34" d="M 2978 1563 
L 2978 1119 
L 2409 1119 
L 2409 0 
L 1894 0 
L 1894 1119 
L 100 1119 
L 100 1519 
L 2066 4325 
L 2409 4325 
L 2409 1563 
L 2978 1563 
z
M 1894 1563 
L 1894 3666 
L 406 1563 
L 1894 1563 
z
" transform="scale(0.015625)"/>
       </defs>
       <use xlink:href="#TimesNewRomanPSMT-30"/>
       <use xlink:href="#TimesNewRomanPSMT-2e" x="50"/>
       <use xlink:href="#TimesNewRomanPSMT-34" x="75"/>
      </g>
     </g>
    </g>
    <g id="ytick_12">
     <g id="line2d_30">
      <g>
       <use xlink:href="#m7c32c24de7" x="49.52" y="117.873836" style="stroke: #000000; stroke-width: 0.8"/>
      </g>
     </g>
     <g id="text_32">
      <!-- 0.6 -->
      <g transform="translate(30.02 121.345711)scale(0.1 -0.1)">
       <defs>
        <path id="TimesNewRomanPSMT-36" d="M 2869 4325 
L 2869 4209 
Q 2456 4169 2195 4045 
Q 1934 3922 1679 3669 
Q 1425 3416 1258 3105 
Q 1091 2794 978 2366 
Q 1428 2675 1881 2675 
Q 2316 2675 2634 2325 
Q 2953 1975 2953 1425 
Q 2953 894 2631 456 
Q 2244 -75 1606 -75 
Q 1172 -75 869 213 
Q 275 772 275 1663 
Q 275 2231 503 2743 
Q 731 3256 1154 3653 
Q 1578 4050 1965 4187 
Q 2353 4325 2688 4325 
L 2869 4325 
z
M 925 2138 
Q 869 1716 869 1456 
Q 869 1156 980 804 
Q 1091 453 1309 247 
Q 1469 100 1697 100 
Q 1969 100 2183 356 
Q 2397 613 2397 1088 
Q 2397 1622 2184 2012 
Q 1972 2403 1581 2403 
Q 1463 2403 1327 2353 
Q 1191 2303 925 2138 
z
" transform="scale(0.015625)"/>
       </defs>
       <use xlink:href="#TimesNewRomanPSMT-30"/>
       <use xlink:href="#TimesNewRomanPSMT-2e" x="50"/>
       <use xlink:href="#TimesNewRomanPSMT-36" x="75"/>
      </g>
     </g>
    </g>
    <g id="ytick_13">
     <g id="line2d_31">
      <g>
       <use xlink:href="#m7c32c24de7" x="49.52" y="77.080954" style="stroke: #000000; stroke-width: 0.8"/>
      </g>
     </g>
     <g id="text_33">
      <!-- 0.8 -->
      <g transform="translate(30.02 80.552829)scale(0.1 -0.1)">
       <defs>
        <path id="TimesNewRomanPSMT-38" d="M 1228 2134 
Q 725 2547 579 2797 
Q 434 3047 434 3316 
Q 434 3728 753 4026 
Q 1072 4325 1600 4325 
Q 2113 4325 2425 4047 
Q 2738 3769 2738 3413 
Q 2738 3175 2569 2928 
Q 2400 2681 1866 2347 
Q 2416 1922 2594 1678 
Q 2831 1359 2831 1006 
Q 2831 559 2490 242 
Q 2150 -75 1597 -75 
Q 994 -75 656 303 
Q 388 606 388 966 
Q 388 1247 577 1523 
Q 766 1800 1228 2134 
z
M 1719 2469 
Q 2094 2806 2194 3001 
Q 2294 3197 2294 3444 
Q 2294 3772 2109 3958 
Q 1925 4144 1606 4144 
Q 1288 4144 1088 3959 
Q 888 3775 888 3528 
Q 888 3366 970 3203 
Q 1053 3041 1206 2894 
L 1719 2469 
z
M 1375 2016 
Q 1116 1797 991 1539 
Q 866 1281 866 981 
Q 866 578 1086 336 
Q 1306 94 1647 94 
Q 1984 94 2187 284 
Q 2391 475 2391 747 
Q 2391 972 2272 1150 
Q 2050 1481 1375 2016 
z
" transform="scale(0.015625)"/>
       </defs>
       <use xlink:href="#TimesNewRomanPSMT-30"/>
       <use xlink:href="#TimesNewRomanPSMT-2e" x="50"/>
       <use xlink:href="#TimesNewRomanPSMT-38" x="75"/>
      </g>
     </g>
    </g>
    <g id="ytick_14">
     <g id="line2d_32">
      <g>
       <use xlink:href="#m7c32c24de7" x="49.52" y="36.288071" style="stroke: #000000; stroke-width: 0.8"/>
      </g>
     </g>
     <g id="text_34">
      <!-- 1.0 -->
      <g transform="translate(30.02 39.759946)scale(0.1 -0.1)">
       <use xlink:href="#TimesNewRomanPSMT-31"/>
       <use xlink:href="#TimesNewRomanPSMT-2e" x="50"/>
       <use xlink:href="#TimesNewRomanPSMT-30" x="75"/>
      </g>
     </g>
    </g>
    <g id="text_35">
     <!-- Position -->
     <g transform="translate(23.880938 154.83375)rotate(-90)scale(0.1 -0.1)">
      <use xlink:href="#TimesNewRomanPSMT-50"/>
      <use xlink:href="#TimesNewRomanPSMT-6f" x="55.615234"/>
      <use xlink:href="#TimesNewRomanPSMT-73" x="105.615234"/>
      <use xlink:href="#TimesNewRomanPSMT-69" x="144.53125"/>
      <use xlink:href="#TimesNewRomanPSMT-74" x="172.314453"/>
      <use xlink:href="#TimesNewRomanPSMT-69" x="200.097656"/>
      <use xlink:href="#TimesNewRomanPSMT-6f" x="227.880859"/>
      <use xlink:href="#TimesNewRomanPSMT-6e" x="277.880859"/>
     </g>
    </g>
   </g>
   <g id="line2d_33">
    <path d="M 86.050909 43.796732 
L 90.452223 45.767887 
L 94.853538 49.724685 
L 97.054195 52.058183 
L 99.254852 57.07256 
L 101.455509 61.608933 
L 103.656166 63.967764 
L 105.856824 70.316089 
L 108.057481 79.809443 
L 110.258138 92.507359 
L 112.458795 102.605937 
L 114.659452 110.968721 
L 116.86011 116.51161 
L 119.060767 121.647032 
L 121.261424 128.135322 
L 123.462081 131.623616 
L 125.662738 131.200473 
L 127.863395 129.489141 
L 130.064053 129.965483 
L 132.26471 131.446363 
L 134.465367 132.495155 
L 136.666024 133.759911 
L 138.866681 137.711326 
L 141.067338 142.735836 
L 143.267996 148.300813 
L 145.468653 151.806918 
L 147.66931 153.056633 
L 152.070624 153.261436 
L 154.271281 153.947568 
L 156.471939 155.262358 
L 158.672596 157.698138 
L 160.873253 161.543866 
L 163.07391 164.895519 
L 165.274567 166.040814 
L 167.475225 166.05633 
L 169.675882 166.82717 
L 171.876539 169.042553 
L 174.077196 170.243106 
L 176.277853 170.79521 
L 178.47851 170.81983 
L 180.679168 170.345784 
L 182.879825 169.722272 
L 187.281139 167.324333 
L 189.481796 166.537422 
L 196.083768 165.493697 
L 198.284425 164.945077 
L 200.485082 164.523122 
L 202.685739 164.34864 
L 204.886396 163.904756 
L 207.087054 162.819231 
L 209.287711 161.939934 
L 211.488368 161.507846 
L 213.689025 160.921146 
L 215.889682 159.717268 
L 218.09034 158.25048 
L 220.290997 157.88212 
L 222.491654 158.538565 
L 224.692311 160.303255 
L 229.093625 165.732937 
L 231.294283 170.917917 
L 233.49494 178.270859 
L 235.695597 189.775268 
L 237.896254 204.206287 
L 242.297568 227.986261 
L 244.498226 236.953161 
L 246.698883 240.252484 
L 248.89954 239.669506 
L 251.100197 236.551551 
L 253.300854 231.307197 
L 255.501512 227.033339 
L 257.702169 224.593046 
L 259.902826 218.161201 
L 262.103483 204.182378 
L 264.30414 187.054489 
L 266.504797 177.19808 
L 268.705455 177.324429 
L 270.906112 179.23233 
L 273.106769 177.911603 
L 275.307426 177.689938 
L 277.508083 181.240298 
L 279.70874 181.962134 
L 281.909398 178.481045 
L 284.110055 173.967709 
L 286.310712 173.68857 
L 288.511369 174.413493 
L 290.712026 173.981722 
L 292.912683 172.303164 
L 295.113341 172.444317 
L 297.313998 174.523772 
L 299.514655 176.377128 
L 303.915969 178.447478 
L 306.116627 178.981611 
L 310.517941 178.582219 
L 312.718598 178.798025 
L 314.919255 178.629164 
L 317.119912 176.595626 
L 319.32057 172.716807 
L 321.521227 171.112349 
L 323.721884 172.106674 
L 325.922541 173.980851 
L 328.123198 176.088726 
L 330.323855 176.588818 
L 332.524513 175.700575 
L 334.72517 174.651071 
L 339.126484 172.127495 
L 341.327141 171.300289 
L 345.728456 168.758901 
L 347.929113 168.125889 
L 350.12977 168.289288 
L 352.330427 169.590382 
L 354.531084 172.94813 
L 358.932399 183.498113 
L 361.133056 187.670163 
L 363.333713 191.183473 
L 365.53437 192.335893 
L 367.735027 184.675075 
L 369.935685 171.129449 
L 372.136342 164.633638 
L 374.336999 162.195324 
L 376.537656 154.775882 
L 378.738313 148.911579 
L 380.93897 149.246768 
L 383.139628 147.371641 
L 385.340285 141.288364 
L 387.540942 132.96073 
L 389.741599 125.283287 
L 391.942256 120.035053 
L 394.142913 116.075722 
L 396.343571 108.420841 
L 398.544228 101.423592 
L 400.744885 98.04059 
L 402.945542 95.263999 
L 405.146199 90.740056 
L 407.346857 85.814108 
L 409.547514 82.692195 
L 413.948828 80.661586 
L 416.149485 79.10439 
L 418.350142 76.597281 
L 420.5508 73.559521 
L 422.751457 70.796152 
L 424.952114 68.955304 
L 427.152771 68.883896 
L 429.353428 69.113715 
L 431.554085 68.619006 
L 433.754743 67.747626 
L 435.9554 67.484082 
L 442.557371 67.709626 
L 444.758028 67.464845 
L 446.958686 47.708247 
L 449.159343 36.308812 
L 451.36 37.280892 
L 453.560657 42.493659 
L 455.761314 46.391003 
L 457.961972 45.447502 
L 460.162629 44.020693 
L 462.363286 43.111233 
L 464.563943 45.48091 
L 466.7646 48.538303 
L 468.965257 49.163715 
L 471.165915 50.684969 
L 475.567229 54.655463 
L 479.968543 63.911873 
L 482.1692 66.538444 
L 484.369858 73.749203 
L 486.570515 83.351886 
L 488.771172 96.221909 
L 490.971829 105.813428 
L 493.172486 113.25092 
L 497.573801 123.788949 
L 499.774458 130.353634 
L 501.975115 134.48721 
L 504.175772 134.394823 
L 506.376429 132.342522 
L 508.577087 132.433405 
L 510.777744 133.599363 
L 512.978401 134.471772 
L 515.179058 136.190546 
L 517.379715 140.04047 
L 519.580372 145.358053 
L 521.78103 151.411088 
L 523.981687 154.6717 
L 526.182344 155.369944 
L 528.383001 155.302891 
L 530.583658 155.780262 
L 532.784315 156.81417 
L 534.984973 158.020027 
L 537.18563 159.484441 
L 539.386287 162.956188 
L 541.586944 167.034585 
L 543.787601 168.414133 
L 545.988258 168.043477 
L 548.188916 168.643714 
L 550.389573 171.165232 
L 552.59023 172.599008 
L 554.790887 172.99278 
L 556.991544 172.708969 
L 561.392859 171.84503 
L 563.593516 170.714064 
L 565.794173 169.206664 
L 567.99483 168.157555 
L 570.195487 167.927578 
L 572.396145 167.919899 
L 578.998116 167.173601 
L 581.198773 167.102905 
L 583.39943 166.540906 
L 587.800745 163.794161 
L 590.001402 162.991338 
L 592.202059 162.409863 
L 594.402716 161.374688 
L 596.603373 160.041611 
L 598.804031 159.398704 
L 601.004688 159.895313 
L 603.205345 161.86148 
L 607.606659 167.617485 
L 609.807317 172.816081 
L 612.007974 180.255472 
L 614.208631 191.691482 
L 616.409288 205.199345 
L 620.810602 228.128918 
L 623.01126 237.105397 
L 625.211917 240.552761 
L 627.412574 239.963133 
L 629.613231 236.99211 
L 631.813888 231.892709 
L 634.014545 228.171984 
L 636.215203 226.300974 
L 638.41586 219.631077 
L 640.616517 204.905481 
L 642.817174 187.172051 
L 645.017831 177.365041 
L 647.218488 177.528281 
L 649.419146 179.046844 
L 651.619803 177.651859 
L 653.82046 177.424574 
L 656.021117 181.078007 
L 658.221774 182.036471 
L 660.422432 178.646977 
L 662.623089 174.272024 
L 664.823746 174.277328 
L 667.024403 174.939868 
L 669.22506 174.159845 
L 671.425717 172.212044 
L 673.626375 172.414551 
L 675.827032 174.348419 
L 678.027689 175.860965 
L 680.228346 176.996206 
L 682.429003 178.302683 
L 684.62966 179.346884 
L 689.030975 178.976861 
L 691.231632 179.092444 
L 693.432289 178.760817 
L 695.632946 176.431198 
L 697.833604 172.465296 
L 700.034261 170.877542 
L 702.234918 171.964254 
L 704.435575 173.980059 
L 706.636232 176.16813 
L 708.836889 176.697513 
L 713.238204 174.883423 
L 717.639518 172.198744 
L 719.840175 171.326018 
L 724.24149 168.724859 
L 726.442147 168.084564 
L 728.642804 168.324437 
L 730.843461 169.721085 
L 733.044118 173.210724 
L 737.445433 183.639662 
L 739.64609 187.629155 
L 741.846747 191.176665 
L 744.047404 192.377851 
L 746.248061 184.513893 
L 748.448719 170.864163 
L 750.649376 164.427648 
L 752.850033 162.303069 
L 755.05069 154.684208 
L 757.251347 148.993516 
L 759.452004 149.530341 
L 761.652662 147.622597 
L 763.853319 141.278943 
L 766.053976 133.049238 
L 768.254633 125.412802 
L 770.45529 120.129578 
L 772.655947 116.029727 
L 774.856605 108.523282 
L 777.057262 101.420109 
L 779.257919 97.94567 
L 781.458576 95.24785 
L 783.659233 90.774573 
L 785.85989 85.816958 
L 788.060548 82.712778 
L 790.261205 81.569462 
L 792.461862 80.594532 
L 794.662519 79.164873 
L 796.863176 76.695922 
L 799.063834 73.630771 
L 801.264491 70.881255 
L 803.465148 69.025841 
L 805.665805 68.800534 
L 807.866462 69.127015 
L 810.067119 68.871229 
L 812.267777 68.003174 
L 814.468434 67.48717 
L 816.669091 67.586285 
L 816.669091 67.586285 
" clip-path="url(#p01c4838f8c)" style="fill: none; stroke: #008000; stroke-width: 1.5; stroke-linecap: square"/>
   </g>
   <g id="line2d_34">
    <path d="M 86.050909 148.054367 
L 88.251566 140.151847 
L 92.652881 130.115435 
L 94.853538 130.113152 
L 97.054195 128.297891 
L 99.254852 129.234811 
L 101.455509 130.482896 
L 103.656166 131.018806 
L 105.856824 149.17572 
L 108.057481 168.547961 
L 110.258138 180.99746 
L 112.458795 181.610305 
L 114.659452 172.329367 
L 116.86011 162.044937 
L 121.261424 138.072056 
L 123.462081 132.260041 
L 125.662738 119.094239 
L 127.863395 110.805112 
L 130.064053 108.528944 
L 132.26471 109.683934 
L 136.666024 115.177582 
L 138.866681 129.569689 
L 141.067338 151.677599 
L 143.267996 175.798905 
L 145.468653 186.636283 
L 147.66931 191.130391 
L 149.869967 188.928523 
L 152.070624 182.992499 
L 154.271281 167.500205 
L 158.672596 148.542676 
L 160.873253 145.18327 
L 163.07391 145.548975 
L 165.274567 143.016532 
L 167.475225 136.918822 
L 169.675882 139.037256 
L 171.876539 139.072562 
L 174.077196 138.617978 
L 176.277853 136.017822 
L 178.47851 132.87394 
L 180.679168 131.60425 
L 182.879825 129.532539 
L 185.080482 128.409868 
L 187.281139 126.748653 
L 191.682453 123.252328 
L 193.883111 122.914639 
L 196.083768 122.204133 
L 198.284425 122.044993 
L 200.485082 121.386567 
L 202.685739 120.226922 
L 204.886396 117.055023 
L 207.087054 114.083015 
L 209.287711 112.759752 
L 211.488368 112.400546 
L 213.689025 110.200347 
L 215.889682 103.857077 
L 218.09034 95.734818 
L 222.491654 78.843203 
L 224.692311 76.756299 
L 226.892968 73.337172 
L 229.093625 74.638918 
L 231.294283 76.515218 
L 233.49494 81.579664 
L 235.695597 102.436415 
L 240.096911 159.316907 
L 242.297568 198.36017 
L 244.498226 225.822261 
L 246.698883 236.515694 
L 248.89954 240.252484 
L 251.100197 236.500676 
L 253.300854 225.76377 
L 255.501512 211.00227 
L 257.702169 201.626744 
L 259.902826 188.726174 
L 264.30414 155.643878 
L 266.504797 147.20009 
L 268.705455 137.018152 
L 270.906112 131.613911 
L 273.106769 103.662544 
L 275.307426 83.045819 
L 277.508083 66.046004 
L 279.70874 53.850583 
L 281.909398 46.778188 
L 284.110055 46.344067 
L 286.310712 55.931779 
L 288.511369 58.931628 
L 290.712026 75.48292 
L 292.912683 97.522765 
L 295.113341 128.575858 
L 297.313998 150.944873 
L 299.514655 178.148671 
L 301.715312 195.696516 
L 303.915969 204.069253 
L 306.116627 204.746737 
L 308.317284 200.431529 
L 310.517941 191.436287 
L 312.718598 181.896352 
L 314.919255 179.591465 
L 317.119912 159.705183 
L 319.32057 140.991105 
L 321.521227 126.387515 
L 323.721884 108.394922 
L 325.922541 95.640845 
L 328.123198 88.944957 
L 332.524513 89.163817 
L 334.72517 94.283242 
L 336.925827 97.661529 
L 339.126484 106.91814 
L 341.327141 113.55905 
L 343.527798 119.08449 
L 345.728456 120.038449 
L 347.929113 119.930336 
L 350.12977 116.325371 
L 352.330427 103.35094 
L 354.531084 86.519749 
L 356.731742 68.726783 
L 358.932399 57.391172 
L 361.133056 54.190203 
L 363.333713 52.709645 
L 365.53437 54.019383 
L 367.735027 49.059889 
L 369.935685 42.004531 
L 372.136342 41.271805 
L 374.336999 41.765998 
L 376.537656 36.288071 
L 378.738313 43.790283 
L 380.93897 64.771395 
L 383.139628 84.666899 
L 385.340285 119.061305 
L 387.540942 128.300789 
L 389.741599 135.414989 
L 391.942256 138.684198 
L 394.142913 139.145281 
L 396.343571 126.281422 
L 398.544228 115.451509 
L 400.744885 108.298666 
L 402.945542 108.6151 
L 405.146199 103.261182 
L 407.346857 99.241067 
L 411.748171 104.055211 
L 413.948828 106.209126 
L 416.149485 109.247091 
L 418.350142 111.657456 
L 420.5508 111.885978 
L 424.952114 108.563371 
L 427.152771 105.006095 
L 429.353428 105.001353 
L 431.554085 106.678904 
L 435.9554 107.463974 
L 438.156057 107.303517 
L 440.356714 107.393275 
L 442.557371 107.325737 
L 444.758028 108.49882 
L 446.958686 151.611116 
L 449.159343 158.141717 
L 451.36 155.938092 
L 453.560657 153.453076 
L 455.761314 151.91947 
L 457.961972 153.187492 
L 460.162629 153.276108 
L 462.363286 154.518748 
L 464.563943 148.400486 
L 468.965257 135.47594 
L 471.165915 129.810155 
L 473.366572 130.653804 
L 475.567229 128.511131 
L 477.767886 129.550894 
L 482.1692 131.41806 
L 484.369858 148.173107 
L 486.570515 167.697724 
L 488.771172 180.340527 
L 490.971829 181.508164 
L 495.373143 163.376368 
L 497.573801 151.495625 
L 499.774458 138.289336 
L 501.975115 131.507379 
L 504.175772 118.967771 
L 506.376429 110.517221 
L 508.577087 108.715748 
L 510.777744 109.824542 
L 512.978401 113.172355 
L 515.179058 116.025096 
L 517.379715 129.615709 
L 519.580372 151.014167 
L 521.78103 174.569878 
L 523.981687 187.24421 
L 526.182344 191.05934 
L 528.383001 189.671437 
L 530.583658 183.264845 
L 532.784315 167.728463 
L 537.18563 148.554093 
L 539.386287 144.746691 
L 541.586944 146.080054 
L 543.787601 143.889164 
L 545.988258 136.769519 
L 548.188916 137.683517 
L 550.389573 139.100754 
L 552.59023 138.822699 
L 554.790887 136.143061 
L 556.991544 132.688717 
L 559.192202 131.87765 
L 561.392859 130.094445 
L 563.593516 128.996805 
L 565.794173 126.651606 
L 567.99483 124.592981 
L 570.195487 123.492969 
L 572.396145 123.246531 
L 574.596802 122.462076 
L 576.797459 122.100411 
L 578.998116 121.479838 
L 581.198773 120.440864 
L 583.39943 117.121771 
L 585.600088 114.158282 
L 587.800745 112.55872 
L 590.001402 112.389568 
L 592.202059 110.148793 
L 594.402716 104.556342 
L 596.603373 96.2666 
L 598.804031 87.013327 
L 601.004688 78.596151 
L 603.205345 76.985083 
L 605.406002 73.764266 
L 607.606659 74.734648 
L 609.807317 76.510915 
L 612.007974 81.057367 
L 614.208631 102.461357 
L 618.609945 159.280021 
L 620.810602 199.14322 
L 623.01126 226.623052 
L 625.211917 238.322084 
L 627.412574 241.167273 
L 629.613231 236.752822 
L 631.813888 224.933557 
L 634.014545 209.824445 
L 636.215203 201.312241 
L 638.41586 189.245485 
L 642.817174 155.499317 
L 645.017831 147.179188 
L 647.218488 137.248957 
L 649.419146 131.995775 
L 651.619803 104.065311 
L 653.82046 83.661738 
L 656.021117 66.342414 
L 658.221774 54.136191 
L 660.422432 46.837206 
L 662.623089 45.85488 
L 664.823746 55.375494 
L 667.024403 58.766428 
L 669.22506 75.752104 
L 671.425717 96.544479 
L 673.626375 129.818937 
L 675.827032 151.684977 
L 678.027689 179.322983 
L 680.228346 196.189128 
L 682.429003 204.179649 
L 684.62966 204.849668 
L 686.830318 199.463167 
L 689.030975 190.284107 
L 691.231632 182.390457 
L 693.432289 180.524784 
L 695.632946 159.857121 
L 697.833604 141.658929 
L 700.034261 126.836127 
L 702.234918 108.59332 
L 704.435575 95.766611 
L 706.636232 89.023121 
L 708.836889 88.966474 
L 711.037547 89.302054 
L 713.238204 94.197348 
L 715.438861 97.703686 
L 717.639518 106.906986 
L 719.840175 113.363375 
L 722.040832 119.159844 
L 724.24149 120.255729 
L 726.442147 120.097643 
L 728.642804 116.041783 
L 730.843461 103.156758 
L 733.044118 86.476451 
L 735.244775 68.60374 
L 737.445433 57.422438 
L 739.64609 54.022808 
L 741.846747 52.91498 
L 744.047404 54.185285 
L 746.248061 49.690211 
L 748.448719 42.286451 
L 750.649376 41.375966 
L 752.850033 42.653473 
L 755.05069 35.712727 
L 757.251347 43.56545 
L 759.452004 65.00826 
L 761.652662 84.579337 
L 763.853319 118.342718 
L 766.053976 128.276637 
L 768.254633 135.444411 
L 770.45529 138.636773 
L 772.655947 138.904288 
L 774.856605 126.534886 
L 777.057262 115.64613 
L 779.257919 108.086656 
L 781.458576 108.711269 
L 783.659233 103.294029 
L 785.85989 99.213666 
L 788.060548 101.826995 
L 792.461862 106.314956 
L 794.662519 109.402718 
L 796.863176 111.690479 
L 799.063834 111.911447 
L 803.465148 108.635827 
L 805.665805 105.083909 
L 807.866462 104.884106 
L 810.067119 106.699279 
L 812.267777 107.062613 
L 814.468434 107.59299 
L 816.669091 107.38862 
L 816.669091 107.38862 
" clip-path="url(#p01c4838f8c)" style="fill: none; stroke: #ff0000; stroke-width: 1.5; stroke-linecap: square"/>
   </g>
   <g id="patch_9">
    <path d="M 49.52 251.44 
L 49.52 25.44 
" style="fill: none; stroke: #000000; stroke-width: 0.8; stroke-linejoin: miter; stroke-linecap: square"/>
   </g>
   <g id="patch_10">
    <path d="M 853.2 251.44 
L 853.2 25.44 
" style="fill: none; stroke: #000000; stroke-width: 0.8; stroke-linejoin: miter; stroke-linecap: square"/>
   </g>
   <g id="patch_11">
    <path d="M 49.52 251.44 
L 853.2 251.44 
" style="fill: none; stroke: #000000; stroke-width: 0.8; stroke-linejoin: miter; stroke-linecap: square"/>
   </g>
   <g id="patch_12">
    <path d="M 49.52 25.44 
L 853.2 25.44 
" style="fill: none; stroke: #000000; stroke-width: 0.8; stroke-linejoin: miter; stroke-linecap: square"/>
   </g>
   <g id="text_36">
    <!-- Position Data -->
    <g transform="translate(418.860625 19.44)scale(0.12 -0.12)">
     <defs>
      <path id="TimesNewRomanPSMT-44" d="M 109 0 
L 109 116 
L 269 116 
Q 538 116 650 288 
Q 719 391 719 750 
L 719 3488 
Q 719 3884 631 3984 
Q 509 4122 269 4122 
L 109 4122 
L 109 4238 
L 1834 4238 
Q 2784 4238 3279 4022 
Q 3775 3806 4076 3303 
Q 4378 2800 4378 2141 
Q 4378 1256 3841 663 
Q 3238 0 2003 0 
L 109 0 
z
M 1319 306 
Q 1716 219 1984 219 
Q 2709 219 3187 728 
Q 3666 1238 3666 2109 
Q 3666 2988 3187 3494 
Q 2709 4000 1959 4000 
Q 1678 4000 1319 3909 
L 1319 306 
z
" transform="scale(0.015625)"/>
     </defs>
     <use xlink:href="#TimesNewRomanPSMT-50"/>
     <use xlink:href="#TimesNewRomanPSMT-6f" x="55.615234"/>
     <use xlink:href="#TimesNewRomanPSMT-73" x="105.615234"/>
     <use xlink:href="#TimesNewRomanPSMT-69" x="144.53125"/>
     <use xlink:href="#TimesNewRomanPSMT-74" x="172.314453"/>
     <use xlink:href="#TimesNewRomanPSMT-69" x="200.097656"/>
     <use xlink:href="#TimesNewRomanPSMT-6f" x="227.880859"/>
     <use xlink:href="#TimesNewRomanPSMT-6e" x="277.880859"/>
     <use xlink:href="#TimesNewRomanPSMT-20" x="327.880859"/>
     <use xlink:href="#TimesNewRomanPSMT-44" x="352.880859"/>
     <use xlink:href="#TimesNewRomanPSMT-61" x="425.097656"/>
     <use xlink:href="#TimesNewRomanPSMT-74" x="469.482422"/>
     <use xlink:href="#TimesNewRomanPSMT-61" x="497.265625"/>
    </g>
   </g>
   <g id="legend_2">
    <g id="patch_13">
     <path d="M 771.4125 61.755625 
L 846.2 61.755625 
Q 848.2 61.755625 848.2 59.755625 
L 848.2 32.44 
Q 848.2 30.44 846.2 30.44 
L 771.4125 30.44 
Q 769.4125 30.44 769.4125 32.44 
L 769.4125 59.755625 
Q 769.4125 61.755625 771.4125 61.755625 
z
" style="fill: #ffffff; opacity: 0.8; stroke: #cccccc; stroke-linejoin: miter"/>
    </g>
    <g id="line2d_35">
     <path d="M 773.4125 37.94 
L 783.4125 37.94 
L 793.4125 37.94 
" style="fill: none; stroke: #008000; stroke-width: 1.5; stroke-linecap: square"/>
    </g>
    <g id="text_37">
     <!-- Position_0 -->
     <g transform="translate(801.4125 41.44)scale(0.1 -0.1)">
      <use xlink:href="#TimesNewRomanPSMT-50"/>
      <use xlink:href="#TimesNewRomanPSMT-6f" x="55.615234"/>
      <use xlink:href="#TimesNewRomanPSMT-73" x="105.615234"/>
      <use xlink:href="#TimesNewRomanPSMT-69" x="144.53125"/>
      <use xlink:href="#TimesNewRomanPSMT-74" x="172.314453"/>
      <use xlink:href="#TimesNewRomanPSMT-69" x="200.097656"/>
      <use xlink:href="#TimesNewRomanPSMT-6f" x="227.880859"/>
      <use xlink:href="#TimesNewRomanPSMT-6e" x="277.880859"/>
      <use xlink:href="#TimesNewRomanPSMT-5f" x="327.880859"/>
      <use xlink:href="#TimesNewRomanPSMT-30" x="377.880859"/>
     </g>
    </g>
    <g id="line2d_36">
     <path d="M 773.4125 52.097813 
L 783.4125 52.097813 
L 793.4125 52.097813 
" style="fill: none; stroke: #ff0000; stroke-width: 1.5; stroke-linecap: square"/>
    </g>
    <g id="text_38">
     <!-- Position_1 -->
     <g transform="translate(801.4125 55.597813)scale(0.1 -0.1)">
      <use xlink:href="#TimesNewRomanPSMT-50"/>
      <use xlink:href="#TimesNewRomanPSMT-6f" x="55.615234"/>
      <use xlink:href="#TimesNewRomanPSMT-73" x="105.615234"/>
      <use xlink:href="#TimesNewRomanPSMT-69" x="144.53125"/>
      <use xlink:href="#TimesNewRomanPSMT-74" x="172.314453"/>
      <use xlink:href="#TimesNewRomanPSMT-69" x="200.097656"/>
      <use xlink:href="#TimesNewRomanPSMT-6f" x="227.880859"/>
      <use xlink:href="#TimesNewRomanPSMT-6e" x="277.880859"/>
      <use xlink:href="#TimesNewRomanPSMT-5f" x="327.880859"/>
      <use xlink:href="#TimesNewRomanPSMT-31" x="377.880859"/>
     </g>
    </g>
   </g>
  </g>
 </g>
 <defs>
  <clipPath id="p41b3479c75">
   <rect x="49.52" y="308.04" width="803.68" height="226"/>
  </clipPath>
  <clipPath id="p01c4838f8c">
   <rect x="49.52" y="25.44" width="803.68" height="226"/>
  </clipPath>
 </defs>
</svg>
