<?xml version="1.0" encoding="utf-8" standalone="no"?>
<!DOCTYPE svg PUBLIC "-//W3C//DTD SVG 1.1//EN"
  "http://www.w3.org/Graphics/SVG/1.1/DTD/svg11.dtd">
<svg xmlns:xlink="http://www.w3.org/1999/xlink" width="864pt" height="576pt" viewBox="0 0 864 576" xmlns="http://www.w3.org/2000/svg" version="1.1">
 <metadata>
  <rdf:RDF xmlns:dc="http://purl.org/dc/elements/1.1/" xmlns:cc="http://creativecommons.org/ns#" xmlns:rdf="http://www.w3.org/1999/02/22-rdf-syntax-ns#">
   <cc:Work>
    <dc:type rdf:resource="http://purl.org/dc/dcmitype/StillImage"/>
    <dc:date>2025-04-27T15:24:48.992826</dc:date>
    <dc:format>image/svg+xml</dc:format>
    <dc:creator>
     <cc:Agent>
      <dc:title>Matplotlib v3.9.3, https://matplotlib.org/</dc:title>
     </cc:Agent>
    </dc:creator>
   </cc:Work>
  </rdf:RDF>
 </metadata>
 <defs>
  <style type="text/css">*{stroke-linejoin: round; stroke-linecap: butt}</style>
 </defs>
 <g id="figure_1">
  <g id="patch_1">
   <path d="M 0 576 
L 864 576 
L 864 0 
L 0 0 
z
" style="fill: #ffffff"/>
  </g>
  <g id="axes_1">
   <g id="patch_2">
    <path d="M 44.39 534.04 
L 853.2 534.04 
L 853.2 308.04 
L 44.39 308.04 
z
" style="fill: #ffffff"/>
   </g>
   <g id="matplotlib.axis_1">
    <g id="xtick_1">
     <g id="line2d_1">
      <defs>
       <path id="m7210690998" d="M 0 0 
L 0 3.5 
" style="stroke: #000000; stroke-width: 0.8"/>
      </defs>
      <g>
       <use xlink:href="#m7210690998" x="81.154091" y="534.04" style="stroke: #000000; stroke-width: 0.8"/>
      </g>
     </g>
     <g id="text_1">
      <!-- 0 -->
      <g transform="translate(78.654091 547.98375) scale(0.1 -0.1)">
       <defs>
        <path id="TimesNewRomanPSMT-30" d="M 231 2094 
Q 231 2819 450 3342 
Q 669 3866 1031 4122 
Q 1313 4325 1613 4325 
Q 2100 4325 2488 3828 
Q 2972 3213 2972 2159 
Q 2972 1422 2759 906 
Q 2547 391 2217 158 
Q 1888 -75 1581 -75 
Q 975 -75 572 641 
Q 231 1244 231 2094 
z
M 844 2016 
Q 844 1141 1059 588 
Q 1238 122 1591 122 
Q 1759 122 1940 273 
Q 2122 425 2216 781 
Q 2359 1319 2359 2297 
Q 2359 3022 2209 3506 
Q 2097 3866 1919 4016 
Q 1791 4119 1609 4119 
Q 1397 4119 1231 3928 
Q 1006 3669 925 3112 
Q 844 2556 844 2016 
z
" transform="scale(0.015625)"/>
       </defs>
       <use xlink:href="#TimesNewRomanPSMT-30"/>
      </g>
     </g>
    </g>
    <g id="xtick_2">
     <g id="line2d_2">
      <g>
       <use xlink:href="#m7210690998" x="191.889304" y="534.04" style="stroke: #000000; stroke-width: 0.8"/>
      </g>
     </g>
     <g id="text_2">
      <!-- 50 -->
      <g transform="translate(186.889304 547.98375) scale(0.1 -0.1)">
       <defs>
        <path id="TimesNewRomanPSMT-35" d="M 2778 4238 
L 2534 3706 
L 1259 3706 
L 981 3138 
Q 1809 3016 2294 2522 
Q 2709 2097 2709 1522 
Q 2709 1188 2573 903 
Q 2438 619 2231 419 
Q 2025 219 1772 97 
Q 1413 -75 1034 -75 
Q 653 -75 479 54 
Q 306 184 306 341 
Q 306 428 378 495 
Q 450 563 559 563 
Q 641 563 702 538 
Q 763 513 909 409 
Q 1144 247 1384 247 
Q 1750 247 2026 523 
Q 2303 800 2303 1197 
Q 2303 1581 2056 1914 
Q 1809 2247 1375 2428 
Q 1034 2569 447 2591 
L 1259 4238 
L 2778 4238 
z
" transform="scale(0.015625)"/>
       </defs>
       <use xlink:href="#TimesNewRomanPSMT-35"/>
       <use xlink:href="#TimesNewRomanPSMT-30" x="50"/>
      </g>
     </g>
    </g>
    <g id="xtick_3">
     <g id="line2d_3">
      <g>
       <use xlink:href="#m7210690998" x="302.624518" y="534.04" style="stroke: #000000; stroke-width: 0.8"/>
      </g>
     </g>
     <g id="text_3">
      <!-- 100 -->
      <g transform="translate(295.124518 547.98375) scale(0.1 -0.1)">
       <defs>
        <path id="TimesNewRomanPSMT-31" d="M 750 3822 
L 1781 4325 
L 1884 4325 
L 1884 747 
Q 1884 391 1914 303 
Q 1944 216 2037 169 
Q 2131 122 2419 116 
L 2419 0 
L 825 0 
L 825 116 
Q 1125 122 1212 167 
Q 1300 213 1334 289 
Q 1369 366 1369 747 
L 1369 3034 
Q 1369 3497 1338 3628 
Q 1316 3728 1258 3775 
Q 1200 3822 1119 3822 
Q 1003 3822 797 3725 
L 750 3822 
z
" transform="scale(0.015625)"/>
       </defs>
       <use xlink:href="#TimesNewRomanPSMT-31"/>
       <use xlink:href="#TimesNewRomanPSMT-30" x="50"/>
       <use xlink:href="#TimesNewRomanPSMT-30" x="100"/>
      </g>
     </g>
    </g>
    <g id="xtick_4">
     <g id="line2d_4">
      <g>
       <use xlink:href="#m7210690998" x="413.359732" y="534.04" style="stroke: #000000; stroke-width: 0.8"/>
      </g>
     </g>
     <g id="text_4">
      <!-- 150 -->
      <g transform="translate(405.859732 547.98375) scale(0.1 -0.1)">
       <use xlink:href="#TimesNewRomanPSMT-31"/>
       <use xlink:href="#TimesNewRomanPSMT-35" x="50"/>
       <use xlink:href="#TimesNewRomanPSMT-30" x="100"/>
      </g>
     </g>
    </g>
    <g id="xtick_5">
     <g id="line2d_5">
      <g>
       <use xlink:href="#m7210690998" x="524.094945" y="534.04" style="stroke: #000000; stroke-width: 0.8"/>
      </g>
     </g>
     <g id="text_5">
      <!-- 200 -->
      <g transform="translate(516.594945 547.98375) scale(0.1 -0.1)">
       <defs>
        <path id="TimesNewRomanPSMT-32" d="M 2934 816 
L 2638 0 
L 138 0 
L 138 116 
Q 1241 1122 1691 1759 
Q 2141 2397 2141 2925 
Q 2141 3328 1894 3587 
Q 1647 3847 1303 3847 
Q 991 3847 742 3664 
Q 494 3481 375 3128 
L 259 3128 
Q 338 3706 661 4015 
Q 984 4325 1469 4325 
Q 1984 4325 2329 3994 
Q 2675 3663 2675 3213 
Q 2675 2891 2525 2569 
Q 2294 2063 1775 1497 
Q 997 647 803 472 
L 1909 472 
Q 2247 472 2383 497 
Q 2519 522 2628 598 
Q 2738 675 2819 816 
L 2934 816 
z
" transform="scale(0.015625)"/>
       </defs>
       <use xlink:href="#TimesNewRomanPSMT-32"/>
       <use xlink:href="#TimesNewRomanPSMT-30" x="50"/>
       <use xlink:href="#TimesNewRomanPSMT-30" x="100"/>
      </g>
     </g>
    </g>
    <g id="xtick_6">
     <g id="line2d_6">
      <g>
       <use xlink:href="#m7210690998" x="634.830159" y="534.04" style="stroke: #000000; stroke-width: 0.8"/>
      </g>
     </g>
     <g id="text_6">
      <!-- 250 -->
      <g transform="translate(627.330159 547.98375) scale(0.1 -0.1)">
       <use xlink:href="#TimesNewRomanPSMT-32"/>
       <use xlink:href="#TimesNewRomanPSMT-35" x="50"/>
       <use xlink:href="#TimesNewRomanPSMT-30" x="100"/>
      </g>
     </g>
    </g>
    <g id="xtick_7">
     <g id="line2d_7">
      <g>
       <use xlink:href="#m7210690998" x="745.565372" y="534.04" style="stroke: #000000; stroke-width: 0.8"/>
      </g>
     </g>
     <g id="text_7">
      <!-- 300 -->
      <g transform="translate(738.065372 547.98375) scale(0.1 -0.1)">
       <defs>
        <path id="TimesNewRomanPSMT-33" d="M 325 3431 
Q 506 3859 782 4092 
Q 1059 4325 1472 4325 
Q 1981 4325 2253 3994 
Q 2459 3747 2459 3466 
Q 2459 3003 1878 2509 
Q 2269 2356 2469 2072 
Q 2669 1788 2669 1403 
Q 2669 853 2319 450 
Q 1863 -75 997 -75 
Q 569 -75 414 31 
Q 259 138 259 259 
Q 259 350 332 419 
Q 406 488 509 488 
Q 588 488 669 463 
Q 722 447 909 348 
Q 1097 250 1169 231 
Q 1284 197 1416 197 
Q 1734 197 1970 444 
Q 2206 691 2206 1028 
Q 2206 1275 2097 1509 
Q 2016 1684 1919 1775 
Q 1784 1900 1550 2001 
Q 1316 2103 1072 2103 
L 972 2103 
L 972 2197 
Q 1219 2228 1467 2375 
Q 1716 2522 1828 2728 
Q 1941 2934 1941 3181 
Q 1941 3503 1739 3701 
Q 1538 3900 1238 3900 
Q 753 3900 428 3381 
L 325 3431 
z
" transform="scale(0.015625)"/>
       </defs>
       <use xlink:href="#TimesNewRomanPSMT-33"/>
       <use xlink:href="#TimesNewRomanPSMT-30" x="50"/>
       <use xlink:href="#TimesNewRomanPSMT-30" x="100"/>
      </g>
     </g>
    </g>
    <g id="text_8">
     <!-- Time[s] -->
     <g transform="translate(433.142656 561.066563) scale(0.1 -0.1)">
      <defs>
       <path id="TimesNewRomanPSMT-54" d="M 3703 4238 
L 3750 3244 
L 3631 3244 
Q 3597 3506 3538 3619 
Q 3441 3800 3280 3886 
Q 3119 3972 2856 3972 
L 2259 3972 
L 2259 734 
Q 2259 344 2344 247 
Q 2463 116 2709 116 
L 2856 116 
L 2856 0 
L 1059 0 
L 1059 116 
L 1209 116 
Q 1478 116 1591 278 
Q 1659 378 1659 734 
L 1659 3972 
L 1150 3972 
Q 853 3972 728 3928 
Q 566 3869 450 3700 
Q 334 3531 313 3244 
L 194 3244 
L 244 4238 
L 3703 4238 
z
" transform="scale(0.015625)"/>
       <path id="TimesNewRomanPSMT-69" d="M 928 4444 
Q 1059 4444 1151 4351 
Q 1244 4259 1244 4128 
Q 1244 3997 1151 3903 
Q 1059 3809 928 3809 
Q 797 3809 703 3903 
Q 609 3997 609 4128 
Q 609 4259 701 4351 
Q 794 4444 928 4444 
z
M 1188 2947 
L 1188 647 
Q 1188 378 1227 289 
Q 1266 200 1342 156 
Q 1419 113 1622 113 
L 1622 0 
L 231 0 
L 231 113 
Q 441 113 512 153 
Q 584 194 626 287 
Q 669 381 669 647 
L 669 1750 
Q 669 2216 641 2353 
Q 619 2453 572 2492 
Q 525 2531 444 2531 
Q 356 2531 231 2484 
L 188 2597 
L 1050 2947 
L 1188 2947 
z
" transform="scale(0.015625)"/>
       <path id="TimesNewRomanPSMT-6d" d="M 1050 2338 
Q 1363 2650 1419 2697 
Q 1559 2816 1721 2881 
Q 1884 2947 2044 2947 
Q 2313 2947 2506 2790 
Q 2700 2634 2766 2338 
Q 3088 2713 3309 2830 
Q 3531 2947 3766 2947 
Q 3994 2947 4170 2830 
Q 4347 2713 4450 2447 
Q 4519 2266 4519 1878 
L 4519 647 
Q 4519 378 4559 278 
Q 4591 209 4675 161 
Q 4759 113 4950 113 
L 4950 0 
L 3538 0 
L 3538 113 
L 3597 113 
Q 3781 113 3884 184 
Q 3956 234 3988 344 
Q 4000 397 4000 647 
L 4000 1878 
Q 4000 2228 3916 2372 
Q 3794 2572 3525 2572 
Q 3359 2572 3192 2489 
Q 3025 2406 2788 2181 
L 2781 2147 
L 2788 2013 
L 2788 647 
Q 2788 353 2820 281 
Q 2853 209 2943 161 
Q 3034 113 3253 113 
L 3253 0 
L 1806 0 
L 1806 113 
Q 2044 113 2133 169 
Q 2222 225 2256 338 
Q 2272 391 2272 647 
L 2272 1878 
Q 2272 2228 2169 2381 
Q 2031 2581 1784 2581 
Q 1616 2581 1450 2491 
Q 1191 2353 1050 2181 
L 1050 647 
Q 1050 366 1089 281 
Q 1128 197 1204 155 
Q 1281 113 1516 113 
L 1516 0 
L 100 0 
L 100 113 
Q 297 113 375 155 
Q 453 197 493 289 
Q 534 381 534 647 
L 534 1741 
Q 534 2213 506 2350 
Q 484 2453 437 2492 
Q 391 2531 309 2531 
Q 222 2531 100 2484 
L 53 2597 
L 916 2947 
L 1050 2947 
L 1050 2338 
z
" transform="scale(0.015625)"/>
       <path id="TimesNewRomanPSMT-65" d="M 681 1784 
Q 678 1147 991 784 
Q 1303 422 1725 422 
Q 2006 422 2214 576 
Q 2422 731 2563 1106 
L 2659 1044 
Q 2594 616 2278 264 
Q 1963 -88 1488 -88 
Q 972 -88 605 314 
Q 238 716 238 1394 
Q 238 2128 614 2539 
Q 991 2950 1559 2950 
Q 2041 2950 2350 2633 
Q 2659 2316 2659 1784 
L 681 1784 
z
M 681 1966 
L 2006 1966 
Q 1991 2241 1941 2353 
Q 1863 2528 1708 2628 
Q 1553 2728 1384 2728 
Q 1125 2728 920 2526 
Q 716 2325 681 1966 
z
" transform="scale(0.015625)"/>
       <path id="TimesNewRomanPSMT-5b" d="M 1900 -1269 
L 525 -1269 
L 525 4334 
L 1900 4334 
L 1900 4088 
L 994 4088 
L 994 -1025 
L 1900 -1025 
L 1900 -1269 
z
" transform="scale(0.015625)"/>
       <path id="TimesNewRomanPSMT-73" d="M 2050 2947 
L 2050 1972 
L 1947 1972 
Q 1828 2431 1642 2597 
Q 1456 2763 1169 2763 
Q 950 2763 815 2647 
Q 681 2531 681 2391 
Q 681 2216 781 2091 
Q 878 1963 1175 1819 
L 1631 1597 
Q 2266 1288 2266 781 
Q 2266 391 1970 151 
Q 1675 -88 1309 -88 
Q 1047 -88 709 6 
Q 606 38 541 38 
Q 469 38 428 -44 
L 325 -44 
L 325 978 
L 428 978 
Q 516 541 762 319 
Q 1009 97 1316 97 
Q 1531 97 1667 223 
Q 1803 350 1803 528 
Q 1803 744 1651 891 
Q 1500 1038 1047 1263 
Q 594 1488 453 1669 
Q 313 1847 313 2119 
Q 313 2472 555 2709 
Q 797 2947 1181 2947 
Q 1350 2947 1591 2875 
Q 1750 2828 1803 2828 
Q 1853 2828 1881 2850 
Q 1909 2872 1947 2947 
L 2050 2947 
z
" transform="scale(0.015625)"/>
       <path id="TimesNewRomanPSMT-5d" d="M 234 4334 
L 1609 4334 
L 1609 -1272 
L 234 -1272 
L 234 -1025 
L 1141 -1025 
L 1141 4088 
L 234 4088 
L 234 4334 
z
" transform="scale(0.015625)"/>
      </defs>
      <use xlink:href="#TimesNewRomanPSMT-54"/>
      <use xlink:href="#TimesNewRomanPSMT-69" x="57.583984"/>
      <use xlink:href="#TimesNewRomanPSMT-6d" x="85.367188"/>
      <use xlink:href="#TimesNewRomanPSMT-65" x="163.150391"/>
      <use xlink:href="#TimesNewRomanPSMT-5b" x="207.535156"/>
      <use xlink:href="#TimesNewRomanPSMT-73" x="240.835938"/>
      <use xlink:href="#TimesNewRomanPSMT-5d" x="279.751953"/>
     </g>
    </g>
   </g>
   <g id="matplotlib.axis_2">
    <g id="ytick_1">
     <g id="line2d_8">
      <defs>
       <path id="mb8092ed6b0" d="M 0 0 
L -3.5 0 
" style="stroke: #000000; stroke-width: 0.8"/>
      </defs>
      <g>
       <use xlink:href="#mb8092ed6b0" x="44.39" y="507.234552" style="stroke: #000000; stroke-width: 0.8"/>
      </g>
     </g>
     <g id="text_9">
      <!-- 24 -->
      <g transform="translate(27.39 510.706427) scale(0.1 -0.1)">
       <defs>
        <path id="TimesNewRomanPSMT-34" d="M 2978 1563 
L 2978 1119 
L 2409 1119 
L 2409 0 
L 1894 0 
L 1894 1119 
L 100 1119 
L 100 1519 
L 2066 4325 
L 2409 4325 
L 2409 1563 
L 2978 1563 
z
M 1894 1563 
L 1894 3666 
L 406 1563 
L 1894 1563 
z
" transform="scale(0.015625)"/>
       </defs>
       <use xlink:href="#TimesNewRomanPSMT-32"/>
       <use xlink:href="#TimesNewRomanPSMT-34" x="50"/>
      </g>
     </g>
    </g>
    <g id="ytick_2">
     <g id="line2d_9">
      <g>
       <use xlink:href="#mb8092ed6b0" x="44.39" y="470.444789" style="stroke: #000000; stroke-width: 0.8"/>
      </g>
     </g>
     <g id="text_10">
      <!-- 26 -->
      <g transform="translate(27.39 473.916664) scale(0.1 -0.1)">
       <defs>
        <path id="TimesNewRomanPSMT-36" d="M 2869 4325 
L 2869 4209 
Q 2456 4169 2195 4045 
Q 1934 3922 1679 3669 
Q 1425 3416 1258 3105 
Q 1091 2794 978 2366 
Q 1428 2675 1881 2675 
Q 2316 2675 2634 2325 
Q 2953 1975 2953 1425 
Q 2953 894 2631 456 
Q 2244 -75 1606 -75 
Q 1172 -75 869 213 
Q 275 772 275 1663 
Q 275 2231 503 2743 
Q 731 3256 1154 3653 
Q 1578 4050 1965 4187 
Q 2353 4325 2688 4325 
L 2869 4325 
z
M 925 2138 
Q 869 1716 869 1456 
Q 869 1156 980 804 
Q 1091 453 1309 247 
Q 1469 100 1697 100 
Q 1969 100 2183 356 
Q 2397 613 2397 1088 
Q 2397 1622 2184 2012 
Q 1972 2403 1581 2403 
Q 1463 2403 1327 2353 
Q 1191 2303 925 2138 
z
" transform="scale(0.015625)"/>
       </defs>
       <use xlink:href="#TimesNewRomanPSMT-32"/>
       <use xlink:href="#TimesNewRomanPSMT-36" x="50"/>
      </g>
     </g>
    </g>
    <g id="ytick_3">
     <g id="line2d_10">
      <g>
       <use xlink:href="#mb8092ed6b0" x="44.39" y="433.655027" style="stroke: #000000; stroke-width: 0.8"/>
      </g>
     </g>
     <g id="text_11">
      <!-- 28 -->
      <g transform="translate(27.39 437.126902) scale(0.1 -0.1)">
       <defs>
        <path id="TimesNewRomanPSMT-38" d="M 1228 2134 
Q 725 2547 579 2797 
Q 434 3047 434 3316 
Q 434 3728 753 4026 
Q 1072 4325 1600 4325 
Q 2113 4325 2425 4047 
Q 2738 3769 2738 3413 
Q 2738 3175 2569 2928 
Q 2400 2681 1866 2347 
Q 2416 1922 2594 1678 
Q 2831 1359 2831 1006 
Q 2831 559 2490 242 
Q 2150 -75 1597 -75 
Q 994 -75 656 303 
Q 388 606 388 966 
Q 388 1247 577 1523 
Q 766 1800 1228 2134 
z
M 1719 2469 
Q 2094 2806 2194 3001 
Q 2294 3197 2294 3444 
Q 2294 3772 2109 3958 
Q 1925 4144 1606 4144 
Q 1288 4144 1088 3959 
Q 888 3775 888 3528 
Q 888 3366 970 3203 
Q 1053 3041 1206 2894 
L 1719 2469 
z
M 1375 2016 
Q 1116 1797 991 1539 
Q 866 1281 866 981 
Q 866 578 1086 336 
Q 1306 94 1647 94 
Q 1984 94 2187 284 
Q 2391 475 2391 747 
Q 2391 972 2272 1150 
Q 2050 1481 1375 2016 
z
" transform="scale(0.015625)"/>
       </defs>
       <use xlink:href="#TimesNewRomanPSMT-32"/>
       <use xlink:href="#TimesNewRomanPSMT-38" x="50"/>
      </g>
     </g>
    </g>
    <g id="ytick_4">
     <g id="line2d_11">
      <g>
       <use xlink:href="#mb8092ed6b0" x="44.39" y="396.865264" style="stroke: #000000; stroke-width: 0.8"/>
      </g>
     </g>
     <g id="text_12">
      <!-- 30 -->
      <g transform="translate(27.39 400.337139) scale(0.1 -0.1)">
       <use xlink:href="#TimesNewRomanPSMT-33"/>
       <use xlink:href="#TimesNewRomanPSMT-30" x="50"/>
      </g>
     </g>
    </g>
    <g id="ytick_5">
     <g id="line2d_12">
      <g>
       <use xlink:href="#mb8092ed6b0" x="44.39" y="360.075502" style="stroke: #000000; stroke-width: 0.8"/>
      </g>
     </g>
     <g id="text_13">
      <!-- 32 -->
      <g transform="translate(27.39 363.547377) scale(0.1 -0.1)">
       <use xlink:href="#TimesNewRomanPSMT-33"/>
       <use xlink:href="#TimesNewRomanPSMT-32" x="50"/>
      </g>
     </g>
    </g>
    <g id="ytick_6">
     <g id="line2d_13">
      <g>
       <use xlink:href="#mb8092ed6b0" x="44.39" y="323.285739" style="stroke: #000000; stroke-width: 0.8"/>
      </g>
     </g>
     <g id="text_14">
      <!-- 34 -->
      <g transform="translate(27.39 326.757614) scale(0.1 -0.1)">
       <use xlink:href="#TimesNewRomanPSMT-33"/>
       <use xlink:href="#TimesNewRomanPSMT-34" x="50"/>
      </g>
     </g>
    </g>
    <g id="text_15">
     <!-- Reduction Ratio -->
     <g transform="translate(21.250937 453.675156) rotate(-90) scale(0.1 -0.1)">
      <defs>
       <path id="TimesNewRomanPSMT-52" d="M 4325 0 
L 3194 0 
L 1759 1981 
Q 1600 1975 1500 1975 
Q 1459 1975 1412 1976 
Q 1366 1978 1316 1981 
L 1316 750 
Q 1316 350 1403 253 
Q 1522 116 1759 116 
L 1925 116 
L 1925 0 
L 109 0 
L 109 116 
L 269 116 
Q 538 116 653 291 
Q 719 388 719 750 
L 719 3488 
Q 719 3888 631 3984 
Q 509 4122 269 4122 
L 109 4122 
L 109 4238 
L 1653 4238 
Q 2328 4238 2648 4139 
Q 2969 4041 3192 3777 
Q 3416 3513 3416 3147 
Q 3416 2756 3161 2468 
Q 2906 2181 2372 2063 
L 3247 847 
Q 3547 428 3762 290 
Q 3978 153 4325 116 
L 4325 0 
z
M 1316 2178 
Q 1375 2178 1419 2176 
Q 1463 2175 1491 2175 
Q 2097 2175 2405 2437 
Q 2713 2700 2713 3106 
Q 2713 3503 2464 3751 
Q 2216 4000 1806 4000 
Q 1625 4000 1316 3941 
L 1316 2178 
z
" transform="scale(0.015625)"/>
       <path id="TimesNewRomanPSMT-64" d="M 2222 322 
Q 2013 103 1813 7 
Q 1613 -88 1381 -88 
Q 913 -88 563 304 
Q 213 697 213 1313 
Q 213 1928 600 2439 
Q 988 2950 1597 2950 
Q 1975 2950 2222 2709 
L 2222 3238 
Q 2222 3728 2198 3840 
Q 2175 3953 2125 3993 
Q 2075 4034 2000 4034 
Q 1919 4034 1784 3984 
L 1744 4094 
L 2597 4444 
L 2738 4444 
L 2738 1134 
Q 2738 631 2761 520 
Q 2784 409 2836 365 
Q 2888 322 2956 322 
Q 3041 322 3181 375 
L 3216 266 
L 2366 -88 
L 2222 -88 
L 2222 322 
z
M 2222 541 
L 2222 2016 
Q 2203 2228 2109 2403 
Q 2016 2578 1861 2667 
Q 1706 2756 1559 2756 
Q 1284 2756 1069 2509 
Q 784 2184 784 1559 
Q 784 928 1059 592 
Q 1334 256 1672 256 
Q 1956 256 2222 541 
z
" transform="scale(0.015625)"/>
       <path id="TimesNewRomanPSMT-75" d="M 2709 2863 
L 2709 1128 
Q 2709 631 2732 520 
Q 2756 409 2807 365 
Q 2859 322 2928 322 
Q 3025 322 3147 375 
L 3191 266 
L 2334 -88 
L 2194 -88 
L 2194 519 
Q 1825 119 1631 15 
Q 1438 -88 1222 -88 
Q 981 -88 804 51 
Q 628 191 559 409 
Q 491 628 491 1028 
L 491 2306 
Q 491 2509 447 2587 
Q 403 2666 317 2708 
Q 231 2750 6 2747 
L 6 2863 
L 1009 2863 
L 1009 947 
Q 1009 547 1148 422 
Q 1288 297 1484 297 
Q 1619 297 1789 381 
Q 1959 466 2194 703 
L 2194 2325 
Q 2194 2569 2105 2655 
Q 2016 2741 1734 2747 
L 1734 2863 
L 2709 2863 
z
" transform="scale(0.015625)"/>
       <path id="TimesNewRomanPSMT-63" d="M 2631 1088 
Q 2516 522 2178 217 
Q 1841 -88 1431 -88 
Q 944 -88 581 321 
Q 219 731 219 1428 
Q 219 2103 620 2525 
Q 1022 2947 1584 2947 
Q 2006 2947 2278 2723 
Q 2550 2500 2550 2259 
Q 2550 2141 2473 2067 
Q 2397 1994 2259 1994 
Q 2075 1994 1981 2113 
Q 1928 2178 1911 2362 
Q 1894 2547 1784 2644 
Q 1675 2738 1481 2738 
Q 1169 2738 978 2506 
Q 725 2200 725 1697 
Q 725 1184 976 792 
Q 1228 400 1656 400 
Q 1963 400 2206 609 
Q 2378 753 2541 1131 
L 2631 1088 
z
" transform="scale(0.015625)"/>
       <path id="TimesNewRomanPSMT-74" d="M 1031 3803 
L 1031 2863 
L 1700 2863 
L 1700 2644 
L 1031 2644 
L 1031 788 
Q 1031 509 1111 412 
Q 1191 316 1316 316 
Q 1419 316 1516 380 
Q 1613 444 1666 569 
L 1788 569 
Q 1678 263 1478 108 
Q 1278 -47 1066 -47 
Q 922 -47 784 33 
Q 647 113 581 261 
Q 516 409 516 719 
L 516 2644 
L 63 2644 
L 63 2747 
Q 234 2816 414 2980 
Q 594 3144 734 3369 
Q 806 3488 934 3803 
L 1031 3803 
z
" transform="scale(0.015625)"/>
       <path id="TimesNewRomanPSMT-6f" d="M 1600 2947 
Q 2250 2947 2644 2453 
Q 2978 2031 2978 1484 
Q 2978 1100 2793 706 
Q 2609 313 2286 112 
Q 1963 -88 1566 -88 
Q 919 -88 538 428 
Q 216 863 216 1403 
Q 216 1797 411 2186 
Q 606 2575 925 2761 
Q 1244 2947 1600 2947 
z
M 1503 2744 
Q 1338 2744 1170 2645 
Q 1003 2547 900 2300 
Q 797 2053 797 1666 
Q 797 1041 1045 587 
Q 1294 134 1700 134 
Q 2003 134 2200 384 
Q 2397 634 2397 1244 
Q 2397 2006 2069 2444 
Q 1847 2744 1503 2744 
z
" transform="scale(0.015625)"/>
       <path id="TimesNewRomanPSMT-6e" d="M 1034 2341 
Q 1538 2947 1994 2947 
Q 2228 2947 2397 2830 
Q 2566 2713 2666 2444 
Q 2734 2256 2734 1869 
L 2734 647 
Q 2734 375 2778 278 
Q 2813 200 2889 156 
Q 2966 113 3172 113 
L 3172 0 
L 1756 0 
L 1756 113 
L 1816 113 
Q 2016 113 2095 173 
Q 2175 234 2206 353 
Q 2219 400 2219 647 
L 2219 1819 
Q 2219 2209 2117 2386 
Q 2016 2563 1775 2563 
Q 1403 2563 1034 2156 
L 1034 647 
Q 1034 356 1069 288 
Q 1113 197 1189 155 
Q 1266 113 1500 113 
L 1500 0 
L 84 0 
L 84 113 
L 147 113 
Q 366 113 442 223 
Q 519 334 519 647 
L 519 1709 
Q 519 2225 495 2337 
Q 472 2450 423 2490 
Q 375 2531 294 2531 
Q 206 2531 84 2484 
L 38 2597 
L 900 2947 
L 1034 2947 
L 1034 2341 
z
" transform="scale(0.015625)"/>
       <path id="TimesNewRomanPSMT-20" transform="scale(0.015625)"/>
       <path id="TimesNewRomanPSMT-61" d="M 1822 413 
Q 1381 72 1269 19 
Q 1100 -59 909 -59 
Q 613 -59 420 144 
Q 228 347 228 678 
Q 228 888 322 1041 
Q 450 1253 767 1440 
Q 1084 1628 1822 1897 
L 1822 2009 
Q 1822 2438 1686 2597 
Q 1550 2756 1291 2756 
Q 1094 2756 978 2650 
Q 859 2544 859 2406 
L 866 2225 
Q 866 2081 792 2003 
Q 719 1925 600 1925 
Q 484 1925 411 2006 
Q 338 2088 338 2228 
Q 338 2497 613 2722 
Q 888 2947 1384 2947 
Q 1766 2947 2009 2819 
Q 2194 2722 2281 2516 
Q 2338 2381 2338 1966 
L 2338 994 
Q 2338 584 2353 492 
Q 2369 400 2405 369 
Q 2441 338 2488 338 
Q 2538 338 2575 359 
Q 2641 400 2828 588 
L 2828 413 
Q 2478 -56 2159 -56 
Q 2006 -56 1915 50 
Q 1825 156 1822 413 
z
M 1822 616 
L 1822 1706 
Q 1350 1519 1213 1441 
Q 966 1303 859 1153 
Q 753 1003 753 825 
Q 753 600 887 451 
Q 1022 303 1197 303 
Q 1434 303 1822 616 
z
" transform="scale(0.015625)"/>
      </defs>
      <use xlink:href="#TimesNewRomanPSMT-52"/>
      <use xlink:href="#TimesNewRomanPSMT-65" x="66.699219"/>
      <use xlink:href="#TimesNewRomanPSMT-64" x="111.083984"/>
      <use xlink:href="#TimesNewRomanPSMT-75" x="161.083984"/>
      <use xlink:href="#TimesNewRomanPSMT-63" x="211.083984"/>
      <use xlink:href="#TimesNewRomanPSMT-74" x="255.46875"/>
      <use xlink:href="#TimesNewRomanPSMT-69" x="283.251953"/>
      <use xlink:href="#TimesNewRomanPSMT-6f" x="311.035156"/>
      <use xlink:href="#TimesNewRomanPSMT-6e" x="361.035156"/>
      <use xlink:href="#TimesNewRomanPSMT-20" x="411.035156"/>
      <use xlink:href="#TimesNewRomanPSMT-52" x="436.035156"/>
      <use xlink:href="#TimesNewRomanPSMT-61" x="502.734375"/>
      <use xlink:href="#TimesNewRomanPSMT-74" x="547.119141"/>
      <use xlink:href="#TimesNewRomanPSMT-69" x="574.902344"/>
      <use xlink:href="#TimesNewRomanPSMT-6f" x="602.685547"/>
     </g>
    </g>
   </g>
   <g id="line2d_14">
    <path d="M 81.154091 350.920304 
L 83.368795 350.004433 
L 90.012908 349.31339 
L 92.227612 349.296128 
L 94.442317 349.665157 
L 96.657021 350.782769 
L 98.871725 353.627918 
L 101.086429 361.612876 
L 103.301134 379.129989 
L 105.515838 381.017797 
L 107.730542 363.342589 
L 109.945246 355.308091 
L 112.159951 351.933502 
L 114.374655 349.85939 
L 116.589359 348.206234 
L 118.804064 346.69798 
L 121.018768 345.422694 
L 123.233472 344.514683 
L 125.448176 344.102148 
L 127.662881 344.110148 
L 129.877585 344.46016 
L 132.092289 345.349296 
L 134.306993 347.623464 
L 136.521698 353.744613 
L 138.736402 375.336375 
L 140.951106 374.42917 
L 143.165811 353.652268 
L 145.380515 348.140834 
L 147.595219 346.333092 
L 152.024628 343.79922 
L 154.239332 342.410749 
L 156.454036 341.172443 
L 158.66874 340.513117 
L 160.883445 340.475084 
L 163.098149 340.799555 
L 167.527558 341.739003 
L 169.742262 342.010354 
L 171.956966 342.06628 
L 176.386375 341.854223 
L 189.6746 341.108377 
L 205.17753 341.292505 
L 214.036347 340.898917 
L 222.895164 340.406457 
L 225.109869 340.707069 
L 227.324573 342.984536 
L 229.539277 371.861161 
L 231.753981 494.59786 
L 233.968686 491.824671 
L 236.18339 475.881631 
L 238.398094 463.548323 
L 240.612798 356.871639 
L 242.827503 340.784468 
L 247.256911 339.233551 
L 249.471616 337.66481 
L 251.68632 335.229879 
L 253.901024 342.03765 
L 256.115728 451.251468 
L 258.330433 523.767273 
L 260.545137 481.869068 
L 262.759841 377.062509 
L 264.974545 334.559397 
L 267.18925 327.602232 
L 269.403954 329.536072 
L 271.618658 332.668571 
L 273.833363 335.360748 
L 276.048067 337.341883 
L 278.262771 339.083174 
L 280.477475 341.991478 
L 282.69218 351.725234 
L 284.906884 378.143351 
L 287.121588 364.901962 
L 289.336292 340.743979 
L 291.550997 341.94341 
L 293.765701 343.6266 
L 295.980405 336.72894 
L 298.19511 340.935265 
L 300.409814 339.153766 
L 302.624518 339.193834 
L 304.839222 340.737313 
L 307.053927 341.022909 
L 309.268631 340.254678 
L 311.483335 338.889643 
L 313.698039 337.32427 
L 315.912744 336.050318 
L 318.127448 335.558911 
L 320.342152 335.800229 
L 329.200969 338.21502 
L 331.415674 338.931254 
L 333.630378 340.063111 
L 335.845082 341.970917 
L 338.059786 344.774596 
L 340.274491 346.127561 
L 342.489195 345.236952 
L 344.703899 343.282341 
L 346.918604 341.721951 
L 349.133308 341.004524 
L 351.348012 340.874006 
L 353.562716 341.036662 
L 355.777421 341.654447 
L 357.992125 343.321006 
L 360.206829 348.263142 
L 362.421533 363.857152 
L 364.636238 396.081561 
L 366.850942 404.806295 
L 369.065646 375.847851 
L 371.28035 351.457182 
L 373.495055 342.334683 
L 375.709759 339.189062 
L 377.924463 337.145896 
L 380.139168 334.212472 
L 382.353872 331.021801 
L 384.568576 332.683518 
L 386.78328 346.300532 
L 388.997985 348.363697 
L 391.212689 338.483003 
L 395.642097 340.935476 
L 397.856802 341.437689 
L 400.071506 341.500702 
L 406.715619 341.41355 
L 411.145027 341.611292 
L 420.003844 342.231883 
L 424.433253 342.448501 
L 446.580296 342.700835 
L 451.009704 343.11737 
L 455.439113 343.580919 
L 459.868521 343.758591 
L 468.727338 343.510467 
L 475.371451 343.26515 
L 479.80086 343.290762 
L 484.230268 343.588988 
L 490.874381 344.2754 
L 493.089085 344.3535 
L 495.30379 344.281856 
L 497.518494 344.042643 
L 499.733198 343.551096 
L 504.162607 342.277284 
L 506.377311 341.851346 
L 510.80672 341.443373 
L 515.236128 341.248578 
L 519.665537 341.339099 
L 526.30965 341.860679 
L 528.524354 341.86503 
L 530.739058 341.699496 
L 532.953762 341.264788 
L 539.597875 339.121698 
L 541.812579 338.957147 
L 546.241988 339.313475 
L 550.671396 339.755271 
L 555.100805 340.028166 
L 557.315509 340.274536 
L 559.530214 340.715069 
L 563.959622 341.87738 
L 566.174326 342.736412 
L 570.603735 344.84617 
L 572.818439 345.514969 
L 575.033143 345.942099 
L 581.677256 347.812715 
L 586.106665 349.508606 
L 588.321369 350.449527 
L 590.536073 351.681237 
L 592.750778 353.255311 
L 594.965482 355.567372 
L 597.180186 358.784006 
L 599.39489 363.36964 
L 601.609595 370.267194 
L 603.824299 380.2102 
L 608.253708 406.551796 
L 610.468412 414.679867 
L 612.683116 416.047253 
L 614.89782 412.618351 
L 617.112525 406.870267 
L 619.327229 400.587585 
L 621.541933 394.719754 
L 623.756637 390.98575 
L 625.971342 388.829363 
L 628.186046 386.97464 
L 630.40075 381.381212 
L 632.615455 368.150734 
L 634.830159 352.501956 
L 637.044863 342.07884 
L 639.259567 339.483289 
L 641.474272 340.936248 
L 643.688976 345.326771 
L 645.90368 352.579565 
L 648.118384 362.489907 
L 650.333089 373.739215 
L 654.762497 398.08087 
L 656.977202 408.353995 
L 659.191906 415.067211 
L 661.40661 415.792076 
L 663.621314 408.677834 
L 665.836019 395.326627 
L 668.050723 380.615332 
L 670.265427 370.038647 
L 672.480131 364.263406 
L 674.694836 364.215094 
L 676.90954 368.966927 
L 679.124244 377.601702 
L 681.338949 386.706587 
L 683.553653 389.839473 
L 685.768357 373.742689 
L 687.983061 345.441641 
L 690.197766 337.962755 
L 692.41247 336.431346 
L 694.627174 335.614416 
L 696.841878 335.165743 
L 699.056583 335.555262 
L 701.271287 337.107372 
L 703.485991 340.58399 
L 705.700696 348.762619 
L 707.9154 368.365703 
L 710.130104 395.733408 
L 712.344808 409.901685 
L 714.559513 410.640479 
L 716.774217 406.522394 
L 718.988921 401.364061 
L 721.203625 398.427058 
L 723.41833 398.048942 
L 725.633034 399.641436 
L 727.847738 402.395117 
L 734.491851 411.868856 
L 736.706555 414.20888 
L 738.92126 414.779124 
L 741.135964 412.051686 
L 743.350668 404.784191 
L 745.565372 392.807526 
L 747.780077 378.726226 
L 749.994781 367.258511 
L 752.209485 360.217212 
L 754.424189 356.770522 
L 756.638894 355.327809 
L 758.853598 355.050283 
L 761.068302 355.915771 
L 763.283007 358.334632 
L 765.497711 363.190143 
L 767.712415 371.007672 
L 769.927119 382.768772 
L 772.141824 393.55211 
L 774.356528 382.405111 
L 776.571232 346.141736 
L 778.785936 340.032166 
L 781.000641 340.157491 
L 785.430049 340.871199 
L 798.718275 342.275459 
L 807.577092 342.808056 
L 816.435909 343.047058 
L 816.435909 343.047058 
" clip-path="url(#pa02f945e86)" style="fill: none; stroke: #0000ff; stroke-width: 1.5; stroke-linecap: square"/>
   </g>
   <g id="line2d_15">
    <path d="M 81.154091 341.801244 
L 83.368795 341.284085 
L 87.798204 341.132937 
L 90.012908 341.18346 
L 92.227612 341.438812 
L 94.442317 341.963269 
L 96.657021 342.935276 
L 98.871725 344.941252 
L 101.086429 348.520599 
L 103.301134 353.930495 
L 105.515838 354.663501 
L 107.730542 349.437873 
L 109.945246 345.871788 
L 112.159951 343.582182 
L 114.374655 342.024318 
L 116.589359 341.054696 
L 118.804064 340.603006 
L 121.018768 340.745804 
L 127.662881 342.014564 
L 129.877585 342.689117 
L 132.092289 343.950719 
L 134.306993 346.203416 
L 136.521698 349.871389 
L 138.736402 357.265648 
L 140.951106 357.003841 
L 143.165811 349.198801 
L 145.380515 345.028053 
L 147.595219 342.975484 
L 149.809923 342.002354 
L 152.024628 341.782158 
L 154.239332 342.241637 
L 156.454036 342.992325 
L 158.66874 343.489977 
L 160.883445 343.556219 
L 163.098149 343.45019 
L 167.527558 343.015832 
L 171.956966 342.878157 
L 196.318713 343.530255 
L 211.821643 343.593199 
L 216.251051 343.788484 
L 218.465756 344.144181 
L 220.68046 344.661901 
L 222.895164 345.525705 
L 225.109869 346.963016 
L 227.324573 349.546568 
L 229.539277 358.078297 
L 231.753981 480.872957 
L 233.968686 505.437685 
L 236.18339 508.202384 
L 238.398094 497.798741 
L 240.612798 360.833207 
L 242.827503 344.171617 
L 245.042207 342.076595 
L 247.256911 341.764826 
L 249.471616 342.681959 
L 251.68632 344.682602 
L 253.901024 345.63033 
L 256.115728 334.504032 
L 258.330433 336.192484 
L 260.545137 342.213428 
L 262.759841 355.262409 
L 264.974545 356.84364 
L 267.18925 354.268368 
L 269.403954 351.100292 
L 271.618658 348.252547 
L 273.833363 346.137525 
L 276.048067 344.906096 
L 278.262771 344.444582 
L 280.477475 344.405216 
L 282.69218 342.993939 
L 284.906884 337.164772 
L 287.121588 355.124243 
L 289.336292 476.017166 
L 291.550997 479.373826 
L 293.765701 475.293669 
L 295.980405 453.46529 
L 298.19511 343.943281 
L 300.409814 341.642728 
L 302.624518 341.624975 
L 304.839222 340.697456 
L 307.053927 340.48961 
L 309.268631 341.033925 
L 311.483335 341.84054 
L 315.912744 344.036117 
L 318.127448 344.529559 
L 320.342152 344.488509 
L 326.986265 343.535729 
L 329.200969 343.521344 
L 335.845082 343.826587 
L 340.274491 342.754235 
L 342.489195 342.627507 
L 344.703899 342.691643 
L 346.918604 342.568703 
L 351.348012 341.938218 
L 353.562716 341.825944 
L 357.992125 342.051123 
L 360.206829 341.468353 
L 362.421533 337.988929 
L 364.636238 329.824895 
L 366.850942 328.735422 
L 369.065646 345.220953 
L 371.28035 359.18398 
L 373.495055 363.25263 
L 375.709759 363.9796 
L 380.139168 364.258109 
L 382.353872 362.748838 
L 384.568576 355.935629 
L 386.78328 342.517198 
L 388.997985 335.626766 
L 391.212689 341.200441 
L 393.427393 340.336637 
L 395.642097 339.13068 
L 397.856802 338.598995 
L 400.071506 338.4696 
L 404.500915 338.526789 
L 411.145027 338.686849 
L 415.574436 338.562647 
L 426.647957 337.854271 
L 439.936183 337.800591 
L 442.150887 338.035944 
L 444.365591 338.111237 
L 446.580296 338.065696 
L 451.009704 337.645864 
L 457.653817 336.770973 
L 462.083226 336.619193 
L 470.942043 336.693715 
L 477.586156 337.066463 
L 484.230268 337.83729 
L 486.444973 337.83322 
L 490.874381 337.417738 
L 495.30379 336.986187 
L 497.518494 336.998116 
L 499.733198 337.183648 
L 508.592015 338.738284 
L 513.021424 339.362876 
L 517.450832 340.098056 
L 519.665537 340.146895 
L 521.880241 339.89449 
L 528.524354 338.478301 
L 530.739058 338.307014 
L 532.953762 338.524684 
L 535.168467 339.140714 
L 537.383171 339.912945 
L 539.597875 340.458454 
L 541.812579 340.65809 
L 544.027284 340.722998 
L 552.886101 340.578937 
L 559.530214 340.825307 
L 566.174326 340.643494 
L 583.891961 339.077701 
L 588.321369 338.556752 
L 590.536073 338.170882 
L 592.750778 337.651197 
L 594.965482 336.928015 
L 597.180186 336.006321 
L 599.39489 334.844782 
L 601.609595 333.085667 
L 603.824299 330.584987 
L 606.039003 327.237063 
L 608.253708 323.625226 
L 610.468412 321.342356 
L 612.683116 320.726677 
L 614.89782 321.395475 
L 617.112525 322.746756 
L 619.327229 323.841212 
L 621.541933 324.441173 
L 625.971342 324.149403 
L 628.186046 324.653791 
L 630.40075 327.416911 
L 632.615455 333.362562 
L 634.830159 340.627566 
L 637.044863 347.095499 
L 639.259567 350.650918 
L 641.474272 351.065768 
L 643.688976 348.713499 
L 645.90368 344.696847 
L 650.333089 335.118799 
L 652.547793 330.606389 
L 654.762497 326.407222 
L 656.977202 323.077402 
L 659.191906 320.877965 
L 661.40661 320.50655 
L 663.621314 323.083577 
L 665.836019 328.966916 
L 668.050723 335.706901 
L 670.265427 339.868457 
L 672.480131 340.911688 
L 674.694836 338.983602 
L 676.90954 334.747876 
L 679.124244 328.967126 
L 681.338949 323.639681 
L 683.553653 321.794607 
L 685.768357 327.434313 
L 687.983061 336.726555 
L 690.197766 339.267162 
L 696.841878 341.50386 
L 699.056583 341.846785 
L 701.271287 341.798578 
L 703.485991 341.230965 
L 705.700696 339.328351 
L 707.9154 333.987012 
L 710.130104 326.105767 
L 712.344808 321.083355 
L 714.559513 319.977181 
L 716.774217 320.701275 
L 718.988921 322.014032 
L 721.203625 322.589574 
L 723.41833 322.253104 
L 725.633034 321.305727 
L 727.847738 320.184045 
L 730.062442 319.262841 
L 732.277147 318.691089 
L 734.491851 318.398616 
L 736.706555 318.312727 
L 738.92126 318.663091 
L 741.135964 320.054509 
L 743.350668 323.289248 
L 745.565372 328.93169 
L 747.780077 335.838472 
L 749.994781 341.230334 
L 752.209485 344.276804 
L 754.424189 345.641908 
L 756.638894 345.993605 
L 758.853598 345.578404 
L 761.068302 344.364377 
L 763.283007 341.878853 
L 765.497711 337.956861 
L 767.712415 332.435534 
L 769.927119 325.227158 
L 772.141824 319.082993 
L 774.356528 322.588591 
L 776.571232 335.327207 
L 778.785936 337.591692 
L 792.074162 337.269748 
L 798.718275 336.753781 
L 805.362388 336.236481 
L 816.435909 336.176625 
L 816.435909 336.176625 
" clip-path="url(#pa02f945e86)" style="fill: none; stroke: #ffa500; stroke-width: 1.5; stroke-linecap: square"/>
   </g>
   <g id="patch_3">
    <path d="M 44.39 534.04 
L 44.39 308.04 
" style="fill: none; stroke: #000000; stroke-width: 0.8; stroke-linejoin: miter; stroke-linecap: square"/>
   </g>
   <g id="patch_4">
    <path d="M 853.2 534.04 
L 853.2 308.04 
" style="fill: none; stroke: #000000; stroke-width: 0.8; stroke-linejoin: miter; stroke-linecap: square"/>
   </g>
   <g id="patch_5">
    <path d="M 44.39 534.04 
L 853.2 534.04 
" style="fill: none; stroke: #000000; stroke-width: 0.8; stroke-linejoin: miter; stroke-linecap: square"/>
   </g>
   <g id="patch_6">
    <path d="M 44.39 308.04 
L 853.2 308.04 
" style="fill: none; stroke: #000000; stroke-width: 0.8; stroke-linejoin: miter; stroke-linecap: square"/>
   </g>
   <g id="text_16">
    <!-- Predicted Reduction Ratios -->
    <g transform="translate(383.139063 302.04) scale(0.12 -0.12)">
     <defs>
      <path id="TimesNewRomanPSMT-50" d="M 1313 1984 
L 1313 750 
Q 1313 350 1400 253 
Q 1519 116 1759 116 
L 1922 116 
L 1922 0 
L 106 0 
L 106 116 
L 266 116 
Q 534 116 650 291 
Q 713 388 713 750 
L 713 3488 
Q 713 3888 628 3984 
Q 506 4122 266 4122 
L 106 4122 
L 106 4238 
L 1659 4238 
Q 2228 4238 2556 4120 
Q 2884 4003 3109 3725 
Q 3334 3447 3334 3066 
Q 3334 2547 2992 2222 
Q 2650 1897 2025 1897 
Q 1872 1897 1694 1919 
Q 1516 1941 1313 1984 
z
M 1313 2163 
Q 1478 2131 1606 2115 
Q 1734 2100 1825 2100 
Q 2150 2100 2386 2351 
Q 2622 2603 2622 3003 
Q 2622 3278 2509 3514 
Q 2397 3750 2190 3867 
Q 1984 3984 1722 3984 
Q 1563 3984 1313 3925 
L 1313 2163 
z
" transform="scale(0.015625)"/>
      <path id="TimesNewRomanPSMT-72" d="M 1038 2947 
L 1038 2303 
Q 1397 2947 1775 2947 
Q 1947 2947 2059 2842 
Q 2172 2738 2172 2600 
Q 2172 2478 2090 2393 
Q 2009 2309 1897 2309 
Q 1788 2309 1652 2417 
Q 1516 2525 1450 2525 
Q 1394 2525 1328 2463 
Q 1188 2334 1038 2041 
L 1038 669 
Q 1038 431 1097 309 
Q 1138 225 1241 169 
Q 1344 113 1538 113 
L 1538 0 
L 72 0 
L 72 113 
Q 291 113 397 181 
Q 475 231 506 341 
Q 522 394 522 644 
L 522 1753 
Q 522 2253 501 2348 
Q 481 2444 426 2487 
Q 372 2531 291 2531 
Q 194 2531 72 2484 
L 41 2597 
L 906 2947 
L 1038 2947 
z
" transform="scale(0.015625)"/>
     </defs>
     <use xlink:href="#TimesNewRomanPSMT-50"/>
     <use xlink:href="#TimesNewRomanPSMT-72" x="55.615234"/>
     <use xlink:href="#TimesNewRomanPSMT-65" x="88.916016"/>
     <use xlink:href="#TimesNewRomanPSMT-64" x="133.300781"/>
     <use xlink:href="#TimesNewRomanPSMT-69" x="183.300781"/>
     <use xlink:href="#TimesNewRomanPSMT-63" x="211.083984"/>
     <use xlink:href="#TimesNewRomanPSMT-74" x="255.46875"/>
     <use xlink:href="#TimesNewRomanPSMT-65" x="283.251953"/>
     <use xlink:href="#TimesNewRomanPSMT-64" x="327.636719"/>
     <use xlink:href="#TimesNewRomanPSMT-20" x="377.636719"/>
     <use xlink:href="#TimesNewRomanPSMT-52" x="402.636719"/>
     <use xlink:href="#TimesNewRomanPSMT-65" x="469.335938"/>
     <use xlink:href="#TimesNewRomanPSMT-64" x="513.720703"/>
     <use xlink:href="#TimesNewRomanPSMT-75" x="563.720703"/>
     <use xlink:href="#TimesNewRomanPSMT-63" x="613.720703"/>
     <use xlink:href="#TimesNewRomanPSMT-74" x="658.105469"/>
     <use xlink:href="#TimesNewRomanPSMT-69" x="685.888672"/>
     <use xlink:href="#TimesNewRomanPSMT-6f" x="713.671875"/>
     <use xlink:href="#TimesNewRomanPSMT-6e" x="763.671875"/>
     <use xlink:href="#TimesNewRomanPSMT-20" x="813.671875"/>
     <use xlink:href="#TimesNewRomanPSMT-52" x="838.671875"/>
     <use xlink:href="#TimesNewRomanPSMT-61" x="905.371094"/>
     <use xlink:href="#TimesNewRomanPSMT-74" x="949.755859"/>
     <use xlink:href="#TimesNewRomanPSMT-69" x="977.539062"/>
     <use xlink:href="#TimesNewRomanPSMT-6f" x="1005.322266"/>
     <use xlink:href="#TimesNewRomanPSMT-73" x="1055.322266"/>
    </g>
   </g>
   <g id="legend_1">
    <g id="patch_7">
     <path d="M 51.39 529.04 
L 161.160313 529.04 
Q 163.160313 529.04 163.160313 527.04 
L 163.160313 499.724375 
Q 163.160313 497.724375 161.160313 497.724375 
L 51.39 497.724375 
Q 49.39 497.724375 49.39 499.724375 
L 49.39 527.04 
Q 49.39 529.04 51.39 529.04 
z
" style="fill: #ffffff; opacity: 0.8; stroke: #cccccc; stroke-linejoin: miter"/>
    </g>
    <g id="line2d_16">
     <path d="M 53.39 505.224375 
L 63.39 505.224375 
L 73.39 505.224375 
" style="fill: none; stroke: #0000ff; stroke-width: 1.5; stroke-linecap: square"/>
    </g>
    <g id="text_17">
     <!-- Reduction_Ratio_0 -->
     <g transform="translate(81.39 508.724375) scale(0.1 -0.1)">
      <defs>
       <path id="TimesNewRomanPSMT-5f" d="M 3256 -1381 
L -53 -1381 
L -53 -1119 
L 3256 -1119 
L 3256 -1381 
z
" transform="scale(0.015625)"/>
      </defs>
      <use xlink:href="#TimesNewRomanPSMT-52"/>
      <use xlink:href="#TimesNewRomanPSMT-65" x="66.699219"/>
      <use xlink:href="#TimesNewRomanPSMT-64" x="111.083984"/>
      <use xlink:href="#TimesNewRomanPSMT-75" x="161.083984"/>
      <use xlink:href="#TimesNewRomanPSMT-63" x="211.083984"/>
      <use xlink:href="#TimesNewRomanPSMT-74" x="255.46875"/>
      <use xlink:href="#TimesNewRomanPSMT-69" x="283.251953"/>
      <use xlink:href="#TimesNewRomanPSMT-6f" x="311.035156"/>
      <use xlink:href="#TimesNewRomanPSMT-6e" x="361.035156"/>
      <use xlink:href="#TimesNewRomanPSMT-5f" x="411.035156"/>
      <use xlink:href="#TimesNewRomanPSMT-52" x="461.035156"/>
      <use xlink:href="#TimesNewRomanPSMT-61" x="527.734375"/>
      <use xlink:href="#TimesNewRomanPSMT-74" x="572.119141"/>
      <use xlink:href="#TimesNewRomanPSMT-69" x="599.902344"/>
      <use xlink:href="#TimesNewRomanPSMT-6f" x="627.685547"/>
      <use xlink:href="#TimesNewRomanPSMT-5f" x="677.685547"/>
      <use xlink:href="#TimesNewRomanPSMT-30" x="727.685547"/>
     </g>
    </g>
    <g id="line2d_17">
     <path d="M 53.39 519.382187 
L 63.39 519.382187 
L 73.39 519.382187 
" style="fill: none; stroke: #ffa500; stroke-width: 1.5; stroke-linecap: square"/>
    </g>
    <g id="text_18">
     <!-- Reduction_Ratio_1 -->
     <g transform="translate(81.39 522.882187) scale(0.1 -0.1)">
      <use xlink:href="#TimesNewRomanPSMT-52"/>
      <use xlink:href="#TimesNewRomanPSMT-65" x="66.699219"/>
      <use xlink:href="#TimesNewRomanPSMT-64" x="111.083984"/>
      <use xlink:href="#TimesNewRomanPSMT-75" x="161.083984"/>
      <use xlink:href="#TimesNewRomanPSMT-63" x="211.083984"/>
      <use xlink:href="#TimesNewRomanPSMT-74" x="255.46875"/>
      <use xlink:href="#TimesNewRomanPSMT-69" x="283.251953"/>
      <use xlink:href="#TimesNewRomanPSMT-6f" x="311.035156"/>
      <use xlink:href="#TimesNewRomanPSMT-6e" x="361.035156"/>
      <use xlink:href="#TimesNewRomanPSMT-5f" x="411.035156"/>
      <use xlink:href="#TimesNewRomanPSMT-52" x="461.035156"/>
      <use xlink:href="#TimesNewRomanPSMT-61" x="527.734375"/>
      <use xlink:href="#TimesNewRomanPSMT-74" x="572.119141"/>
      <use xlink:href="#TimesNewRomanPSMT-69" x="599.902344"/>
      <use xlink:href="#TimesNewRomanPSMT-6f" x="627.685547"/>
      <use xlink:href="#TimesNewRomanPSMT-5f" x="677.685547"/>
      <use xlink:href="#TimesNewRomanPSMT-31" x="727.685547"/>
     </g>
    </g>
   </g>
  </g>
  <g id="axes_2">
   <g id="patch_8">
    <path d="M 44.39 251.44 
L 853.2 251.44 
L 853.2 25.44 
L 44.39 25.44 
z
" style="fill: #ffffff"/>
   </g>
   <g id="matplotlib.axis_3">
    <g id="xtick_8">
     <g id="line2d_18">
      <g>
       <use xlink:href="#m7210690998" x="81.154091" y="251.44" style="stroke: #000000; stroke-width: 0.8"/>
      </g>
     </g>
     <g id="text_19">
      <!-- 0 -->
      <g transform="translate(78.654091 265.38375) scale(0.1 -0.1)">
       <use xlink:href="#TimesNewRomanPSMT-30"/>
      </g>
     </g>
    </g>
    <g id="xtick_9">
     <g id="line2d_19">
      <g>
       <use xlink:href="#m7210690998" x="191.889304" y="251.44" style="stroke: #000000; stroke-width: 0.8"/>
      </g>
     </g>
     <g id="text_20">
      <!-- 50 -->
      <g transform="translate(186.889304 265.38375) scale(0.1 -0.1)">
       <use xlink:href="#TimesNewRomanPSMT-35"/>
       <use xlink:href="#TimesNewRomanPSMT-30" x="50"/>
      </g>
     </g>
    </g>
    <g id="xtick_10">
     <g id="line2d_20">
      <g>
       <use xlink:href="#m7210690998" x="302.624518" y="251.44" style="stroke: #000000; stroke-width: 0.8"/>
      </g>
     </g>
     <g id="text_21">
      <!-- 100 -->
      <g transform="translate(295.124518 265.38375) scale(0.1 -0.1)">
       <use xlink:href="#TimesNewRomanPSMT-31"/>
       <use xlink:href="#TimesNewRomanPSMT-30" x="50"/>
       <use xlink:href="#TimesNewRomanPSMT-30" x="100"/>
      </g>
     </g>
    </g>
    <g id="xtick_11">
     <g id="line2d_21">
      <g>
       <use xlink:href="#m7210690998" x="413.359732" y="251.44" style="stroke: #000000; stroke-width: 0.8"/>
      </g>
     </g>
     <g id="text_22">
      <!-- 150 -->
      <g transform="translate(405.859732 265.38375) scale(0.1 -0.1)">
       <use xlink:href="#TimesNewRomanPSMT-31"/>
       <use xlink:href="#TimesNewRomanPSMT-35" x="50"/>
       <use xlink:href="#TimesNewRomanPSMT-30" x="100"/>
      </g>
     </g>
    </g>
    <g id="xtick_12">
     <g id="line2d_22">
      <g>
       <use xlink:href="#m7210690998" x="524.094945" y="251.44" style="stroke: #000000; stroke-width: 0.8"/>
      </g>
     </g>
     <g id="text_23">
      <!-- 200 -->
      <g transform="translate(516.594945 265.38375) scale(0.1 -0.1)">
       <use xlink:href="#TimesNewRomanPSMT-32"/>
       <use xlink:href="#TimesNewRomanPSMT-30" x="50"/>
       <use xlink:href="#TimesNewRomanPSMT-30" x="100"/>
      </g>
     </g>
    </g>
    <g id="xtick_13">
     <g id="line2d_23">
      <g>
       <use xlink:href="#m7210690998" x="634.830159" y="251.44" style="stroke: #000000; stroke-width: 0.8"/>
      </g>
     </g>
     <g id="text_24">
      <!-- 250 -->
      <g transform="translate(627.330159 265.38375) scale(0.1 -0.1)">
       <use xlink:href="#TimesNewRomanPSMT-32"/>
       <use xlink:href="#TimesNewRomanPSMT-35" x="50"/>
       <use xlink:href="#TimesNewRomanPSMT-30" x="100"/>
      </g>
     </g>
    </g>
    <g id="xtick_14">
     <g id="line2d_24">
      <g>
       <use xlink:href="#m7210690998" x="745.565372" y="251.44" style="stroke: #000000; stroke-width: 0.8"/>
      </g>
     </g>
     <g id="text_25">
      <!-- 300 -->
      <g transform="translate(738.065372 265.38375) scale(0.1 -0.1)">
       <use xlink:href="#TimesNewRomanPSMT-33"/>
       <use xlink:href="#TimesNewRomanPSMT-30" x="50"/>
       <use xlink:href="#TimesNewRomanPSMT-30" x="100"/>
      </g>
     </g>
    </g>
    <g id="text_26">
     <!-- Time[s] -->
     <g transform="translate(433.142656 278.466563) scale(0.1 -0.1)">
      <use xlink:href="#TimesNewRomanPSMT-54"/>
      <use xlink:href="#TimesNewRomanPSMT-69" x="57.583984"/>
      <use xlink:href="#TimesNewRomanPSMT-6d" x="85.367188"/>
      <use xlink:href="#TimesNewRomanPSMT-65" x="163.150391"/>
      <use xlink:href="#TimesNewRomanPSMT-5b" x="207.535156"/>
      <use xlink:href="#TimesNewRomanPSMT-73" x="240.835938"/>
      <use xlink:href="#TimesNewRomanPSMT-5d" x="279.751953"/>
     </g>
    </g>
   </g>
   <g id="matplotlib.axis_4">
    <g id="ytick_7">
     <g id="line2d_25">
      <g>
       <use xlink:href="#mb8092ed6b0" x="44.39" y="240.252484" style="stroke: #000000; stroke-width: 0.8"/>
      </g>
     </g>
     <g id="text_27">
      <!-- 0.0 -->
      <g transform="translate(24.89 243.724359) scale(0.1 -0.1)">
       <defs>
        <path id="TimesNewRomanPSMT-2e" d="M 800 606 
Q 947 606 1047 504 
Q 1147 403 1147 259 
Q 1147 116 1045 14 
Q 944 -88 800 -88 
Q 656 -88 554 14 
Q 453 116 453 259 
Q 453 406 554 506 
Q 656 606 800 606 
z
" transform="scale(0.015625)"/>
       </defs>
       <use xlink:href="#TimesNewRomanPSMT-30"/>
       <use xlink:href="#TimesNewRomanPSMT-2e" x="50"/>
       <use xlink:href="#TimesNewRomanPSMT-30" x="75"/>
      </g>
     </g>
    </g>
    <g id="ytick_8">
     <g id="line2d_26">
      <g>
       <use xlink:href="#mb8092ed6b0" x="44.39" y="199.459602" style="stroke: #000000; stroke-width: 0.8"/>
      </g>
     </g>
     <g id="text_28">
      <!-- 0.2 -->
      <g transform="translate(24.89 202.931477) scale(0.1 -0.1)">
       <use xlink:href="#TimesNewRomanPSMT-30"/>
       <use xlink:href="#TimesNewRomanPSMT-2e" x="50"/>
       <use xlink:href="#TimesNewRomanPSMT-32" x="75"/>
      </g>
     </g>
    </g>
    <g id="ytick_9">
     <g id="line2d_27">
      <g>
       <use xlink:href="#mb8092ed6b0" x="44.39" y="158.666719" style="stroke: #000000; stroke-width: 0.8"/>
      </g>
     </g>
     <g id="text_29">
      <!-- 0.4 -->
      <g transform="translate(24.89 162.138594) scale(0.1 -0.1)">
       <use xlink:href="#TimesNewRomanPSMT-30"/>
       <use xlink:href="#TimesNewRomanPSMT-2e" x="50"/>
       <use xlink:href="#TimesNewRomanPSMT-34" x="75"/>
      </g>
     </g>
    </g>
    <g id="ytick_10">
     <g id="line2d_28">
      <g>
       <use xlink:href="#mb8092ed6b0" x="44.39" y="117.873836" style="stroke: #000000; stroke-width: 0.8"/>
      </g>
     </g>
     <g id="text_30">
      <!-- 0.6 -->
      <g transform="translate(24.89 121.345711) scale(0.1 -0.1)">
       <use xlink:href="#TimesNewRomanPSMT-30"/>
       <use xlink:href="#TimesNewRomanPSMT-2e" x="50"/>
       <use xlink:href="#TimesNewRomanPSMT-36" x="75"/>
      </g>
     </g>
    </g>
    <g id="ytick_11">
     <g id="line2d_29">
      <g>
       <use xlink:href="#mb8092ed6b0" x="44.39" y="77.080954" style="stroke: #000000; stroke-width: 0.8"/>
      </g>
     </g>
     <g id="text_31">
      <!-- 0.8 -->
      <g transform="translate(24.89 80.552829) scale(0.1 -0.1)">
       <use xlink:href="#TimesNewRomanPSMT-30"/>
       <use xlink:href="#TimesNewRomanPSMT-2e" x="50"/>
       <use xlink:href="#TimesNewRomanPSMT-38" x="75"/>
      </g>
     </g>
    </g>
    <g id="ytick_12">
     <g id="line2d_30">
      <g>
       <use xlink:href="#mb8092ed6b0" x="44.39" y="36.288071" style="stroke: #000000; stroke-width: 0.8"/>
      </g>
     </g>
     <g id="text_32">
      <!-- 1.0 -->
      <g transform="translate(24.89 39.759946) scale(0.1 -0.1)">
       <use xlink:href="#TimesNewRomanPSMT-31"/>
       <use xlink:href="#TimesNewRomanPSMT-2e" x="50"/>
       <use xlink:href="#TimesNewRomanPSMT-30" x="75"/>
      </g>
     </g>
    </g>
    <g id="text_33">
     <!-- Position -->
     <g transform="translate(18.750937 154.83375) rotate(-90) scale(0.1 -0.1)">
      <use xlink:href="#TimesNewRomanPSMT-50"/>
      <use xlink:href="#TimesNewRomanPSMT-6f" x="55.615234"/>
      <use xlink:href="#TimesNewRomanPSMT-73" x="105.615234"/>
      <use xlink:href="#TimesNewRomanPSMT-69" x="144.53125"/>
      <use xlink:href="#TimesNewRomanPSMT-74" x="172.314453"/>
      <use xlink:href="#TimesNewRomanPSMT-69" x="200.097656"/>
      <use xlink:href="#TimesNewRomanPSMT-6f" x="227.880859"/>
      <use xlink:href="#TimesNewRomanPSMT-6e" x="277.880859"/>
     </g>
    </g>
   </g>
   <g id="line2d_31">
    <path d="M 81.154091 43.796732 
L 85.583499 45.767887 
L 90.012908 49.724685 
L 92.227612 52.058183 
L 94.442317 57.07256 
L 96.657021 61.608933 
L 98.871725 63.967764 
L 101.086429 70.316089 
L 103.301134 79.809443 
L 105.515838 92.507359 
L 107.730542 102.605937 
L 109.945246 110.968721 
L 112.159951 116.51161 
L 114.374655 121.647032 
L 116.589359 128.135322 
L 118.804064 131.623616 
L 121.018768 131.200473 
L 123.233472 129.489141 
L 125.448176 129.965483 
L 127.662881 131.446363 
L 129.877585 132.495155 
L 132.092289 133.759911 
L 134.306993 137.711326 
L 136.521698 142.735836 
L 138.736402 148.300813 
L 140.951106 151.806918 
L 143.165811 153.056633 
L 147.595219 153.261436 
L 149.809923 153.947568 
L 152.024628 155.262358 
L 154.239332 157.698138 
L 156.454036 161.543866 
L 158.66874 164.895519 
L 160.883445 166.040814 
L 163.098149 166.05633 
L 165.312853 166.82717 
L 167.527558 169.042553 
L 169.742262 170.243106 
L 171.956966 170.79521 
L 174.17167 170.81983 
L 176.386375 170.345784 
L 178.601079 169.722272 
L 183.030487 167.324333 
L 185.245192 166.537422 
L 191.889304 165.493697 
L 194.104009 164.945077 
L 196.318713 164.523122 
L 198.533417 164.34864 
L 200.748122 163.904756 
L 202.962826 162.819231 
L 205.17753 161.939934 
L 207.392234 161.507846 
L 209.606939 160.921146 
L 211.821643 159.717268 
L 214.036347 158.25048 
L 216.251051 157.88212 
L 218.465756 158.538565 
L 220.68046 160.303255 
L 225.109869 165.732937 
L 227.324573 170.917917 
L 229.539277 178.270859 
L 231.753981 189.775268 
L 233.968686 204.206287 
L 238.398094 227.986261 
L 240.612798 236.953161 
L 242.827503 240.252484 
L 245.042207 239.669506 
L 247.256911 236.551551 
L 249.471616 231.307197 
L 251.68632 227.033339 
L 253.901024 224.593046 
L 256.115728 218.161201 
L 258.330433 204.182378 
L 260.545137 187.054489 
L 262.759841 177.19808 
L 264.974545 177.324429 
L 267.18925 179.23233 
L 269.403954 177.911603 
L 271.618658 177.689938 
L 273.833363 181.240298 
L 276.048067 181.962134 
L 278.262771 178.481045 
L 280.477475 173.967709 
L 282.69218 173.68857 
L 284.906884 174.413493 
L 287.121588 173.981722 
L 289.336292 172.303164 
L 291.550997 172.444317 
L 293.765701 174.523772 
L 295.980405 176.377128 
L 300.409814 178.447478 
L 302.624518 178.981611 
L 307.053927 178.582219 
L 309.268631 178.798025 
L 311.483335 178.629164 
L 313.698039 176.595626 
L 315.912744 172.716807 
L 318.127448 171.112349 
L 320.342152 172.106674 
L 322.556857 173.980851 
L 324.771561 176.088726 
L 326.986265 176.588818 
L 329.200969 175.700575 
L 331.415674 174.651071 
L 335.845082 172.127495 
L 338.059786 171.300289 
L 342.489195 168.758901 
L 344.703899 168.125889 
L 346.918604 168.289288 
L 349.133308 169.590382 
L 351.348012 172.94813 
L 355.777421 183.498113 
L 357.992125 187.670163 
L 360.206829 191.183473 
L 362.421533 192.335893 
L 364.636238 184.675075 
L 366.850942 171.129449 
L 369.065646 164.633638 
L 371.28035 162.195324 
L 373.495055 154.775882 
L 375.709759 148.911579 
L 377.924463 149.246768 
L 380.139168 147.371641 
L 382.353872 141.288364 
L 384.568576 132.96073 
L 386.78328 125.283287 
L 388.997985 120.035053 
L 391.212689 116.075722 
L 393.427393 108.420841 
L 395.642097 101.423592 
L 397.856802 98.04059 
L 400.071506 95.263999 
L 402.28621 90.740056 
L 404.500915 85.814108 
L 406.715619 82.692195 
L 411.145027 80.661586 
L 413.359732 79.10439 
L 415.574436 76.597281 
L 417.78914 73.559521 
L 420.003844 70.796152 
L 422.218549 68.955304 
L 424.433253 68.883896 
L 426.647957 69.113715 
L 428.862662 68.619006 
L 431.077366 67.747626 
L 433.29207 67.484082 
L 439.936183 67.709626 
L 442.150887 67.464845 
L 444.365591 47.708247 
L 446.580296 36.308812 
L 448.795 37.280892 
L 451.009704 42.493659 
L 453.224409 46.391003 
L 455.439113 45.447502 
L 457.653817 44.020693 
L 459.868521 43.111233 
L 462.083226 45.48091 
L 464.29793 48.538303 
L 466.512634 49.163715 
L 468.727338 50.684969 
L 473.156747 54.655463 
L 477.586156 63.911873 
L 479.80086 66.538444 
L 482.015564 73.749203 
L 484.230268 83.351886 
L 486.444973 96.221909 
L 488.659677 105.813428 
L 490.874381 113.25092 
L 495.30379 123.788949 
L 497.518494 130.353634 
L 499.733198 134.48721 
L 501.947903 134.394823 
L 504.162607 132.342522 
L 506.377311 132.433405 
L 508.592015 133.599363 
L 510.80672 134.471772 
L 513.021424 136.190546 
L 515.236128 140.04047 
L 517.450832 145.358053 
L 519.665537 151.411088 
L 521.880241 154.6717 
L 524.094945 155.369944 
L 526.30965 155.302891 
L 528.524354 155.780262 
L 530.739058 156.81417 
L 532.953762 158.020027 
L 535.168467 159.484441 
L 537.383171 162.956188 
L 539.597875 167.034585 
L 541.812579 168.414133 
L 544.027284 168.043477 
L 546.241988 168.643714 
L 548.456692 171.165232 
L 550.671396 172.599008 
L 552.886101 172.99278 
L 555.100805 172.708969 
L 559.530214 171.84503 
L 561.744918 170.714064 
L 563.959622 169.206664 
L 566.174326 168.157555 
L 568.389031 167.927578 
L 570.603735 167.919899 
L 577.247848 167.173601 
L 579.462552 167.102905 
L 581.677256 166.540906 
L 586.106665 163.794161 
L 588.321369 162.991338 
L 590.536073 162.409863 
L 592.750778 161.374688 
L 594.965482 160.041611 
L 597.180186 159.398704 
L 599.39489 159.895313 
L 601.609595 161.86148 
L 606.039003 167.617485 
L 608.253708 172.816081 
L 610.468412 180.255472 
L 612.683116 191.691482 
L 614.89782 205.199345 
L 619.327229 228.128918 
L 621.541933 237.105397 
L 623.756637 240.552761 
L 625.971342 239.963133 
L 628.186046 236.99211 
L 630.40075 231.892709 
L 632.615455 228.171984 
L 634.830159 226.300974 
L 637.044863 219.631077 
L 639.259567 204.905481 
L 641.474272 187.172051 
L 643.688976 177.365041 
L 645.90368 177.528281 
L 648.118384 179.046844 
L 650.333089 177.651859 
L 652.547793 177.424574 
L 654.762497 181.078007 
L 656.977202 182.036471 
L 659.191906 178.646977 
L 661.40661 174.272024 
L 663.621314 174.277328 
L 665.836019 174.939868 
L 668.050723 174.159845 
L 670.265427 172.212044 
L 672.480131 172.414551 
L 674.694836 174.348419 
L 676.90954 175.860965 
L 679.124244 176.996206 
L 681.338949 178.302683 
L 683.553653 179.346884 
L 687.983061 178.976861 
L 690.197766 179.092444 
L 692.41247 178.760817 
L 694.627174 176.431198 
L 696.841878 172.465296 
L 699.056583 170.877542 
L 701.271287 171.964254 
L 703.485991 173.980059 
L 705.700696 176.16813 
L 707.9154 176.697513 
L 712.344808 174.883423 
L 716.774217 172.198744 
L 718.988921 171.326018 
L 723.41833 168.724859 
L 725.633034 168.084564 
L 727.847738 168.324437 
L 730.062442 169.721085 
L 732.277147 173.210724 
L 736.706555 183.639662 
L 738.92126 187.629155 
L 741.135964 191.176665 
L 743.350668 192.377851 
L 745.565372 184.513893 
L 747.780077 170.864163 
L 749.994781 164.427648 
L 752.209485 162.303069 
L 754.424189 154.684208 
L 756.638894 148.993516 
L 758.853598 149.530341 
L 761.068302 147.622597 
L 763.283007 141.278943 
L 765.497711 133.049238 
L 767.712415 125.412802 
L 769.927119 120.129578 
L 772.141824 116.029727 
L 774.356528 108.523282 
L 776.571232 101.420109 
L 778.785936 97.94567 
L 781.000641 95.24785 
L 783.215345 90.774573 
L 785.430049 85.816958 
L 787.644754 82.712778 
L 789.859458 81.569462 
L 792.074162 80.594532 
L 794.288866 79.164873 
L 796.503571 76.695922 
L 798.718275 73.630771 
L 800.932979 70.881255 
L 803.147683 69.025841 
L 805.362388 68.800534 
L 807.577092 69.127015 
L 809.791796 68.871229 
L 812.006501 68.003174 
L 814.221205 67.48717 
L 816.435909 67.586285 
L 816.435909 67.586285 
" clip-path="url(#p7639aabd28)" style="fill: none; stroke: #008000; stroke-width: 1.5; stroke-linecap: square"/>
   </g>
   <g id="line2d_32">
    <path d="M 81.154091 148.054367 
L 83.368795 140.151847 
L 87.798204 130.115435 
L 90.012908 130.113152 
L 92.227612 128.297891 
L 94.442317 129.234811 
L 96.657021 130.482896 
L 98.871725 131.018806 
L 101.086429 149.17572 
L 103.301134 168.547961 
L 105.515838 180.99746 
L 107.730542 181.610305 
L 109.945246 172.329367 
L 112.159951 162.044937 
L 116.589359 138.072056 
L 118.804064 132.260041 
L 121.018768 119.094239 
L 123.233472 110.805112 
L 125.448176 108.528944 
L 127.662881 109.683934 
L 132.092289 115.177582 
L 134.306993 129.569689 
L 136.521698 151.677599 
L 138.736402 175.798905 
L 140.951106 186.636283 
L 143.165811 191.130391 
L 145.380515 188.928523 
L 147.595219 182.992499 
L 149.809923 167.500205 
L 154.239332 148.542676 
L 156.454036 145.18327 
L 158.66874 145.548975 
L 160.883445 143.016532 
L 163.098149 136.918822 
L 165.312853 139.037256 
L 167.527558 139.072562 
L 169.742262 138.617978 
L 171.956966 136.017822 
L 174.17167 132.87394 
L 176.386375 131.60425 
L 178.601079 129.532539 
L 180.815783 128.409868 
L 183.030487 126.748653 
L 187.459896 123.252328 
L 189.6746 122.914639 
L 191.889304 122.204133 
L 194.104009 122.044993 
L 196.318713 121.386567 
L 198.533417 120.226922 
L 200.748122 117.055023 
L 202.962826 114.083015 
L 205.17753 112.759752 
L 207.392234 112.400546 
L 209.606939 110.200347 
L 211.821643 103.857077 
L 214.036347 95.734818 
L 218.465756 78.843203 
L 220.68046 76.756299 
L 222.895164 73.337172 
L 225.109869 74.638918 
L 227.324573 76.515218 
L 229.539277 81.579664 
L 231.753981 102.436415 
L 236.18339 159.316907 
L 238.398094 198.36017 
L 240.612798 225.822261 
L 242.827503 236.515694 
L 245.042207 240.252484 
L 247.256911 236.500676 
L 249.471616 225.76377 
L 251.68632 211.00227 
L 253.901024 201.626744 
L 256.115728 188.726174 
L 260.545137 155.643878 
L 262.759841 147.20009 
L 264.974545 137.018152 
L 267.18925 131.613911 
L 269.403954 103.662544 
L 271.618658 83.045819 
L 273.833363 66.046004 
L 276.048067 53.850583 
L 278.262771 46.778188 
L 280.477475 46.344067 
L 282.69218 55.931779 
L 284.906884 58.931628 
L 287.121588 75.48292 
L 289.336292 97.522765 
L 291.550997 128.575858 
L 293.765701 150.944873 
L 295.980405 178.148671 
L 298.19511 195.696516 
L 300.409814 204.069253 
L 302.624518 204.746737 
L 304.839222 200.431529 
L 307.053927 191.436287 
L 309.268631 181.896352 
L 311.483335 179.591465 
L 313.698039 159.705183 
L 315.912744 140.991105 
L 318.127448 126.387515 
L 320.342152 108.394922 
L 322.556857 95.640845 
L 324.771561 88.944957 
L 329.200969 89.163817 
L 331.415674 94.283242 
L 333.630378 97.661529 
L 335.845082 106.91814 
L 338.059786 113.55905 
L 340.274491 119.08449 
L 342.489195 120.038449 
L 344.703899 119.930336 
L 346.918604 116.325371 
L 349.133308 103.35094 
L 351.348012 86.519749 
L 353.562716 68.726783 
L 355.777421 57.391172 
L 357.992125 54.190203 
L 360.206829 52.709645 
L 362.421533 54.019383 
L 364.636238 49.059889 
L 366.850942 42.004531 
L 369.065646 41.271805 
L 371.28035 41.765998 
L 373.495055 36.288071 
L 375.709759 43.790283 
L 377.924463 64.771395 
L 380.139168 84.666899 
L 382.353872 119.061305 
L 384.568576 128.300789 
L 386.78328 135.414989 
L 388.997985 138.684198 
L 391.212689 139.145281 
L 393.427393 126.281422 
L 395.642097 115.451509 
L 397.856802 108.298666 
L 400.071506 108.6151 
L 402.28621 103.261182 
L 404.500915 99.241067 
L 408.930323 104.055211 
L 411.145027 106.209126 
L 413.359732 109.247091 
L 415.574436 111.657456 
L 417.78914 111.885978 
L 422.218549 108.563371 
L 424.433253 105.006095 
L 426.647957 105.001353 
L 428.862662 106.678904 
L 433.29207 107.463974 
L 435.506774 107.303517 
L 437.721479 107.393275 
L 439.936183 107.325737 
L 442.150887 108.49882 
L 444.365591 151.611116 
L 446.580296 158.141717 
L 448.795 155.938092 
L 451.009704 153.453076 
L 453.224409 151.91947 
L 455.439113 153.187492 
L 457.653817 153.276108 
L 459.868521 154.518748 
L 462.083226 148.400486 
L 466.512634 135.47594 
L 468.727338 129.810155 
L 470.942043 130.653804 
L 473.156747 128.511131 
L 475.371451 129.550894 
L 479.80086 131.41806 
L 482.015564 148.173107 
L 484.230268 167.697724 
L 486.444973 180.340527 
L 488.659677 181.508164 
L 493.089085 163.376368 
L 495.30379 151.495625 
L 497.518494 138.289336 
L 499.733198 131.507379 
L 501.947903 118.967771 
L 504.162607 110.517221 
L 506.377311 108.715748 
L 508.592015 109.824542 
L 510.80672 113.172355 
L 513.021424 116.025096 
L 515.236128 129.615709 
L 517.450832 151.014167 
L 519.665537 174.569878 
L 521.880241 187.24421 
L 524.094945 191.05934 
L 526.30965 189.671437 
L 528.524354 183.264845 
L 530.739058 167.728463 
L 535.168467 148.554093 
L 537.383171 144.746691 
L 539.597875 146.080054 
L 541.812579 143.889164 
L 544.027284 136.769519 
L 546.241988 137.683517 
L 548.456692 139.100754 
L 550.671396 138.822699 
L 552.886101 136.143061 
L 555.100805 132.688717 
L 557.315509 131.87765 
L 559.530214 130.094445 
L 561.744918 128.996805 
L 563.959622 126.651606 
L 566.174326 124.592981 
L 568.389031 123.492969 
L 570.603735 123.246531 
L 572.818439 122.462076 
L 575.033143 122.100411 
L 577.247848 121.479838 
L 579.462552 120.440864 
L 581.677256 117.121771 
L 583.891961 114.158282 
L 586.106665 112.55872 
L 588.321369 112.389568 
L 590.536073 110.148793 
L 592.750778 104.556342 
L 594.965482 96.2666 
L 597.180186 87.013327 
L 599.39489 78.596151 
L 601.609595 76.985083 
L 603.824299 73.764266 
L 606.039003 74.734648 
L 608.253708 76.510915 
L 610.468412 81.057367 
L 612.683116 102.461357 
L 617.112525 159.280021 
L 619.327229 199.14322 
L 621.541933 226.623052 
L 623.756637 238.322084 
L 625.971342 241.167273 
L 628.186046 236.752822 
L 630.40075 224.933557 
L 632.615455 209.824445 
L 634.830159 201.312241 
L 637.044863 189.245485 
L 641.474272 155.499317 
L 643.688976 147.179188 
L 645.90368 137.248957 
L 648.118384 131.995775 
L 650.333089 104.065311 
L 652.547793 83.661738 
L 654.762497 66.342414 
L 656.977202 54.136191 
L 659.191906 46.837206 
L 661.40661 45.85488 
L 663.621314 55.375494 
L 665.836019 58.766428 
L 668.050723 75.752104 
L 670.265427 96.544479 
L 672.480131 129.818937 
L 674.694836 151.684977 
L 676.90954 179.322983 
L 679.124244 196.189128 
L 681.338949 204.179649 
L 683.553653 204.849668 
L 685.768357 199.463167 
L 687.983061 190.284107 
L 690.197766 182.390457 
L 692.41247 180.524784 
L 694.627174 159.857121 
L 696.841878 141.658929 
L 699.056583 126.836127 
L 701.271287 108.59332 
L 703.485991 95.766611 
L 705.700696 89.023121 
L 707.9154 88.966474 
L 710.130104 89.302054 
L 712.344808 94.197348 
L 714.559513 97.703686 
L 716.774217 106.906986 
L 718.988921 113.363375 
L 721.203625 119.159844 
L 723.41833 120.255729 
L 725.633034 120.097643 
L 727.847738 116.041783 
L 730.062442 103.156758 
L 732.277147 86.476451 
L 734.491851 68.60374 
L 736.706555 57.422438 
L 738.92126 54.022808 
L 741.135964 52.91498 
L 743.350668 54.185285 
L 745.565372 49.690211 
L 747.780077 42.286451 
L 749.994781 41.375966 
L 752.209485 42.653473 
L 754.424189 35.712727 
L 756.638894 43.56545 
L 758.853598 65.00826 
L 761.068302 84.579337 
L 763.283007 118.342718 
L 765.497711 128.276637 
L 767.712415 135.444411 
L 769.927119 138.636773 
L 772.141824 138.904288 
L 774.356528 126.534886 
L 776.571232 115.64613 
L 778.785936 108.086656 
L 781.000641 108.711269 
L 783.215345 103.294029 
L 785.430049 99.213666 
L 787.644754 101.826995 
L 792.074162 106.314956 
L 794.288866 109.402718 
L 796.503571 111.690479 
L 798.718275 111.911447 
L 803.147683 108.635827 
L 805.362388 105.083909 
L 807.577092 104.884106 
L 809.791796 106.699279 
L 812.006501 107.062613 
L 814.221205 107.59299 
L 816.435909 107.38862 
L 816.435909 107.38862 
" clip-path="url(#p7639aabd28)" style="fill: none; stroke: #ff0000; stroke-width: 1.5; stroke-linecap: square"/>
   </g>
   <g id="patch_9">
    <path d="M 44.39 251.44 
L 44.39 25.44 
" style="fill: none; stroke: #000000; stroke-width: 0.8; stroke-linejoin: miter; stroke-linecap: square"/>
   </g>
   <g id="patch_10">
    <path d="M 853.2 251.44 
L 853.2 25.44 
" style="fill: none; stroke: #000000; stroke-width: 0.8; stroke-linejoin: miter; stroke-linecap: square"/>
   </g>
   <g id="patch_11">
    <path d="M 44.39 251.44 
L 853.2 251.44 
" style="fill: none; stroke: #000000; stroke-width: 0.8; stroke-linejoin: miter; stroke-linecap: square"/>
   </g>
   <g id="patch_12">
    <path d="M 44.39 25.44 
L 853.2 25.44 
" style="fill: none; stroke: #000000; stroke-width: 0.8; stroke-linejoin: miter; stroke-linecap: square"/>
   </g>
   <g id="text_34">
    <!-- Position Data -->
    <g transform="translate(416.295625 19.44) scale(0.12 -0.12)">
     <defs>
      <path id="TimesNewRomanPSMT-44" d="M 109 0 
L 109 116 
L 269 116 
Q 538 116 650 288 
Q 719 391 719 750 
L 719 3488 
Q 719 3884 631 3984 
Q 509 4122 269 4122 
L 109 4122 
L 109 4238 
L 1834 4238 
Q 2784 4238 3279 4022 
Q 3775 3806 4076 3303 
Q 4378 2800 4378 2141 
Q 4378 1256 3841 663 
Q 3238 0 2003 0 
L 109 0 
z
M 1319 306 
Q 1716 219 1984 219 
Q 2709 219 3187 728 
Q 3666 1238 3666 2109 
Q 3666 2988 3187 3494 
Q 2709 4000 1959 4000 
Q 1678 4000 1319 3909 
L 1319 306 
z
" transform="scale(0.015625)"/>
     </defs>
     <use xlink:href="#TimesNewRomanPSMT-50"/>
     <use xlink:href="#TimesNewRomanPSMT-6f" x="55.615234"/>
     <use xlink:href="#TimesNewRomanPSMT-73" x="105.615234"/>
     <use xlink:href="#TimesNewRomanPSMT-69" x="144.53125"/>
     <use xlink:href="#TimesNewRomanPSMT-74" x="172.314453"/>
     <use xlink:href="#TimesNewRomanPSMT-69" x="200.097656"/>
     <use xlink:href="#TimesNewRomanPSMT-6f" x="227.880859"/>
     <use xlink:href="#TimesNewRomanPSMT-6e" x="277.880859"/>
     <use xlink:href="#TimesNewRomanPSMT-20" x="327.880859"/>
     <use xlink:href="#TimesNewRomanPSMT-44" x="352.880859"/>
     <use xlink:href="#TimesNewRomanPSMT-61" x="425.097656"/>
     <use xlink:href="#TimesNewRomanPSMT-74" x="469.482422"/>
     <use xlink:href="#TimesNewRomanPSMT-61" x="497.265625"/>
    </g>
   </g>
   <g id="legend_2">
    <g id="patch_13">
     <path d="M 771.4125 61.755625 
L 846.2 61.755625 
Q 848.2 61.755625 848.2 59.755625 
L 848.2 32.44 
Q 848.2 30.44 846.2 30.44 
L 771.4125 30.44 
Q 769.4125 30.44 769.4125 32.44 
L 769.4125 59.755625 
Q 769.4125 61.755625 771.4125 61.755625 
z
" style="fill: #ffffff; opacity: 0.8; stroke: #cccccc; stroke-linejoin: miter"/>
    </g>
    <g id="line2d_33">
     <path d="M 773.4125 37.94 
L 783.4125 37.94 
L 793.4125 37.94 
" style="fill: none; stroke: #008000; stroke-width: 1.5; stroke-linecap: square"/>
    </g>
    <g id="text_35">
     <!-- Position_0 -->
     <g transform="translate(801.4125 41.44) scale(0.1 -0.1)">
      <use xlink:href="#TimesNewRomanPSMT-50"/>
      <use xlink:href="#TimesNewRomanPSMT-6f" x="55.615234"/>
      <use xlink:href="#TimesNewRomanPSMT-73" x="105.615234"/>
      <use xlink:href="#TimesNewRomanPSMT-69" x="144.53125"/>
      <use xlink:href="#TimesNewRomanPSMT-74" x="172.314453"/>
      <use xlink:href="#TimesNewRomanPSMT-69" x="200.097656"/>
      <use xlink:href="#TimesNewRomanPSMT-6f" x="227.880859"/>
      <use xlink:href="#TimesNewRomanPSMT-6e" x="277.880859"/>
      <use xlink:href="#TimesNewRomanPSMT-5f" x="327.880859"/>
      <use xlink:href="#TimesNewRomanPSMT-30" x="377.880859"/>
     </g>
    </g>
    <g id="line2d_34">
     <path d="M 773.4125 52.097813 
L 783.4125 52.097813 
L 793.4125 52.097813 
" style="fill: none; stroke: #ff0000; stroke-width: 1.5; stroke-linecap: square"/>
    </g>
    <g id="text_36">
     <!-- Position_1 -->
     <g transform="translate(801.4125 55.597813) scale(0.1 -0.1)">
      <use xlink:href="#TimesNewRomanPSMT-50"/>
      <use xlink:href="#TimesNewRomanPSMT-6f" x="55.615234"/>
      <use xlink:href="#TimesNewRomanPSMT-73" x="105.615234"/>
      <use xlink:href="#TimesNewRomanPSMT-69" x="144.53125"/>
      <use xlink:href="#TimesNewRomanPSMT-74" x="172.314453"/>
      <use xlink:href="#TimesNewRomanPSMT-69" x="200.097656"/>
      <use xlink:href="#TimesNewRomanPSMT-6f" x="227.880859"/>
      <use xlink:href="#TimesNewRomanPSMT-6e" x="277.880859"/>
      <use xlink:href="#TimesNewRomanPSMT-5f" x="327.880859"/>
      <use xlink:href="#TimesNewRomanPSMT-31" x="377.880859"/>
     </g>
    </g>
   </g>
  </g>
 </g>
 <defs>
  <clipPath id="pa02f945e86">
   <rect x="44.39" y="308.04" width="808.81" height="226"/>
  </clipPath>
  <clipPath id="p7639aabd28">
   <rect x="44.39" y="25.44" width="808.81" height="226"/>
  </clipPath>
 </defs>
</svg>
