<?xml version="1.0" encoding="utf-8" standalone="no"?>
<!DOCTYPE svg PUBLIC "-//W3C//DTD SVG 1.1//EN"
  "http://www.w3.org/Graphics/SVG/1.1/DTD/svg11.dtd">
<svg xmlns:xlink="http://www.w3.org/1999/xlink" width="720pt" height="720pt" viewBox="0 0 720 720" xmlns="http://www.w3.org/2000/svg" version="1.1">
 <metadata>
  <rdf:RDF xmlns:dc="http://purl.org/dc/elements/1.1/" xmlns:cc="http://creativecommons.org/ns#" xmlns:rdf="http://www.w3.org/1999/02/22-rdf-syntax-ns#">
   <cc:Work>
    <dc:type rdf:resource="http://purl.org/dc/dcmitype/StillImage"/>
    <dc:date>2025-04-09T17:27:32.625449</dc:date>
    <dc:format>image/svg+xml</dc:format>
    <dc:creator>
     <cc:Agent>
      <dc:title>Matplotlib v3.5.1, https://matplotlib.org/</dc:title>
     </cc:Agent>
    </dc:creator>
   </cc:Work>
  </rdf:RDF>
 </metadata>
 <defs>
  <style type="text/css">*{stroke-linejoin: round; stroke-linecap: butt}</style>
 </defs>
 <g id="figure_1">
  <g id="patch_1">
   <path d="M 0 720 
L 720 720 
L 720 0 
L 0 0 
z
" style="fill: #ffffff"/>
  </g>
  <g id="axes_1">
   <g id="patch_2">
    <path d="M 78.14 321.79 
L 698.4 321.79 
L 698.4 21.6 
L 78.14 21.6 
z
" style="fill: #ffffff"/>
   </g>
   <g id="matplotlib.axis_1">
    <g id="xtick_1">
     <g id="line2d_1">
      <defs>
       <path id="m9c221cae91" d="M 0 0 
L 0 3.5 
" style="stroke: #000000; stroke-width: 0.8"/>
      </defs>
      <g>
       <use xlink:href="#m9c221cae91" x="103.160171" y="321.79" style="stroke: #000000; stroke-width: 0.8"/>
      </g>
     </g>
    </g>
    <g id="xtick_2">
     <g id="line2d_2">
      <g>
       <use xlink:href="#m9c221cae91" x="216.886065" y="321.79" style="stroke: #000000; stroke-width: 0.8"/>
      </g>
     </g>
    </g>
    <g id="xtick_3">
     <g id="line2d_3">
      <g>
       <use xlink:href="#m9c221cae91" x="330.611958" y="321.79" style="stroke: #000000; stroke-width: 0.8"/>
      </g>
     </g>
    </g>
    <g id="xtick_4">
     <g id="line2d_4">
      <g>
       <use xlink:href="#m9c221cae91" x="444.337852" y="321.79" style="stroke: #000000; stroke-width: 0.8"/>
      </g>
     </g>
    </g>
    <g id="xtick_5">
     <g id="line2d_5">
      <g>
       <use xlink:href="#m9c221cae91" x="558.063746" y="321.79" style="stroke: #000000; stroke-width: 0.8"/>
      </g>
     </g>
    </g>
    <g id="xtick_6">
     <g id="line2d_6">
      <g>
       <use xlink:href="#m9c221cae91" x="671.789639" y="321.79" style="stroke: #000000; stroke-width: 0.8"/>
      </g>
     </g>
    </g>
   </g>
   <g id="matplotlib.axis_2">
    <g id="ytick_1">
     <g id="line2d_7">
      <defs>
       <path id="m4830b1d5e0" d="M 0 0 
L -3.5 0 
" style="stroke: #000000; stroke-width: 0.8"/>
      </defs>
      <g>
       <use xlink:href="#m4830b1d5e0" x="78.14" y="260.764507" style="stroke: #000000; stroke-width: 0.8"/>
      </g>
     </g>
     <g id="text_1">
      <!-- 0 -->
      <g transform="translate(58.415 268.362945)scale(0.2 -0.2)">
       <defs>
        <path id="DejaVuSans-30" d="M 2034 4250 
Q 1547 4250 1301 3770 
Q 1056 3291 1056 2328 
Q 1056 1369 1301 889 
Q 1547 409 2034 409 
Q 2525 409 2770 889 
Q 3016 1369 3016 2328 
Q 3016 3291 2770 3770 
Q 2525 4250 2034 4250 
z
M 2034 4750 
Q 2819 4750 3233 4129 
Q 3647 3509 3647 2328 
Q 3647 1150 3233 529 
Q 2819 -91 2034 -91 
Q 1250 -91 836 529 
Q 422 1150 422 2328 
Q 422 3509 836 4129 
Q 1250 4750 2034 4750 
z
" transform="scale(0.015625)"/>
       </defs>
       <use xlink:href="#DejaVuSans-30"/>
      </g>
     </g>
    </g>
    <g id="ytick_2">
     <g id="line2d_8">
      <g>
       <use xlink:href="#m4830b1d5e0" x="78.14" y="180.87136" style="stroke: #000000; stroke-width: 0.8"/>
      </g>
     </g>
     <g id="text_2">
      <!-- 20 -->
      <g transform="translate(45.69 188.469797)scale(0.2 -0.2)">
       <defs>
        <path id="DejaVuSans-32" d="M 1228 531 
L 3431 531 
L 3431 0 
L 469 0 
L 469 531 
Q 828 903 1448 1529 
Q 2069 2156 2228 2338 
Q 2531 2678 2651 2914 
Q 2772 3150 2772 3378 
Q 2772 3750 2511 3984 
Q 2250 4219 1831 4219 
Q 1534 4219 1204 4116 
Q 875 4013 500 3803 
L 500 4441 
Q 881 4594 1212 4672 
Q 1544 4750 1819 4750 
Q 2544 4750 2975 4387 
Q 3406 4025 3406 3419 
Q 3406 3131 3298 2873 
Q 3191 2616 2906 2266 
Q 2828 2175 2409 1742 
Q 1991 1309 1228 531 
z
" transform="scale(0.015625)"/>
       </defs>
       <use xlink:href="#DejaVuSans-32"/>
       <use xlink:href="#DejaVuSans-30" x="63.623047"/>
      </g>
     </g>
    </g>
    <g id="ytick_3">
     <g id="line2d_9">
      <g>
       <use xlink:href="#m4830b1d5e0" x="78.14" y="100.978213" style="stroke: #000000; stroke-width: 0.8"/>
      </g>
     </g>
     <g id="text_3">
      <!-- 40 -->
      <g transform="translate(45.69 108.57665)scale(0.2 -0.2)">
       <defs>
        <path id="DejaVuSans-34" d="M 2419 4116 
L 825 1625 
L 2419 1625 
L 2419 4116 
z
M 2253 4666 
L 3047 4666 
L 3047 1625 
L 3713 1625 
L 3713 1100 
L 3047 1100 
L 3047 0 
L 2419 0 
L 2419 1100 
L 313 1100 
L 313 1709 
L 2253 4666 
z
" transform="scale(0.015625)"/>
       </defs>
       <use xlink:href="#DejaVuSans-34"/>
       <use xlink:href="#DejaVuSans-30" x="63.623047"/>
      </g>
     </g>
    </g>
    <g id="text_4">
     <!-- Reference [deg] -->
     <g transform="translate(37.530625 251.879375)rotate(-90)scale(0.2 -0.2)">
      <defs>
       <path id="DejaVuSans-52" d="M 2841 2188 
Q 3044 2119 3236 1894 
Q 3428 1669 3622 1275 
L 4263 0 
L 3584 0 
L 2988 1197 
Q 2756 1666 2539 1819 
Q 2322 1972 1947 1972 
L 1259 1972 
L 1259 0 
L 628 0 
L 628 4666 
L 2053 4666 
Q 2853 4666 3247 4331 
Q 3641 3997 3641 3322 
Q 3641 2881 3436 2590 
Q 3231 2300 2841 2188 
z
M 1259 4147 
L 1259 2491 
L 2053 2491 
Q 2509 2491 2742 2702 
Q 2975 2913 2975 3322 
Q 2975 3731 2742 3939 
Q 2509 4147 2053 4147 
L 1259 4147 
z
" transform="scale(0.015625)"/>
       <path id="DejaVuSans-65" d="M 3597 1894 
L 3597 1613 
L 953 1613 
Q 991 1019 1311 708 
Q 1631 397 2203 397 
Q 2534 397 2845 478 
Q 3156 559 3463 722 
L 3463 178 
Q 3153 47 2828 -22 
Q 2503 -91 2169 -91 
Q 1331 -91 842 396 
Q 353 884 353 1716 
Q 353 2575 817 3079 
Q 1281 3584 2069 3584 
Q 2775 3584 3186 3129 
Q 3597 2675 3597 1894 
z
M 3022 2063 
Q 3016 2534 2758 2815 
Q 2500 3097 2075 3097 
Q 1594 3097 1305 2825 
Q 1016 2553 972 2059 
L 3022 2063 
z
" transform="scale(0.015625)"/>
       <path id="DejaVuSans-66" d="M 2375 4863 
L 2375 4384 
L 1825 4384 
Q 1516 4384 1395 4259 
Q 1275 4134 1275 3809 
L 1275 3500 
L 2222 3500 
L 2222 3053 
L 1275 3053 
L 1275 0 
L 697 0 
L 697 3053 
L 147 3053 
L 147 3500 
L 697 3500 
L 697 3744 
Q 697 4328 969 4595 
Q 1241 4863 1831 4863 
L 2375 4863 
z
" transform="scale(0.015625)"/>
       <path id="DejaVuSans-72" d="M 2631 2963 
Q 2534 3019 2420 3045 
Q 2306 3072 2169 3072 
Q 1681 3072 1420 2755 
Q 1159 2438 1159 1844 
L 1159 0 
L 581 0 
L 581 3500 
L 1159 3500 
L 1159 2956 
Q 1341 3275 1631 3429 
Q 1922 3584 2338 3584 
Q 2397 3584 2469 3576 
Q 2541 3569 2628 3553 
L 2631 2963 
z
" transform="scale(0.015625)"/>
       <path id="DejaVuSans-6e" d="M 3513 2113 
L 3513 0 
L 2938 0 
L 2938 2094 
Q 2938 2591 2744 2837 
Q 2550 3084 2163 3084 
Q 1697 3084 1428 2787 
Q 1159 2491 1159 1978 
L 1159 0 
L 581 0 
L 581 3500 
L 1159 3500 
L 1159 2956 
Q 1366 3272 1645 3428 
Q 1925 3584 2291 3584 
Q 2894 3584 3203 3211 
Q 3513 2838 3513 2113 
z
" transform="scale(0.015625)"/>
       <path id="DejaVuSans-63" d="M 3122 3366 
L 3122 2828 
Q 2878 2963 2633 3030 
Q 2388 3097 2138 3097 
Q 1578 3097 1268 2742 
Q 959 2388 959 1747 
Q 959 1106 1268 751 
Q 1578 397 2138 397 
Q 2388 397 2633 464 
Q 2878 531 3122 666 
L 3122 134 
Q 2881 22 2623 -34 
Q 2366 -91 2075 -91 
Q 1284 -91 818 406 
Q 353 903 353 1747 
Q 353 2603 823 3093 
Q 1294 3584 2113 3584 
Q 2378 3584 2631 3529 
Q 2884 3475 3122 3366 
z
" transform="scale(0.015625)"/>
       <path id="DejaVuSans-20" transform="scale(0.015625)"/>
       <path id="DejaVuSans-5b" d="M 550 4863 
L 1875 4863 
L 1875 4416 
L 1125 4416 
L 1125 -397 
L 1875 -397 
L 1875 -844 
L 550 -844 
L 550 4863 
z
" transform="scale(0.015625)"/>
       <path id="DejaVuSans-64" d="M 2906 2969 
L 2906 4863 
L 3481 4863 
L 3481 0 
L 2906 0 
L 2906 525 
Q 2725 213 2448 61 
Q 2172 -91 1784 -91 
Q 1150 -91 751 415 
Q 353 922 353 1747 
Q 353 2572 751 3078 
Q 1150 3584 1784 3584 
Q 2172 3584 2448 3432 
Q 2725 3281 2906 2969 
z
M 947 1747 
Q 947 1113 1208 752 
Q 1469 391 1925 391 
Q 2381 391 2643 752 
Q 2906 1113 2906 1747 
Q 2906 2381 2643 2742 
Q 2381 3103 1925 3103 
Q 1469 3103 1208 2742 
Q 947 2381 947 1747 
z
" transform="scale(0.015625)"/>
       <path id="DejaVuSans-67" d="M 2906 1791 
Q 2906 2416 2648 2759 
Q 2391 3103 1925 3103 
Q 1463 3103 1205 2759 
Q 947 2416 947 1791 
Q 947 1169 1205 825 
Q 1463 481 1925 481 
Q 2391 481 2648 825 
Q 2906 1169 2906 1791 
z
M 3481 434 
Q 3481 -459 3084 -895 
Q 2688 -1331 1869 -1331 
Q 1566 -1331 1297 -1286 
Q 1028 -1241 775 -1147 
L 775 -588 
Q 1028 -725 1275 -790 
Q 1522 -856 1778 -856 
Q 2344 -856 2625 -561 
Q 2906 -266 2906 331 
L 2906 616 
Q 2728 306 2450 153 
Q 2172 0 1784 0 
Q 1141 0 747 490 
Q 353 981 353 1791 
Q 353 2603 747 3093 
Q 1141 3584 1784 3584 
Q 2172 3584 2450 3431 
Q 2728 3278 2906 2969 
L 2906 3500 
L 3481 3500 
L 3481 434 
z
" transform="scale(0.015625)"/>
       <path id="DejaVuSans-5d" d="M 1947 4863 
L 1947 -844 
L 622 -844 
L 622 -397 
L 1369 -397 
L 1369 4416 
L 622 4416 
L 622 4863 
L 1947 4863 
z
" transform="scale(0.015625)"/>
      </defs>
      <use xlink:href="#DejaVuSans-52"/>
      <use xlink:href="#DejaVuSans-65" x="64.982422"/>
      <use xlink:href="#DejaVuSans-66" x="126.505859"/>
      <use xlink:href="#DejaVuSans-65" x="161.710938"/>
      <use xlink:href="#DejaVuSans-72" x="223.234375"/>
      <use xlink:href="#DejaVuSans-65" x="262.097656"/>
      <use xlink:href="#DejaVuSans-6e" x="323.621094"/>
      <use xlink:href="#DejaVuSans-63" x="387"/>
      <use xlink:href="#DejaVuSans-65" x="441.980469"/>
      <use xlink:href="#DejaVuSans-20" x="503.503906"/>
      <use xlink:href="#DejaVuSans-5b" x="535.291016"/>
      <use xlink:href="#DejaVuSans-64" x="574.304688"/>
      <use xlink:href="#DejaVuSans-65" x="637.78125"/>
      <use xlink:href="#DejaVuSans-67" x="699.304688"/>
      <use xlink:href="#DejaVuSans-5d" x="762.78125"/>
     </g>
    </g>
   </g>
   <g id="line2d_10">
    <path d="M 106.333636 271.195167 
L 109.910157 271.043736 
L 113.50742 270.681883 
L 117.10753 269.946822 
L 120.703654 269.519653 
L 124.29182 267.497661 
L 127.881857 266.504102 
L 131.487552 264.762135 
L 135.08937 263.798427 
L 138.641339 262.550272 
L 142.176822 260.332902 
L 145.732152 257.43279 
L 149.267256 254.348938 
L 152.803864 248.859461 
L 156.325383 245.433497 
L 159.870789 243.069504 
L 163.414122 232.467216 
L 166.959257 223.123278 
L 170.505654 207.568962 
L 174.057636 198.107278 
L 177.606486 186.509798 
L 181.142836 179.6809 
L 184.716659 174.305637 
L 188.325215 167.355282 
L 191.899309 165.217236 
L 199.036298 164.632566 
L 202.563741 163.616709 
L 206.131124 162.942257 
L 209.696311 162.459631 
L 213.293899 159.047992 
L 216.875476 154.41878 
L 220.468618 150.294101 
L 224.02243 142.958889 
L 227.547948 138.217672 
L 231.077886 134.528337 
L 234.651587 133.558302 
L 238.196018 133.782005 
L 241.732016 133.115695 
L 245.255324 132.678914 
L 248.801476 131.28382 
L 252.384898 128.319423 
L 255.955371 126.455022 
L 259.49179 124.04964 
L 266.592812 119.511953 
L 270.12115 118.310933 
L 273.669499 116.939323 
L 277.233831 114.601468 
L 280.776879 115.539761 
L 284.213381 117.341867 
L 287.802821 117.934054 
L 291.353027 120.185174 
L 294.927297 120.933025 
L 298.520425 122.590828 
L 302.116251 122.917186 
L 305.714354 123.413603 
L 312.918858 124.127594 
L 316.518277 123.976238 
L 320.099556 124.338928 
L 323.69305 125.809955 
L 327.291194 127.484694 
L 330.86583 128.067139 
L 334.428102 129.451986 
L 337.964534 129.779175 
L 341.508449 131.158348 
L 345.070857 131.445226 
L 348.642293 130.873632 
L 352.161941 130.459867 
L 355.744508 129.840909 
L 359.397098 127.646257 
L 362.994212 124.592628 
L 366.581822 116.345548 
L 370.171574 109.015823 
L 373.756283 89.180859 
L 377.343094 78.741913 
L 380.921566 68.931248 
L 384.502072 51.320403 
L 388.088381 41.535814 
L 395.150819 35.245 
L 398.669681 36.808654 
L 402.194928 42.637133 
L 405.721206 44.07946 
L 409.25231 50.564291 
L 412.791792 65.992351 
L 416.392593 79.523312 
L 419.974008 91.295565 
L 423.561211 97.638346 
L 427.152536 100.029748 
L 430.737422 100.776806 
L 434.317209 101.265613 
L 437.912981 100.792854 
L 441.512725 102.916638 
L 445.098993 105.839735 
L 448.677859 110.71746 
L 452.260019 112.609973 
L 455.848849 113.36977 
L 459.440378 113.894174 
L 463.030577 113.889137 
L 466.62441 114.557077 
L 470.207479 110.952598 
L 473.798221 108.121427 
L 477.378822 105.615311 
L 480.959016 103.450095 
L 484.552198 102.330078 
L 488.138561 104.287766 
L 491.731405 105.634056 
L 495.324045 106.749748 
L 498.929564 109.688164 
L 502.516984 110.561788 
L 506.108974 111.212263 
L 516.886866 111.35262 
L 520.486122 111.911216 
L 527.670209 113.878936 
L 531.261154 114.191949 
L 538.434978 115.694474 
L 542.018576 116.3406 
L 545.58966 117.49938 
L 549.168268 117.946115 
L 552.760786 117.469474 
L 556.358089 116.628063 
L 559.940317 115.495472 
L 563.063635 113.087464 
L 566.652926 110.939721 
L 573.821259 105.965023 
L 577.362138 103.815328 
L 580.929019 97.866315 
L 584.503832 99.020166 
L 588.087009 109.725875 
L 591.60385 121.434334 
L 595.150301 117.310953 
L 598.701903 128.411649 
L 602.267795 134.868808 
L 605.845196 139.70723 
L 609.434203 142.787977 
L 613.023318 149.03474 
L 616.604055 154.933426 
L 620.183327 164.263725 
L 623.77007 170.258432 
L 627.361164 177.475928 
L 630.952096 183.492084 
L 634.520455 192.904265 
L 638.099958 199.420422 
L 641.688219 204.412926 
L 645.280547 209.660017 
L 648.855346 213.121938 
L 652.406284 218.662006 
L 655.95344 222.561515 
L 659.496352 224.456199 
L 663.045568 227.34245 
L 666.628067 229.739353 
L 670.206364 233.545644 
L 670.206364 233.545644 
" clip-path="url(#p8a158ea79b)" style="fill: none; stroke: #1f77b4; stroke-width: 1.5; stroke-linecap: square"/>
   </g>
   <g id="line2d_11">
    <path d="M 106.333636 245.611216 
L 120.703654 245.682871 
L 127.881857 246.531597 
L 131.487552 248.509012 
L 135.08937 252.144808 
L 142.176822 257.757119 
L 149.267256 258.583883 
L 156.325383 257.461721 
L 159.870789 256.355162 
L 166.959257 237.997499 
L 170.505654 232.500033 
L 174.057636 232.150695 
L 177.606486 236.934776 
L 181.142836 240.8987 
L 184.716659 245.141467 
L 188.325215 252.333311 
L 191.899309 255.493989 
L 195.452375 262.416171 
L 199.036298 265.60864 
L 202.563741 268.293963 
L 206.131124 267.778324 
L 209.696311 265.620755 
L 213.293899 264.140885 
L 216.875476 256.992457 
L 220.468618 246.377224 
L 224.02243 235.349445 
L 227.547948 230.017182 
L 231.077886 228.175932 
L 234.651587 228.653251 
L 238.196018 231.544495 
L 241.732016 239.606532 
L 245.255324 243.945923 
L 248.801476 246.904213 
L 252.384898 247.972205 
L 255.955371 248.396117 
L 259.49179 250.783714 
L 263.042023 254.182539 
L 266.592812 252.050468 
L 273.669499 253.615724 
L 280.776879 257.305538 
L 284.213381 256.826584 
L 287.802821 258.299102 
L 291.353027 258.613668 
L 294.927297 259.617925 
L 298.520425 260.80642 
L 302.116251 261.677904 
L 305.714354 261.736509 
L 309.324958 262.370245 
L 312.918858 262.603535 
L 316.518277 263.300035 
L 320.099556 263.825878 
L 323.69305 264.599835 
L 327.291194 265.590821 
L 334.428102 266.817681 
L 337.964534 268.452416 
L 341.508449 271.356861 
L 345.070857 276.354986 
L 348.642293 281.575643 
L 352.161941 285.289233 
L 355.744508 284.626557 
L 359.397098 286.827003 
L 362.994212 285.647265 
L 366.581822 285.014563 
L 370.171574 283.301063 
L 373.756283 271.078123 
L 380.921566 241.094973 
L 384.502072 219.063356 
L 388.088381 210.364121 
L 391.625586 205.896197 
L 395.150819 204.653341 
L 398.669681 205.281885 
L 402.194928 210.326203 
L 405.721206 214.185431 
L 409.25231 216.395216 
L 412.791792 225.957675 
L 416.392593 233.531853 
L 419.974008 240.293233 
L 423.561211 247.890956 
L 427.152536 257.113078 
L 430.737422 263.748139 
L 434.317209 275.062111 
L 437.912981 279.695362 
L 441.512725 290.076045 
L 445.098993 295.033374 
L 448.677859 298.230526 
L 452.260019 297.08465 
L 455.848849 293.660271 
L 459.440378 292.358688 
L 463.030577 284.220292 
L 466.62441 273.921689 
L 470.207479 258.119892 
L 473.798221 249.329141 
L 477.378822 236.814892 
L 480.959016 228.052518 
L 484.552198 222.206078 
L 488.138561 220.702354 
L 491.731405 222.253007 
L 495.324045 223.662712 
L 498.929564 227.523556 
L 502.516984 229.028585 
L 506.108974 243.986364 
L 509.708067 253.167308 
L 513.288654 260.014451 
L 516.886866 270.662382 
L 520.486122 275.27791 
L 524.083371 277.333869 
L 527.670209 277.520807 
L 531.261154 276.585791 
L 534.849496 274.114358 
L 538.434978 273.663099 
L 542.018576 268.60981 
L 545.58966 265.641857 
L 549.168268 263.794914 
L 552.760786 264.15162 
L 556.358089 265.416635 
L 559.940317 268.265458 
L 563.063635 274.325955 
L 570.241458 289.089471 
L 573.821259 293.048605 
L 577.362138 294.192394 
L 580.929019 294.21516 
L 584.503832 294.69632 
L 588.087009 297.020336 
L 591.60385 299.726872 
L 595.150301 301.791306 
L 598.701903 306.566833 
L 602.267795 308.145 
L 605.845196 300.386298 
L 609.434203 291.772716 
L 613.023318 282.613146 
L 616.604055 262.605312 
L 620.183327 257.98095 
L 623.77007 254.824443 
L 627.361164 252.818788 
L 630.952096 253.277231 
L 634.520455 259.184102 
L 641.688219 267.928302 
L 645.280547 268.653115 
L 648.855346 271.052503 
L 652.406284 273.021427 
L 655.95344 271.957156 
L 663.045568 269.012194 
L 666.628067 267.281241 
L 670.206364 265.880211 
L 670.206364 265.880211 
" clip-path="url(#p8a158ea79b)" style="fill: none; stroke: #ff7f0e; stroke-width: 1.5; stroke-linecap: square"/>
   </g>
   <g id="patch_3">
    <path d="M 78.14 321.79 
L 78.14 21.6 
" style="fill: none; stroke: #000000; stroke-width: 0.8; stroke-linejoin: miter; stroke-linecap: square"/>
   </g>
   <g id="patch_4">
    <path d="M 698.4 321.79 
L 698.4 21.6 
" style="fill: none; stroke: #000000; stroke-width: 0.8; stroke-linejoin: miter; stroke-linecap: square"/>
   </g>
   <g id="patch_5">
    <path d="M 78.14 321.79 
L 698.4 321.79 
" style="fill: none; stroke: #000000; stroke-width: 0.8; stroke-linejoin: miter; stroke-linecap: square"/>
   </g>
   <g id="patch_6">
    <path d="M 78.14 21.6 
L 698.4 21.6 
" style="fill: none; stroke: #000000; stroke-width: 0.8; stroke-linejoin: miter; stroke-linecap: square"/>
   </g>
   <g id="legend_1">
    <g id="patch_7">
     <path d="M 92.14 97.425 
L 211.20875 97.425 
Q 215.20875 97.425 215.20875 93.425 
L 215.20875 35.6 
Q 215.20875 31.6 211.20875 31.6 
L 92.14 31.6 
Q 88.14 31.6 88.14 35.6 
L 88.14 93.425 
Q 88.14 97.425 92.14 97.425 
z
" style="fill: #ffffff; opacity: 0.8; stroke: #cccccc; stroke-linejoin: miter"/>
    </g>
    <g id="line2d_12">
     <path d="M 96.14 47.796875 
L 116.14 47.796875 
L 136.14 47.796875 
" style="fill: none; stroke: #1f77b4; stroke-width: 1.5; stroke-linecap: square"/>
    </g>
    <g id="text_5">
     <!-- Ref_1 -->
     <g transform="translate(152.14 54.796875)scale(0.2 -0.2)">
      <defs>
       <path id="DejaVuSans-5f" d="M 3263 -1063 
L 3263 -1509 
L -63 -1509 
L -63 -1063 
L 3263 -1063 
z
" transform="scale(0.015625)"/>
       <path id="DejaVuSans-31" d="M 794 531 
L 1825 531 
L 1825 4091 
L 703 3866 
L 703 4441 
L 1819 4666 
L 2450 4666 
L 2450 531 
L 3481 531 
L 3481 0 
L 794 0 
L 794 531 
z
" transform="scale(0.015625)"/>
      </defs>
      <use xlink:href="#DejaVuSans-52"/>
      <use xlink:href="#DejaVuSans-65" x="64.982422"/>
      <use xlink:href="#DejaVuSans-66" x="126.505859"/>
      <use xlink:href="#DejaVuSans-5f" x="161.710938"/>
      <use xlink:href="#DejaVuSans-31" x="211.710938"/>
     </g>
    </g>
    <g id="line2d_13">
     <path d="M 96.14 77.709375 
L 116.14 77.709375 
L 136.14 77.709375 
" style="fill: none; stroke: #ff7f0e; stroke-width: 1.5; stroke-linecap: square"/>
    </g>
    <g id="text_6">
     <!-- Ref_2 -->
     <g transform="translate(152.14 84.709375)scale(0.2 -0.2)">
      <use xlink:href="#DejaVuSans-52"/>
      <use xlink:href="#DejaVuSans-65" x="64.982422"/>
      <use xlink:href="#DejaVuSans-66" x="126.505859"/>
      <use xlink:href="#DejaVuSans-5f" x="161.710938"/>
      <use xlink:href="#DejaVuSans-32" x="211.710938"/>
     </g>
    </g>
   </g>
  </g>
  <g id="axes_2">
   <g id="patch_8">
    <path d="M 78.14 647.08 
L 698.4 647.08 
L 698.4 346.89 
L 78.14 346.89 
z
" style="fill: #ffffff"/>
   </g>
   <g id="matplotlib.axis_3">
    <g id="xtick_7">
     <g id="line2d_14">
      <g>
       <use xlink:href="#m9c221cae91" x="103.160171" y="647.08" style="stroke: #000000; stroke-width: 0.8"/>
      </g>
     </g>
     <g id="text_7">
      <!-- 0 -->
      <g transform="translate(96.797671 669.276875)scale(0.2 -0.2)">
       <use xlink:href="#DejaVuSans-30"/>
      </g>
     </g>
    </g>
    <g id="xtick_8">
     <g id="line2d_15">
      <g>
       <use xlink:href="#m9c221cae91" x="216.886065" y="647.08" style="stroke: #000000; stroke-width: 0.8"/>
      </g>
     </g>
     <g id="text_8">
      <!-- 2 -->
      <g transform="translate(210.523565 669.276875)scale(0.2 -0.2)">
       <use xlink:href="#DejaVuSans-32"/>
      </g>
     </g>
    </g>
    <g id="xtick_9">
     <g id="line2d_16">
      <g>
       <use xlink:href="#m9c221cae91" x="330.611958" y="647.08" style="stroke: #000000; stroke-width: 0.8"/>
      </g>
     </g>
     <g id="text_9">
      <!-- 4 -->
      <g transform="translate(324.249458 669.276875)scale(0.2 -0.2)">
       <use xlink:href="#DejaVuSans-34"/>
      </g>
     </g>
    </g>
    <g id="xtick_10">
     <g id="line2d_17">
      <g>
       <use xlink:href="#m9c221cae91" x="444.337852" y="647.08" style="stroke: #000000; stroke-width: 0.8"/>
      </g>
     </g>
     <g id="text_10">
      <!-- 6 -->
      <g transform="translate(437.975352 669.276875)scale(0.2 -0.2)">
       <defs>
        <path id="DejaVuSans-36" d="M 2113 2584 
Q 1688 2584 1439 2293 
Q 1191 2003 1191 1497 
Q 1191 994 1439 701 
Q 1688 409 2113 409 
Q 2538 409 2786 701 
Q 3034 994 3034 1497 
Q 3034 2003 2786 2293 
Q 2538 2584 2113 2584 
z
M 3366 4563 
L 3366 3988 
Q 3128 4100 2886 4159 
Q 2644 4219 2406 4219 
Q 1781 4219 1451 3797 
Q 1122 3375 1075 2522 
Q 1259 2794 1537 2939 
Q 1816 3084 2150 3084 
Q 2853 3084 3261 2657 
Q 3669 2231 3669 1497 
Q 3669 778 3244 343 
Q 2819 -91 2113 -91 
Q 1303 -91 875 529 
Q 447 1150 447 2328 
Q 447 3434 972 4092 
Q 1497 4750 2381 4750 
Q 2619 4750 2861 4703 
Q 3103 4656 3366 4563 
z
" transform="scale(0.015625)"/>
       </defs>
       <use xlink:href="#DejaVuSans-36"/>
      </g>
     </g>
    </g>
    <g id="xtick_11">
     <g id="line2d_18">
      <g>
       <use xlink:href="#m9c221cae91" x="558.063746" y="647.08" style="stroke: #000000; stroke-width: 0.8"/>
      </g>
     </g>
     <g id="text_11">
      <!-- 8 -->
      <g transform="translate(551.701246 669.276875)scale(0.2 -0.2)">
       <defs>
        <path id="DejaVuSans-38" d="M 2034 2216 
Q 1584 2216 1326 1975 
Q 1069 1734 1069 1313 
Q 1069 891 1326 650 
Q 1584 409 2034 409 
Q 2484 409 2743 651 
Q 3003 894 3003 1313 
Q 3003 1734 2745 1975 
Q 2488 2216 2034 2216 
z
M 1403 2484 
Q 997 2584 770 2862 
Q 544 3141 544 3541 
Q 544 4100 942 4425 
Q 1341 4750 2034 4750 
Q 2731 4750 3128 4425 
Q 3525 4100 3525 3541 
Q 3525 3141 3298 2862 
Q 3072 2584 2669 2484 
Q 3125 2378 3379 2068 
Q 3634 1759 3634 1313 
Q 3634 634 3220 271 
Q 2806 -91 2034 -91 
Q 1263 -91 848 271 
Q 434 634 434 1313 
Q 434 1759 690 2068 
Q 947 2378 1403 2484 
z
M 1172 3481 
Q 1172 3119 1398 2916 
Q 1625 2713 2034 2713 
Q 2441 2713 2670 2916 
Q 2900 3119 2900 3481 
Q 2900 3844 2670 4047 
Q 2441 4250 2034 4250 
Q 1625 4250 1398 4047 
Q 1172 3844 1172 3481 
z
" transform="scale(0.015625)"/>
       </defs>
       <use xlink:href="#DejaVuSans-38"/>
      </g>
     </g>
    </g>
    <g id="xtick_12">
     <g id="line2d_19">
      <g>
       <use xlink:href="#m9c221cae91" x="671.789639" y="647.08" style="stroke: #000000; stroke-width: 0.8"/>
      </g>
     </g>
     <g id="text_12">
      <!-- 10 -->
      <g transform="translate(659.064639 669.276875)scale(0.2 -0.2)">
       <use xlink:href="#DejaVuSans-31"/>
       <use xlink:href="#DejaVuSans-30" x="63.623047"/>
      </g>
     </g>
    </g>
    <g id="text_13">
     <!-- Time [s] -->
     <g transform="translate(347.612188 692.633125)scale(0.2 -0.2)">
      <defs>
       <path id="DejaVuSans-54" d="M -19 4666 
L 3928 4666 
L 3928 4134 
L 2272 4134 
L 2272 0 
L 1638 0 
L 1638 4134 
L -19 4134 
L -19 4666 
z
" transform="scale(0.015625)"/>
       <path id="DejaVuSans-69" d="M 603 3500 
L 1178 3500 
L 1178 0 
L 603 0 
L 603 3500 
z
M 603 4863 
L 1178 4863 
L 1178 4134 
L 603 4134 
L 603 4863 
z
" transform="scale(0.015625)"/>
       <path id="DejaVuSans-6d" d="M 3328 2828 
Q 3544 3216 3844 3400 
Q 4144 3584 4550 3584 
Q 5097 3584 5394 3201 
Q 5691 2819 5691 2113 
L 5691 0 
L 5113 0 
L 5113 2094 
Q 5113 2597 4934 2840 
Q 4756 3084 4391 3084 
Q 3944 3084 3684 2787 
Q 3425 2491 3425 1978 
L 3425 0 
L 2847 0 
L 2847 2094 
Q 2847 2600 2669 2842 
Q 2491 3084 2119 3084 
Q 1678 3084 1418 2786 
Q 1159 2488 1159 1978 
L 1159 0 
L 581 0 
L 581 3500 
L 1159 3500 
L 1159 2956 
Q 1356 3278 1631 3431 
Q 1906 3584 2284 3584 
Q 2666 3584 2933 3390 
Q 3200 3197 3328 2828 
z
" transform="scale(0.015625)"/>
       <path id="DejaVuSans-73" d="M 2834 3397 
L 2834 2853 
Q 2591 2978 2328 3040 
Q 2066 3103 1784 3103 
Q 1356 3103 1142 2972 
Q 928 2841 928 2578 
Q 928 2378 1081 2264 
Q 1234 2150 1697 2047 
L 1894 2003 
Q 2506 1872 2764 1633 
Q 3022 1394 3022 966 
Q 3022 478 2636 193 
Q 2250 -91 1575 -91 
Q 1294 -91 989 -36 
Q 684 19 347 128 
L 347 722 
Q 666 556 975 473 
Q 1284 391 1588 391 
Q 1994 391 2212 530 
Q 2431 669 2431 922 
Q 2431 1156 2273 1281 
Q 2116 1406 1581 1522 
L 1381 1569 
Q 847 1681 609 1914 
Q 372 2147 372 2553 
Q 372 3047 722 3315 
Q 1072 3584 1716 3584 
Q 2034 3584 2315 3537 
Q 2597 3491 2834 3397 
z
" transform="scale(0.015625)"/>
      </defs>
      <use xlink:href="#DejaVuSans-54"/>
      <use xlink:href="#DejaVuSans-69" x="57.958984"/>
      <use xlink:href="#DejaVuSans-6d" x="85.742188"/>
      <use xlink:href="#DejaVuSans-65" x="183.154297"/>
      <use xlink:href="#DejaVuSans-20" x="244.677734"/>
      <use xlink:href="#DejaVuSans-5b" x="276.464844"/>
      <use xlink:href="#DejaVuSans-73" x="315.478516"/>
      <use xlink:href="#DejaVuSans-5d" x="367.578125"/>
     </g>
    </g>
   </g>
   <g id="matplotlib.axis_4">
    <g id="ytick_4">
     <g id="line2d_20">
      <g>
       <use xlink:href="#m4830b1d5e0" x="78.14" y="614.821871" style="stroke: #000000; stroke-width: 0.8"/>
      </g>
     </g>
     <g id="text_14">
      <!-- 24 -->
      <g transform="translate(45.69 622.420308)scale(0.2 -0.2)">
       <use xlink:href="#DejaVuSans-32"/>
       <use xlink:href="#DejaVuSans-34" x="63.623047"/>
      </g>
     </g>
    </g>
    <g id="ytick_5">
     <g id="line2d_21">
      <g>
       <use xlink:href="#m4830b1d5e0" x="78.14" y="558.313677" style="stroke: #000000; stroke-width: 0.8"/>
      </g>
     </g>
     <g id="text_15">
      <!-- 26 -->
      <g transform="translate(45.69 565.912115)scale(0.2 -0.2)">
       <use xlink:href="#DejaVuSans-32"/>
       <use xlink:href="#DejaVuSans-36" x="63.623047"/>
      </g>
     </g>
    </g>
    <g id="ytick_6">
     <g id="line2d_22">
      <g>
       <use xlink:href="#m4830b1d5e0" x="78.14" y="501.805484" style="stroke: #000000; stroke-width: 0.8"/>
      </g>
     </g>
     <g id="text_16">
      <!-- 28 -->
      <g transform="translate(45.69 509.403921)scale(0.2 -0.2)">
       <use xlink:href="#DejaVuSans-32"/>
       <use xlink:href="#DejaVuSans-38" x="63.623047"/>
      </g>
     </g>
    </g>
    <g id="ytick_7">
     <g id="line2d_23">
      <g>
       <use xlink:href="#m4830b1d5e0" x="78.14" y="445.29729" style="stroke: #000000; stroke-width: 0.8"/>
      </g>
     </g>
     <g id="text_17">
      <!-- 30 -->
      <g transform="translate(45.69 452.895728)scale(0.2 -0.2)">
       <defs>
        <path id="DejaVuSans-33" d="M 2597 2516 
Q 3050 2419 3304 2112 
Q 3559 1806 3559 1356 
Q 3559 666 3084 287 
Q 2609 -91 1734 -91 
Q 1441 -91 1130 -33 
Q 819 25 488 141 
L 488 750 
Q 750 597 1062 519 
Q 1375 441 1716 441 
Q 2309 441 2620 675 
Q 2931 909 2931 1356 
Q 2931 1769 2642 2001 
Q 2353 2234 1838 2234 
L 1294 2234 
L 1294 2753 
L 1863 2753 
Q 2328 2753 2575 2939 
Q 2822 3125 2822 3475 
Q 2822 3834 2567 4026 
Q 2313 4219 1838 4219 
Q 1578 4219 1281 4162 
Q 984 4106 628 3988 
L 628 4550 
Q 988 4650 1302 4700 
Q 1616 4750 1894 4750 
Q 2613 4750 3031 4423 
Q 3450 4097 3450 3541 
Q 3450 3153 3228 2886 
Q 3006 2619 2597 2516 
z
" transform="scale(0.015625)"/>
       </defs>
       <use xlink:href="#DejaVuSans-33"/>
       <use xlink:href="#DejaVuSans-30" x="63.623047"/>
      </g>
     </g>
    </g>
    <g id="ytick_8">
     <g id="line2d_24">
      <g>
       <use xlink:href="#m4830b1d5e0" x="78.14" y="388.789097" style="stroke: #000000; stroke-width: 0.8"/>
      </g>
     </g>
     <g id="text_18">
      <!-- 32 -->
      <g transform="translate(45.69 396.387534)scale(0.2 -0.2)">
       <use xlink:href="#DejaVuSans-33"/>
       <use xlink:href="#DejaVuSans-32" x="63.623047"/>
      </g>
     </g>
    </g>
    <g id="text_19">
     <!-- Reduction Ratio -->
     <g transform="translate(37.530625 575.8225)rotate(-90)scale(0.2 -0.2)">
      <defs>
       <path id="DejaVuSans-75" d="M 544 1381 
L 544 3500 
L 1119 3500 
L 1119 1403 
Q 1119 906 1312 657 
Q 1506 409 1894 409 
Q 2359 409 2629 706 
Q 2900 1003 2900 1516 
L 2900 3500 
L 3475 3500 
L 3475 0 
L 2900 0 
L 2900 538 
Q 2691 219 2414 64 
Q 2138 -91 1772 -91 
Q 1169 -91 856 284 
Q 544 659 544 1381 
z
M 1991 3584 
L 1991 3584 
z
" transform="scale(0.015625)"/>
       <path id="DejaVuSans-74" d="M 1172 4494 
L 1172 3500 
L 2356 3500 
L 2356 3053 
L 1172 3053 
L 1172 1153 
Q 1172 725 1289 603 
Q 1406 481 1766 481 
L 2356 481 
L 2356 0 
L 1766 0 
Q 1100 0 847 248 
Q 594 497 594 1153 
L 594 3053 
L 172 3053 
L 172 3500 
L 594 3500 
L 594 4494 
L 1172 4494 
z
" transform="scale(0.015625)"/>
       <path id="DejaVuSans-6f" d="M 1959 3097 
Q 1497 3097 1228 2736 
Q 959 2375 959 1747 
Q 959 1119 1226 758 
Q 1494 397 1959 397 
Q 2419 397 2687 759 
Q 2956 1122 2956 1747 
Q 2956 2369 2687 2733 
Q 2419 3097 1959 3097 
z
M 1959 3584 
Q 2709 3584 3137 3096 
Q 3566 2609 3566 1747 
Q 3566 888 3137 398 
Q 2709 -91 1959 -91 
Q 1206 -91 779 398 
Q 353 888 353 1747 
Q 353 2609 779 3096 
Q 1206 3584 1959 3584 
z
" transform="scale(0.015625)"/>
       <path id="DejaVuSans-61" d="M 2194 1759 
Q 1497 1759 1228 1600 
Q 959 1441 959 1056 
Q 959 750 1161 570 
Q 1363 391 1709 391 
Q 2188 391 2477 730 
Q 2766 1069 2766 1631 
L 2766 1759 
L 2194 1759 
z
M 3341 1997 
L 3341 0 
L 2766 0 
L 2766 531 
Q 2569 213 2275 61 
Q 1981 -91 1556 -91 
Q 1019 -91 701 211 
Q 384 513 384 1019 
Q 384 1609 779 1909 
Q 1175 2209 1959 2209 
L 2766 2209 
L 2766 2266 
Q 2766 2663 2505 2880 
Q 2244 3097 1772 3097 
Q 1472 3097 1187 3025 
Q 903 2953 641 2809 
L 641 3341 
Q 956 3463 1253 3523 
Q 1550 3584 1831 3584 
Q 2591 3584 2966 3190 
Q 3341 2797 3341 1997 
z
" transform="scale(0.015625)"/>
      </defs>
      <use xlink:href="#DejaVuSans-52"/>
      <use xlink:href="#DejaVuSans-65" x="64.982422"/>
      <use xlink:href="#DejaVuSans-64" x="126.505859"/>
      <use xlink:href="#DejaVuSans-75" x="189.982422"/>
      <use xlink:href="#DejaVuSans-63" x="253.361328"/>
      <use xlink:href="#DejaVuSans-74" x="308.341797"/>
      <use xlink:href="#DejaVuSans-69" x="347.550781"/>
      <use xlink:href="#DejaVuSans-6f" x="375.333984"/>
      <use xlink:href="#DejaVuSans-6e" x="436.515625"/>
      <use xlink:href="#DejaVuSans-20" x="499.894531"/>
      <use xlink:href="#DejaVuSans-52" x="531.681641"/>
      <use xlink:href="#DejaVuSans-61" x="598.914062"/>
      <use xlink:href="#DejaVuSans-74" x="660.193359"/>
      <use xlink:href="#DejaVuSans-69" x="699.402344"/>
      <use xlink:href="#DejaVuSans-6f" x="727.185547"/>
     </g>
    </g>
   </g>
   <g id="line2d_25">
    <path d="M 106.333636 360.535 
L 166.959257 360.535 
L 170.505654 557.133484 
L 174.057636 562.450949 
L 177.606486 360.535 
L 373.756283 360.535 
L 377.343094 588.270429 
L 380.921566 594.512834 
L 384.502072 569.252695 
L 388.088381 541.683506 
L 391.625586 360.535 
L 412.791792 360.535 
L 416.392593 539.647726 
L 419.974008 633.435 
L 423.561211 597.053806 
L 427.152536 360.535 
L 588.087009 360.535 
L 591.60385 548.951834 
L 595.150301 538.226683 
L 598.701903 360.535 
L 670.206364 360.535 
L 670.206364 360.535 
" clip-path="url(#p0ec8e9e2f0)" style="fill: none; stroke: #1f77b4; stroke-width: 1.5; stroke-linecap: square"/>
   </g>
   <g id="line2d_26">
    <path d="M 106.333636 360.535 
L 220.468618 360.535 
L 224.02243 545.732021 
L 227.547948 360.535 
L 373.756283 360.535 
L 377.343094 557.163163 
L 380.921566 585.782647 
L 384.502072 625.896127 
L 388.088381 624.596094 
L 391.625586 360.535 
L 434.317209 360.535 
L 437.912981 551.919346 
L 441.512725 360.535 
L 466.62441 360.535 
L 470.207479 570.271842 
L 473.798221 571.624762 
L 477.378822 556.794966 
L 480.959016 537.534486 
L 484.552198 360.535 
L 613.023318 360.535 
L 616.604055 575.514784 
L 620.183327 360.535 
L 670.206364 360.535 
L 670.206364 360.535 
" clip-path="url(#p0ec8e9e2f0)" style="fill: none; stroke: #ff7f0e; stroke-width: 1.5; stroke-linecap: square"/>
   </g>
   <g id="patch_9">
    <path d="M 78.14 647.08 
L 78.14 346.89 
" style="fill: none; stroke: #000000; stroke-width: 0.8; stroke-linejoin: miter; stroke-linecap: square"/>
   </g>
   <g id="patch_10">
    <path d="M 698.4 647.08 
L 698.4 346.89 
" style="fill: none; stroke: #000000; stroke-width: 0.8; stroke-linejoin: miter; stroke-linecap: square"/>
   </g>
   <g id="patch_11">
    <path d="M 78.14 647.08 
L 698.4 647.08 
" style="fill: none; stroke: #000000; stroke-width: 0.8; stroke-linejoin: miter; stroke-linecap: square"/>
   </g>
   <g id="patch_12">
    <path d="M 78.14 346.89 
L 698.4 346.89 
" style="fill: none; stroke: #000000; stroke-width: 0.8; stroke-linejoin: miter; stroke-linecap: square"/>
   </g>
   <g id="legend_2">
    <g id="patch_13">
     <path d="M 92.14 637.08 
L 332.89625 637.08 
Q 336.89625 637.08 336.89625 633.08 
L 336.89625 576.3675 
Q 336.89625 572.3675 332.89625 572.3675 
L 92.14 572.3675 
Q 88.14 572.3675 88.14 576.3675 
L 88.14 633.08 
Q 88.14 637.08 92.14 637.08 
z
" style="fill: #ffffff; opacity: 0.8; stroke: #cccccc; stroke-linejoin: miter"/>
    </g>
    <g id="line2d_27">
     <path d="M 96.14 588.564375 
L 116.14 588.564375 
L 136.14 588.564375 
" style="fill: none; stroke: #1f77b4; stroke-width: 1.5; stroke-linecap: square"/>
    </g>
    <g id="text_20">
     <!-- Reduction Ratio 0 -->
     <g transform="translate(152.14 595.564375)scale(0.2 -0.2)">
      <use xlink:href="#DejaVuSans-52"/>
      <use xlink:href="#DejaVuSans-65" x="64.982422"/>
      <use xlink:href="#DejaVuSans-64" x="126.505859"/>
      <use xlink:href="#DejaVuSans-75" x="189.982422"/>
      <use xlink:href="#DejaVuSans-63" x="253.361328"/>
      <use xlink:href="#DejaVuSans-74" x="308.341797"/>
      <use xlink:href="#DejaVuSans-69" x="347.550781"/>
      <use xlink:href="#DejaVuSans-6f" x="375.333984"/>
      <use xlink:href="#DejaVuSans-6e" x="436.515625"/>
      <use xlink:href="#DejaVuSans-20" x="499.894531"/>
      <use xlink:href="#DejaVuSans-52" x="531.681641"/>
      <use xlink:href="#DejaVuSans-61" x="598.914062"/>
      <use xlink:href="#DejaVuSans-74" x="660.193359"/>
      <use xlink:href="#DejaVuSans-69" x="699.402344"/>
      <use xlink:href="#DejaVuSans-6f" x="727.185547"/>
      <use xlink:href="#DejaVuSans-20" x="788.367188"/>
      <use xlink:href="#DejaVuSans-30" x="820.154297"/>
     </g>
    </g>
    <g id="line2d_28">
     <path d="M 96.14 617.920625 
L 116.14 617.920625 
L 136.14 617.920625 
" style="fill: none; stroke: #ff7f0e; stroke-width: 1.5; stroke-linecap: square"/>
    </g>
    <g id="text_21">
     <!-- Reduction Ratio 1 -->
     <g transform="translate(152.14 624.920625)scale(0.2 -0.2)">
      <use xlink:href="#DejaVuSans-52"/>
      <use xlink:href="#DejaVuSans-65" x="64.982422"/>
      <use xlink:href="#DejaVuSans-64" x="126.505859"/>
      <use xlink:href="#DejaVuSans-75" x="189.982422"/>
      <use xlink:href="#DejaVuSans-63" x="253.361328"/>
      <use xlink:href="#DejaVuSans-74" x="308.341797"/>
      <use xlink:href="#DejaVuSans-69" x="347.550781"/>
      <use xlink:href="#DejaVuSans-6f" x="375.333984"/>
      <use xlink:href="#DejaVuSans-6e" x="436.515625"/>
      <use xlink:href="#DejaVuSans-20" x="499.894531"/>
      <use xlink:href="#DejaVuSans-52" x="531.681641"/>
      <use xlink:href="#DejaVuSans-61" x="598.914062"/>
      <use xlink:href="#DejaVuSans-74" x="660.193359"/>
      <use xlink:href="#DejaVuSans-69" x="699.402344"/>
      <use xlink:href="#DejaVuSans-6f" x="727.185547"/>
      <use xlink:href="#DejaVuSans-20" x="788.367188"/>
      <use xlink:href="#DejaVuSans-31" x="820.154297"/>
     </g>
    </g>
   </g>
  </g>
 </g>
 <defs>
  <clipPath id="p8a158ea79b">
   <rect x="78.14" y="21.6" width="620.26" height="300.19"/>
  </clipPath>
  <clipPath id="p0ec8e9e2f0">
   <rect x="78.14" y="346.89" width="620.26" height="300.19"/>
  </clipPath>
 </defs>
</svg>
