<?xml version="1.0" encoding="utf-8" standalone="no"?>
<!DOCTYPE svg PUBLIC "-//W3C//DTD SVG 1.1//EN"
  "http://www.w3.org/Graphics/SVG/1.1/DTD/svg11.dtd">
<svg xmlns:xlink="http://www.w3.org/1999/xlink" width="460.8pt" height="345.6pt" viewBox="0 0 460.8 345.6" xmlns="http://www.w3.org/2000/svg" version="1.1">
 <metadata>
  <rdf:RDF xmlns:dc="http://purl.org/dc/elements/1.1/" xmlns:cc="http://creativecommons.org/ns#" xmlns:rdf="http://www.w3.org/1999/02/22-rdf-syntax-ns#">
   <cc:Work>
    <dc:type rdf:resource="http://purl.org/dc/dcmitype/StillImage"/>
    <dc:date>2025-03-10T11:31:15.608217</dc:date>
    <dc:format>image/svg+xml</dc:format>
    <dc:creator>
     <cc:Agent>
      <dc:title>Matplotlib v3.9.3, https://matplotlib.org/</dc:title>
     </cc:Agent>
    </dc:creator>
   </cc:Work>
  </rdf:RDF>
 </metadata>
 <defs>
  <style type="text/css">*{stroke-linejoin: round; stroke-linecap: butt}</style>
 </defs>
 <g id="figure_1">
  <g id="patch_1">
   <path d="M 0 345.6 
L 460.8 345.6 
L 460.8 0 
L 0 0 
z
" style="fill: #ffffff"/>
  </g>
  <g id="axes_1">
   <g id="patch_2">
    <path d="M 52.85 150.07 
L 450 150.07 
L 450 26.88 
L 52.85 26.88 
z
" style="fill: #ffffff"/>
   </g>
   <g id="matplotlib.axis_1">
    <g id="xtick_1">
     <g id="line2d_1">
      <defs>
       <path id="m34ff496c6b" d="M 0 0 
L 0 3.5 
" style="stroke: #000000; stroke-width: 0.8"/>
      </defs>
      <g>
       <use xlink:href="#m34ff496c6b" x="69.890973" y="150.07" style="stroke: #000000; stroke-width: 0.8"/>
      </g>
     </g>
    </g>
    <g id="xtick_2">
     <g id="line2d_2">
      <g>
       <use xlink:href="#m34ff496c6b" x="115.192789" y="150.07" style="stroke: #000000; stroke-width: 0.8"/>
      </g>
     </g>
    </g>
    <g id="xtick_3">
     <g id="line2d_3">
      <g>
       <use xlink:href="#m34ff496c6b" x="160.494606" y="150.07" style="stroke: #000000; stroke-width: 0.8"/>
      </g>
     </g>
    </g>
    <g id="xtick_4">
     <g id="line2d_4">
      <g>
       <use xlink:href="#m34ff496c6b" x="205.796423" y="150.07" style="stroke: #000000; stroke-width: 0.8"/>
      </g>
     </g>
    </g>
    <g id="xtick_5">
     <g id="line2d_5">
      <g>
       <use xlink:href="#m34ff496c6b" x="251.098239" y="150.07" style="stroke: #000000; stroke-width: 0.8"/>
      </g>
     </g>
    </g>
    <g id="xtick_6">
     <g id="line2d_6">
      <g>
       <use xlink:href="#m34ff496c6b" x="296.400056" y="150.07" style="stroke: #000000; stroke-width: 0.8"/>
      </g>
     </g>
    </g>
    <g id="xtick_7">
     <g id="line2d_7">
      <g>
       <use xlink:href="#m34ff496c6b" x="341.701872" y="150.07" style="stroke: #000000; stroke-width: 0.8"/>
      </g>
     </g>
    </g>
    <g id="xtick_8">
     <g id="line2d_8">
      <g>
       <use xlink:href="#m34ff496c6b" x="387.003689" y="150.07" style="stroke: #000000; stroke-width: 0.8"/>
      </g>
     </g>
    </g>
    <g id="xtick_9">
     <g id="line2d_9">
      <g>
       <use xlink:href="#m34ff496c6b" x="432.305506" y="150.07" style="stroke: #000000; stroke-width: 0.8"/>
      </g>
     </g>
    </g>
   </g>
   <g id="matplotlib.axis_2">
    <g id="ytick_1">
     <g id="line2d_10">
      <defs>
       <path id="m048d04c335" d="M 0 0 
L -3.5 0 
" style="stroke: #000000; stroke-width: 0.8"/>
      </defs>
      <g>
       <use xlink:href="#m048d04c335" x="52.85" y="125.026759" style="stroke: #000000; stroke-width: 0.8"/>
      </g>
     </g>
     <g id="text_1">
      <!-- 0 -->
      <g transform="translate(39.4875 128.825978) scale(0.1 -0.1)">
       <defs>
        <path id="DejaVuSans-30" d="M 2034 4250 
Q 1547 4250 1301 3770 
Q 1056 3291 1056 2328 
Q 1056 1369 1301 889 
Q 1547 409 2034 409 
Q 2525 409 2770 889 
Q 3016 1369 3016 2328 
Q 3016 3291 2770 3770 
Q 2525 4250 2034 4250 
z
M 2034 4750 
Q 2819 4750 3233 4129 
Q 3647 3509 3647 2328 
Q 3647 1150 3233 529 
Q 2819 -91 2034 -91 
Q 1250 -91 836 529 
Q 422 1150 422 2328 
Q 422 3509 836 4129 
Q 1250 4750 2034 4750 
z
" transform="scale(0.015625)"/>
       </defs>
       <use xlink:href="#DejaVuSans-30"/>
      </g>
     </g>
    </g>
    <g id="ytick_2">
     <g id="line2d_11">
      <g>
       <use xlink:href="#m048d04c335" x="52.85" y="92.240734" style="stroke: #000000; stroke-width: 0.8"/>
      </g>
     </g>
     <g id="text_2">
      <!-- 20 -->
      <g transform="translate(33.125 96.039953) scale(0.1 -0.1)">
       <defs>
        <path id="DejaVuSans-32" d="M 1228 531 
L 3431 531 
L 3431 0 
L 469 0 
L 469 531 
Q 828 903 1448 1529 
Q 2069 2156 2228 2338 
Q 2531 2678 2651 2914 
Q 2772 3150 2772 3378 
Q 2772 3750 2511 3984 
Q 2250 4219 1831 4219 
Q 1534 4219 1204 4116 
Q 875 4013 500 3803 
L 500 4441 
Q 881 4594 1212 4672 
Q 1544 4750 1819 4750 
Q 2544 4750 2975 4387 
Q 3406 4025 3406 3419 
Q 3406 3131 3298 2873 
Q 3191 2616 2906 2266 
Q 2828 2175 2409 1742 
Q 1991 1309 1228 531 
z
" transform="scale(0.015625)"/>
       </defs>
       <use xlink:href="#DejaVuSans-32"/>
       <use xlink:href="#DejaVuSans-30" x="63.623047"/>
      </g>
     </g>
    </g>
    <g id="ytick_3">
     <g id="line2d_12">
      <g>
       <use xlink:href="#m048d04c335" x="52.85" y="59.454709" style="stroke: #000000; stroke-width: 0.8"/>
      </g>
     </g>
     <g id="text_3">
      <!-- 40 -->
      <g transform="translate(33.125 63.253928) scale(0.1 -0.1)">
       <defs>
        <path id="DejaVuSans-34" d="M 2419 4116 
L 825 1625 
L 2419 1625 
L 2419 4116 
z
M 2253 4666 
L 3047 4666 
L 3047 1625 
L 3713 1625 
L 3713 1100 
L 3047 1100 
L 3047 0 
L 2419 0 
L 2419 1100 
L 313 1100 
L 313 1709 
L 2253 4666 
z
" transform="scale(0.015625)"/>
       </defs>
       <use xlink:href="#DejaVuSans-34"/>
       <use xlink:href="#DejaVuSans-30" x="63.623047"/>
      </g>
     </g>
    </g>
    <g id="text_4">
     <!-- Position [deg] -->
     <g transform="translate(27.045313 122.854687) rotate(-90) scale(0.1 -0.1)">
      <defs>
       <path id="DejaVuSans-50" d="M 1259 4147 
L 1259 2394 
L 2053 2394 
Q 2494 2394 2734 2622 
Q 2975 2850 2975 3272 
Q 2975 3691 2734 3919 
Q 2494 4147 2053 4147 
L 1259 4147 
z
M 628 4666 
L 2053 4666 
Q 2838 4666 3239 4311 
Q 3641 3956 3641 3272 
Q 3641 2581 3239 2228 
Q 2838 1875 2053 1875 
L 1259 1875 
L 1259 0 
L 628 0 
L 628 4666 
z
" transform="scale(0.015625)"/>
       <path id="DejaVuSans-6f" d="M 1959 3097 
Q 1497 3097 1228 2736 
Q 959 2375 959 1747 
Q 959 1119 1226 758 
Q 1494 397 1959 397 
Q 2419 397 2687 759 
Q 2956 1122 2956 1747 
Q 2956 2369 2687 2733 
Q 2419 3097 1959 3097 
z
M 1959 3584 
Q 2709 3584 3137 3096 
Q 3566 2609 3566 1747 
Q 3566 888 3137 398 
Q 2709 -91 1959 -91 
Q 1206 -91 779 398 
Q 353 888 353 1747 
Q 353 2609 779 3096 
Q 1206 3584 1959 3584 
z
" transform="scale(0.015625)"/>
       <path id="DejaVuSans-73" d="M 2834 3397 
L 2834 2853 
Q 2591 2978 2328 3040 
Q 2066 3103 1784 3103 
Q 1356 3103 1142 2972 
Q 928 2841 928 2578 
Q 928 2378 1081 2264 
Q 1234 2150 1697 2047 
L 1894 2003 
Q 2506 1872 2764 1633 
Q 3022 1394 3022 966 
Q 3022 478 2636 193 
Q 2250 -91 1575 -91 
Q 1294 -91 989 -36 
Q 684 19 347 128 
L 347 722 
Q 666 556 975 473 
Q 1284 391 1588 391 
Q 1994 391 2212 530 
Q 2431 669 2431 922 
Q 2431 1156 2273 1281 
Q 2116 1406 1581 1522 
L 1381 1569 
Q 847 1681 609 1914 
Q 372 2147 372 2553 
Q 372 3047 722 3315 
Q 1072 3584 1716 3584 
Q 2034 3584 2315 3537 
Q 2597 3491 2834 3397 
z
" transform="scale(0.015625)"/>
       <path id="DejaVuSans-69" d="M 603 3500 
L 1178 3500 
L 1178 0 
L 603 0 
L 603 3500 
z
M 603 4863 
L 1178 4863 
L 1178 4134 
L 603 4134 
L 603 4863 
z
" transform="scale(0.015625)"/>
       <path id="DejaVuSans-74" d="M 1172 4494 
L 1172 3500 
L 2356 3500 
L 2356 3053 
L 1172 3053 
L 1172 1153 
Q 1172 725 1289 603 
Q 1406 481 1766 481 
L 2356 481 
L 2356 0 
L 1766 0 
Q 1100 0 847 248 
Q 594 497 594 1153 
L 594 3053 
L 172 3053 
L 172 3500 
L 594 3500 
L 594 4494 
L 1172 4494 
z
" transform="scale(0.015625)"/>
       <path id="DejaVuSans-6e" d="M 3513 2113 
L 3513 0 
L 2938 0 
L 2938 2094 
Q 2938 2591 2744 2837 
Q 2550 3084 2163 3084 
Q 1697 3084 1428 2787 
Q 1159 2491 1159 1978 
L 1159 0 
L 581 0 
L 581 3500 
L 1159 3500 
L 1159 2956 
Q 1366 3272 1645 3428 
Q 1925 3584 2291 3584 
Q 2894 3584 3203 3211 
Q 3513 2838 3513 2113 
z
" transform="scale(0.015625)"/>
       <path id="DejaVuSans-20" transform="scale(0.015625)"/>
       <path id="DejaVuSans-5b" d="M 550 4863 
L 1875 4863 
L 1875 4416 
L 1125 4416 
L 1125 -397 
L 1875 -397 
L 1875 -844 
L 550 -844 
L 550 4863 
z
" transform="scale(0.015625)"/>
       <path id="DejaVuSans-64" d="M 2906 2969 
L 2906 4863 
L 3481 4863 
L 3481 0 
L 2906 0 
L 2906 525 
Q 2725 213 2448 61 
Q 2172 -91 1784 -91 
Q 1150 -91 751 415 
Q 353 922 353 1747 
Q 353 2572 751 3078 
Q 1150 3584 1784 3584 
Q 2172 3584 2448 3432 
Q 2725 3281 2906 2969 
z
M 947 1747 
Q 947 1113 1208 752 
Q 1469 391 1925 391 
Q 2381 391 2643 752 
Q 2906 1113 2906 1747 
Q 2906 2381 2643 2742 
Q 2381 3103 1925 3103 
Q 1469 3103 1208 2742 
Q 947 2381 947 1747 
z
" transform="scale(0.015625)"/>
       <path id="DejaVuSans-65" d="M 3597 1894 
L 3597 1613 
L 953 1613 
Q 991 1019 1311 708 
Q 1631 397 2203 397 
Q 2534 397 2845 478 
Q 3156 559 3463 722 
L 3463 178 
Q 3153 47 2828 -22 
Q 2503 -91 2169 -91 
Q 1331 -91 842 396 
Q 353 884 353 1716 
Q 353 2575 817 3079 
Q 1281 3584 2069 3584 
Q 2775 3584 3186 3129 
Q 3597 2675 3597 1894 
z
M 3022 2063 
Q 3016 2534 2758 2815 
Q 2500 3097 2075 3097 
Q 1594 3097 1305 2825 
Q 1016 2553 972 2059 
L 3022 2063 
z
" transform="scale(0.015625)"/>
       <path id="DejaVuSans-67" d="M 2906 1791 
Q 2906 2416 2648 2759 
Q 2391 3103 1925 3103 
Q 1463 3103 1205 2759 
Q 947 2416 947 1791 
Q 947 1169 1205 825 
Q 1463 481 1925 481 
Q 2391 481 2648 825 
Q 2906 1169 2906 1791 
z
M 3481 434 
Q 3481 -459 3084 -895 
Q 2688 -1331 1869 -1331 
Q 1566 -1331 1297 -1286 
Q 1028 -1241 775 -1147 
L 775 -588 
Q 1028 -725 1275 -790 
Q 1522 -856 1778 -856 
Q 2344 -856 2625 -561 
Q 2906 -266 2906 331 
L 2906 616 
Q 2728 306 2450 153 
Q 2172 0 1784 0 
Q 1141 0 747 490 
Q 353 981 353 1791 
Q 353 2603 747 3093 
Q 1141 3584 1784 3584 
Q 2172 3584 2450 3431 
Q 2728 3278 2906 2969 
L 2906 3500 
L 3481 3500 
L 3481 434 
z
" transform="scale(0.015625)"/>
       <path id="DejaVuSans-5d" d="M 1947 4863 
L 1947 -844 
L 622 -844 
L 622 -397 
L 1369 -397 
L 1369 4416 
L 622 4416 
L 622 4863 
L 1947 4863 
z
" transform="scale(0.015625)"/>
      </defs>
      <use xlink:href="#DejaVuSans-50"/>
      <use xlink:href="#DejaVuSans-6f" x="56.677734"/>
      <use xlink:href="#DejaVuSans-73" x="117.859375"/>
      <use xlink:href="#DejaVuSans-69" x="169.958984"/>
      <use xlink:href="#DejaVuSans-74" x="197.742188"/>
      <use xlink:href="#DejaVuSans-69" x="236.951172"/>
      <use xlink:href="#DejaVuSans-6f" x="264.734375"/>
      <use xlink:href="#DejaVuSans-6e" x="325.916016"/>
      <use xlink:href="#DejaVuSans-20" x="389.294922"/>
      <use xlink:href="#DejaVuSans-5b" x="421.082031"/>
      <use xlink:href="#DejaVuSans-64" x="460.095703"/>
      <use xlink:href="#DejaVuSans-65" x="523.572266"/>
      <use xlink:href="#DejaVuSans-67" x="585.095703"/>
      <use xlink:href="#DejaVuSans-5d" x="648.572266"/>
     </g>
    </g>
   </g>
   <g id="line2d_13">
    <path d="M 70.902273 128.961149 
L 72.042016 131.23606 
L 73.188369 131.680292 
L 74.335629 130.702763 
L 75.48162 129.510486 
L 76.625074 129.292081 
L 77.769124 129.606691 
L 78.918165 129.312447 
L 80.065969 128.343993 
L 82.324554 127.468156 
L 85.711113 124.673209 
L 87.963156 120.429556 
L 89.092323 119.381464 
L 90.222065 116.560734 
L 91.352208 112.342583 
L 92.484131 106.700559 
L 93.615057 102.213491 
L 94.741999 98.497682 
L 98.169804 90.870102 
L 99.302073 89.32016 
L 100.444175 89.508173 
L 101.568278 90.268564 
L 102.705109 90.056913 
L 103.84124 89.398918 
L 106.129052 88.370947 
L 107.274092 86.615228 
L 108.406598 84.382703 
L 109.530088 81.910035 
L 110.654987 80.352179 
L 111.793831 79.796897 
L 114.050178 79.705898 
L 115.172963 79.401031 
L 116.303029 78.816835 
L 117.444971 77.734552 
L 118.582787 76.025792 
L 119.709751 74.536564 
L 120.841117 74.027678 
L 121.97266 74.020784 
L 123.097049 73.678279 
L 124.227814 72.693926 
L 125.363673 72.160488 
L 126.492749 71.915173 
L 127.587872 71.904234 
L 129.86309 72.391908 
L 132.147151 73.457376 
L 133.293046 73.807022 
L 137.882593 74.514544 
L 141.315639 74.976786 
L 143.589984 75.849809 
L 145.846305 76.302484 
L 148.119673 77.489132 
L 149.241292 77.652804 
L 150.382962 77.361128 
L 151.546947 76.577029 
L 153.836529 74.164476 
L 154.980489 71.860651 
L 156.122842 68.593542 
L 157.265864 63.481826 
L 158.406229 57.069738 
L 160.690105 46.50366 
L 161.817319 42.519426 
L 162.940718 41.053448 
L 164.062087 41.312481 
L 165.185491 42.697872 
L 166.309222 45.028079 
L 167.434492 46.927068 
L 168.562432 48.011356 
L 169.709913 50.869196 
L 170.851216 57.080361 
L 171.994363 64.69074 
L 173.138824 69.070207 
L 174.281233 69.014066 
L 175.422017 68.166335 
L 176.567895 68.753169 
L 177.715039 68.851661 
L 178.857888 67.274141 
L 179.998379 66.95341 
L 181.139919 68.500151 
L 182.283585 70.505547 
L 183.428111 70.629576 
L 184.572213 70.307473 
L 185.717473 70.499321 
L 186.859303 71.245149 
L 188.003578 71.18243 
L 190.285535 69.434978 
L 192.573468 68.515066 
L 193.718412 68.277736 
L 196.012276 68.455197 
L 197.155493 68.359308 
L 198.300166 68.434338 
L 199.447102 69.337893 
L 200.588141 71.061356 
L 201.734797 71.77426 
L 202.881785 71.332454 
L 205.171165 69.563122 
L 206.315504 69.340918 
L 208.601614 70.201911 
L 210.881623 71.323203 
L 212.022031 71.690753 
L 214.313238 72.81996 
L 215.4548 73.101224 
L 216.450119 73.028621 
L 217.593932 72.45051 
L 218.737503 70.958573 
L 221.006676 66.270933 
L 222.143348 64.41718 
L 223.282546 62.856122 
L 224.424411 62.344071 
L 225.545136 65.747978 
L 226.675296 71.766662 
L 227.807099 74.652924 
L 228.943455 75.736333 
L 230.083479 79.032989 
L 231.227201 81.638656 
L 232.370957 81.489722 
L 233.512044 82.322891 
L 234.652664 85.025854 
L 236.940052 92.137338 
L 238.084388 94.469268 
L 239.22153 96.228505 
L 241.505708 102.738838 
L 242.650488 104.241996 
L 243.789683 105.47571 
L 246.051659 109.674549 
L 247.180692 111.061699 
L 249.453382 111.963953 
L 250.593691 112.655856 
L 251.726483 113.769832 
L 254.003074 116.347429 
L 255.142346 117.165367 
L 256.285723 117.197095 
L 257.430901 117.094981 
L 258.574536 117.314793 
L 259.714638 117.701971 
L 260.855258 117.81907 
L 264.281802 117.718855 
L 265.424491 117.827618 
L 266.571894 126.606002 
L 267.712415 131.671076 
L 268.842122 131.239155 
L 269.965603 128.922983 
L 271.089037 127.191289 
L 272.221194 127.610512 
L 273.345232 128.244481 
L 274.466964 128.648579 
L 275.591266 127.595668 
L 276.716061 126.237186 
L 277.838173 125.959299 
L 278.963248 125.283365 
L 281.221569 123.519169 
L 283.505838 119.406298 
L 284.650852 118.239242 
L 285.795188 115.035309 
L 286.933263 110.768581 
L 288.076626 105.050085 
L 289.219199 100.788316 
L 290.361357 97.48364 
L 292.644023 92.801312 
L 293.786285 89.884447 
L 294.932513 88.047789 
L 296.077622 88.088838 
L 297.219577 89.00073 
L 298.345486 88.960349 
L 299.486832 88.442283 
L 300.63217 88.054648 
L 301.771118 87.290951 
L 302.909155 85.580327 
L 304.050384 83.217582 
L 305.194802 80.528057 
L 306.334752 79.07928 
L 307.474508 78.769031 
L 308.614536 78.798825 
L 309.755675 78.586716 
L 312.041253 77.591528 
L 313.184919 76.94085 
L 314.32623 75.39826 
L 315.465066 73.586119 
L 316.610801 72.973149 
L 317.745731 73.137841 
L 318.888905 72.87114 
L 320.033992 71.750762 
L 321.17482 71.113697 
L 322.311538 70.938734 
L 324.561789 71.272128 
L 325.691267 71.44871 
L 326.82847 71.951228 
L 327.97303 72.621007 
L 329.11247 73.087153 
L 334.821822 73.524351 
L 335.960295 73.555763 
L 337.102773 73.805474 
L 339.392352 75.025926 
L 342.825436 76.100963 
L 343.968164 76.693284 
L 345.111286 76.978945 
L 346.251262 76.758289 
L 347.393973 75.884668 
L 349.682351 73.327121 
L 350.821912 71.017246 
L 351.96576 67.711725 
L 353.106743 62.630401 
L 354.250694 56.628495 
L 356.539991 46.440273 
L 357.687757 42.451784 
L 358.832317 40.920027 
L 359.97426 41.182015 
L 361.117701 42.50212 
L 362.263453 44.76792 
L 363.403879 46.421138 
L 364.546992 47.252478 
L 365.690585 50.216091 
L 366.831943 56.759067 
L 367.974732 64.638505 
L 369.119444 68.996021 
L 370.263421 68.923489 
L 371.405147 68.248751 
L 372.547936 68.86858 
L 373.692677 68.969569 
L 374.835574 67.346251 
L 375.981642 66.92038 
L 377.124228 68.426423 
L 378.266844 70.370332 
L 379.408194 70.367975 
L 380.550884 70.07359 
L 381.693159 70.420175 
L 382.837222 71.285636 
L 383.979553 71.195656 
L 385.123794 70.336387 
L 386.263835 69.664322 
L 389.683384 68.115436 
L 394.261732 68.375841 
L 395.406262 69.410953 
L 396.549514 71.173109 
L 397.691538 71.878591 
L 398.825375 71.395735 
L 401.106779 69.527841 
L 402.249305 69.292622 
L 404.527754 70.098671 
L 406.818555 71.291545 
L 407.963228 71.679321 
L 410.2489 72.835085 
L 411.394381 73.119585 
L 412.536556 73.013003 
L 413.677505 72.392436 
L 414.815679 70.841896 
L 417.101689 66.208039 
L 419.389181 62.859148 
L 420.530894 62.325428 
L 421.674664 65.819595 
L 422.821224 71.884535 
L 423.964549 74.744451 
L 425.106348 75.688459 
L 426.247474 79.073722 
L 427.393075 81.602249 
L 428.537964 81.363723 
L 429.681638 82.211385 
L 430.824557 85.03004 
L 431.947727 88.686718 
L 431.947727 88.686718 
" clip-path="url(#p788839ec60)" style="fill: none; stroke: #1f77b4; stroke-width: 1.5; stroke-linecap: square"/>
   </g>
   <g id="line2d_14">
    <path d="M 70.902273 116.226917 
L 72.042016 115.218838 
L 73.188369 115.717381 
L 74.335629 115.823049 
L 75.48162 116.0907 
L 77.769124 115.907505 
L 78.918165 116.051549 
L 80.065969 117.066559 
L 81.197888 118.649108 
L 83.457544 120.658989 
L 84.584089 120.659446 
L 85.711113 121.022968 
L 89.092323 120.478081 
L 91.352208 112.962535 
L 92.484131 110.469412 
L 93.615057 110.346685 
L 95.880882 114.264823 
L 98.169804 119.065605 
L 99.302073 120.229512 
L 100.444175 122.866081 
L 101.568278 124.526052 
L 102.705109 124.981875 
L 103.84124 124.750578 
L 106.129052 123.650426 
L 107.274092 120.768279 
L 109.530088 111.510469 
L 110.654987 109.340188 
L 111.793831 108.440203 
L 112.923348 108.881146 
L 114.050178 110.069888 
L 115.172963 113.172357 
L 117.444971 116.968771 
L 118.582787 117.641521 
L 119.709751 117.568286 
L 120.841117 118.07543 
L 121.97266 119.29655 
L 123.097049 118.872315 
L 125.363673 118.956279 
L 126.492749 119.476983 
L 127.587872 120.106574 
L 128.731732 120.360841 
L 129.86309 120.775719 
L 132.147151 121.333217 
L 134.439667 122.033387 
L 139.023853 122.407022 
L 140.169005 122.639251 
L 142.454782 123.869623 
L 143.589984 124.134618 
L 144.716952 124.206552 
L 145.846305 124.647162 
L 146.98155 125.917458 
L 150.382962 130.926708 
L 151.546947 131.344629 
L 152.693252 132.02934 
L 153.836529 131.768653 
L 154.980489 131.392908 
L 156.122842 130.378707 
L 157.265864 126.201958 
L 159.547242 114.811135 
L 160.690105 106.992376 
L 161.817319 101.492848 
L 162.940718 99.351394 
L 164.062087 98.603068 
L 165.185491 99.354401 
L 166.309222 101.504562 
L 167.434492 104.460683 
L 168.562432 106.338215 
L 169.709913 108.921669 
L 171.994363 115.546692 
L 173.138824 117.237635 
L 174.281233 119.276659 
L 175.422017 120.358906 
L 176.567895 125.956415 
L 177.715039 130.085097 
L 178.857888 133.489461 
L 179.998379 135.931702 
L 181.139919 137.348012 
L 182.283585 137.434948 
L 183.428111 135.514924 
L 184.572213 134.914177 
L 185.717473 131.599635 
L 186.859303 127.18596 
L 188.003578 120.967303 
L 189.144621 116.487709 
L 190.285535 111.039908 
L 191.430588 107.525796 
L 192.573468 105.849081 
L 193.718412 105.713409 
L 194.863292 106.577568 
L 197.155493 110.289401 
L 198.300166 110.750975 
L 200.588141 118.481039 
L 201.734797 121.405538 
L 202.881785 125.008714 
L 204.028134 127.562831 
L 205.171165 128.903742 
L 207.459015 128.859913 
L 208.601614 127.834703 
L 209.743612 127.158171 
L 210.881623 125.304453 
L 212.022031 123.974552 
L 213.166872 122.868033 
L 214.313238 122.676995 
L 215.4548 122.698645 
L 216.450119 123.420571 
L 217.593932 126.018816 
L 219.878291 132.952611 
L 221.006676 135.222667 
L 222.143348 135.86369 
L 223.282546 136.160185 
L 224.424411 135.897898 
L 225.545136 136.891081 
L 226.675296 138.303979 
L 227.807099 138.450714 
L 228.943455 138.351747 
L 230.083479 139.448751 
L 231.227201 137.946366 
L 233.512044 129.760461 
L 234.652664 122.872677 
L 235.795665 121.022388 
L 236.940052 119.597706 
L 238.084388 118.943018 
L 239.22153 118.850682 
L 240.362223 121.426784 
L 241.505708 123.59557 
L 242.650488 125.02799 
L 243.789683 124.964622 
L 244.921273 126.036791 
L 246.051659 126.841855 
L 251.726483 124.355363 
L 252.861957 124.309599 
L 255.142346 124.974981 
L 256.285723 125.687357 
L 257.430901 125.688307 
L 258.574536 125.352362 
L 262.000276 125.227278 
L 264.281802 125.222828 
L 265.424491 124.987908 
L 266.571894 116.354288 
L 267.712415 115.046477 
L 271.089037 116.292537 
L 272.221194 116.038605 
L 273.345232 116.020859 
L 274.466964 115.772009 
L 278.963248 120.720124 
L 280.086592 120.551176 
L 281.221569 120.980265 
L 284.650852 120.398127 
L 285.795188 117.04278 
L 286.933263 113.132802 
L 288.076626 110.600969 
L 289.219199 110.367139 
L 291.500448 113.998192 
L 292.644023 116.377416 
L 293.786285 119.022093 
L 294.932513 120.38024 
L 296.077622 122.891408 
L 297.219577 124.583705 
L 298.345486 124.944466 
L 299.486832 124.72242 
L 301.771118 123.480704 
L 302.909155 120.759063 
L 305.194802 111.756593 
L 306.334752 109.218445 
L 307.474508 108.454431 
L 308.614536 108.732371 
L 309.755675 110.015348 
L 310.89855 113.126647 
L 313.184919 116.966484 
L 314.32623 117.72895 
L 315.465066 117.461932 
L 316.610801 117.900677 
L 317.745731 119.32645 
L 320.033992 118.859599 
L 321.17482 118.915282 
L 322.311538 119.451903 
L 323.43988 120.143666 
L 324.561789 120.30609 
L 325.691267 120.663192 
L 326.82847 120.883005 
L 329.11247 121.764909 
L 330.254836 121.985196 
L 332.53751 122.191642 
L 334.821822 122.388344 
L 335.960295 122.596407 
L 338.249092 123.85455 
L 339.392352 124.174877 
L 340.538407 124.208751 
L 341.681299 124.657486 
L 342.825436 125.777424 
L 345.111286 129.290568 
L 346.251262 130.976182 
L 347.393973 131.298813 
L 348.538521 131.94381 
L 349.682351 131.749483 
L 350.821912 131.393769 
L 351.96576 130.483302 
L 353.106743 126.196963 
L 355.39563 114.818522 
L 356.539991 106.835563 
L 357.687757 101.332483 
L 358.832317 98.989648 
L 359.97426 98.419874 
L 361.117701 99.303907 
L 362.263453 101.670819 
L 363.403879 104.696553 
L 364.546992 106.401197 
L 365.690585 108.817672 
L 367.974732 115.575641 
L 369.119444 117.241821 
L 370.263421 119.230438 
L 371.405147 120.282434 
L 372.547936 125.875757 
L 373.692677 129.961754 
L 374.835574 133.430102 
L 375.981642 135.874506 
L 377.124228 137.336193 
L 378.266844 137.532912 
L 379.408194 135.626325 
L 380.550884 134.94726 
L 381.693159 131.545728 
L 382.837222 127.38187 
L 383.979553 120.718365 
L 385.123794 116.339497 
L 386.263835 110.804741 
L 387.406913 107.427146 
L 388.548557 105.826973 
L 389.683384 105.692796 
L 390.826864 106.771491 
L 391.972176 108.609679 
L 393.115976 110.190452 
L 394.261732 110.56407 
L 395.406262 114.702953 
L 396.549514 118.347302 
L 397.691538 121.315699 
L 398.825375 124.968983 
L 399.967118 127.537646 
L 401.106779 128.888089 
L 403.390469 128.83223 
L 404.527754 127.851904 
L 405.672552 127.149729 
L 406.818555 125.306687 
L 409.105826 122.852943 
L 410.2489 122.633483 
L 411.394381 122.665141 
L 412.536556 123.477362 
L 413.677505 126.057703 
L 415.959432 132.977251 
L 417.101689 135.216406 
L 418.245139 135.897212 
L 419.389181 136.119065 
L 420.530894 135.864675 
L 421.674664 136.764853 
L 422.821224 138.247522 
L 423.964549 138.429854 
L 425.106348 138.174022 
L 426.247474 139.563968 
L 427.393075 137.991391 
L 429.681638 129.777996 
L 430.824557 123.01658 
L 431.947727 121.027224 
L 431.947727 121.027224 
" clip-path="url(#p788839ec60)" style="fill: none; stroke: #ff7f0e; stroke-width: 1.5; stroke-linecap: square"/>
   </g>
   <g id="line2d_15">
    <path d="M 70.902273 129.307225 
L 73.188369 129.096587 
L 74.335629 128.794937 
L 75.48162 128.619638 
L 76.625074 127.789867 
L 77.769124 127.382136 
L 78.918165 126.667279 
L 80.065969 126.271799 
L 81.197888 125.75959 
L 82.324554 124.84964 
L 84.584089 122.39398 
L 85.711113 120.141244 
L 86.833328 118.73532 
L 87.963156 117.7652 
L 89.092323 113.414303 
L 90.222065 109.579799 
L 91.352208 103.196721 
L 92.484131 99.313897 
L 93.615057 94.5546 
L 94.741999 91.752201 
L 95.880882 89.546336 
L 97.030834 86.694095 
L 98.169804 85.816698 
L 100.444175 85.576765 
L 101.568278 85.159884 
L 103.84124 84.68505 
L 104.987697 83.285004 
L 107.274092 79.69264 
L 108.406598 76.682463 
L 109.530088 74.736794 
L 110.654987 73.222789 
L 111.793831 72.824712 
L 112.923348 72.916514 
L 115.172963 72.463835 
L 116.303029 71.891325 
L 117.444971 70.674816 
L 118.582787 69.909715 
L 121.97266 67.060464 
L 124.227814 66.004725 
L 125.363673 65.045331 
L 126.492749 65.430382 
L 127.587872 66.169919 
L 128.731732 66.412936 
L 129.86309 67.336736 
L 131.002116 67.643634 
L 132.147151 68.323952 
L 139.023853 69.041326 
L 141.315639 70.332265 
L 142.454782 70.571285 
L 143.589984 71.139589 
L 144.716952 71.273859 
L 145.846305 71.839835 
L 146.98155 71.957562 
L 150.382962 71.299193 
L 151.546947 70.398566 
L 152.693252 69.145438 
L 153.836529 65.761056 
L 154.980489 62.753131 
L 156.122842 54.613389 
L 158.406229 46.303486 
L 159.547242 39.076464 
L 160.690105 35.061128 
L 162.940718 32.479545 
L 164.062087 33.121228 
L 165.185491 35.51308 
L 166.309222 36.104973 
L 167.434492 38.766176 
L 168.562432 45.097441 
L 169.709913 50.650188 
L 170.851216 55.481208 
L 171.994363 58.084117 
L 173.138824 59.065485 
L 175.422017 59.572651 
L 176.567895 59.378643 
L 177.715039 60.250188 
L 178.857888 61.449749 
L 179.998379 63.451438 
L 181.139919 64.228075 
L 183.428111 64.755077 
L 184.572213 64.75301 
L 185.717473 65.027115 
L 186.859303 63.547932 
L 189.144621 61.357651 
L 190.285535 60.469104 
L 191.430588 60.009479 
L 192.573468 60.812862 
L 194.863292 61.823194 
L 196.012276 63.029042 
L 198.300166 63.654492 
L 201.734797 63.71209 
L 202.881785 63.941323 
L 205.171165 64.748824 
L 206.315504 64.877276 
L 212.022031 66.417886 
L 213.166872 66.222285 
L 214.313238 65.876992 
L 215.4548 65.412207 
L 216.450119 64.424024 
L 217.593932 63.542648 
L 221.006676 60.618986 
L 222.143348 58.177669 
L 223.282546 58.651179 
L 224.424411 63.044518 
L 225.545136 67.849358 
L 226.675296 66.157232 
L 227.807099 70.712663 
L 228.943455 73.362509 
L 230.083479 75.348069 
L 231.227201 76.612326 
L 233.512044 81.596496 
L 234.652664 85.425402 
L 235.795665 87.885471 
L 236.940052 90.847339 
L 238.084388 93.31621 
L 239.22153 97.178719 
L 240.362223 99.852776 
L 242.650488 104.054834 
L 243.789683 105.475515 
L 244.921273 107.749011 
L 246.051659 109.349266 
L 247.180692 110.126794 
L 248.311734 111.311235 
L 249.453382 112.29486 
L 250.593691 113.856861 
L 252.861957 115.826787 
L 254.003074 116.689931 
L 256.285723 117.326446 
L 259.714638 117.435096 
L 262.000276 117.519623 
L 263.140914 117.514563 
L 264.281802 117.626307 
L 265.424491 129.307225 
L 267.712415 129.245082 
L 268.842122 129.096587 
L 269.965603 128.794937 
L 271.089037 128.619638 
L 272.221194 127.789867 
L 273.345232 127.382136 
L 274.466964 126.667279 
L 276.716061 125.75959 
L 277.838173 124.84964 
L 280.086592 122.39398 
L 281.221569 120.141244 
L 282.363071 118.73532 
L 283.505838 117.7652 
L 284.650852 113.414303 
L 285.795188 109.579799 
L 286.933263 103.196721 
L 288.076626 99.313897 
L 289.219199 94.5546 
L 290.361357 91.752201 
L 291.500448 89.546336 
L 292.644023 86.694095 
L 293.786285 85.816698 
L 296.077622 85.576765 
L 297.219577 85.159884 
L 299.486832 84.68505 
L 300.63217 83.285004 
L 302.909155 79.69264 
L 304.050384 76.682463 
L 305.194802 74.736794 
L 306.334752 73.222789 
L 307.474508 72.824712 
L 308.614536 72.916514 
L 310.89855 72.463835 
L 312.041253 71.891325 
L 313.184919 70.674816 
L 314.32623 69.909715 
L 317.745731 67.060464 
L 320.033992 66.004725 
L 321.17482 65.045331 
L 322.311538 65.430382 
L 323.43988 66.169919 
L 324.561789 66.412936 
L 325.691267 67.336736 
L 326.82847 67.643634 
L 327.97303 68.323952 
L 334.821822 69.041326 
L 337.102773 70.332265 
L 338.249092 70.571285 
L 339.392352 71.139589 
L 340.538407 71.273859 
L 341.681299 71.839835 
L 342.825436 71.957562 
L 346.251262 71.299193 
L 347.393973 70.398566 
L 348.538521 69.145438 
L 349.682351 65.761056 
L 350.821912 62.753131 
L 351.96576 54.613389 
L 354.250694 46.303486 
L 355.39563 39.076464 
L 356.539991 35.061128 
L 358.832317 32.479545 
L 359.97426 33.121228 
L 361.117701 35.51308 
L 362.263453 36.104973 
L 363.403879 38.766176 
L 364.546992 45.097441 
L 365.690585 50.650188 
L 366.831943 55.481208 
L 367.974732 58.084117 
L 369.119444 59.065485 
L 371.405147 59.572651 
L 372.547936 59.378643 
L 373.692677 60.250188 
L 374.835574 61.449749 
L 375.981642 63.451438 
L 377.124228 64.228075 
L 379.408194 64.755077 
L 380.550884 64.75301 
L 381.693159 65.027115 
L 382.837222 63.547932 
L 385.123794 61.357651 
L 386.263835 60.469104 
L 387.406913 60.009479 
L 388.548557 60.812862 
L 390.826864 61.823194 
L 391.972176 63.029042 
L 394.261732 63.654492 
L 397.691538 63.71209 
L 398.825375 63.941323 
L 401.106779 64.748824 
L 402.249305 64.877276 
L 407.963228 66.417886 
L 409.105826 66.222285 
L 410.2489 65.876992 
L 411.394381 65.412207 
L 417.101689 60.618986 
L 418.245139 58.177669 
L 419.389181 58.651179 
L 421.674664 67.849358 
L 422.821224 66.157232 
L 423.964549 70.712663 
L 425.106348 73.362509 
L 426.247474 75.348069 
L 427.393075 76.612326 
L 429.681638 81.596496 
L 430.824557 85.425402 
L 431.947727 87.885471 
L 431.947727 87.885471 
" clip-path="url(#p788839ec60)" style="fill: none; stroke-dasharray: 5.55,2.4; stroke-dashoffset: 0; stroke: #2ca02c; stroke-width: 1.5"/>
   </g>
   <g id="line2d_16">
    <path d="M 70.902273 118.808251 
L 75.48162 118.837656 
L 77.769124 119.185951 
L 78.918165 119.997429 
L 80.065969 121.489464 
L 82.324554 123.792607 
L 84.584089 124.131889 
L 86.833328 123.671383 
L 87.963156 123.217281 
L 90.222065 115.683784 
L 91.352208 113.42777 
L 92.484131 113.284411 
L 93.615057 115.247671 
L 95.880882 118.615479 
L 97.030834 121.56682 
L 98.169804 122.863878 
L 99.302073 125.704558 
L 100.444175 127.014663 
L 101.568278 128.116648 
L 102.705109 127.905043 
L 103.84124 127.019634 
L 104.987697 126.412335 
L 106.129052 123.47881 
L 108.406598 114.597093 
L 109.530088 112.408874 
L 110.654987 111.653274 
L 111.793831 111.849153 
L 112.923348 113.035642 
L 114.050178 116.344088 
L 115.172963 118.124859 
L 116.303029 119.338863 
L 117.444971 119.777138 
L 118.582787 119.951101 
L 119.709751 120.930907 
L 120.841117 122.325694 
L 121.97266 121.450749 
L 124.227814 122.093088 
L 126.492749 123.60729 
L 127.587872 123.41074 
L 128.731732 124.015022 
L 129.86309 124.144112 
L 133.293046 125.401593 
L 134.439667 125.425643 
L 135.590272 125.685711 
L 136.735553 125.781447 
L 143.589984 127.510821 
L 144.716952 128.181673 
L 145.846305 129.37358 
L 148.119673 133.567096 
L 149.241292 135.091055 
L 150.382962 134.81911 
L 151.546947 135.722115 
L 152.693252 135.237982 
L 153.836529 134.978338 
L 154.980489 134.275163 
L 156.122842 129.259193 
L 158.406229 116.954905 
L 159.547242 107.913715 
L 160.690105 104.34378 
L 161.817319 102.510263 
L 162.940718 102.000227 
L 164.062087 102.258165 
L 165.185491 104.328219 
L 166.309222 105.911944 
L 167.434492 106.818781 
L 168.562432 110.74296 
L 171.994363 119.743796 
L 173.138824 123.52831 
L 174.281233 126.251162 
L 175.422017 130.894116 
L 176.567895 132.795479 
L 177.715039 137.055436 
L 178.857888 139.089792 
L 179.998379 140.401818 
L 181.139919 139.931581 
L 182.283585 138.526306 
L 183.428111 137.992172 
L 184.572213 134.65239 
L 185.717473 130.426117 
L 186.859303 123.941479 
L 188.003578 120.333989 
L 189.144621 115.198473 
L 190.285535 111.602628 
L 191.430588 109.203405 
L 192.573468 108.586316 
L 194.863292 109.801168 
L 196.012276 111.385556 
L 197.155493 112.00318 
L 198.300166 118.141455 
L 199.447102 121.90907 
L 200.588141 124.718956 
L 201.734797 129.088584 
L 202.881785 130.982674 
L 204.028134 131.826385 
L 205.171165 131.9031 
L 206.315504 131.519394 
L 207.459015 130.505183 
L 208.601614 130.319999 
L 209.743612 128.246263 
L 210.881623 127.028294 
L 212.022031 126.270358 
L 213.166872 126.41674 
L 214.313238 126.935869 
L 215.4548 128.10495 
L 217.593932 133.597434 
L 218.737503 136.650572 
L 219.878291 138.275295 
L 221.006676 138.744676 
L 222.143348 138.754018 
L 223.282546 138.951473 
L 224.424411 139.905188 
L 225.545136 141.015878 
L 226.675296 141.863067 
L 227.807099 143.822817 
L 228.943455 144.470455 
L 230.083479 141.286489 
L 232.370957 133.99286 
L 233.512044 125.782176 
L 234.652664 123.884461 
L 235.795665 122.589114 
L 236.940052 121.766047 
L 238.084388 121.95418 
L 239.22153 124.378203 
L 241.505708 127.96659 
L 242.650488 128.264034 
L 243.789683 129.248679 
L 244.921273 130.056673 
L 246.051659 129.619925 
L 250.593691 127.126108 
L 251.726483 127.159138 
L 252.861957 127.843889 
L 254.003074 128.164825 
L 255.142346 128.682267 
L 256.285723 128.867836 
L 257.430901 128.435039 
L 259.714638 128.278312 
L 263.140914 128.327847 
L 264.281802 128.105462 
L 265.424491 118.808251 
L 271.089037 118.837656 
L 273.345232 119.185951 
L 274.466964 119.997429 
L 275.591266 121.489464 
L 277.838173 123.792607 
L 280.086592 124.131889 
L 282.363071 123.671383 
L 283.505838 123.217281 
L 285.795188 115.683784 
L 286.933263 113.42777 
L 288.076626 113.284411 
L 289.219199 115.247671 
L 291.500448 118.615479 
L 292.644023 121.56682 
L 293.786285 122.863878 
L 294.932513 125.704558 
L 296.077622 127.014663 
L 297.219577 128.116648 
L 298.345486 127.905043 
L 299.486832 127.019634 
L 300.63217 126.412335 
L 301.771118 123.47881 
L 304.050384 114.597093 
L 305.194802 112.408874 
L 306.334752 111.653274 
L 307.474508 111.849153 
L 308.614536 113.035642 
L 309.755675 116.344088 
L 310.89855 118.124859 
L 312.041253 119.338863 
L 313.184919 119.777138 
L 314.32623 119.951101 
L 315.465066 120.930907 
L 316.610801 122.325694 
L 317.745731 121.450749 
L 320.033992 122.093088 
L 322.311538 123.60729 
L 323.43988 123.41074 
L 324.561789 124.015022 
L 325.691267 124.144112 
L 329.11247 125.401593 
L 330.254836 125.425643 
L 331.395037 125.685711 
L 332.53751 125.781447 
L 339.392352 127.510821 
L 340.538407 128.181673 
L 341.681299 129.37358 
L 343.968164 133.567096 
L 345.111286 135.091055 
L 346.251262 134.81911 
L 347.393973 135.722115 
L 348.538521 135.237982 
L 349.682351 134.978338 
L 350.821912 134.275163 
L 351.96576 129.259193 
L 354.250694 116.954905 
L 355.39563 107.913715 
L 356.539991 104.34378 
L 357.687757 102.510263 
L 358.832317 102.000227 
L 359.97426 102.258165 
L 361.117701 104.328219 
L 362.263453 105.911944 
L 363.403879 106.818781 
L 364.546992 110.74296 
L 365.690585 113.851202 
L 366.831943 116.625892 
L 367.974732 119.743796 
L 369.119444 123.52831 
L 370.263421 126.251162 
L 371.405147 130.894116 
L 372.547936 132.795479 
L 373.692677 137.055436 
L 374.835574 139.089792 
L 375.981642 140.401818 
L 377.124228 139.931581 
L 378.266844 138.526306 
L 379.408194 137.992172 
L 380.550884 134.65239 
L 381.693159 130.426117 
L 382.837222 123.941479 
L 383.979553 120.333989 
L 385.123794 115.198473 
L 386.263835 111.602628 
L 387.406913 109.203405 
L 388.548557 108.586316 
L 390.826864 109.801168 
L 391.972176 111.385556 
L 393.115976 112.00318 
L 394.261732 118.141455 
L 395.406262 121.90907 
L 396.549514 124.718956 
L 397.691538 129.088584 
L 398.825375 130.982674 
L 399.967118 131.826385 
L 401.106779 131.9031 
L 402.249305 131.519394 
L 403.390469 130.505183 
L 404.527754 130.319999 
L 405.672552 128.246263 
L 406.818555 127.028294 
L 407.963228 126.270358 
L 409.105826 126.41674 
L 410.2489 126.935869 
L 411.394381 128.10495 
L 412.536556 130.592017 
L 414.815679 136.650572 
L 415.959432 138.275295 
L 417.101689 138.744676 
L 418.245139 138.754018 
L 419.389181 138.951473 
L 420.530894 139.905188 
L 421.674664 141.015878 
L 422.821224 141.863067 
L 423.964549 143.822817 
L 425.106348 144.470455 
L 426.247474 141.286489 
L 428.537964 133.99286 
L 429.681638 125.782176 
L 430.824557 123.884461 
L 431.947727 122.589114 
L 431.947727 122.589114 
" clip-path="url(#p788839ec60)" style="fill: none; stroke-dasharray: 5.55,2.4; stroke-dashoffset: 0; stroke: #d62728; stroke-width: 1.5"/>
   </g>
   <g id="patch_3">
    <path d="M 52.85 150.07 
L 52.85 26.88 
" style="fill: none; stroke: #000000; stroke-width: 0.8; stroke-linejoin: miter; stroke-linecap: square"/>
   </g>
   <g id="patch_4">
    <path d="M 450 150.07 
L 450 26.88 
" style="fill: none; stroke: #000000; stroke-width: 0.8; stroke-linejoin: miter; stroke-linecap: square"/>
   </g>
   <g id="patch_5">
    <path d="M 52.85 150.07 
L 450 150.07 
" style="fill: none; stroke: #000000; stroke-width: 0.8; stroke-linejoin: miter; stroke-linecap: square"/>
   </g>
   <g id="patch_6">
    <path d="M 52.85 26.88 
L 450 26.88 
" style="fill: none; stroke: #000000; stroke-width: 0.8; stroke-linejoin: miter; stroke-linecap: square"/>
   </g>
   <g id="text_5">
    <!-- Time vs Position and Reference -->
    <g transform="translate(157.583125 20.88) scale(0.12 -0.12)">
     <defs>
      <path id="DejaVuSans-54" d="M -19 4666 
L 3928 4666 
L 3928 4134 
L 2272 4134 
L 2272 0 
L 1638 0 
L 1638 4134 
L -19 4134 
L -19 4666 
z
" transform="scale(0.015625)"/>
      <path id="DejaVuSans-6d" d="M 3328 2828 
Q 3544 3216 3844 3400 
Q 4144 3584 4550 3584 
Q 5097 3584 5394 3201 
Q 5691 2819 5691 2113 
L 5691 0 
L 5113 0 
L 5113 2094 
Q 5113 2597 4934 2840 
Q 4756 3084 4391 3084 
Q 3944 3084 3684 2787 
Q 3425 2491 3425 1978 
L 3425 0 
L 2847 0 
L 2847 2094 
Q 2847 2600 2669 2842 
Q 2491 3084 2119 3084 
Q 1678 3084 1418 2786 
Q 1159 2488 1159 1978 
L 1159 0 
L 581 0 
L 581 3500 
L 1159 3500 
L 1159 2956 
Q 1356 3278 1631 3431 
Q 1906 3584 2284 3584 
Q 2666 3584 2933 3390 
Q 3200 3197 3328 2828 
z
" transform="scale(0.015625)"/>
      <path id="DejaVuSans-76" d="M 191 3500 
L 800 3500 
L 1894 563 
L 2988 3500 
L 3597 3500 
L 2284 0 
L 1503 0 
L 191 3500 
z
" transform="scale(0.015625)"/>
      <path id="DejaVuSans-61" d="M 2194 1759 
Q 1497 1759 1228 1600 
Q 959 1441 959 1056 
Q 959 750 1161 570 
Q 1363 391 1709 391 
Q 2188 391 2477 730 
Q 2766 1069 2766 1631 
L 2766 1759 
L 2194 1759 
z
M 3341 1997 
L 3341 0 
L 2766 0 
L 2766 531 
Q 2569 213 2275 61 
Q 1981 -91 1556 -91 
Q 1019 -91 701 211 
Q 384 513 384 1019 
Q 384 1609 779 1909 
Q 1175 2209 1959 2209 
L 2766 2209 
L 2766 2266 
Q 2766 2663 2505 2880 
Q 2244 3097 1772 3097 
Q 1472 3097 1187 3025 
Q 903 2953 641 2809 
L 641 3341 
Q 956 3463 1253 3523 
Q 1550 3584 1831 3584 
Q 2591 3584 2966 3190 
Q 3341 2797 3341 1997 
z
" transform="scale(0.015625)"/>
      <path id="DejaVuSans-52" d="M 2841 2188 
Q 3044 2119 3236 1894 
Q 3428 1669 3622 1275 
L 4263 0 
L 3584 0 
L 2988 1197 
Q 2756 1666 2539 1819 
Q 2322 1972 1947 1972 
L 1259 1972 
L 1259 0 
L 628 0 
L 628 4666 
L 2053 4666 
Q 2853 4666 3247 4331 
Q 3641 3997 3641 3322 
Q 3641 2881 3436 2590 
Q 3231 2300 2841 2188 
z
M 1259 4147 
L 1259 2491 
L 2053 2491 
Q 2509 2491 2742 2702 
Q 2975 2913 2975 3322 
Q 2975 3731 2742 3939 
Q 2509 4147 2053 4147 
L 1259 4147 
z
" transform="scale(0.015625)"/>
      <path id="DejaVuSans-66" d="M 2375 4863 
L 2375 4384 
L 1825 4384 
Q 1516 4384 1395 4259 
Q 1275 4134 1275 3809 
L 1275 3500 
L 2222 3500 
L 2222 3053 
L 1275 3053 
L 1275 0 
L 697 0 
L 697 3053 
L 147 3053 
L 147 3500 
L 697 3500 
L 697 3744 
Q 697 4328 969 4595 
Q 1241 4863 1831 4863 
L 2375 4863 
z
" transform="scale(0.015625)"/>
      <path id="DejaVuSans-72" d="M 2631 2963 
Q 2534 3019 2420 3045 
Q 2306 3072 2169 3072 
Q 1681 3072 1420 2755 
Q 1159 2438 1159 1844 
L 1159 0 
L 581 0 
L 581 3500 
L 1159 3500 
L 1159 2956 
Q 1341 3275 1631 3429 
Q 1922 3584 2338 3584 
Q 2397 3584 2469 3576 
Q 2541 3569 2628 3553 
L 2631 2963 
z
" transform="scale(0.015625)"/>
      <path id="DejaVuSans-63" d="M 3122 3366 
L 3122 2828 
Q 2878 2963 2633 3030 
Q 2388 3097 2138 3097 
Q 1578 3097 1268 2742 
Q 959 2388 959 1747 
Q 959 1106 1268 751 
Q 1578 397 2138 397 
Q 2388 397 2633 464 
Q 2878 531 3122 666 
L 3122 134 
Q 2881 22 2623 -34 
Q 2366 -91 2075 -91 
Q 1284 -91 818 406 
Q 353 903 353 1747 
Q 353 2603 823 3093 
Q 1294 3584 2113 3584 
Q 2378 3584 2631 3529 
Q 2884 3475 3122 3366 
z
" transform="scale(0.015625)"/>
     </defs>
     <use xlink:href="#DejaVuSans-54"/>
     <use xlink:href="#DejaVuSans-69" x="57.958984"/>
     <use xlink:href="#DejaVuSans-6d" x="85.742188"/>
     <use xlink:href="#DejaVuSans-65" x="183.154297"/>
     <use xlink:href="#DejaVuSans-20" x="244.677734"/>
     <use xlink:href="#DejaVuSans-76" x="276.464844"/>
     <use xlink:href="#DejaVuSans-73" x="335.644531"/>
     <use xlink:href="#DejaVuSans-20" x="387.744141"/>
     <use xlink:href="#DejaVuSans-50" x="419.53125"/>
     <use xlink:href="#DejaVuSans-6f" x="476.208984"/>
     <use xlink:href="#DejaVuSans-73" x="537.390625"/>
     <use xlink:href="#DejaVuSans-69" x="589.490234"/>
     <use xlink:href="#DejaVuSans-74" x="617.273438"/>
     <use xlink:href="#DejaVuSans-69" x="656.482422"/>
     <use xlink:href="#DejaVuSans-6f" x="684.265625"/>
     <use xlink:href="#DejaVuSans-6e" x="745.447266"/>
     <use xlink:href="#DejaVuSans-20" x="808.826172"/>
     <use xlink:href="#DejaVuSans-61" x="840.613281"/>
     <use xlink:href="#DejaVuSans-6e" x="901.892578"/>
     <use xlink:href="#DejaVuSans-64" x="965.271484"/>
     <use xlink:href="#DejaVuSans-20" x="1028.748047"/>
     <use xlink:href="#DejaVuSans-52" x="1060.535156"/>
     <use xlink:href="#DejaVuSans-65" x="1125.517578"/>
     <use xlink:href="#DejaVuSans-66" x="1187.041016"/>
     <use xlink:href="#DejaVuSans-65" x="1222.246094"/>
     <use xlink:href="#DejaVuSans-72" x="1283.769531"/>
     <use xlink:href="#DejaVuSans-65" x="1322.632812"/>
     <use xlink:href="#DejaVuSans-6e" x="1384.15625"/>
     <use xlink:href="#DejaVuSans-63" x="1447.535156"/>
     <use xlink:href="#DejaVuSans-65" x="1502.515625"/>
    </g>
   </g>
   <g id="legend_1">
    <g id="patch_7">
     <path d="M 59.85 94.705 
L 129.671875 94.705 
Q 131.671875 94.705 131.671875 92.705 
L 131.671875 33.88 
Q 131.671875 31.88 129.671875 31.88 
L 59.85 31.88 
Q 57.85 31.88 57.85 33.88 
L 57.85 92.705 
Q 57.85 94.705 59.85 94.705 
z
" style="fill: #ffffff; opacity: 0.8; stroke: #cccccc; stroke-linejoin: miter"/>
    </g>
    <g id="line2d_17">
     <path d="M 61.85 39.978437 
L 71.85 39.978437 
L 81.85 39.978437 
" style="fill: none; stroke: #1f77b4; stroke-width: 1.5; stroke-linecap: square"/>
    </g>
    <g id="text_6">
     <!-- theta_1 -->
     <g transform="translate(89.85 43.478437) scale(0.1 -0.1)">
      <defs>
       <path id="DejaVuSans-68" d="M 3513 2113 
L 3513 0 
L 2938 0 
L 2938 2094 
Q 2938 2591 2744 2837 
Q 2550 3084 2163 3084 
Q 1697 3084 1428 2787 
Q 1159 2491 1159 1978 
L 1159 0 
L 581 0 
L 581 4863 
L 1159 4863 
L 1159 2956 
Q 1366 3272 1645 3428 
Q 1925 3584 2291 3584 
Q 2894 3584 3203 3211 
Q 3513 2838 3513 2113 
z
" transform="scale(0.015625)"/>
       <path id="DejaVuSans-5f" d="M 3263 -1063 
L 3263 -1509 
L -63 -1509 
L -63 -1063 
L 3263 -1063 
z
" transform="scale(0.015625)"/>
       <path id="DejaVuSans-31" d="M 794 531 
L 1825 531 
L 1825 4091 
L 703 3866 
L 703 4441 
L 1819 4666 
L 2450 4666 
L 2450 531 
L 3481 531 
L 3481 0 
L 794 0 
L 794 531 
z
" transform="scale(0.015625)"/>
      </defs>
      <use xlink:href="#DejaVuSans-74"/>
      <use xlink:href="#DejaVuSans-68" x="39.208984"/>
      <use xlink:href="#DejaVuSans-65" x="102.587891"/>
      <use xlink:href="#DejaVuSans-74" x="164.111328"/>
      <use xlink:href="#DejaVuSans-61" x="203.320312"/>
      <use xlink:href="#DejaVuSans-5f" x="264.599609"/>
      <use xlink:href="#DejaVuSans-31" x="314.599609"/>
     </g>
    </g>
    <g id="line2d_18">
     <path d="M 61.85 54.934687 
L 71.85 54.934687 
L 81.85 54.934687 
" style="fill: none; stroke: #ff7f0e; stroke-width: 1.5; stroke-linecap: square"/>
    </g>
    <g id="text_7">
     <!-- theta_2 -->
     <g transform="translate(89.85 58.434687) scale(0.1 -0.1)">
      <use xlink:href="#DejaVuSans-74"/>
      <use xlink:href="#DejaVuSans-68" x="39.208984"/>
      <use xlink:href="#DejaVuSans-65" x="102.587891"/>
      <use xlink:href="#DejaVuSans-74" x="164.111328"/>
      <use xlink:href="#DejaVuSans-61" x="203.320312"/>
      <use xlink:href="#DejaVuSans-5f" x="264.599609"/>
      <use xlink:href="#DejaVuSans-32" x="314.599609"/>
     </g>
    </g>
    <g id="line2d_19">
     <path d="M 61.85 69.890938 
L 71.85 69.890938 
L 81.85 69.890938 
" style="fill: none; stroke-dasharray: 5.55,2.4; stroke-dashoffset: 0; stroke: #2ca02c; stroke-width: 1.5"/>
    </g>
    <g id="text_8">
     <!-- Ref_1 -->
     <g transform="translate(89.85 73.390938) scale(0.1 -0.1)">
      <use xlink:href="#DejaVuSans-52"/>
      <use xlink:href="#DejaVuSans-65" x="64.982422"/>
      <use xlink:href="#DejaVuSans-66" x="126.505859"/>
      <use xlink:href="#DejaVuSans-5f" x="161.710938"/>
      <use xlink:href="#DejaVuSans-31" x="211.710938"/>
     </g>
    </g>
    <g id="line2d_20">
     <path d="M 61.85 84.847187 
L 71.85 84.847187 
L 81.85 84.847187 
" style="fill: none; stroke-dasharray: 5.55,2.4; stroke-dashoffset: 0; stroke: #d62728; stroke-width: 1.5"/>
    </g>
    <g id="text_9">
     <!-- Ref_2 -->
     <g transform="translate(89.85 88.347187) scale(0.1 -0.1)">
      <use xlink:href="#DejaVuSans-52"/>
      <use xlink:href="#DejaVuSans-65" x="64.982422"/>
      <use xlink:href="#DejaVuSans-66" x="126.505859"/>
      <use xlink:href="#DejaVuSans-5f" x="161.710938"/>
      <use xlink:href="#DejaVuSans-32" x="211.710938"/>
     </g>
    </g>
   </g>
  </g>
  <g id="axes_2">
   <g id="patch_8">
    <path d="M 52.85 303.64 
L 450 303.64 
L 450 180.45 
L 52.85 180.45 
z
" style="fill: #ffffff"/>
   </g>
   <g id="matplotlib.axis_3">
    <g id="xtick_10">
     <g id="line2d_21">
      <g>
       <use xlink:href="#m34ff496c6b" x="69.890973" y="303.64" style="stroke: #000000; stroke-width: 0.8"/>
      </g>
     </g>
     <g id="text_10">
      <!-- 0.0 -->
      <g transform="translate(61.93941 318.238437) scale(0.1 -0.1)">
       <defs>
        <path id="DejaVuSans-2e" d="M 684 794 
L 1344 794 
L 1344 0 
L 684 0 
L 684 794 
z
" transform="scale(0.015625)"/>
       </defs>
       <use xlink:href="#DejaVuSans-30"/>
       <use xlink:href="#DejaVuSans-2e" x="63.623047"/>
       <use xlink:href="#DejaVuSans-30" x="95.410156"/>
      </g>
     </g>
    </g>
    <g id="xtick_11">
     <g id="line2d_22">
      <g>
       <use xlink:href="#m34ff496c6b" x="115.192789" y="303.64" style="stroke: #000000; stroke-width: 0.8"/>
      </g>
     </g>
     <g id="text_11">
      <!-- 2.5 -->
      <g transform="translate(107.241227 318.238437) scale(0.1 -0.1)">
       <defs>
        <path id="DejaVuSans-35" d="M 691 4666 
L 3169 4666 
L 3169 4134 
L 1269 4134 
L 1269 2991 
Q 1406 3038 1543 3061 
Q 1681 3084 1819 3084 
Q 2600 3084 3056 2656 
Q 3513 2228 3513 1497 
Q 3513 744 3044 326 
Q 2575 -91 1722 -91 
Q 1428 -91 1123 -41 
Q 819 9 494 109 
L 494 744 
Q 775 591 1075 516 
Q 1375 441 1709 441 
Q 2250 441 2565 725 
Q 2881 1009 2881 1497 
Q 2881 1984 2565 2268 
Q 2250 2553 1709 2553 
Q 1456 2553 1204 2497 
Q 953 2441 691 2322 
L 691 4666 
z
" transform="scale(0.015625)"/>
       </defs>
       <use xlink:href="#DejaVuSans-32"/>
       <use xlink:href="#DejaVuSans-2e" x="63.623047"/>
       <use xlink:href="#DejaVuSans-35" x="95.410156"/>
      </g>
     </g>
    </g>
    <g id="xtick_12">
     <g id="line2d_23">
      <g>
       <use xlink:href="#m34ff496c6b" x="160.494606" y="303.64" style="stroke: #000000; stroke-width: 0.8"/>
      </g>
     </g>
     <g id="text_12">
      <!-- 5.0 -->
      <g transform="translate(152.543043 318.238437) scale(0.1 -0.1)">
       <use xlink:href="#DejaVuSans-35"/>
       <use xlink:href="#DejaVuSans-2e" x="63.623047"/>
       <use xlink:href="#DejaVuSans-30" x="95.410156"/>
      </g>
     </g>
    </g>
    <g id="xtick_13">
     <g id="line2d_24">
      <g>
       <use xlink:href="#m34ff496c6b" x="205.796423" y="303.64" style="stroke: #000000; stroke-width: 0.8"/>
      </g>
     </g>
     <g id="text_13">
      <!-- 7.5 -->
      <g transform="translate(197.84486 318.238437) scale(0.1 -0.1)">
       <defs>
        <path id="DejaVuSans-37" d="M 525 4666 
L 3525 4666 
L 3525 4397 
L 1831 0 
L 1172 0 
L 2766 4134 
L 525 4134 
L 525 4666 
z
" transform="scale(0.015625)"/>
       </defs>
       <use xlink:href="#DejaVuSans-37"/>
       <use xlink:href="#DejaVuSans-2e" x="63.623047"/>
       <use xlink:href="#DejaVuSans-35" x="95.410156"/>
      </g>
     </g>
    </g>
    <g id="xtick_14">
     <g id="line2d_25">
      <g>
       <use xlink:href="#m34ff496c6b" x="251.098239" y="303.64" style="stroke: #000000; stroke-width: 0.8"/>
      </g>
     </g>
     <g id="text_14">
      <!-- 10.0 -->
      <g transform="translate(239.965427 318.238437) scale(0.1 -0.1)">
       <use xlink:href="#DejaVuSans-31"/>
       <use xlink:href="#DejaVuSans-30" x="63.623047"/>
       <use xlink:href="#DejaVuSans-2e" x="127.246094"/>
       <use xlink:href="#DejaVuSans-30" x="159.033203"/>
      </g>
     </g>
    </g>
    <g id="xtick_15">
     <g id="line2d_26">
      <g>
       <use xlink:href="#m34ff496c6b" x="296.400056" y="303.64" style="stroke: #000000; stroke-width: 0.8"/>
      </g>
     </g>
     <g id="text_15">
      <!-- 12.5 -->
      <g transform="translate(285.267243 318.238437) scale(0.1 -0.1)">
       <use xlink:href="#DejaVuSans-31"/>
       <use xlink:href="#DejaVuSans-32" x="63.623047"/>
       <use xlink:href="#DejaVuSans-2e" x="127.246094"/>
       <use xlink:href="#DejaVuSans-35" x="159.033203"/>
      </g>
     </g>
    </g>
    <g id="xtick_16">
     <g id="line2d_27">
      <g>
       <use xlink:href="#m34ff496c6b" x="341.701872" y="303.64" style="stroke: #000000; stroke-width: 0.8"/>
      </g>
     </g>
     <g id="text_16">
      <!-- 15.0 -->
      <g transform="translate(330.56906 318.238437) scale(0.1 -0.1)">
       <use xlink:href="#DejaVuSans-31"/>
       <use xlink:href="#DejaVuSans-35" x="63.623047"/>
       <use xlink:href="#DejaVuSans-2e" x="127.246094"/>
       <use xlink:href="#DejaVuSans-30" x="159.033203"/>
      </g>
     </g>
    </g>
    <g id="xtick_17">
     <g id="line2d_28">
      <g>
       <use xlink:href="#m34ff496c6b" x="387.003689" y="303.64" style="stroke: #000000; stroke-width: 0.8"/>
      </g>
     </g>
     <g id="text_17">
      <!-- 17.5 -->
      <g transform="translate(375.870877 318.238437) scale(0.1 -0.1)">
       <use xlink:href="#DejaVuSans-31"/>
       <use xlink:href="#DejaVuSans-37" x="63.623047"/>
       <use xlink:href="#DejaVuSans-2e" x="127.246094"/>
       <use xlink:href="#DejaVuSans-35" x="159.033203"/>
      </g>
     </g>
    </g>
    <g id="xtick_18">
     <g id="line2d_29">
      <g>
       <use xlink:href="#m34ff496c6b" x="432.305506" y="303.64" style="stroke: #000000; stroke-width: 0.8"/>
      </g>
     </g>
     <g id="text_18">
      <!-- 20.0 -->
      <g transform="translate(421.172693 318.238437) scale(0.1 -0.1)">
       <use xlink:href="#DejaVuSans-32"/>
       <use xlink:href="#DejaVuSans-30" x="63.623047"/>
       <use xlink:href="#DejaVuSans-2e" x="127.246094"/>
       <use xlink:href="#DejaVuSans-30" x="159.033203"/>
      </g>
     </g>
    </g>
    <g id="text_19">
     <!-- Time [s] -->
     <g transform="translate(231.096094 331.916562) scale(0.1 -0.1)">
      <use xlink:href="#DejaVuSans-54"/>
      <use xlink:href="#DejaVuSans-69" x="57.958984"/>
      <use xlink:href="#DejaVuSans-6d" x="85.742188"/>
      <use xlink:href="#DejaVuSans-65" x="183.154297"/>
      <use xlink:href="#DejaVuSans-20" x="244.677734"/>
      <use xlink:href="#DejaVuSans-5b" x="276.464844"/>
      <use xlink:href="#DejaVuSans-73" x="315.478516"/>
      <use xlink:href="#DejaVuSans-5d" x="367.578125"/>
     </g>
    </g>
   </g>
   <g id="matplotlib.axis_4">
    <g id="ytick_4">
     <g id="line2d_30">
      <g>
       <use xlink:href="#m048d04c335" x="52.85" y="303.400344" style="stroke: #000000; stroke-width: 0.8"/>
      </g>
     </g>
     <g id="text_20">
      <!-- 40 -->
      <g transform="translate(24.745313 307.199563) scale(0.1 -0.1)">
       <defs>
        <path id="DejaVuSans-2212" d="M 678 2272 
L 4684 2272 
L 4684 1741 
L 678 1741 
L 678 2272 
z
" transform="scale(0.015625)"/>
       </defs>
       <use xlink:href="#DejaVuSans-2212"/>
       <use xlink:href="#DejaVuSans-34" x="83.789062"/>
       <use xlink:href="#DejaVuSans-30" x="147.412109"/>
      </g>
     </g>
    </g>
    <g id="ytick_5">
     <g id="line2d_31">
      <g>
       <use xlink:href="#m048d04c335" x="52.85" y="262.437007" style="stroke: #000000; stroke-width: 0.8"/>
      </g>
     </g>
     <g id="text_21">
      <!-- 20 -->
      <g transform="translate(24.745313 266.236226) scale(0.1 -0.1)">
       <use xlink:href="#DejaVuSans-2212"/>
       <use xlink:href="#DejaVuSans-32" x="83.789062"/>
       <use xlink:href="#DejaVuSans-30" x="147.412109"/>
      </g>
     </g>
    </g>
    <g id="ytick_6">
     <g id="line2d_32">
      <g>
       <use xlink:href="#m048d04c335" x="52.85" y="221.47367" style="stroke: #000000; stroke-width: 0.8"/>
      </g>
     </g>
     <g id="text_22">
      <!-- 0 -->
      <g transform="translate(39.4875 225.272889) scale(0.1 -0.1)">
       <use xlink:href="#DejaVuSans-30"/>
      </g>
     </g>
    </g>
    <g id="ytick_7">
     <g id="line2d_33">
      <g>
       <use xlink:href="#m048d04c335" x="52.85" y="180.510332" style="stroke: #000000; stroke-width: 0.8"/>
      </g>
     </g>
     <g id="text_23">
      <!-- 20 -->
      <g transform="translate(33.125 184.309551) scale(0.1 -0.1)">
       <use xlink:href="#DejaVuSans-32"/>
       <use xlink:href="#DejaVuSans-30" x="63.623047"/>
      </g>
     </g>
    </g>
    <g id="text_24">
     <!-- Current [A] -->
     <g transform="translate(18.665625 269.7325) rotate(-90) scale(0.1 -0.1)">
      <defs>
       <path id="DejaVuSans-43" d="M 4122 4306 
L 4122 3641 
Q 3803 3938 3442 4084 
Q 3081 4231 2675 4231 
Q 1875 4231 1450 3742 
Q 1025 3253 1025 2328 
Q 1025 1406 1450 917 
Q 1875 428 2675 428 
Q 3081 428 3442 575 
Q 3803 722 4122 1019 
L 4122 359 
Q 3791 134 3420 21 
Q 3050 -91 2638 -91 
Q 1578 -91 968 557 
Q 359 1206 359 2328 
Q 359 3453 968 4101 
Q 1578 4750 2638 4750 
Q 3056 4750 3426 4639 
Q 3797 4528 4122 4306 
z
" transform="scale(0.015625)"/>
       <path id="DejaVuSans-75" d="M 544 1381 
L 544 3500 
L 1119 3500 
L 1119 1403 
Q 1119 906 1312 657 
Q 1506 409 1894 409 
Q 2359 409 2629 706 
Q 2900 1003 2900 1516 
L 2900 3500 
L 3475 3500 
L 3475 0 
L 2900 0 
L 2900 538 
Q 2691 219 2414 64 
Q 2138 -91 1772 -91 
Q 1169 -91 856 284 
Q 544 659 544 1381 
z
M 1991 3584 
L 1991 3584 
z
" transform="scale(0.015625)"/>
       <path id="DejaVuSans-41" d="M 2188 4044 
L 1331 1722 
L 3047 1722 
L 2188 4044 
z
M 1831 4666 
L 2547 4666 
L 4325 0 
L 3669 0 
L 3244 1197 
L 1141 1197 
L 716 0 
L 50 0 
L 1831 4666 
z
" transform="scale(0.015625)"/>
      </defs>
      <use xlink:href="#DejaVuSans-43"/>
      <use xlink:href="#DejaVuSans-75" x="69.824219"/>
      <use xlink:href="#DejaVuSans-72" x="133.203125"/>
      <use xlink:href="#DejaVuSans-72" x="172.566406"/>
      <use xlink:href="#DejaVuSans-65" x="211.429688"/>
      <use xlink:href="#DejaVuSans-6e" x="272.953125"/>
      <use xlink:href="#DejaVuSans-74" x="336.332031"/>
      <use xlink:href="#DejaVuSans-20" x="375.541016"/>
      <use xlink:href="#DejaVuSans-5b" x="407.328125"/>
      <use xlink:href="#DejaVuSans-41" x="446.341797"/>
      <use xlink:href="#DejaVuSans-5d" x="514.75"/>
     </g>
    </g>
   </g>
   <g id="line2d_34">
    <path d="M 70.902273 210.194275 
L 72.042016 228.029161 
L 73.188369 225.240543 
L 74.335629 221.684377 
L 75.48162 212.736896 
L 76.625074 220.140831 
L 77.769124 225.838807 
L 78.918165 226.458027 
L 80.065969 222.507664 
L 81.197888 222.425075 
L 82.324554 226.79428 
L 83.457544 227.300689 
L 85.711113 235.99456 
L 86.833328 232.120433 
L 87.963156 223.573322 
L 89.092323 243.700455 
L 91.352208 257.951001 
L 92.484131 251.708432 
L 93.615057 252.120682 
L 94.741999 251.917902 
L 95.880882 252.843233 
L 97.030834 255.872957 
L 98.169804 244.877549 
L 99.302073 239.218442 
L 100.444175 243.086864 
L 101.568278 251.610152 
L 102.705109 251.78235 
L 103.84124 247.463207 
L 104.987697 253.260517 
L 106.129052 261.244468 
L 107.274092 260.383504 
L 108.406598 265.653898 
L 109.530088 262.834668 
L 110.654987 266.767383 
L 111.793831 269.610732 
L 112.923348 269.253652 
L 114.050178 270.582065 
L 115.172963 269.476729 
L 116.303029 267.905632 
L 117.444971 267.589317 
L 118.582787 259.79873 
L 119.709751 257.864463 
L 120.841117 264.028297 
L 121.97266 272.301369 
L 123.097049 271.769576 
L 124.227814 268.157383 
L 125.363673 272.344404 
L 126.492749 269.949389 
L 127.587872 264.597117 
L 128.731732 265.163444 
L 129.86309 260.038444 
L 131.002116 263.322103 
L 132.147151 262.646575 
L 133.293046 263.384487 
L 136.735553 263.022656 
L 137.882593 266.245864 
L 139.023853 265.780811 
L 140.169005 263.767154 
L 141.315639 260.261744 
L 142.454782 262.029673 
L 143.589984 260.292215 
L 144.716952 260.393337 
L 145.846305 259.051825 
L 146.98155 263.016464 
L 148.119673 269.288542 
L 149.241292 271.757391 
L 150.382962 270.574092 
L 151.546947 268.764429 
L 152.693252 269.628487 
L 153.836529 282.534988 
L 154.980489 286.734737 
L 156.122842 296.989721 
L 157.265864 297.871495 
L 158.406229 279.263022 
L 159.547242 291.58496 
L 160.690105 288.244992 
L 161.817319 276.405028 
L 162.940718 279.033711 
L 164.062087 280.595459 
L 165.185491 279.943242 
L 166.309222 291.499758 
L 167.434492 282.421307 
L 168.562432 251.005988 
L 169.709913 235.203599 
L 170.851216 249.617988 
L 171.994363 283.564603 
L 173.138824 294.437325 
L 174.281233 284.58262 
L 175.422017 279.945945 
L 176.567895 288.077229 
L 177.715039 279.278907 
L 178.857888 256.819784 
L 179.998379 242.83776 
L 182.283585 263.185443 
L 183.428111 259.224362 
L 184.572213 257.751426 
L 185.717473 258.668981 
L 186.859303 276.927961 
L 188.003578 282.301137 
L 189.144621 282.659045 
L 190.285535 285.900477 
L 191.430588 285.854556 
L 192.573468 277.650668 
L 193.718412 271.226907 
L 194.863292 270.801794 
L 196.012276 262.343996 
L 197.155493 257.435814 
L 198.300166 257.388658 
L 199.447102 267.118377 
L 200.588141 280.568844 
L 201.734797 283.63062 
L 202.881785 278.415477 
L 205.171165 257.06678 
L 206.315504 256.845454 
L 207.459015 257.475193 
L 208.601614 259.930994 
L 209.743612 263.373138 
L 210.881623 263.634187 
L 212.022031 264.318477 
L 215.4548 284.934871 
L 216.450119 289.622464 
L 217.593932 293.533462 
L 218.737503 286.373809 
L 219.878291 275.608057 
L 221.006676 263.481127 
L 222.143348 267.502607 
L 223.282546 255.304731 
L 224.424411 227.448139 
L 225.545136 226.585815 
L 226.675296 274.893756 
L 227.807099 265.665348 
L 228.943455 253.039329 
L 230.083479 268.029502 
L 231.227201 269.720593 
L 232.370957 246.60894 
L 233.512044 241.842618 
L 234.652664 239.27127 
L 235.795665 245.055954 
L 236.940052 249.467991 
L 238.084388 245.032456 
L 239.22153 231.668311 
L 240.362223 236.12317 
L 241.505708 243.110907 
L 242.650488 233.57276 
L 243.789683 231.801747 
L 244.921273 233.077601 
L 246.051659 235.975113 
L 247.180692 236.94508 
L 248.311734 230.242345 
L 249.453382 226.436368 
L 250.593691 222.217048 
L 251.726483 222.685558 
L 252.861957 223.844397 
L 254.003074 225.275538 
L 255.142346 228.02706 
L 256.285723 224.622234 
L 257.430901 223.371315 
L 258.574536 225.86177 
L 259.714638 227.735537 
L 260.855258 227.603872 
L 262.000276 225.868057 
L 263.140914 226.218207 
L 264.281802 225.061196 
L 265.424491 186.108519 
L 267.712415 247.043796 
L 269.965603 214.654192 
L 271.089037 207.185878 
L 272.221194 219.199935 
L 273.345232 227.386672 
L 274.466964 234.501228 
L 275.591266 227.010884 
L 276.716061 220.674206 
L 277.838173 222.997025 
L 278.963248 229.359932 
L 280.086592 230.915949 
L 281.221569 238.339597 
L 282.363071 234.476699 
L 283.505838 226.991529 
L 284.650852 241.956635 
L 285.795188 250.610772 
L 286.933263 254.079537 
L 288.076626 249.496375 
L 289.219199 253.615656 
L 290.361357 256.568607 
L 291.500448 256.69843 
L 292.644023 258.183336 
L 293.786285 245.743137 
L 294.932513 237.670657 
L 296.077622 241.938241 
L 297.219577 251.684404 
L 298.345486 252.579794 
L 299.486832 250.310359 
L 300.63217 255.772343 
L 301.771118 263.452312 
L 302.909155 261.517858 
L 304.050384 263.148874 
L 305.194802 261.368998 
L 306.334752 265.452647 
L 307.474508 270.880437 
L 308.614536 269.713346 
L 309.755675 269.691352 
L 310.89855 267.279945 
L 312.041253 268.292023 
L 313.184919 271.75877 
L 314.32623 263.342569 
L 315.465066 257.316359 
L 316.610801 263.980535 
L 317.745731 272.970885 
L 318.888905 273.677435 
L 320.033992 268.160063 
L 321.17482 272.119425 
L 322.311538 269.573913 
L 323.43988 266.523008 
L 324.561789 266.307584 
L 325.691267 260.368108 
L 326.82847 262.813807 
L 327.97303 263.579213 
L 329.11247 265.84557 
L 330.254836 263.935219 
L 331.395037 262.296683 
L 332.53751 263.91276 
L 333.678489 264.975007 
L 334.821822 264.297815 
L 335.960295 261.285191 
L 337.102773 257.677752 
L 338.249092 261.289363 
L 339.392352 262.268232 
L 340.538407 263.701184 
L 341.681299 261.33373 
L 342.825436 263.803263 
L 343.968164 269.552692 
L 345.111286 273.739854 
L 346.251262 272.741014 
L 347.393973 270.062027 
L 348.538521 269.73859 
L 349.682351 282.960933 
L 350.821912 287.14877 
L 351.96576 298.040455 
L 353.106743 295.728915 
L 354.250694 278.410601 
L 355.39563 291.899736 
L 356.539991 289.846701 
L 357.687757 276.832824 
L 358.832317 281.258005 
L 359.97426 283.733512 
L 361.117701 280.520297 
L 362.263453 291.249081 
L 363.403879 282.157383 
L 364.546992 247.77014 
L 365.690585 232.950654 
L 366.831943 250.441235 
L 367.974732 284.326853 
L 369.119444 293.934565 
L 370.263421 285.955251 
L 371.405147 280.44597 
L 372.547936 288.944839 
L 373.692677 280.339907 
L 374.835574 257.270383 
L 375.981642 243.330777 
L 378.266844 263.060894 
L 379.408194 257.270289 
L 380.550884 256.249909 
L 381.693159 259.145372 
L 382.837222 276.036256 
L 383.979553 282.01141 
L 385.123794 284.917034 
L 386.263835 286.638526 
L 387.406913 288.940955 
L 388.548557 277.478756 
L 389.683384 270.404551 
L 390.826864 269.139721 
L 391.972176 260.570218 
L 393.115976 256.711673 
L 394.261732 257.302085 
L 395.406262 267.048973 
L 396.549514 281.739595 
L 397.691538 284.170793 
L 398.825375 278.630455 
L 401.106779 257.12816 
L 402.249305 256.71156 
L 403.390469 257.05235 
L 405.672552 261.869113 
L 406.818555 262.975711 
L 407.963228 265.886003 
L 409.105826 270.933379 
L 410.2489 278.688233 
L 411.394381 284.694074 
L 412.536556 289.784735 
L 413.677505 292.200354 
L 414.815679 284.856802 
L 417.101689 263.21936 
L 418.245139 267.61412 
L 419.389181 256.561271 
L 420.530894 229.089926 
L 421.674664 227.330991 
L 422.821224 277.229763 
L 423.964549 267.013735 
L 425.106348 252.128603 
L 426.247474 267.645111 
L 427.393075 269.395039 
L 428.537964 247.588467 
L 429.681638 242.220567 
L 430.824557 238.488118 
L 431.947727 244.444965 
L 431.947727 244.444965 
" clip-path="url(#p321d8e0311)" style="fill: none; stroke: #1f77b4; stroke-width: 1.5; stroke-linecap: square"/>
   </g>
   <g id="line2d_35">
    <path d="M 70.902273 222.554011 
L 72.042016 220.029124 
L 74.335629 224.219656 
L 75.48162 224.470761 
L 76.625074 223.463475 
L 77.769124 221.311253 
L 78.918165 218.079 
L 80.065969 218.270286 
L 81.197888 220.760705 
L 82.324554 219.916061 
L 83.457544 221.170753 
L 84.584089 219.134905 
L 85.711113 223.043851 
L 86.833328 222.59917 
L 87.963156 223.546979 
L 89.092323 222.204943 
L 90.222065 225.614115 
L 91.352208 221.622782 
L 92.484131 226.574032 
L 93.615057 218.954833 
L 94.741999 219.292513 
L 95.880882 222.24293 
L 97.030834 222.928795 
L 98.169804 222.506705 
L 99.302073 217.650815 
L 100.444175 223.509732 
L 101.568278 222.577821 
L 102.705109 222.960211 
L 103.84124 225.116169 
L 104.987697 224.595823 
L 106.129052 223.449077 
L 107.274092 229.190622 
L 108.406598 224.998292 
L 109.530088 227.170203 
L 110.654987 223.306068 
L 111.793831 220.741475 
L 112.923348 220.419082 
L 114.050178 209.814694 
L 115.172963 214.825829 
L 116.303029 221.663818 
L 117.444971 229.456919 
L 118.582787 229.091921 
L 119.709751 223.282452 
L 120.841117 221.216554 
L 121.97266 223.814808 
L 123.097049 224.369115 
L 124.227814 222.835571 
L 125.363673 220.998214 
L 126.492749 216.847546 
L 127.587872 220.889234 
L 128.731732 221.293515 
L 129.86309 220.897557 
L 131.002116 221.780864 
L 132.147151 220.215912 
L 133.293046 219.337502 
L 134.439667 221.378618 
L 135.590272 219.646815 
L 136.735553 219.145722 
L 137.882593 217.340988 
L 139.023853 218.590101 
L 140.169005 218.481537 
L 141.315639 219.097913 
L 142.454782 221.950421 
L 143.589984 221.075091 
L 144.716952 217.799882 
L 145.846305 220.298798 
L 146.98155 217.956013 
L 148.119673 210.388007 
L 149.241292 205.762153 
L 150.382962 217.199491 
L 151.546947 214.419438 
L 152.693252 220.744073 
L 153.836529 220.357326 
L 154.980489 220.20563 
L 156.122842 237.048163 
L 157.265864 232.384916 
L 158.406229 228.356882 
L 159.547242 253.195598 
L 160.690105 244.089442 
L 161.817319 222.983459 
L 162.940718 221.493145 
L 164.062087 218.322681 
L 165.185491 213.606646 
L 166.309222 221.793101 
L 167.434492 237.972239 
L 168.562432 231.452776 
L 169.709913 221.681265 
L 170.851216 225.301726 
L 171.994363 229.319983 
L 173.138824 211.215789 
L 174.281233 208.824474 
L 175.422017 186.107867 
L 176.567895 212.461005 
L 177.715039 208.222723 
L 178.857888 210.574883 
L 179.998379 218.972418 
L 181.139919 223.787263 
L 182.283585 229.312335 
L 183.428111 224.551692 
L 184.572213 223.985819 
L 185.717473 224.608498 
L 186.859303 233.839769 
L 188.003578 228.636522 
L 189.144621 233.10023 
L 190.285535 228.160466 
L 191.430588 221.767483 
L 192.573468 222.283921 
L 193.718412 222.265849 
L 194.863292 230.499457 
L 196.012276 236.040441 
L 197.155493 230.465791 
L 198.300166 214.072466 
L 199.447102 221.036799 
L 200.588141 211.331675 
L 201.734797 203.171493 
L 202.881785 209.068665 
L 204.028134 219.172305 
L 205.171165 224.616416 
L 206.315504 223.978763 
L 207.459015 227.656289 
L 208.601614 225.032164 
L 209.743612 225.228572 
L 210.881623 222.259021 
L 212.022031 222.506922 
L 214.313238 215.885657 
L 215.4548 203.56282 
L 216.450119 204.818071 
L 217.593932 203.518508 
L 218.737503 207.379557 
L 219.878291 213.445227 
L 221.006676 222.593517 
L 222.143348 224.261219 
L 223.282546 224.510426 
L 224.424411 221.554332 
L 225.545136 220.421514 
L 226.675296 222.756924 
L 227.807099 220.70984 
L 228.943455 197.150624 
L 230.083479 224.192234 
L 231.227201 234.666754 
L 232.370957 222.511044 
L 233.512044 240.690706 
L 234.652664 225.093895 
L 235.795665 222.087727 
L 236.940052 222.659339 
L 238.084388 222.200238 
L 239.22153 210.524191 
L 240.362223 216.593963 
L 241.505708 220.077799 
L 242.650488 222.78044 
L 243.789683 216.97799 
L 244.921273 217.068643 
L 246.051659 221.340519 
L 247.180692 222.253764 
L 248.311734 222.651625 
L 249.453382 223.529474 
L 250.593691 223.842174 
L 251.726483 224.412114 
L 252.861957 222.580033 
L 254.003074 220.228199 
L 255.142346 219.801244 
L 256.285723 222.213806 
L 257.430901 222.278442 
L 258.574536 222.583979 
L 259.714638 222.014431 
L 262.000276 221.219023 
L 263.140914 222.046763 
L 264.281802 222.632682 
L 265.424491 227.050912 
L 267.712415 217.572461 
L 268.842122 220.129936 
L 269.965603 226.272837 
L 271.089037 228.581367 
L 272.221194 222.895413 
L 273.345232 221.543685 
L 274.466964 218.419027 
L 275.591266 220.285387 
L 276.716061 218.164323 
L 278.963248 221.704912 
L 280.086592 219.039919 
L 281.221569 221.28643 
L 282.363071 222.272354 
L 283.505838 225.552722 
L 284.650852 222.309971 
L 285.795188 230.736742 
L 286.933263 226.139126 
L 288.076626 223.724559 
L 289.219199 219.517719 
L 290.361357 216.272699 
L 291.500448 222.011663 
L 292.644023 221.909139 
L 293.786285 225.472419 
L 294.932513 219.899485 
L 296.077622 222.454645 
L 297.219577 223.819663 
L 298.345486 222.448144 
L 299.486832 225.647647 
L 300.63217 223.335733 
L 301.771118 222.59303 
L 302.909155 227.641526 
L 304.050384 224.037024 
L 306.334752 223.355012 
L 307.474508 220.927711 
L 308.614536 220.651699 
L 309.755675 211.638446 
L 310.89855 214.864332 
L 312.041253 220.48216 
L 313.184919 231.004516 
L 314.32623 230.540047 
L 315.465066 223.21085 
L 316.610801 220.607103 
L 317.745731 224.34516 
L 318.888905 231.346187 
L 320.033992 222.631058 
L 321.17482 220.603817 
L 322.311538 218.134871 
L 323.43988 220.646831 
L 324.561789 222.019168 
L 325.691267 220.698348 
L 326.82847 220.857499 
L 327.97303 220.804283 
L 329.11247 220.631302 
L 330.254836 220.730344 
L 331.395037 219.452435 
L 332.53751 219.558013 
L 333.678489 218.907369 
L 334.821822 217.726772 
L 335.960295 218.19118 
L 337.102773 220.104716 
L 338.249092 221.611716 
L 339.392352 222.596411 
L 340.538407 217.095314 
L 341.681299 220.565766 
L 342.825436 215.992817 
L 343.968164 210.568973 
L 345.111286 206.418603 
L 346.251262 218.681006 
L 347.393973 213.947372 
L 348.538521 219.636838 
L 349.682351 219.893957 
L 350.821912 220.397666 
L 351.96576 239.205413 
L 353.106743 228.627456 
L 354.250694 232.200562 
L 355.39563 261.173646 
L 356.539991 245.917636 
L 357.687757 223.434549 
L 358.832317 220.404158 
L 359.97426 218.180275 
L 361.117701 214.791498 
L 362.263453 228.186127 
L 363.403879 238.117977 
L 364.546992 231.331736 
L 365.690585 220.545146 
L 366.831943 224.52143 
L 367.974732 229.727881 
L 369.119444 212.566508 
L 370.263421 207.886816 
L 371.405147 186.049545 
L 372.547936 211.95082 
L 373.692677 205.707357 
L 374.835574 209.991012 
L 375.981642 218.977292 
L 377.124228 223.880813 
L 378.266844 231.375321 
L 379.408194 224.552029 
L 380.550884 222.451054 
L 381.693159 224.745441 
L 382.837222 230.950419 
L 383.979553 230.629277 
L 385.123794 231.684576 
L 386.263835 222.872278 
L 387.406913 221.827644 
L 388.548557 221.957102 
L 389.683384 221.291994 
L 390.826864 231.125757 
L 391.972176 237.006756 
L 393.115976 240.507318 
L 394.261732 204.082224 
L 395.406262 220.409637 
L 396.549514 210.034746 
L 397.691538 203.207164 
L 398.825375 208.318326 
L 399.967118 218.942427 
L 401.106779 222.888293 
L 402.249305 225.890219 
L 403.390469 228.210018 
L 404.527754 224.318545 
L 405.672552 224.756287 
L 406.818555 222.224299 
L 407.963228 222.178928 
L 409.105826 218.972491 
L 410.2489 218.10702 
L 411.394381 209.712292 
L 412.536556 204.382885 
L 413.677505 204.725225 
L 414.815679 206.766916 
L 415.959432 213.438465 
L 417.101689 222.846344 
L 418.245139 226.130698 
L 420.530894 220.218705 
L 421.674664 219.753383 
L 422.821224 222.120893 
L 423.964549 221.294181 
L 425.106348 196.017231 
L 426.247474 226.580654 
L 427.393075 234.027103 
L 428.537964 223.238032 
L 429.681638 242.030417 
L 430.824557 223.254731 
L 431.947727 222.487151 
L 431.947727 222.487151 
" clip-path="url(#p321d8e0311)" style="fill: none; stroke: #ff7f0e; stroke-width: 1.5; stroke-linecap: square"/>
   </g>
   <g id="patch_9">
    <path d="M 52.85 303.64 
L 52.85 180.45 
" style="fill: none; stroke: #000000; stroke-width: 0.8; stroke-linejoin: miter; stroke-linecap: square"/>
   </g>
   <g id="patch_10">
    <path d="M 450 303.64 
L 450 180.45 
" style="fill: none; stroke: #000000; stroke-width: 0.8; stroke-linejoin: miter; stroke-linecap: square"/>
   </g>
   <g id="patch_11">
    <path d="M 52.85 303.64 
L 450 303.64 
" style="fill: none; stroke: #000000; stroke-width: 0.8; stroke-linejoin: miter; stroke-linecap: square"/>
   </g>
   <g id="patch_12">
    <path d="M 52.85 180.45 
L 450 180.45 
" style="fill: none; stroke: #000000; stroke-width: 0.8; stroke-linejoin: miter; stroke-linecap: square"/>
   </g>
   <g id="text_25">
    <!-- Time vs Current -->
    <g transform="translate(203.722187 174.45) scale(0.12 -0.12)">
     <use xlink:href="#DejaVuSans-54"/>
     <use xlink:href="#DejaVuSans-69" x="57.958984"/>
     <use xlink:href="#DejaVuSans-6d" x="85.742188"/>
     <use xlink:href="#DejaVuSans-65" x="183.154297"/>
     <use xlink:href="#DejaVuSans-20" x="244.677734"/>
     <use xlink:href="#DejaVuSans-76" x="276.464844"/>
     <use xlink:href="#DejaVuSans-73" x="335.644531"/>
     <use xlink:href="#DejaVuSans-20" x="387.744141"/>
     <use xlink:href="#DejaVuSans-43" x="419.53125"/>
     <use xlink:href="#DejaVuSans-75" x="489.355469"/>
     <use xlink:href="#DejaVuSans-72" x="552.734375"/>
     <use xlink:href="#DejaVuSans-72" x="592.097656"/>
     <use xlink:href="#DejaVuSans-65" x="630.960938"/>
     <use xlink:href="#DejaVuSans-6e" x="692.484375"/>
     <use xlink:href="#DejaVuSans-74" x="755.863281"/>
    </g>
   </g>
   <g id="legend_2">
    <g id="patch_13">
     <path d="M 59.85 218.3625 
L 140.765625 218.3625 
Q 142.765625 218.3625 142.765625 216.3625 
L 142.765625 187.45 
Q 142.765625 185.45 140.765625 185.45 
L 59.85 185.45 
Q 57.85 185.45 57.85 187.45 
L 57.85 216.3625 
Q 57.85 218.3625 59.85 218.3625 
z
" style="fill: #ffffff; opacity: 0.8; stroke: #cccccc; stroke-linejoin: miter"/>
    </g>
    <g id="line2d_36">
     <path d="M 61.85 193.548437 
L 71.85 193.548437 
L 81.85 193.548437 
" style="fill: none; stroke: #1f77b4; stroke-width: 1.5; stroke-linecap: square"/>
    </g>
    <g id="text_26">
     <!-- Current_1 -->
     <g transform="translate(89.85 197.048437) scale(0.1 -0.1)">
      <use xlink:href="#DejaVuSans-43"/>
      <use xlink:href="#DejaVuSans-75" x="69.824219"/>
      <use xlink:href="#DejaVuSans-72" x="133.203125"/>
      <use xlink:href="#DejaVuSans-72" x="172.566406"/>
      <use xlink:href="#DejaVuSans-65" x="211.429688"/>
      <use xlink:href="#DejaVuSans-6e" x="272.953125"/>
      <use xlink:href="#DejaVuSans-74" x="336.332031"/>
      <use xlink:href="#DejaVuSans-5f" x="375.541016"/>
      <use xlink:href="#DejaVuSans-31" x="425.541016"/>
     </g>
    </g>
    <g id="line2d_37">
     <path d="M 61.85 208.504687 
L 71.85 208.504687 
L 81.85 208.504687 
" style="fill: none; stroke: #ff7f0e; stroke-width: 1.5; stroke-linecap: square"/>
    </g>
    <g id="text_27">
     <!-- Current_2 -->
     <g transform="translate(89.85 212.004687) scale(0.1 -0.1)">
      <use xlink:href="#DejaVuSans-43"/>
      <use xlink:href="#DejaVuSans-75" x="69.824219"/>
      <use xlink:href="#DejaVuSans-72" x="133.203125"/>
      <use xlink:href="#DejaVuSans-72" x="172.566406"/>
      <use xlink:href="#DejaVuSans-65" x="211.429688"/>
      <use xlink:href="#DejaVuSans-6e" x="272.953125"/>
      <use xlink:href="#DejaVuSans-74" x="336.332031"/>
      <use xlink:href="#DejaVuSans-5f" x="375.541016"/>
      <use xlink:href="#DejaVuSans-32" x="425.541016"/>
     </g>
    </g>
   </g>
  </g>
 </g>
 <defs>
  <clipPath id="p788839ec60">
   <rect x="52.85" y="26.88" width="397.15" height="123.19"/>
  </clipPath>
  <clipPath id="p321d8e0311">
   <rect x="52.85" y="180.45" width="397.15" height="123.19"/>
  </clipPath>
 </defs>
</svg>
